
<svg xmlns="http://www.w3.org/2000/svg" version="1.1" xmlns:xlink="http://www.w3.org/1999/xlink" preserveAspectRatio="none" x="0px" y="0px" width="2000px" height="2000px" viewBox="0 0 2000 2000">
<defs>
<linearGradient id="Gradient_1" gradientUnits="userSpaceOnUse" x1="294.225" y1="294.275" x2="1695.6750000000002" y2="1695.725" spreadMethod="pad">
<stop  offset="0%" stop-color="#FF0F9C"/>

<stop  offset="2.3529411764705883%" stop-color="#FF0F9C"/>

<stop  offset="100%" stop-color="#27C3FF"/>
</linearGradient>

<g id="Layer2_0_FILL">
<path fill="url(#Gradient_1)" stroke="none" d="
M 1510.1 1727.3
Q 1507.45 1727.9 1508.05 1730.55 1528 1779.35 1535.65 1802.6
L 1544.8 1834.8
Q 1570.25 1817.7 1595 1798.85 1588.1 1791.4 1582 1784.9
L 1539.55 1739.15
Q 1539.1 1738.4 1537.75 1738.7
L 1557.8 1766.65
Q 1559.25 1768.25 1552.9 1766.15 1541.85 1755.7 1514.9 1728.4 1512.8 1726.6 1510.1 1727.3
M 545.65 512
Q 508.55 470 454.85 408.1 400.9 346 330.25 263.85 313.1 279.6 296.35 296.3 5.05 587.8 5.05 999.95 5.05 1412.15 296.35 1703.55 587.85 1995 1000 1995 1271.6 1995 1490.75 1868.45 1468.7 1822.65 1444.4 1772.8 1441.1 1766 1437.75 1759.15 1436.25 1759.35 1434.75 1759.5 1429.65 1759.95 1424.5 1759.25 1421.45 1758.5 1421.85 1762.45
L 1425.8 1775.35 1423.3 1777.95
Q 1405.45 1744.95 1383.05 1688.2 1379.3 1678.65 1375.4 1668.4
L 1371.3 1664.3
Q 1369.55 1663.95 1369.4 1664.5
L 1368 1670.45
Q 1363.5 1676.35 1350.15 1673.95
L 1351.5 1649 1351.65 1648.4
Q 1347.35 1650.55 1338.95 1648.6 1307.85 1641.45 1278.55 1582.3 1201.85 1506.45 1168.6 1481.8
L 1159.8 1473.45
Q 1154.8 1470.45 1153.7 1475.25
L 1147.9 1500.4
Q 1142.25 1505.5 1127.3 1507.6 1118.05 1490.4 1115.65 1424.15 1114.45 1377.2 1068.1 1351.35 1062.7 1360.85 1067.05 1342.3 1069.4 1332.05 1074 1333.75
L 1075.8 1334.2
Q 1029.55 1308.95 963.45 1274.15 951.5 1271.4 949.3 1264.6 942.05 1249.65 932.9 1240
L 930.25 1234.95 929.95 1233.65
Q 927.55 1227.4 943.15 1231 946.75 1231.8 1063.8 1312.5
L 1061.95 1309.5
Q 1075.2 1306.9 1111 1318.35
L 1116.15 1320.15 1103.05 1302.05
Q 1077.3 1276.75 1023.65 1226.85 959.05 1164.25 969.35 1117.65 969.4 1117.4 969.45 1117.15 971.8 1106.95 909.95 1019.5 872.35 975.45 847.75 944.55 839.95 937.15 830.55 926.3 795.75 886.2 738.15 798.85 726.95 781.85 714.85 763.1 568.85 538.55 545.65 512
M 1345.65 321.2
Q 1351.4 318.7 1355.8 318.5 1390 445.15 1396.3 473.6 1403.85 513.95 1406.3 537.15
L 1407.75 546.95
Q 1409.05 552.35 1411.1 549 1415.3 541.75 1419.7 539 1422.35 535.7 1420.25 544.75
L 1408.85 599.6
Q 1408.55 617.15 1406.05 631.1 1400.95 660.9 1396.35 716.55
L 1405.05 717.3
Q 1407.25 726.7 1406.55 732.8 1406.2 737.1 1402.95 750.95 1399 768.1 1389.15 794.4
L 1385.4 835.2
Q 1385.55 837.2 1387.95 837.7 1389.75 838.15 1390.8 836.45 1398.85 823.4 1402.4 810.75 1402.75 806.55 1402.6 804.45 1403.25 801.45 1405.7 802
L 1411.75 800.3
Q 1417.6 797.2 1424.25 798.15 1425.8 802.2 1428.35 802.2 1428.85 803 1426.45 813.15 1422.7 829.45 1360.3 957.55
L 1360.2 968.85
Q 1359.5 971.9 1365.65 964.4
L 1383.7 940.85
Q 1409.65 905.1 1417.5 876.65
L 1429.3 877.5
Q 1430.8 895.45 1426.35 914.7 1425.2 919.6 1395.2 983.9 1378.2 1016.65 1368.55 1039.55
L 1369.3 1049.8
Q 1368.3 1054.05 1371.95 1049.15 1375.65 1042.5 1378.35 1038 1396.4 1013.5 1412.2 997.9 1432.6 1013.35 1425.25 1042.55 1423.65 1049.2 1412.1 1074.85 1411.65 1076.7 1406.2 1084.25 1403.25 1088.6 1407.4 1089.55
L 1416.1 1090.3
Q 1424.6 1091.65 1431.45 1095.1 1431.85 1107.25 1427.2 1126.95 1425.2 1135.85 1408.4 1175.6
L 1408.1 1176.8 1413.1 1179.85 1413.4 1178.65
Q 1417.15 1162.5 1447.6 1125.95 1458.3 1113.9 1465.35 1106.7 1464.9 1110.7 1464.15 1114.65 1435.6 1149.05 1418.15 1185.4 1429.5 1193.75 1441.15 1203.35 1446.7 1198.05 1455.4 1190.85 1453.85 1221.65 1454.85 1253.2 1422.8 1291.4 1415.2 1337.45 1405 1328.1 1398.4 1322.85 1390.65 1315.4 1389.5 1342.25 1388.1 1405.65 1393.1 1474.35 1394.05 1490.6 1395.55 1504.6 1399.2 1508.65 1402.25 1511.15 1427.1 1536 1462 1583 1463.15 1584.8 1483.55 1612.6
L 1499.45 1633.95
Q 1519.35 1661.35 1544.55 1695.45
L 1551.65 1705.9
Q 1562.55 1720 1574.15 1737 1573.1 1736.15 1571.85 1735.85
L 1572.25 1736.5
Q 1571.8 1735.85 1571.25 1735.7
L 1554.5 1723.65
Q 1550.55 1721.45 1557.1 1728.6
L 1589.7 1765.2
Q 1598 1775.25 1608.3 1788.5 1657.4 1749.65 1703.55 1703.55 1995 1412.15 1995 999.95 1995 587.8 1703.55 296.3 1412.2 5 1000 5 632.25 5 360.6 236.9 378 255.85 396.7 276.95 400.25 280.95 404.05 286.2
L 418.4 289.5
Q 429.3 292.05 481.1 359.5 586.25 461.25 663 591.4 681 621.05 705.75 665.65 757 689.5 829.8 795.3 874 859.45 945.95 981.1 990.15 1036.25 1031.95 1084.3 1037.45 1090.65 1043.45 1094.5 1049.95 1099.2 1048.25 1093.1
L 1027.15 1025.7
Q 1030.45 1011.4 1038.15 1008.1 1042.05 1007.75 1041.75 1008.95 1039.6 1010.3 1038.15 1016.3 1033.2 1037.8 1049.55 1070.7
L 1072.05 1115.6
Q 1073.85 1118.55 1077.15 1126.25 1080.35 1131.4 1080 1127.55
L 1077.35 1081.5
Q 1072.95 1040.6 1077.3 1027.2 1085.4 1019.6 1094.65 1020.5 1110.15 1057.8 1129.25 1130.1 1142.55 1184 1155.05 1220.65
L 1159.65 1225.45 1160 1223.65 1157.75 1211.75
Q 1151.5 1189.45 1158.7 1172.2 1159.05 1170.55 1160.65 1168.9 1163.9 1165.9 1174.7 1168.35 1184.35 1170.6 1218.85 1283.3
L 1237.35 1301.45
Q 1240.85 1305.4 1243.35 1302.85 1247.75 1297.55 1259.75 1294.65
L 1284.1 1339.4
Q 1285.85 1342.15 1288.35 1348.55 1290.6 1352.25 1293.3 1349.05 1295.9 1342.85 1307.9 1332.25 1307.45 1298.65 1307.9 1258.45 1274.55 1246.3 1226.4 1231.4 1226.7 1216.3 1229.25 1205.55 1233.1 1202.6 1268.5 1207.7 1276.35 1208.9 1283.6 1210.5
L 1283.7 1209.9
Q 1286.75 1196.85 1309.8 1135.15
L 1312.55 1096.05
Q 1312.4 1088.4 1304.8 1105
L 1276.25 1157.75 1269.45 1159.9
Q 1263.45 1158.55 1265.4 1152.7 1269.1 1144.8 1269.8 1139.15 1272.9 1114.5 1293.75 1051.95
L 1294.55 1048.35
Q 1288.5 1052.65 1277.5 1053.85 1270.9 1049.8 1269.75 1046.45 1268.8 1042.4 1271.65 1029.8 1286.1 967.45 1319.5 836.4 1327.25 804.7 1339.1 757 1336.5 729.9 1335.35 715.75 1330.5 652 1354.15 549.7 1362.15 514.95 1340.65 438.7 1338.95 431.65 1301.15 317.25 1289.7 295.6 1285.4 287.1 1278 272.8 1290.55 275.65 1296 273.8 1300.85 274.9 1318.8 314.25 1330.2 380.15
L 1334.1 382.25
Q 1332.6 372.55 1336 354.95 1340.1 334.55 1341.55 322.75
L 1345.65 321.2
M 1527.25 1634
L 1524.75 1636.6
Q 1520 1640.6 1508.65 1637.95 1507.9 1637.8 1500.3 1613.95 1512.6 1625.4 1527.25 1634
M 1114.75 1283.25
L 1110.8 1272.85
Q 1102.1 1260.7 1093.4 1249.9
L 1056.1 1214.8
Q 1030.15 1192.8 1012.3 1176.95
L 1028.4 1199.1
Q 1037.75 1208.9 1048.6 1220
L 1104.4 1273.25
Q 1116.45 1286.05 1114.75 1283.25 Z"/>

<path fill="#FFFFFF" stroke="none" d="
M 1524.75 1636.6
L 1527.25 1634
Q 1512.6 1625.4 1500.3 1613.95 1507.9 1637.8 1508.65 1637.95 1520 1640.6 1524.75 1636.6
M 1355.8 318.5
Q 1351.4 318.7 1345.65 321.2
L 1341.55 322.75
Q 1340.1 334.55 1336 354.95 1332.6 372.55 1334.1 382.25
L 1330.2 380.15
Q 1318.8 314.25 1300.85 274.9 1296 273.8 1290.55 275.65 1278 272.8 1285.4 287.1 1289.7 295.6 1301.15 317.25 1338.95 431.65 1340.65 438.7 1362.15 514.95 1354.15 549.7 1330.5 652 1335.35 715.75 1336.5 729.9 1339.1 757 1327.25 804.7 1319.5 836.4 1286.1 967.45 1271.65 1029.8 1268.8 1042.4 1269.75 1046.45 1270.9 1049.8 1277.5 1053.85 1288.5 1052.65 1294.55 1048.35
L 1293.75 1051.95
Q 1272.9 1114.5 1269.8 1139.15 1269.1 1144.8 1265.4 1152.7 1263.45 1158.55 1269.45 1159.9
L 1276.25 1157.75 1304.8 1105
Q 1312.4 1088.4 1312.55 1096.05
L 1309.8 1135.15
Q 1286.75 1196.85 1283.7 1209.9
L 1283.6 1210.5
Q 1276.35 1208.9 1268.5 1207.7 1233.1 1202.6 1229.25 1205.55 1226.7 1216.3 1226.4 1231.4 1274.55 1246.3 1307.9 1258.45 1307.45 1298.65 1307.9 1332.25 1295.9 1342.85 1293.3 1349.05 1290.6 1352.25 1288.35 1348.55 1285.85 1342.15 1284.1 1339.4
L 1259.75 1294.65
Q 1247.75 1297.55 1243.35 1302.85 1240.85 1305.4 1237.35 1301.45
L 1218.85 1283.3
Q 1184.35 1170.6 1174.7 1168.35 1163.9 1165.9 1160.65 1168.9 1159.05 1170.55 1158.7 1172.2 1151.5 1189.45 1157.75 1211.75
L 1160 1223.65 1159.65 1225.45 1155.05 1220.65
Q 1142.55 1184 1129.25 1130.1 1110.15 1057.8 1094.65 1020.5 1085.4 1019.6 1077.3 1027.2 1072.95 1040.6 1077.35 1081.5
L 1080 1127.55
Q 1080.35 1131.4 1077.15 1126.25 1073.85 1118.55 1072.05 1115.6
L 1049.55 1070.7
Q 1033.2 1037.8 1038.15 1016.3 1039.6 1010.3 1041.75 1008.95 1042.05 1007.75 1038.15 1008.1 1030.45 1011.4 1027.15 1025.7
L 1048.25 1093.1
Q 1049.95 1099.2 1043.45 1094.5 1037.45 1090.65 1031.95 1084.3 990.15 1036.25 945.95 981.1 874 859.45 829.8 795.3 757 689.5 705.75 665.65 681 621.05 663 591.4 586.25 461.25 481.1 359.5 429.3 292.05 418.4 289.5
L 404.05 286.2
Q 400.25 280.95 396.7 276.95 378 255.85 360.6 236.9 360.4 237.1 360.15 237.3
L 330.25 263.85
Q 400.9 346 454.85 408.1 508.55 470 545.65 512 568.85 538.55 714.85 763.1 726.95 781.85 738.15 798.85 795.75 886.2 830.55 926.3 839.95 937.15 847.75 944.55 872.35 975.45 909.95 1019.5 971.8 1106.95 969.45 1117.15 969.4 1117.4 969.35 1117.65 959.05 1164.25 1023.65 1226.85 1077.3 1276.75 1103.05 1302.05
L 1116.15 1320.15 1111 1318.35
Q 1075.2 1306.9 1061.95 1309.5
L 1063.8 1312.5
Q 946.75 1231.8 943.15 1231 927.55 1227.4 929.95 1233.65
L 930.25 1234.95 932.9 1240
Q 942.05 1249.65 949.3 1264.6 951.5 1271.4 963.45 1274.15 1029.55 1308.95 1075.8 1334.2
L 1074 1333.75
Q 1069.4 1332.05 1067.05 1342.3 1062.7 1360.85 1068.1 1351.35 1114.45 1377.2 1115.65 1424.15 1118.05 1490.4 1127.3 1507.6 1142.25 1505.5 1147.9 1500.4
L 1153.7 1475.25
Q 1154.8 1470.45 1159.8 1473.45
L 1168.6 1481.8
Q 1201.85 1506.45 1278.55 1582.3 1307.85 1641.45 1338.95 1648.6 1347.35 1650.55 1351.65 1648.4
L 1351.5 1649 1350.15 1673.95
Q 1363.5 1676.35 1368 1670.45
L 1369.4 1664.5
Q 1369.55 1663.95 1371.3 1664.3
L 1375.4 1668.4
Q 1379.3 1678.65 1383.05 1688.2 1405.45 1744.95 1423.3 1777.95
L 1425.8 1775.35 1421.85 1762.45
Q 1421.45 1758.5 1424.5 1759.25 1429.65 1759.95 1434.75 1759.5 1436.25 1759.35 1437.75 1759.15 1441.1 1766 1444.4 1772.8 1468.7 1822.65 1490.75 1868.45 1516.3 1853.7 1541.1 1837.25 1542.95 1836 1544.8 1834.8
L 1535.65 1802.6
Q 1528 1779.35 1508.05 1730.55 1507.45 1727.9 1510.1 1727.3 1512.8 1726.6 1514.9 1728.4 1541.85 1755.7 1552.9 1766.15 1559.25 1768.25 1557.8 1766.65
L 1537.75 1738.7
Q 1539.1 1738.4 1539.55 1739.15
L 1582 1784.9
Q 1588.1 1791.4 1595 1798.85 1601.7 1793.7 1608.3 1788.5 1598 1775.25 1589.7 1765.2
L 1557.1 1728.6
Q 1550.55 1721.45 1554.5 1723.65
L 1571.25 1735.7
Q 1571.8 1735.85 1572.25 1736.5
L 1571.85 1735.85
Q 1573.1 1736.15 1574.15 1737 1562.55 1720 1551.65 1705.9
L 1544.55 1695.45
Q 1519.35 1661.35 1499.45 1633.95
L 1483.55 1612.6
Q 1463.15 1584.8 1462 1583 1427.1 1536 1402.25 1511.15 1399.2 1508.65 1395.55 1504.6 1394.05 1490.6 1393.1 1474.35 1388.1 1405.65 1389.5 1342.25 1390.65 1315.4 1398.4 1322.85 1405 1328.1 1415.2 1337.45 1422.8 1291.4 1454.85 1253.2 1453.85 1221.65 1455.4 1190.85 1446.7 1198.05 1441.15 1203.35 1429.5 1193.75 1418.15 1185.4 1435.6 1149.05 1464.15 1114.65 1464.9 1110.7 1465.35 1106.7 1458.3 1113.9 1447.6 1125.95 1417.15 1162.5 1413.4 1178.65
L 1413.1 1179.85 1408.1 1176.8 1408.4 1175.6
Q 1425.2 1135.85 1427.2 1126.95 1431.85 1107.25 1431.45 1095.1 1424.6 1091.65 1416.1 1090.3
L 1407.4 1089.55
Q 1403.25 1088.6 1406.2 1084.25 1411.65 1076.7 1412.1 1074.85 1423.65 1049.2 1425.25 1042.55 1432.6 1013.35 1412.2 997.9 1396.4 1013.5 1378.35 1038 1375.65 1042.5 1371.95 1049.15 1368.3 1054.05 1369.3 1049.8
L 1368.55 1039.55
Q 1378.2 1016.65 1395.2 983.9 1425.2 919.6 1426.35 914.7 1430.8 895.45 1429.3 877.5
L 1417.5 876.65
Q 1409.65 905.1 1383.7 940.85
L 1365.65 964.4
Q 1359.5 971.9 1360.2 968.85
L 1360.3 957.55
Q 1422.7 829.45 1426.45 813.15 1428.85 803 1428.35 802.2 1425.8 802.2 1424.25 798.15 1417.6 797.2 1411.75 800.3
L 1405.7 802
Q 1403.25 801.45 1402.6 804.45 1402.75 806.55 1402.4 810.75 1398.85 823.4 1390.8 836.45 1389.75 838.15 1387.95 837.7 1385.55 837.2 1385.4 835.2
L 1389.15 794.4
Q 1399 768.1 1402.95 750.95 1406.2 737.1 1406.55 732.8 1407.25 726.7 1405.05 717.3
L 1396.35 716.55
Q 1400.95 660.9 1406.05 631.1 1408.55 617.15 1408.85 599.6
L 1420.25 544.75
Q 1422.35 535.7 1419.7 539 1415.3 541.75 1411.1 549 1409.05 552.35 1407.75 546.95
L 1406.3 537.15
Q 1403.85 513.95 1396.3 473.6 1390 445.15 1355.8 318.5
M 1110.8 1272.85
L 1114.75 1283.25
Q 1116.45 1286.05 1104.4 1273.25
L 1048.6 1220
Q 1037.75 1208.9 1028.4 1199.1
L 1012.3 1176.95
Q 1030.15 1192.8 1056.1 1214.8
L 1093.4 1249.9
Q 1102.1 1260.7 1110.8 1272.85 Z"/>
</g>
</defs>

<g id="Ebene_2">
<g transform="matrix( 1, 0, 0, 1, 0,0) ">
<use xlink:href="#Layer2_0_FILL"/>
</g>
</g>

<g id="Layer_1"/>

<g id="Ebene_3"/>
</svg>
