<?xml version="1.0" encoding="utf-8"?>
<!-- Generator: Adobe Illustrator 15.1.0, SVG Export Plug-In . SVG Version: 6.00 Build 0)  -->
<!DOCTYPE svg PUBLIC "-//W3C//DTD SVG 1.1//EN" "http://www.w3.org/Graphics/SVG/1.1/DTD/svg11.dtd">
<svg version="1.1" id="Ebene_1" xmlns="http://www.w3.org/2000/svg" xmlns:xlink="http://www.w3.org/1999/xlink" x="0px" y="0px"
	 width="512px" height="512px" viewBox="0 0 512 512" enable-background="new 0 0 512 512" xml:space="preserve">
<path fill="#FFFFFF" d="M404.934,169.07c-0.004,0.03-0.014,0.062-0.032,0.094c0.376-0.342,0.743-0.679,1.104-1.009l1.199-1.042
	h-0.031c0.897-0.772,1.77-1.509,2.618-2.208c-0.147-2.019-0.693-4.28-1.641-6.783c-10.139,6.563-25.534,16.133-46.189,28.711
	c-0.476,0.289-0.948,0.573-1.42,0.852c-7.037,4.344-13.631,8.804-19.781,13.377c0-0.084-0.043-0.126-0.127-0.126v0.726
	c-6.835,5.006-13.188,9.949-19.057,14.829c-1.43-0.757-2.587-0.894-3.47-0.41c-1.831,0.799-3.25,3.239-4.26,7.32
	c-0.21-1.22-0.988-3.492-2.335-6.815c-1.156,10.012-2.271,15.018-3.344,15.018c-0.337,0-0.715-0.095-1.136-0.284v6.783
	c0.084,0.274,0.221,0.579,0.409,0.915c0.421-0.82,0.663-1.356,0.727-1.609c0,0.462-0.032,0.999-0.095,1.609l-0.221-0.094
	c-0.063,0-0.2,0.031-0.411,0.094c-0.063,0-0.199,0.105-0.409,0.316v1.703c-0.189-0.189-0.39-0.315-0.6-0.378
	c-0.337,1.556-0.337,2.734,0,3.533c0,0.147,0.199,0.484,0.6,1.01v0.505l1.64,0.82c0.337-0.274,0.705-0.505,1.104-0.694l-0.284,1.01
	c-0.883-0.21-1.703-0.21-2.46,0v-0.915c-2.503,0.21-5.574,0.547-9.213,1.01l4.543,1.419h-5.679l-0.189,0.221v0.378
	c-1.031-2.083-2.188-4.417-3.471-7.004c-3.028-6.626-6.036-9.938-9.023-9.938c-3.597,0-7.077,0.547-10.442,1.641
	c-0.947,0.252-1.799,0.621-2.557,1.104c-0.399-0.063-0.673-0.094-0.82-0.094c-0.252-0.421-0.515-0.757-0.788-1.01
	c-4.606-5.49-7.93-11.348-9.97-17.574c-0.274-1.157-0.505-2.24-0.694-3.25c2.104-6.289,3.523-12.147,4.26-17.574l-0.506-0.189
	c-0.483-0.21-1.03-0.147-1.641,0.189c-0.462-0.883-0.693-4.27-0.693-10.159h-0.315c0.21-6.289,0.315-13.692,0.315-22.211
	c0-3.323-0.716-14.766-2.146-34.327c-0.463-6.289-0.862-11.6-1.199-15.933c-0.547-0.399-1.062-0.768-1.546-1.104
	c-0.8,1.009-1.714,1.914-2.745,2.713c-0.862,6.773-1.977,17.269-3.344,31.487c-2.292,23.684-3.439,37.86-3.439,42.53
	c0,0.82,0.105,1.935,0.315,3.344c-0.21,2.313-0.315,4.385-0.315,6.215v0.189c0,0.147,0,0.252,0,0.315v0.505
	c0,1.283,0.031,2.093,0.095,2.429h0.221c0.189,1.62,0.558,3.786,1.104,6.5c-0.883,0.82-1.798,1.798-2.745,2.934l2.019,1.009
	c-0.189,0.884-0.389,1.841-0.6,2.872l-0.095,0.189v0.095c-0.147,0.421-0.221,0.831-0.221,1.23c-1.62,5.343-3.912,12.01-6.878,20.003
	c-1.704,4.606-1.841,7.478-0.41,8.613c-0.484,0.757-0.862,1.609-1.136,2.556v0.41c-1.136,1.346-2.145,2.797-3.029,4.354
	c-1.829,1.683-3.386,3.512-4.669,5.49c-0.273,0.462-0.516,0.861-0.726,1.198c-0.883-0.946-2.134-2.335-3.754-4.165h-5.773
	c0-0.273-0.032-0.505-0.095-0.694v0.694h-1.136l-0.789-3.124c-0.084-0.21-0.158-0.347-0.221-0.41
	c-0.21-0.063-0.484,0.379-0.82,1.325v-1.641l-0.094-0.095h-5.585l4.48-1.419c-0.61-0.147-1.157-0.221-1.641-0.221
	c-0.946-0.189-1.893-0.315-2.839-0.378v-5.08c-1.956-0.484-3.712-0.757-5.269-0.82c-0.147-0.21-0.284-0.316-0.411-0.316
	l-0.094,0.316c-0.147-0.82-0.221-1.462-0.221-1.925c0.147,0.273,0.39,0.915,0.726,1.925c0.673-1.62,1.009-2.503,1.009-2.65
	c0.4-1.493,0.4-3.555,0-6.184c-0.484,0.821-1.062,1.231-1.735,1.231c-1.009,0-2.093-5.048-3.249-15.145
	c-1.347,3.323-2.125,5.626-2.335,6.91c-1.073-3.934-2.524-6.468-4.354-7.604c-0.82-0.274-1.967-0.147-3.439,0.378
	c-5.889-4.795-12.22-9.728-18.993-14.797v-0.41c-0.147,0-0.221,0.094-0.221,0.284c-6.479-4.795-13.546-9.591-21.202-14.387
	c-20.571-12.599-35.968-22.18-46.189-28.742c-0.947,2.376-1.452,4.606-1.515,6.688c1.556,1.283,3.176,2.671,4.859,4.165
	c-0.227-0.263-0.448-0.494-0.663-0.694l6.341,5.679c9.886,8.855,17.668,16.743,23.348,23.663
	c6.163,4.522,12.462,10.033,18.898,16.532c3.913,4.27,9.634,10.127,17.164,17.573c2.229,2.503,4.627,5.038,7.194,7.604
	c-1.893-0.063-2.945-0.094-3.155-0.094l0.126,1.514c1.072,0.21,2.556,0.315,4.449,0.315c1.83,1.83,3.891,3.892,6.184,6.184
	c-0.063,0.673-0.2,1.251-0.411,1.735c0.421-0.21,0.905-0.379,1.452-0.505c0.125-0.147,0.221-0.221,0.283-0.221
	c1.494-1.22,3.155-2.84,4.985-4.859c0.063,0,0.126,0,0.189,0c0.147,0.063,0.253,0.2,0.316,0.41c0.61,1.557,1.02,2.334,1.23,2.334
	l0.694-1.641c-0.673-0.273-1.42-0.747-2.24-1.419c0.421-0.463,0.832-0.831,1.231-1.104c3.723,1.683,6.594,3.166,8.613,4.449
	l1.325-0.505c0,0.147-0.063,0.42-0.189,0.82c-2.566-0.547-6.258,0.431-11.074,2.934c-0.946,0.673-1.893,1.146-2.839,1.42h13.692
	c0,0.694,0,1.409,0,2.145c-0.126,0.673-0.189,1.347-0.189,2.02c-1.893-0.525-3.081-0.789-3.564-0.789
	c0,0.674,0.378,1.957,1.136,3.85h-11.074c-3.826,0.848-7.57,1.048-11.232,0.599v-0.031v0.031c-0.425-0.057-0.846-0.12-1.262-0.188
	l-0.094,0.915c0.271,0.247,0.649,0.479,1.136,0.693c-0.543,3.95-1.059,7.978-1.546,12.084c-0.336,3.66-0.536,6.742-0.6,9.245
	c-0.21-0.147-0.347-0.222-0.41-0.222c-0.21-0.252-0.316-0.589-0.316-1.009c0.484-2.63,0.726-4.249,0.726-4.859
	c0.063-0.336-0.62-0.715-2.051-1.136c-1.893-0.253-3.271,0.6-4.133,2.556c-0.273-0.273-0.579-0.516-0.916-0.726
	c-0.82-0.799-1.977-1.367-3.47-1.703c-0.547-0.085-1.493,0.651-2.84,2.208v1.735c-0.399,0.336-0.81,0.746-1.229,1.229
	c-0.063-0.21-0.19-0.451-0.379-0.725l-3.249-1.104c0.125-0.273,0.431-0.516,0.915-0.726c-0.084-0.884-0.126-1.524-0.126-1.925
	c-0.463-0.547-1.473-1.051-3.029-1.515c-1.009-0.273-2.839-0.578-5.489-0.914c-2.566-0.337-4.491-0.673-5.774-1.011l-0.315,0.915
	c0.126,0.189,0.294,0.453,0.504,0.789l-3.249-1.104l-0.19,1.01c1.22,0.484,2.503,1.095,3.85,1.83
	c0.273,0.547,0.579,1.431,0.915,2.65c-1.22,0-2.472,0.094-3.754,0.284c-2.987,0.757-4.922,1.366-5.806,1.829
	c1.157,0.211,2.756,0.348,4.795,0.411c-2.166,0.21-4.638,0.546-7.414,1.009c-8.876,1.642-13.377,2.461-13.503,2.461v0.6
	c0,0.484,0.231,0.852,0.694,1.104c-1.073,0.337-2.082,0.684-3.029,1.041c-0.483-0.084-0.894-0.021-1.23,0.189
	c-4.186,0.483-7.53,1.535-10.033,3.154c-17.122,5.133-27.281,8.109-30.478,8.93c-13.924,2.629-24.441,4.722-31.55,6.278
	c-12.936,2.986-22.748,6.479-29.437,10.475l-0.631,0.284c-0.063,0,0.01,0.105,0.221,0.315c-0.21-0.063-0.378-0.063-0.505,0
	c0.463,0.946,0.894,1.966,1.293,3.06c6.836-1.094,13.809-2.219,20.918-3.375c38.996-5.532,70.841-10.938,95.534-16.218
	c-0.462,0.189-0.831,0.326-1.104,0.411c2.567,1.009,6.899,0.662,12.999-1.042c0.737-0.063,2.629-0.536,5.679-1.419
	c0.189,0,0.463-0.095,0.82-0.284c1.809-0.484,3.965-1.094,6.468-1.83l0.221-0.915c-0.757,0-1.735,0.063-2.934,0.189
	c0.126-0.189,0.357-0.284,0.694-0.284c0.274-0.21,0.547-0.347,0.82-0.41l0.411-1.01c0.525-0.483,0.925-0.968,1.199-1.451
	c0.883-0.862,2.072-1.977,3.565-3.344c0.4,0.483,0.905,0.998,1.515,1.546l0.41-4.07v3.155c1.22,0.736,2.503,1.409,3.85,2.02
	c0.883,0.21,3.765,0.788,8.645,1.734c0.799,0.063,2.556,0.158,5.269,0.284c1.704,1.894,3.87,3.113,6.5,3.66h0.095
	c3.597,0.61,8.645-0.137,15.144-2.24c0.883-0.189,1.798-0.494,2.745-0.915c2.419-0.799,5.364-1.978,8.834-3.534
	c-1.304,1.746-2.188,3.135-2.65,4.165l0.189,0.095c-1.473,1.62-3.597,3.986-6.374,7.099c-0.483,0-0.925,0-1.325,0
	c0.546-0.799,1.052-1.545,1.514-2.24l-1.01-0.188c-0.21,0.063-0.315,0.673-0.315,1.83c-0.126,0.125-0.189,0.263-0.189,0.409
	c-0.063,0-0.137,0.063-0.221,0.189c-2.166-0.126-4.059-0.094-5.679,0.095c-0.063,0-0.158,0-0.283,0
	c-0.547,0.21-1.031,0.347-1.452,0.411c0.274,0.21,0.579,0.483,0.915,0.819c-1.346,2.44-2.555,4.712-3.628,6.815
	c-0.21,0.126-0.421,0.294-0.631,0.504c-0.126,0.337-0.389,0.842-0.789,1.515c0.189-0.21,0.39-0.347,0.6-0.41
	c-1.494,2.777-2.85,5.521-4.07,8.234c-4.522,8.12-7.908,14.44-10.159,18.963c-3.723,6.982-7.646,13.419-11.769,19.309
	c-2.966,6.898-9.854,18.835-20.666,35.81l2.998-3.913c-0.93,1.829-1.771,3.312-2.524,4.449c0.674,1.22,1.725,2.229,3.155,3.029
	c7.025-9.192,17.71-22.959,32.055-41.3c5.28-6.772,10.086-13.272,14.419-19.498c0.063,0.063,0.168,0.095,0.315,0.095l-0.221-0.41
	c4.48-6.437,8.582-12.589,12.305-18.457c1.409-0.547,2.461-1.126,3.155-1.735c1.283-1.619,1.851-3.786,1.704-6.499
	c0.421,0.609,1.746,1.451,3.975,2.523c-1.83-6.016-2.334-9.359-1.514-10.033c0.673-0.336,1.314-0.441,1.924-0.315
	c-0.421-1.619-0.967-2.671-1.641-3.155c-0.063-0.188-0.568-0.494-1.515-0.914c-0.21,0.757-0.315,1.198-0.315,1.325
	c-0.126-0.189-0.221-0.526-0.284-1.01h0.095c0.126,0,0.294-0.105,0.504-0.315c1.62-1.199,3.545-2.756,5.774-4.67
	c0.757-0.525,1.504-1.031,2.24-1.515c0.147-0.063,0.252-0.094,0.315-0.094c0.189,0.21,0.389,0.409,0.6,0.6
	c1.557,1.703,2.397,2.345,2.524,1.924c0.147,0,0.221-0.168,0.221-0.505l-0.915-3.029l-1.514,0.411
	c2.292-1.557,4.459-3.323,6.5-5.301c1.683,2.313,3.775,4.207,6.278,5.679c1.093,2.04,2.313,4.417,3.66,7.131
	c4.123,8.581,8.487,12.872,13.094,12.872c1.094,0,1.977,0,2.65,0c0.736-0.063,1.346-0.157,1.83-0.284
	c1.282-0.272,2.565-0.957,3.85-2.051v-0.188c1.682-1.62,3.911-5.175,6.688-10.664c1.703-3.239,3.333-6.553,4.89-9.938
	c1.83-1.43,3.313-3.365,4.448-5.806c2.104,3.534,4.008,6.143,5.711,7.824c0.946,1.094,1.893,1.978,2.84,2.65
	c0.862,1.557,1.535,3.587,2.019,6.09c0.736,2.02,2.262,4.017,4.575,5.994c0.61-0.884,1.178-1.63,1.704-2.239
	c-0.253,1.619-0.852,4.059-1.799,7.319c2.229-1.094,3.513-1.872,3.85-2.335c-0.063,2.629,0.515,4.753,1.735,6.373
	c0.673,0.673,1.745,1.252,3.218,1.735c3.723,5.826,7.824,12.021,12.305,18.583l-0.221,0.284c0.147,0,0.253-0.063,0.315-0.189
	c4.332,6.352,9.139,12.883,14.418,19.593c14.345,18.278,25.041,32.055,32.087,41.331c1.409-0.82,2.45-1.809,3.124-2.966
	c-0.946-1.473-1.957-3.123-3.029-4.953c0.211,0.525,0.441,0.998,0.694,1.419c-0.42-0.52-0.84-1.035-1.262-1.546l-2.871-5.584
	c-6.163-10.285-10.737-18.847-13.725-25.682c-4.123-5.89-8.077-12.347-11.863-19.372c-2.166-4.48-5.521-10.779-10.064-18.899
	c-1.283-2.692-2.64-5.426-4.069-8.203c1.556,1.137,2.439,1.778,2.649,1.926l0.221-0.915c-0.757-0.673-1.977-1.588-3.659-2.746
	c-1.094-1.955-2.314-4.259-3.66-6.908c0.273-0.19,0.578-0.358,0.915-0.506c-0.399-0.125-0.904-0.326-1.515-0.599
	c-0.084,0-0.188,0-0.315,0c-1.62-0.211-3.48-0.284-5.585-0.222c-0.063-0.063-0.168-0.094-0.315-0.094
	c0-0.063-0.031-0.168-0.094-0.315c0-1.137-0.105-1.735-0.315-1.799l-1.01,0.284c0.483,0.673,0.956,1.314,1.419,1.924
	c-0.399,0-0.841,0-1.324,0c-2.756-3.028-4.849-5.457-6.279-7.288l-2.934-0.726c-1.22-1.829-2.304-3.491-3.25-4.984
	c5.069,2.377,9.224,4.144,12.463,5.3c1.03,0.273,1.945,0.579,2.744,0.915c1.83,0.463,3.523,0.968,5.08,1.515
	c-0.399,2.377-0.263,3.996,0.41,4.859c0.399,0.42,1.725,0.725,3.975,0.914c1.137,5.153,3.397,9.224,6.784,12.211
	c2.986,2.691,6.236,4.038,9.749,4.038c1.62,0,3.513-0.441,5.679-1.325c1.704,0.884,3.534,1.325,5.49,1.325
	c1.43,0,3.597-1.115,6.499-3.345c2.986-2.229,4.48-4.195,4.48-5.899l-0.222-10.349c-0.063,0-0.336,0-0.819,0
	c0-0.884-0.063-1.661-0.189-2.335c1.956,0.483,3.649,0.999,5.079,1.546c0.273,0.126,0.505,0.189,0.694,0.189
	c3.113,0.884,5.048,1.388,5.805,1.515c6.079,1.619,10.412,1.956,13,1.009c-0.274-0.188-0.653-0.389-1.137-0.599
	c24.715,5.342,56.528,10.759,95.439,16.248c2.966,0.463,5.911,0.968,8.834,1.515c4.123,0.673,8.183,1.314,12.179,1.924
	c0.337-1.072,0.747-2.082,1.23-3.028c-0.084-0.21-0.221-0.21-0.41,0c0.189-0.273,0.221-0.41,0.095-0.41l-0.505-0.315
	c-3.449-2.02-7.646-3.881-12.589-5.585c-4.879-1.745-10.495-3.333-16.847-4.764c-7.11-1.619-17.637-3.713-31.583-6.278
	c-3.176-0.82-13.324-3.808-30.446-8.961c-2.502-1.619-5.889-2.733-10.158-3.344c-0.273-0.126-0.652-0.158-1.136-0.095
	c-0.946-0.273-1.957-0.578-3.029-0.915c0.463-0.336,0.694-0.705,0.694-1.104v-0.727c-0.189,0-4.69-0.778-13.504-2.335
	c-2.84-0.609-5.3-0.978-7.382-1.104c2.019-0.084,3.606-0.221,4.764-0.41c-0.884-0.61-2.818-1.22-5.806-1.83
	c-1.347-0.21-2.598-0.315-3.755-0.315c0.274-1.136,0.579-1.945,0.915-2.43c1.368-0.819,2.661-1.493,3.882-2.019l-0.315-0.915
	l-3.155,1.01c0.21-0.273,0.347-0.516,0.409-0.727l-0.315-1.009c-1.136,0.273-2.86,0.651-5.174,1.136
	c0.673-0.758,1.314-1.367,1.925-1.83c-4.67-2.314-11.232-5.195-19.688-8.646v-0.094c0.337-0.4,0.978-0.736,1.925-1.01
	c1.03-0.211,1.64-0.453,1.83-0.726c-3.514-2.966-10.381-5.091-20.603-6.374c-1.347-0.084-2.703-0.189-4.07-0.315
	c-1.619-0.757-3.103-1.472-4.448-2.146h3.028c-0.946-0.126-1.893-0.357-2.84-0.694c-2.229-0.757-4.228-1.262-5.994-1.515h-5.584
	v-0.315c-1.347,0.273-2.903,1.052-4.67,2.334c-0.126-0.147-0.252-0.252-0.378-0.315c0-0.189,0-0.389,0-0.599
	c1.072-0.61,2.113-1.22,3.123-1.83c0.147,0,0.483-0.2,1.01-0.6l0.915,0.284v-2.619h5.584c-1.136-0.757-1.945-1.272-2.43-1.546
	c1.83-1.01,4.196-2.219,7.1-3.628c0.421,0.4,0.799,0.736,1.136,1.009c-0.758,0.737-1.473,1.272-2.146,1.609l0.727,1.42
	c0.188,0,0.558-0.778,1.104-2.335c0.146-0.189,0.252-0.326,0.315-0.41c0.126,0,0.221,0,0.284,0c1.367,1.557,2.618,2.85,3.754,3.881
	h2.745c2.25-2.314,4.217-4.417,5.899-6.31c1.956,0,3.449-0.063,4.48-0.189l0.189-1.735c-0.21,0-1.294,0.2-3.25,0.6
	c2.65-2.776,5.091-5.416,7.32-7.919c7.445-7.362,13.166-13.146,17.163-17.353c1.182-1.186,2.36-2.343,3.533-3.47
	c5.195-4.956,10.307-9.278,15.333-12.967c5.68-6.983,13.462-14.934,23.348-23.852L404.934,169.07 M376.191,192.921
	c1.22-1.283,2.366-2.502,3.438-3.66c-1.347,1.641-2.565,3.366-3.659,5.175c-1.62,1.094-3.345,2.282-5.175,3.565
	C372.563,196.382,374.361,194.688,376.191,192.921 M455.666,310.793c-0.946-0.125-1.955-0.293-3.028-0.504l-12.399-1.925
	c-1.073-0.21-2.188-0.378-3.345-0.505c-18.278-3.113-31.444-5.353-39.5-6.72c-18.278-3.113-31.141-5.312-38.587-6.595
	c-1.409-1.409-3.365-3.165-5.868-5.269c-0.399-0.483-0.842-0.82-1.325-1.01c0.399-0.421,0.705-0.663,0.915-0.726
	c0.547,0.21,1.052,0.452,1.515,0.726c-0.063-0.82-0.873-2.282-2.43-4.385c5.006-2.566,9.202-4.691,12.589-6.374
	c0,0.526,0.105,1.031,0.315,1.515c-0.421,0.126-0.862,0.189-1.325,0.189l0.095,1.01c0.946,0.483,2.398,0.894,4.354,1.229
	c-0.252,0-0.589,0-1.009,0c-3.66-1.009-5.795-1.419-6.405-1.229c-2.355,0.757-2.692,1.167-1.01,1.229
	c0.421,0.127,0.757,0.295,1.01,0.506c-0.736,0.21-1.136,0.378-1.199,0.505c-0.21,0.21-0.483,0.546-0.82,1.009l1.01,0.727
	c1.768-0.211,4.785,0.126,9.055,1.009c3.913,1.431,13.42,4.176,28.522,8.234l9.938,2.43c7.319,1.83,12.462,3.25,15.428,4.26
	c0-0.211,0-0.347,0-0.41c7.509,2.04,14.145,3.901,19.908,5.585c9.949,2.923,18.509,5.426,25.682,7.508
	c-3.723-0.609-7.414-1.22-11.074-1.829C456.276,310.983,455.939,310.92,455.666,310.793 M355.684,275.047h-0.221
	c-1.494,0.547-2.472,1.126-2.935,1.735c0,0.337-0.063,0.947-0.189,1.83c0.463,0.211,0.8,0.41,1.01,0.6l-3.376,1.136
	c-0.126,0.189-0.253,0.39-0.378,0.6c-0.337-0.399-0.716-0.736-1.137-1.01v-1.924c-0.883-0.821-1.588-1.432-2.113-1.831
	c0-0.883-0.169-2.345-0.505-4.385c-0.358-2.293-0.831-4.322-1.42-6.089C349.699,268.632,353.454,271.745,355.684,275.047
	 M341.77,270.693c0.337-0.4,0.442-1.725,0.315-3.976c0.4,0.884,1.136,2.104,2.209,3.66c0.336,0.609,0.915,2.472,1.735,5.585
	c-0.21,0-0.379,0-0.505,0c-1.431,0.21-2.577,0.756-3.439,1.64c-0.273,0.189-0.547,0.494-0.82,0.915
	c-0.883-2.04-2.271-2.924-4.165-2.65c-1.492,0.273-2.176,0.642-2.051,1.104c0,0.547,0.242,2.146,0.727,4.796
	c0,0.337-0.105,0.704-0.315,1.104c-0.127,0-0.264,0.074-0.411,0.222c-0.125-2.588-0.325-5.669-0.599-9.244
	c-0.61-4.67-1.146-8.057-1.609-10.159c-1.22,1.009-1.903,3.039-2.051,6.089c-1.683-3.85-4.354-5.742-8.014-5.68v-0.094l-0.315,0.094
	c-0.463,0-1.03,0.032-1.703,0.096c-2.567,0.609-4.502,2.408-5.806,5.395l0.915,0.694c0.272-0.211,1.02-1.095,2.24-2.65
	c0.819-1.01,1.903-1.65,3.249-1.924c-0.883,3.596-2.303,8.434-4.259,14.513c-0.821,2.86-1.431,5.542-1.83,8.045
	c-1.767-0.273-4.375-0.578-7.825-0.915c0.484-2.104,1.031-4.543,1.642-7.319c1.683-7.656,2.829-13.272,3.438-16.848l-0.284-0.222
	c1.62,0,3.818,0,6.595,0c5.805,0,9.286-0.094,10.443-0.283h0.315c2.166-0.483,3.648-1.031,4.448-1.641
	c1.43,0.483,2.924,1.03,4.479,1.641c0.337,0.063,0.674,0.199,1.01,0.41c0.063,1.619,0.169,3.48,0.316,5.584
	c0.126,4.522,0.494,7.057,1.104,7.604l0.82,0.188c-0.336-1.283-0.41-3.449-0.221-6.499
	C341.633,270.325,341.707,270.566,341.77,270.693 M348.773,285.933c0.211-0.211,0.348-0.316,0.41-0.316
	c0.736,0.399,1.41,0.736,2.02,1.01c-0.273,0-0.684,0-1.23,0C349.637,286.437,349.236,286.206,348.773,285.933 M344.104,284.797
	c-0.273-0.127-0.547-0.19-0.82-0.19c-0.673-2.103-1.209-3.659-1.609-4.669c1.22,0.337,2.608,1.178,4.165,2.524l-0.41,0.82
	c0.609,0.819,1.178,1.661,1.703,2.523C346.271,285.406,345.261,285.069,344.104,284.797 M347.038,288.677
	c-1.282,1.136-2.839,1.841-4.669,2.114c-1.83,0.399-3.418,0.263-4.764-0.41L347.038,288.677 M351.015,294.229h-1.926
	c0,0.61-0.21,2.472-0.631,5.585c-0.189-0.063-0.326-0.095-0.409-0.095c0.083-1.956,0.126-3.575,0.126-4.859
	c1.136-0.42,0.525-0.631-1.83-0.631c-1.367,0-2.388,1.262-3.061,3.786c-2.629-0.946-5.438-1.524-8.424-1.735
	c0.21-0.757,0.515-1.504,0.915-2.24h0.095c4.942-1.009,7.824-1.588,8.645-1.735c1.346-0.525,2.66-1.167,3.943-1.924v-3.155
	l0.41,3.881c0.61-0.337,1.084-0.811,1.42-1.42c1.557,1.409,2.777,2.556,3.66,3.438c0.21,0.273,0.483,0.642,0.82,1.104
	c-0.273,0-0.684,0-1.23,0c-1.01,0-1.651,0.305-1.925,0.915C351.403,294.682,351.203,294.377,351.015,294.229 M355.463,295.271
	c0.336,0.127,0.642,0.326,0.915,0.6c0.272,0,0.515,0.105,0.726,0.315c-0.547,0-1.021,0-1.42,0
	C355.536,295.912,355.463,295.607,355.463,295.271 M342.369,304.389c0,0.484,0,0.957,0,1.42c-1.62,1.431-3.071,2.618-4.354,3.565
	c-0.483-0.484-0.894-0.925-1.23-1.325c-1.156-1.22-1.935-2.534-2.334-3.943c3.386,0.336,5.321,0.504,5.805,0.504
	C340.929,304.609,341.633,304.536,342.369,304.389 M349.783,312.213c0.337-0.463,0.705-0.936,1.104-1.42
	c1.557-1.619,2.776-3.28,3.66-4.984c-0.8,4.271-2.356,7.425-4.67,9.466c-2.355,2.082-4.479,2.449-6.373,1.104
	c0.126-0.063,0.221-0.095,0.284-0.095C345.346,316.347,347.344,314.99,349.783,312.213 M345.524,365.502
	c-0.547-1.136-1.22-2.355-2.02-3.66c-1.031-2.02-2.082-3.975-3.155-5.868c1.283,1.83,2.504,3.418,3.66,4.765
	C344.346,362.357,344.851,363.945,345.524,365.502 M199.825,231.697c-0.126-0.947-0.252-1.788-0.378-2.524
	c0.336,1.157,1.041,2.882,2.114,5.175c-0.399,0.273-0.768,0.546-1.104,0.82C200.246,234.284,200.035,233.127,199.825,231.697
	 M188.971,220.938v1.136c-1.009-1.22-2.061-2.24-3.155-3.061C186.974,219.624,188.025,220.265,188.971,220.938 M203.201,241.446
	c0.063,0.336,0.125,0.642,0.189,0.915c-2.103-0.609-3.996-0.747-5.679-0.41c1.157-1.957,2.104-3.776,2.84-5.458
	C201.224,237.229,202.107,238.88,203.201,241.446 M209.794,254.54v0.315c0.19,0.273,0.39,0.579,0.6,0.915v0.41
	c0.147,0.21,0.39,0.379,0.726,0.504c1.009,1.01,2.661,2.262,4.953,3.755v1.325h-2.524c2.229,0.883,4.06,1.188,5.49,0.915
	l1.609,4.038c-0.546,0-0.988,0.042-1.325,0.126c-1.557,0.273-2.671,0.842-3.344,1.704c-0.547-1.746-1.083-3.229-1.61-4.449
	c-0.273-0.883-0.546-1.661-0.82-2.334h-2.65v0.189l-0.094-0.189h-0.411c0.063-0.211,0.095-0.452,0.095-0.726
	c-0.525,0-1.135-0.536-1.83-1.609c-0.525-0.82-0.862-1.735-1.009-2.745c-0.126-0.61-0.189-1.325-0.189-2.145H209.794
	 M210.615,254.129c0,0.084,0.063,0.221,0.189,0.41h-0.316v-0.41H210.615 M208.154,261.354c0,0.211,0,0.347,0,0.41h-0.411
	L208.154,261.354 M224.119,256.18c0.525,0.546,0.894,1.02,1.104,1.419c0.274,0.674,0.411,1.925,0.411,3.755l0.6,2.335
	c-0.274,0.546-0.474,1.219-0.6,2.02c-1.157,0.083-2.177,0.22-3.061,0.409c0-0.126,0-0.221,0-0.284c0-0.757-0.031-1.472-0.094-2.145
	c0.399-0.82,0.705-1.493,0.915-2.02C223.877,260.366,224.119,258.536,224.119,256.18 M239.231,259.43
	c-0.399,0.127-0.768,0.294-1.104,0.505c0.946-2.44,2.125-4.711,3.533-6.815c0.211-0.526,0.453-1.031,0.726-1.515
	c-1.43,0.737-2.208,1.178-2.335,1.325c0.336-0.547,1.083-1.325,2.24-2.334c0,0.21,0,0.441,0,0.694
	c0.063-0.252,0.158-0.621,0.284-1.104c0.147-0.21,0.39-0.41,0.726-0.6c0,0.063,0,0.2,0,0.41c0.336-0.547,0.81-1.125,1.42-1.735
	c1.219-1.22,2.671-2.167,4.354-2.839c-0.21,0-0.484,0.032-0.82,0.095c0.21-0.21,0.484-0.41,0.82-0.599c0.063,0,0.137,0,0.221,0
	l0.6-0.126c0.399-0.063,0.736-0.294,1.009-0.694c-0.063-0.126-0.168-0.231-0.315-0.315c0.484-0.273,1.03-0.537,1.64-0.789
	c0.463-0.147,0.968-0.252,1.515-0.315v-0.316c1.283-0.399,2.535-0.599,3.755-0.599c0.883,0,2.439,0.578,4.669,1.735
	c-0.883,0.126-1.756,0.221-2.618,0.284c1.472,0.273,2.892,0.652,4.259,1.136l0.095-0.505c0.946,0.526,2.062,1.231,3.345,2.114
	c1.01,0.61,1.987,1.293,2.934,2.051c1.494,0.862,2.714,1.704,3.66,2.524h0.095c0.21,0.21,0.483,0.484,0.82,0.82
	c0.61,1.472,1.325,3.124,2.146,4.954c0.463,1.093,0.937,2.145,1.42,3.155c0,0.399,0,0.81,0,1.23c-1.094-0.61-2.377-1.157-3.85-1.641
	c-0.357-0.126-0.662-0.221-0.914-0.284c-3.387-1.556-7.521-2.682-12.4-3.375c-9.065,0.21-15.933,1.199-20.602,2.965
	C240.072,259.114,239.63,259.282,239.231,259.43 M252.924,157.081l0.631,0.82c0.126,0,0.263,0,0.41,0
	c0.063,0.82,0.095,1.493,0.095,2.019c0.336,5.553,0.736,13.041,1.199,22.464l-0.189,0.915c0.126-0.147,0.231-0.221,0.315-0.221
	c0,0.82,0.063,1.704,0.19,2.65c-0.126-0.147-0.232-0.221-0.316-0.221c0-0.063-0.063-0.095-0.189-0.095
	c-0.063-0.126-0.168-0.189-0.315-0.189c-0.273-0.147-0.536-0.284-0.789-0.41c0.253,0.883,0.453,1.588,0.6,2.114l-0.315,1.546
	c0-0.61-0.2-1.83-0.6-3.66l0.095,4.669c0.21-0.21,0.378-0.453,0.505-0.726l-0.505,2.145l0.221,4.575
	c0.4,0.526,0.663,1.335,0.789,2.429c0.336,1.346,0.441,2.966,0.315,4.859l0.915,9.56c0.21,3.05,0.347,5.784,0.41,8.203
	c1.894,3.933,3.145,6.173,3.755,6.72l0.283-0.315c0.273,0.673,0.548,1.356,0.821,2.051c1.366,2.692,2.86,5.153,4.479,7.382
	c-0.063,0-0.199,0.042-0.41,0.126c-2.229-0.883-3.954-1.325-5.174-1.325c-0.61,0-1.22,0.063-1.83,0.189l-0.315-0.189
	c-0.61,0-1.146,0.063-1.609,0.189c-0.273,0.946-0.852,1.419-1.735,1.419c-0.61,0-1.083-0.199-1.42-0.599
	c-0.674,0.21-1.347,0.41-2.02,0.599c-1.367,0-2.524,0.105-3.47,0.316c0.21-0.484,0.378-0.989,0.504-1.515
	c1.157-2.376,1.735-7.046,1.735-14.008c0-0.61,0-1.262,0-1.956c0.4,1.641,0.736,2.903,1.01,3.786
	c-0.336,1.199-0.673,2.208-1.01,3.029l0.82,0.505c0.336-0.463,0.705-0.936,1.104-1.42h0.726c-0.084-2.104-0.221-4.638-0.411-7.604
	c0,0.189,0,0.326,0,0.41c-0.146-0.757-0.252-1.504-0.315-2.24c-0.063-0.61-0.158-1.283-0.283-2.019c0.189,0,0.315,0.095,0.378,0.284
	c0-0.399,0-0.799,0-1.199c0-2.924-0.232-5.742-0.694-8.456c-0.063-0.673-0.201-1.241-0.411-1.704c-0.21,0.273-0.452,0.61-0.726,1.01
	c-0.462-3.387-0.831-6.468-1.104-9.244c0.273-2.02,0.884-9.833,1.83-23.442c0,0.274,0,0.579,0,0.915
	c0.21-3.113,0.452-6.531,0.726-10.254c0.673-8.792,1.209-16.375,1.609-22.748c0.21,5.279,0.452,11,0.725,17.163
	C253.355,156.576,253.008,156.807,252.924,157.081 M253.649,240.941c-0.21,0.273-0.41,0.547-0.599,0.82h-2.745
	c0.4-0.4,0.841-0.642,1.326-0.726l0.189-0.094c0.336-0.336,0.705-0.642,1.104-0.915L253.649,240.941 M285.831,240.026
	c0.884,1.283,1.799,2.84,2.745,4.669c1.557,2.839,3.176,5.417,4.858,7.73c-0.673,1.346-1.178,2.598-1.515,3.754
	c-1.156,0.21-2.481,0.483-3.975,0.82c-0.674,0.19-1.241,0.357-1.704,0.506c0-0.211,0-0.379,0-0.506c0-4.27-2.167-8.234-6.499-11.894
	c-0.884-1.283-2.167-2.503-3.85-3.66c-0.42-0.337-0.768-0.705-1.041-1.104L285.831,240.026 M279.742,236.872
	c0.799-0.063,1.472-0.095,2.02-0.095c0.819,0,1.734,0.516,2.744,1.546C283.286,237.965,281.698,237.481,279.742,236.872
	 M281.162,252.331l-0.096-0.221c0-0.126,0.032-0.4,0.096-0.821C281.288,251.773,281.288,252.121,281.162,252.331 M278.922,248.167
	c0.336,0.336,0.673,0.736,1.009,1.199c0,0.21,0,0.484,0,0.82c-0.336-0.673-0.736-1.346-1.198-2.019H278.922 M289.9,261.765v0.915
	c-1.556,0.189-2.775,0.283-3.659,0.283c-0.063,0-0.168,0.043-0.315,0.127c0.147-0.884,0.253-1.661,0.315-2.335
	c0.126,0,0.295,0.063,0.505,0.189C287.355,261.154,288.408,261.429,289.9,261.765 M254.754,259.935
	c4.816,0,10.264,0.915,16.343,2.745c3.05,0.883,5.354,1.556,6.91,2.019c-0.21,1.431-0.379,2.851-0.505,4.26
	c-0.126-0.126-0.231-0.189-0.315-0.189c0,0.884-0.063,1.631-0.189,2.24h0.189c0,0.063-0.063,0.157-0.189,0.284
	c0,0.147,0,0.315,0,0.505c-0.063,0.421-0.2,0.861-0.41,1.325c-1.347,5.489-3.649,9.791-6.909,12.903
	c-0.463,0.547-0.937,0.989-1.42,1.325c-0.127-0.336-0.295-0.715-0.505-1.136c-0.463,0.484-0.937,0.926-1.42,1.325
	c0.21,0.273,0.41,0.516,0.6,0.726c-2.02,1.22-4.144,2.029-6.374,2.43c-0.883,0.21-1.734,0.315-2.555,0.315
	c-1.283,0-2.535-0.105-3.755-0.315c-3.302-0.273-6.215-0.946-8.739-2.02c0.357-0.273,0.663-0.547,0.915-0.82
	c-0.252-0.21-0.558-0.421-0.915-0.631c-0.525-0.399-1.031-0.736-1.515-1.01c-0.189,0.421-0.421,0.8-0.694,1.136
	c-1.767-1.157-3.26-2.545-4.48-4.165c-2.439-3.26-3.554-7.224-3.344-11.894c0.21,0,0.347,0.042,0.411,0.126v-0.126
	c0-1.01,0.137-1.746,0.41-2.209c-0.273,0-0.515,0.063-0.726,0.189c0.21-1.094,0.41-2.113,0.6-3.061
	c0.084-0.463,0.189-0.936,0.316-1.419C243.869,261.554,249.958,259.935,254.754,259.935 M323.597,218.825v-1.546
	c1.01-0.462,2.093-1.062,3.249-1.798C325.752,216.427,324.67,217.542,323.597,218.825 M338.299,224.504v-0.505
	c0.421-0.21,0.831-0.41,1.23-0.599C339.13,223.799,338.72,224.167,338.299,224.504 M312.238,231.697
	c-0.42-0.252-0.799-0.484-1.135-0.694c1.009-2.503,1.724-4.196,2.145-5.08c-0.21,0.61-0.347,1.42-0.41,2.43
	C312.628,229.846,312.428,230.961,312.238,231.697 M312.112,233.117c0.758,1.767,1.704,3.502,2.84,5.206
	c-1.746-0.147-3.67,0.053-5.774,0.6c0.127-0.4,0.232-0.673,0.315-0.821C310.566,235.389,311.439,233.727,312.112,233.117
	 M299.65,254.54h0.188c2.777,0,3.556,1.388,2.335,4.165c0.82,0.483,1.967,0.726,3.439,0.726l0.726-0.82
	c-0.399-2.229-1.515-4.059-3.345-5.49h11.674c0.946,0.547,2.062,1.094,3.344,1.641c-2.292-0.147-4.49-0.221-6.593-0.221
	l-2.051-0.284c0.483,0.463,0.725,1.378,0.725,2.745c0,1.619-0.441,2.262-1.324,1.925c-1.073-0.673-1.852-1.01-2.335-1.01v0.789
	c1.956,0.21,4.428,0.547,7.414,1.01h-11.989l-0.189,0.221v-0.221h-2.555c-0.19,0.42-0.39,0.936-0.6,1.546c0-0.146,0-0.252,0-0.315
	c0-0.399,0-0.705,0-0.915c0.21-0.063,0.409-0.169,0.6-0.315h-0.6c-0.063-0.736-0.095-1.336-0.095-1.799
	c0.673,0.525,1.377,1.094,2.114,1.704c0.546-0.126,1.03-0.694,1.451-1.704C301.29,257.222,300.512,256.096,299.65,254.54
	 M293.655,254.95v-2.335c0.463,0.61,0.895,1.157,1.294,1.641c-0.127,0.189-0.221,0.421-0.284,0.694H293.655 M292.614,263.185h0.126
	v0.189c0.189,0.421,0.39,0.757,0.6,1.009c-0.399-0.126-0.768-0.188-1.104-0.188L292.614,263.185 M290.596,259.619v0.095l-0.19-0.095
	H290.596 M295.075,261.039c0-0.063,0.031-0.158,0.095-0.284c0.609,0,1.251-0.137,1.925-0.41l-0.189,3.85l-1.956-0.82
	c0-0.189,0-0.39,0-0.6l0.536-0.095l0.189-1.641C295.465,261.039,295.265,261.039,295.075,261.039 M296.495,259.714v-1.515l0.6,0.41
	v1.104H296.495 M308.453,263.09c0.483,0,1.503-0.042,3.06-0.127c-0.673,3.996-1.557,7.72-2.65,11.169
	c-0.673,2.104-1.65,5.017-2.934,8.739c0-8.245,0.41-13.587,1.23-16.027l-1.23,0.095c-0.126,0.126-0.631,2.43-1.515,6.91
	c-1.156-0.547-3.092-0.926-5.806-1.136c0.421-1.956,0.863-3.776,1.326-5.459c0.336,1.01,0.673,2.093,1.009,3.25l2.24-0.221
	c-1.767-2.377-1.83-4.102-0.189-5.174C303.94,264.373,305.761,263.699,308.453,263.09 M329.37,259.619c0.211,0,0.421,0,0.631,0
	c0.674,0.211,1.378,0.452,2.114,0.726c-0.736,0.063-1.44,0.095-2.114,0.095C329.791,260.166,329.581,259.893,329.37,259.619
	 M339.529,261.26c0,0.126,0,0.357,0,0.694c-0.609-0.337-1.188-0.568-1.734-0.694c-1.136-0.61-2.283-1.126-3.439-1.546
	c0.463,0.146,0.936,0.325,1.42,0.536C337.395,260.923,338.646,261.26,339.529,261.26 M133.033,192.921
	c1.03,1.01,2.188,2.093,3.47,3.25c1.83,1.767,3.618,3.597,5.364,5.49c-1.83-1.43-3.586-2.682-5.27-3.754
	C135.588,196.14,134.4,194.478,133.033,192.921 M123.189,293.536c-0.273,0.21-0.546,0.441-0.82,0.693
	c1.494-0.463,3.124-0.936,4.891-1.42c6.563-1.809,12.283-3.628,17.163-5.458c4.249-0.883,7.225-1.262,8.929-1.136l1.009-0.6
	c-0.273-0.547-0.515-0.883-0.726-1.01c-0.063-0.063-0.494-0.199-1.293-0.409c0.337-0.274,0.674-0.474,1.01-0.6
	c1.746-0.085,1.409-0.526-1.01-1.325c-0.546-0.211-2.65,0.231-6.31,1.325c-0.399,0-0.736,0-1.009,0
	c1.893-0.273,3.313-0.716,4.259-1.325l0.221-0.915c-0.484,0-0.925-0.031-1.325-0.095c0.189-0.61,0.284-1.188,0.284-1.735
	c3.386,1.683,7.583,3.85,12.588,6.499c-1.557,2.02-2.398,3.471-2.524,4.354c0.547-0.273,1.083-0.547,1.609-0.82
	c0.21,0.084,0.515,0.357,0.915,0.82c-0.526,0.147-0.967,0.483-1.325,1.009c-2.503,2.104-4.491,3.84-5.963,5.206
	c-11.715,2.083-37.198,6.405-76.446,12.968c-6.899,2.377-9.749,2.85-8.55,1.42c-7.509,1.304-15.492,2.629-23.947,3.975
	c7.235-2.04,15.796-4.512,25.682-7.414c5.827-1.767,12.494-3.659,20.003-5.679c0,0.126,0,0.221,0,0.284
	c4.88-1.684,15.544-4.449,31.992-8.298C122.684,293.767,122.916,293.662,123.189,293.536 M337.195,277.603l0.726-0.095
	c0.862,1.01,1.293,1.577,1.293,1.704c0.421,0.673,0.8,2.093,1.136,4.259l-0.82-0.378
	C338.457,281.999,337.679,280.169,337.195,277.603 M327.856,268.769c0,0.211-0.063,0.483-0.189,0.82
	c-1.031,0.253-2.219,1.294-3.565,3.124l-0.915-1.609c0.399,0,0.537-0.915,0.41-2.745c0-1.01-0.137-1.956-0.41-2.84
	c0.946,0.127,1.662,0.327,2.146,0.6C325.857,266.519,326.699,267.402,327.856,268.769 M317.918,288.551
	c-0.147,0-0.315,0.042-0.505,0.126l0.694-2.461c0.819,2.503,1.493,3.965,2.019,4.386c0.357-1.283,1.851-5.049,4.48-11.295
	c1.01-2.02,1.756-3.701,2.239-5.048c-0.673,3.302-1.65,7.761-2.934,13.377c-0.357,1.557-0.536,3.05-0.536,4.48
	c-0.609-0.063-1.209-0.169-1.799-0.315c-1.43-0.189-3.165-0.326-5.205-0.411c0.21-0.399,0.315-0.662,0.315-0.788l0.6-1.83
	C317.497,288.771,317.708,288.697,317.918,288.551 M333.535,289.561l1.514-2.524v-0.188c0.085-0.147,0.158-0.222,0.222-0.222
	c2.902,0.61,4.827,0.946,5.773,1.01l-0.505,0.915C339.403,289.098,337.068,289.435,333.535,289.561 M332.021,287.226
	c-0.21,0.084-0.41,0.221-0.6,0.41l0.694,0.631c0.273,0.673,0.516,1.104,0.726,1.294c-0.273,0-0.516,0-0.726,0
	c-2.713,0.483-4.711,1.44-5.994,2.871c1.641-4.417,2.86-9.465,3.659-15.145c0.673,2.776,1.221,5.111,1.641,7.004
	c-2.104,1.284-3.46,3.281-4.069,5.995c0.883-1.956,2.377-3.177,4.479-3.66C331.958,286.773,332.021,286.973,332.021,287.226
	 M290.596,268.674c0.272-0.21,0.546-0.82,0.82-1.83c0.398-0.483,0.799-0.819,1.198-1.01c0.547,0.673,1.566,1.21,3.061,1.609
	c-0.674,2.167-2.03,3.965-4.07,5.396c-2.02,1.347-3.607,1.746-4.764,1.198c0.21-1.283,0.883-2.64,2.02-4.069
	c0.483-0.8,0.957-1.44,1.42-1.925C290.363,268.379,290.469,268.59,290.596,268.674 M294.949,271.419
	c0.084-0.084,0.157-0.189,0.221-0.315c-0.483,1.409-0.989,3.028-1.515,4.859c-0.147-0.127-0.221-0.264-0.221-0.411
	C293.435,274.206,293.939,272.828,294.949,271.419 M302.994,284.197c-1.641-2.167-3.102-3.923-4.386-5.27
	c0.694-0.42,1.336-0.862,1.926-1.325c1.556-0.946,2.744-1.661,3.564-2.146c-0.273,3.261-0.2,6.542,0.221,9.844
	C303.836,285.027,303.395,284.66,302.994,284.197 M293.024,286.848c-0.463,0.125-0.831,0.252-1.104,0.378
	c-1.619-2.419-2.976-4.175-4.069-5.269c0.273,0,0.547,0,0.819,0c2.167,0,3.966-0.168,5.396-0.506c0.674,0.211,1.146,0.38,1.42,0.506
	c0.126-0.211,0.252-0.379,0.379-0.506c0.693,1.557,1.577,3.188,2.65,4.891C296.411,286.342,294.581,286.51,293.024,286.848
	 M314.573,291.012c0.063-0.147,0.189-0.221,0.379-0.221l-0.095-0.82c-0.337,0-0.642,0.042-0.915,0.126
	c0.421-0.273,0.831-0.452,1.23-0.536c0,0.483-0.073,0.894-0.221,1.23c0.147,0.147,0.147,0.252,0,0.315
	C314.889,291.043,314.763,291.012,314.573,291.012 M315.583,299.31c0.063-0.399,0.157-0.936,0.284-1.609
	c0.483,0,0.999,0.063,1.546,0.189c0.126,1.157,0.295,2.313,0.505,3.471c-0.21,0-0.421,0-0.631,0
	C316.004,300.329,315.436,299.646,315.583,299.31 M298.199,300.445c0-0.211,0.073-0.452,0.221-0.726
	c1.619,1.557,3.208,2.776,4.764,3.659c-1.493,0.273-2.808,0.61-3.944,1.01C298.819,303.716,298.472,302.401,298.199,300.445
	 M297.41,299.025c-0.147,0.399-0.253,0.662-0.315,0.789c0-0.063-0.105-0.432-0.315-1.104c-0.946,0.399-1.483,0.642-1.609,0.726
	c-0.483,0.252-0.852,0.82-1.104,1.704c-0.084-0.063-0.221-0.158-0.41-0.284c-2.04-1.22-3.365-2.135-3.975-2.745v-1.136
	c0.883,0.484,1.798,0.831,2.744,1.041c0.483,0.463,1.031,1.031,1.641,1.704l0.694-0.694c-0.063-0.421-0.168-0.726-0.315-0.915
	c0.147,0,0.253,0,0.315,0c0.273-0.147,0.516-0.284,0.726-0.41c0.463,0.273,0.894,0.61,1.294,1.01c0.21,0.21,0.347,0.315,0.409,0.315
	H297.41 M298.924,305.209c0,0.61-0.137,1.283-0.409,2.02c-0.21,0.694-0.315,1.272-0.315,1.735c-0.063-0.736-0.189-2.093-0.379-4.07
	C298.072,305.041,298.44,305.146,298.924,305.209 M307.033,322.058c-0.736-0.947-1.441-1.862-2.114-2.745l0.189-0.694
	C305.781,319.754,306.423,320.9,307.033,322.058 M326.53,299.025c-1.072,0.063-2.051,0.263-2.934,0.6
	c-0.063-0.399-0.137-0.904-0.221-1.515c0.146-0.063,0.389-0.095,0.726-0.095h0.095c0.673-0.084,1.356-0.221,2.051-0.41
	C326.437,298.068,326.53,298.542,326.53,299.025 M321.356,298.3c-0.21,0.483-0.41,0.957-0.599,1.42
	c-0.274-0.526-0.517-1.063-0.727-1.609C320.452,298.11,320.895,298.174,321.356,298.3 M324.606,302.78
	c1.347,0.272,2.671,0.474,3.975,0.599c0.253,0.821,0.653,1.735,1.199,2.745c1.094,1.894,2.209,3.555,3.345,4.985
	c-1.683,0-3.407-0.915-5.175-2.745C326.604,306.997,325.49,305.136,324.606,302.78 M331.705,315.968c1.431,0,3.534,0.242,6.31,0.726
	c-2.839,0.337-4.974,0.095-6.404-0.726H331.705 M285.421,267.443c0.063,0,0.168,0,0.315,0c0.463,0,0.831,0,1.104,0
	c-1.073,1.493-1.988,3.387-2.745,5.68c-1.157,3.449-1.125,5.889,0.095,7.319c-1.136,0.126-2.313,0.432-3.533,0.915h-0.222
	c0.147-0.4,0.253-0.778,0.315-1.136C282.918,276.372,284.475,272.113,285.421,267.443 M289.996,264.005c0,0.126,0,0.357,0,0.693
	c-0.548,0.274-1.126,0.653-1.735,1.136h-2.524c0-0.273,0.031-0.619,0.095-1.04L289.996,264.005 M279.016,267.443h0.632v1.104
	c0,1.157-0.074,2.313-0.221,3.471c-0.674,0.337-1.147,0.673-1.42,1.01c0.147-0.82,0.252-1.494,0.315-2.02v-0.221
	c0.399,0,0.736,0,1.01,0c-0.211-0.273-0.453-0.547-0.726-0.82C278.879,268.621,279.016,267.78,279.016,267.443 M279.237,273.028
	l-1.01,1.83c-0.147-0.484-0.221-1.063-0.221-1.735C278.279,273.06,278.69,273.028,279.237,273.028 M285.421,277.192
	c0.547,0,1.567,0.505,3.061,1.515v1.641c-0.547,0-1.199-0.348-1.956-1.041C285.789,278.633,285.421,277.929,285.421,277.192
	 M256.489,293.347v0.693c-1.493,0.274-3.112,0.274-4.858,0l0.599-0.693H256.489 M259.14,309.374c1.346-3.449,2.629-5.858,3.85-7.225
	l0.819-0.789c-0.21,2.166-0.852,4.027-1.924,5.584c-1.094,1.62-1.978,3.008-2.65,4.165c0.21-1.03,0.315-1.609,0.315-1.735H259.14
	 M260.243,297.7c-1.893,3.387-2.944,7.278-3.154,11.674h-9.244l0.221-4.765c0-2.503-0.305-4.806-0.915-6.909
	c2.503,0.399,5.248,0.6,8.234,0.6C257.005,298.3,258.624,298.1,260.243,297.7 M266.648,295.051c0.189-0.19,0.421-0.358,0.694-0.506
	l-4.165,5.175c0.484-0.884,1.504-2.303,3.061-4.26C266.448,295.25,266.585,295.113,266.648,295.051 M227.242,274.132
	c0,1.094,0.031,2.114,0.095,3.061h-0.19c-1.283,0.884-2.503,1.589-3.66,2.114c0.947-1.409,2.104-3.229,3.471-5.458
	C227.084,273.975,227.179,274.069,227.242,274.132 M223.393,270.094c0.673-0.273,1.314-0.61,1.925-1.01
	c0.147,1.073,0.42,2.082,0.82,3.029c-0.547,0.483-1.052,0.925-1.515,1.325c-2.86,2.965-4.459,5.058-4.795,6.278l0.631,0.505
	c-0.274,0-0.515,0.042-0.726,0.126c-0.883-2.776-1.661-5.216-2.334-7.319c1.093-0.673,2.65-1.451,4.669-2.335h0.095
	C222.436,270.483,222.846,270.283,223.393,270.094 M221.059,282.462c0.883,0.273,1.903,0.483,3.06,0.631
	c-1.557,1.346-3.218,3.165-4.985,5.458c-0.757,0-1.367,0.042-1.83,0.126c-1.094-0.084-2.146-0.126-3.155-0.126
	c1.009-1.746,1.861-3.396,2.555-4.953c0.189,0.126,0.326,0.325,0.411,0.6c0.336-0.211,0.841-0.411,1.514-0.6
	c0.336-0.273,0.674-0.884,1.01-1.83C219.975,281.894,220.448,282.125,221.059,282.462 M224.907,287.636l-0.789,0.221
	c1.199-1.978,2.146-3.639,2.839-4.985c0.252,0,0.558,0,0.915,0c-0.357,0.147-0.568,0.284-0.631,0.411
	C225.896,285.911,225.117,287.362,224.907,287.636 M233.457,283.786v0.82c-1.43-0.483-2.208-0.757-2.334-0.82
	c-0.273-0.21-0.452-0.409-0.537-0.6c0-0.063,0.042-0.168,0.126-0.315l-0.315-0.409c0.61-0.127,1.157-0.264,1.641-0.411
	C232.438,282.809,232.911,283.387,233.457,283.786 M229.293,285.806c0.063-0.336,0.158-0.568,0.284-0.693
	c0.336,0.735,0.746,1.482,1.23,2.239c-0.547,0.337-1.125,0.736-1.735,1.199h-0.694C228.378,288.088,228.683,287.173,229.293,285.806
	 M206.041,269.084l-0.631-0.126c0.883,2.503,1.325,7.814,1.325,15.933c-1.346-3.723-2.356-6.625-3.029-8.708
	c-1.01-3.387-1.861-7.077-2.555-11.073c1.03,0.063,1.851,0.094,2.46,0.094C204.347,267.097,205.157,268.391,206.041,269.084
	 M206.734,269.084h-0.41c0.21-0.483,0.21-1.44,0-2.871c0-0.188,0-0.357,0-0.504c1.556,0.336,2.682,0.81,3.376,1.419
	c1.62,1.094,1.546,2.861-0.221,5.301l2.146,0.284c0.399-1.136,0.736-2.178,1.01-3.124c0.462,1.472,0.904,3.197,1.325,5.175
	c-2.713,0.188-4.649,0.557-5.805,1.104C207.355,271.472,206.882,269.211,206.734,269.084 M189.477,267.538
	c-0.336,0.946-0.505,1.893-0.505,2.84c-0.063,1.83,0.105,2.745,0.505,2.745l-0.915,1.641c-1.346-1.831-2.566-2.914-3.66-3.25
	c-0.063-0.147-0.095-0.315-0.095-0.505c1.156-1.493,1.967-2.377,2.429-2.65C187.72,267.875,188.467,267.602,189.477,267.538
	 M191.022,293.852c-0.546,0.126-1.125,0.252-1.735,0.378c0-1.472-0.199-2.986-0.599-4.543c-1.22-5.553-2.177-10.022-2.872-13.408
	c0.484,1.493,1.199,3.218,2.146,5.173c2.713,6.163,4.207,9.855,4.48,11.075c0.61-0.337,1.283-1.757,2.02-4.26l0.694,2.43
	c-0.126-0.063-0.253-0.095-0.379-0.095c0.189,0.126,0.389,0.189,0.6,0.189l0.6,1.735c0,0.336,0.073,0.642,0.22,0.914
	C194.22,293.504,192.495,293.641,191.022,293.852 M197.711,293.347c-0.147-0.147-0.147-0.253,0-0.315
	c-0.147-0.484-0.221-0.926-0.221-1.326c0.421,0.063,0.832,0.201,1.231,0.411c-0.337-0.063-0.642-0.095-0.916-0.095l-0.094,1.01
	c0.126,0,0.263,0.031,0.41,0.094C197.911,293.125,197.774,293.199,197.711,293.347 M209.7,286.216
	c-0.421,0.547-0.863,0.989-1.325,1.325c0.336-3.386,0.368-6.73,0.095-10.033c0.884,0.526,2.103,1.262,3.66,2.209
	c0.547,0.421,1.157,0.831,1.83,1.23C212.739,282.44,211.32,284.197,209.7,286.216 M213.329,306.534
	c-1.136-0.483-2.419-0.894-3.85-1.229c1.557-0.8,3.145-1.946,4.765-3.439c0.084,0.189,0.125,0.389,0.125,0.6
	C214.096,304.357,213.75,305.714,213.329,306.534 M207.46,320.731l0.283,0.632c-0.673,0.862-1.377,1.777-2.114,2.745
	C206.177,323.015,206.787,321.889,207.46,320.731 M214.875,306.944c-0.21,1.894-0.379,3.239-0.505,4.039
	c0-0.4-0.073-0.937-0.22-1.609c-0.336-0.884-0.505-1.599-0.505-2.146C214.128,307.165,214.538,307.071,214.875,306.944
	 M171.02,281.957c-0.421,1.094-0.967,2.649-1.641,4.669c-0.273,0-0.579,0.074-0.915,0.222c-1.136,0.336-2.114,0.673-2.934,1.009
	c0.546-0.884,1.125-1.735,1.735-2.556l-0.505-0.694C168.317,283.387,169.737,282.504,171.02,281.957 M174.773,279.527l0.695,0.189
	c-0.463,2.587-1.241,4.385-2.335,5.396l-0.915,0.504c0.421-2.229,0.831-3.648,1.23-4.259
	C173.449,281.294,173.891,280.685,174.773,279.527 M163.51,287.636c0.063,0,0.189,0.105,0.378,0.315
	c-0.462,0.399-0.894,0.673-1.293,0.82c-0.483,0-0.862,0-1.136,0C162.007,288.436,162.69,288.057,163.51,287.636 M174.963,292.432
	c-1.283,0.673-2.839,0.873-4.669,0.6c-1.83-0.4-3.387-1.179-4.67-2.335L174.963,292.432 M172.124,290.602l-0.6-0.915
	c1.009-0.084,2.934-0.39,5.773-0.915c0.147,0,0.252,0.063,0.315,0.189v0.095l1.42,2.649
	C175.583,291.58,173.281,291.211,172.124,290.602 M180.643,289.276c0-0.21,0.042-0.378,0.125-0.505
	c2.167,0.399,3.649,1.578,4.449,3.533c-0.547-2.691-1.861-4.679-3.944-5.963c0.336-1.829,0.841-4.175,1.514-7.035
	c0.884,5.7,2.135,10.779,3.754,15.238c-1.346-1.493-3.375-2.439-6.089-2.84c-0.146,0-0.389,0-0.725,0
	c0.21-0.21,0.452-0.651,0.725-1.324l0.821-0.694C181.063,289.476,180.853,289.339,180.643,289.276 M172.218,357.993
	c-1.009,1.894-2.051,3.859-3.124,5.899c-0.757,1.347-1.441,2.598-2.051,3.755c0.673-1.619,1.22-3.25,1.641-4.891
	C169.82,361.411,170.999,359.822,172.218,357.993 M209.7,308.049c0.61-0.126,1.22-0.263,1.83-0.41
	c1.409,3.996,1.367,6.878-0.125,8.645c-1.137,0.463-2.009,1.136-2.619,2.02l-0.126-0.315c-0.189,0.273-0.452,0.578-0.789,0.915
	c-0.61,0.757-1.462,1.809-2.556,3.155c-0.736,1.156-1.546,2.345-2.429,3.564c-0.211,0.463-0.442,1-0.695,1.609
	c-1.304,2.104-2.188,3.26-2.65,3.471c-1.83,2.566-3.354,4.858-4.575,6.878c-0.125,0-0.189,0.042-0.189,0.126l-0.82,0.284
	l-3.25,4.259c-0.673,0.884-1.283,1.662-1.83,2.335c0.063,0,0.2,0,0.41,0c-4.059,5.026-8.529,10.685-13.409,16.974
	c-0.21-0.21-0.347-0.378-0.41-0.504c0.273,0.673-0.873,2.429-3.439,5.269c-6.5,8.267-13.809,17.469-21.928,27.606
	c0.198-0.335,0.419-0.861,0.663-1.578l3.786-4.921c3.996-3.513,9.181-10.822,15.554-21.928l1.42-2.43h-0.095
	c0.252-0.399,0.483-0.81,0.694-1.23l0.094-0.095l0.505-0.789c-0.189,0.338-0.357,0.632-0.505,0.884
	c0.336,0.273,1.115-0.673,2.335-2.839c-0.736,0.483-1.241,0.957-1.515,1.419c2.377-4.585,5.29-10.201,8.74-16.848
	c0.673-0.883,1.419-1.966,2.24-3.249c0.063,0.272,0.095,0.515,0.095,0.726c1.135-2.104,1.671-3.155,1.609-3.155
	c1.156-2.02,2.408-4.081,3.754-6.184c0.084-0.211,0.158-0.379,0.221-0.505c1.073-1.704,1.988-3.124,2.745-4.26
	c0.126-0.146,0.19-0.252,0.19-0.315c0.21-0.273,0.347-0.547,0.41-0.82v0.221c0.61-0.609,1.052-1.125,1.325-1.546
	c-0.147-0.063-0.252-0.189-0.315-0.378c2.776-4.606,5.752-9.654,8.929-15.145C203.926,308.564,206.166,308.259,209.7,308.049
	 M344.42,366.638c0.189,0.189,0.284,0.326,0.284,0.41c2.953,4.976,5.972,9.571,9.055,13.787
	c-4.544-5.675-8.781-11.018-12.715-16.027l1.925,2.84c2.251,3.239,1.914,2.934-1.01-0.915c-2.776-3.786-4.806-6.563-6.089-8.329
	c0.147,0.273,0.252,0.578,0.315,0.915c1.072,3.323,0.053,2.135-3.061-3.565c-0.463-0.8-0.937-1.672-1.42-2.618
	c-0.063-0.147-0.158-0.284-0.284-0.411l-0.315-0.504c-2.776-3.45-5.354-6.668-7.729-9.654c0.357,0,0.631-0.032,0.82-0.096
	l-4.165-6.184l-2.113-0.631c0-0.063-0.074-0.095-0.222-0.095c-1.682-2.776-3.985-6.226-6.909-10.349
	c-0.462-0.736-0.999-1.515-1.609-2.334c-1.43-1.894-3.154-4.197-5.174-6.91l-0.095,0.315c-0.61-0.883-1.493-1.599-2.65-2.145
	c-1.557-1.746-1.588-4.618-0.094-8.614c0.546,0.063,1.156,0.264,1.829,0.6c3.449,0.127,5.647,0.357,6.595,0.694
	c2.713,4.69,5.279,9.065,7.698,13.125c1.367,1.283,2.997,3.407,4.89,6.373c2.902,4.396,4.522,7.72,4.859,9.97
	c0.547,0.946,0.957,1.862,1.229,2.745c0.211-0.21,0.348-0.452,0.411-0.726c0.736,1.22,1.44,2.303,2.113,3.249
	c3.534,6.626,6.479,12.211,8.834,16.754l1.42,2.24C342.327,362.378,343.452,364.408,344.42,366.638 M140.258,196.487
	c-0.484-0.484-0.926-0.821-1.326-1.01l-2.335-2.556c-6.163-5.756-12.147-10.614-17.952-14.576
	c6.869,4.069,13.294,7.95,19.277,11.642c0,0.126-0.042,0.231-0.126,0.316c1.641,0.799,3.502,1.809,5.584,3.029
	c6.1,3.723,11.685,7.078,16.753,10.064c1.157,0.399,2.618,1.272,4.385,2.619c2.083,1.493,3.702,2.818,4.859,3.976l1.01-0.726
	c0,0.21,0.042,0.315,0.125,0.315c2.84,2.166,6.426,4.942,10.759,8.329c1.409,1.136,2.724,2.282,3.944,3.439
	c0.82,0.273,1.703,0.747,2.65,1.42c1.409,1.094,2.587,2.04,3.534,2.839c-0.063-0.273-0.189-0.505-0.379-0.694l0.19-0.094v-0.726
	c0.946,0.546,1.998,0.789,3.155,0.726c2.083,1.072,3.428,4.964,4.038,11.673c-0.61,0.61-1.251,1.041-1.924,1.293
	c-3.029,2.861-5.027,4.491-5.995,4.891c-5.195-4.817-10.064-9.318-14.608-13.504c0-0.126,0-0.231,0-0.315
	c-0.399-0.399-0.631-0.705-0.694-0.915c-0.273-0.189-0.579-0.389-0.915-0.599v0.599c-0.273-0.399-0.621-0.736-1.041-1.009
	c0.273,0.147,0.515,0.252,0.726,0.315c-1.157-0.884-2.377-1.798-3.66-2.745c-0.61-0.547-1.22-1.052-1.83-1.515l-0.505-0.41
	c-1.767-1.557-3.492-3.113-5.174-4.669c-1.009-0.673-1.893-1.357-2.65-2.051c-0.063-0.063-0.263-0.231-0.6-0.505
	c-1.01-0.862-2.019-1.704-3.029-2.524c-1.977-1.956-3.839-3.891-5.584-5.805c-0.421-0.4-0.799-0.799-1.136-1.199
	c-0.189-0.21-0.39-0.378-0.6-0.504c-2.923-2.924-5.532-5.5-7.824-7.73c0.399,0.21,0.873,0.347,1.42,0.41
	c0.21,0-0.263-0.41-1.42-1.23c-0.21-0.189-0.579-0.484-1.104-0.883C140.258,196.077,140.258,196.276,140.258,196.487
	 M365.022,200.557c0.126-0.21,0.221-0.389,0.283-0.536c-1.501,1.547-3.089,3.188-4.764,4.922c-1.421,1.479-2.903,3.025-4.448,4.638
	c-1.031,0.673-2.156,1.588-3.376,2.745c0.146-0.336,0.146-0.673,0-1.009c0.146-0.21,0.021-0.21-0.379,0
	c-0.084,0.063-0.936,0.767-2.556,2.113c0.063,0.147,0.095,0.253,0.095,0.315c0.063,0,0.095,0.032,0.095,0.095
	c0.147,0.147,0.253,0.252,0.315,0.315c-2.02,1.83-4.08,3.618-6.184,5.363c-0.273-0.4-3.219,1.462-8.834,5.584
	c0.126,0.21,0.231,0.378,0.315,0.505c0.399-0.126,0.736-0.358,1.01-0.694c0.126,0.336,0.188,0.673,0.188,1.01
	c-2.292,2.167-4.689,4.333-7.192,6.5c-1.157,0.946-2.314,1.956-3.471,3.029c-1.283,1.157-2.599,2.345-3.944,3.565
	c-0.547-0.273-1.493-0.915-2.839-1.924c-0.211-0.21-0.453-0.41-0.727-0.6c-0.399-0.273-0.799-0.621-1.198-1.041
	c-0.337-0.252-0.716-0.516-1.137-0.789c0-0.147-0.063-0.253-0.188-0.315c-0.337-0.21-0.715-0.411-1.136-0.6
	c-0.189-0.21-0.421-0.421-0.694-0.631c0.399-3.975,1.01-7.015,1.83-9.118c0.609-1.367,1.356-2.25,2.239-2.65
	c1.137,0.147,2.178,0.01,3.124-0.41v0.41l0.126,0.221c-1.83,2.566-3.323,5.237-4.479,8.014c0,0.189-0.032,0.358-0.095,0.505
	c0.399-0.61,0.768-1.22,1.104-1.83c1.346-2.04,2.902-4.038,4.669-5.995c0.547-0.673,1.126-1.346,1.735-2.019
	c0.273-0.273,0.505-0.515,0.694-0.726c1.893-1.62,3.965-3.271,6.215-4.953c3.639-2.65,6.71-5.027,9.213-7.131l5.49-3.344h0.726
	c3.749-2.752,8.313-5.76,13.692-9.023c2.68-1.631,5.561-3.325,8.646-5.08c0,0.21,0,0.442,0,0.694
	c0.126-0.063,0.22-0.095,0.283-0.095c3.66-2.44,5.385-3.786,5.174-4.038c5.7-3.44,11.82-7.122,18.363-11.043
	c-5.656,3.914-11.335,8.5-17.037,13.756l-2.524,2.65l0.284-0.189c-0.4,0.463-0.831,0.894-1.294,1.294L365.022,200.557
	 M200.456,265.109l-0.315,0.315c0.547,3.386,1.704,8.928,3.471,16.626c0.525,2.777,1.031,5.217,1.515,7.32
	c-3.45,0.399-6.026,0.736-7.73,1.01c-0.4-2.566-1.042-5.269-1.924-8.108c-1.893-6.1-3.281-10.979-4.165-14.64
	c1.367,0.484,2.418,1.262,3.155,2.335c1.283,1.367,2.061,2.188,2.334,2.461l0.915-0.915c-1.283-2.924-3.207-4.691-5.774-5.301
	c-0.694-0.063-1.272-0.095-1.735-0.095l-0.316-0.189v0.189c-3.66-0.126-6.362,1.767-8.108,5.68
	c-0.052-2.498-0.473-5.085-1.262-7.762c0.778,0.256,1.735,0.477,2.871,0.662c1.157,0.274,4.606,0.411,10.349,0.411
	C196.512,265.109,198.752,265.109,200.456,265.109z"/>
</svg>
