<?xml version="1.0" encoding="utf-8"?>
<!-- Generator: Adobe Illustrator 15.1.0, SVG Export Plug-In . SVG Version: 6.00 Build 0)  -->
<!DOCTYPE svg PUBLIC "-//W3C//DTD SVG 1.1//EN" "http://www.w3.org/Graphics/SVG/1.1/DTD/svg11.dtd">
<svg version="1.1" id="Ebene_1" xmlns="http://www.w3.org/2000/svg" xmlns:xlink="http://www.w3.org/1999/xlink" x="0px" y="0px"
	 width="512px" height="512px" viewBox="0 0 512 512" enable-background="new 0 0 512 512" xml:space="preserve">
<g>
	<path fill="#FFFFFF" d="M302.934,308.86h1.422C303.884,308.86,303.406,308.388,302.934,308.86
		C302.934,308.388,302.934,308.86,302.934,308.86 M344.655,308.861h18.013c-5.212-1.422-9.479-1.895-13.746-0.945
		C347.972,308.389,346.55,308.389,344.655,308.861z"/>
	<path fill="#FFFFFF" d="M34.129,259.082v2.845c3.793,0.473,9.954,0.473,18.489,0.473c1.422,0,3.792,0,6.164,0
		c2.37,0.478,5.215,0.478,8.532,0.95c3.792,0.473,7.111,0.949,9.956,1.422c-2.845,1.422-5.215,2.845-7.587,4.268l1.897,0.473
		c8.534-3.318,20.86-5.689,36.979-7.112c1.895,0,3.792,0,5.689,0c1.422,0,3.317,0,4.739,0c0.476,0,2.845,0,5.689,0
		c0.473,0,0.473,0,0.473,0c0.476,0,1.897,0,4.268,0c3.319,0,6.639,0.478,9.956,0.478c4.268,0.945,8.534,1.895,12.327,3.789
		c12.326,5.217,22.755,7.584,31.762,7.584l0,0c0.95,0.479,1.897,1.424,2.845,1.9c5.689,3.317,11.379,5.213,16.594,5.213
		c2.37,0,5.689-0.473,9.957-1.423c2.369-0.473,5.689-1.423,9.481-2.368l0,0c0.947,0,1.895,0.473,2.37,0.473h1.422
		c7.112,1.423,12.802,2.373,18.016,2.846c2.37,1.895,5.689,3.317,9.954,4.267c0.476,3.795,2.845,6.162,7.587,7.112
		c1.895,0.473,5.689,0.473,11.852,0.473c5.689,0,9.484,0,10.906-0.473c2.845-0.473,5.212-1.895,7.112-4.268h6.635
		c1.895-1.895,5.212-2.372,10.901-1.895c4.267,0,7.111-1.899,8.534-6.167c-0.945,0-3.317-0.945-7.112-2.368
		c-2.367-0.949-5.212-1.422-7.111-1.422c-0.945,0-1.423,0-2.367,0c0.944-0.949,1.422-1.422,2.367-2.372l-1.423-1.896
		c-0.473,0-1.422,0.473-2.367,0.473c-0.478,0-0.95,0-1.422,0c0.472-0.473,0.944-1.422,1.422-1.895
		c3.79-1.422,6.635-2.372,8.534-2.372v-2.368c-1.422-0.477-3.795-0.949-6.64-0.949c0,0,0,0,0-0.473
		c5.689,0,10.43-0.477,13.752-1.422v-2.373c-1.423-0.473-4.745-0.944-9.957-0.944l-0.478-2.372c-0.473,0-1.895-0.472-4.267-0.472
		c-0.473-4.268-0.945-6.639-2.845-8.063c1.422-0.473,2.372-0.473,2.845-0.473l-0.473-2.371c9.956,0.949,15.646,0.949,16.596,0.949
		c0.945,0,2.367-0.477,4.268-0.949c2.367-0.951,4.739-2.373,6.162-3.795c-0.473-1.422-0.95-1.895-1.896-1.895
		c-4.267,0.473-10.434,0.949-18.49,0.473c-1.423,0-2.845,0-3.795-0.473v-1.895c-1.423,0-4.739-0.473-10.43-1.424
		c-2.367-0.473-4.739-0.473-6.161-0.949c-0.473-0.473-0.473-0.945-0.95-1.895c0,0,0-0.473-0.473-0.473h-0.473
		c0-0.479,0.473-0.949,0.473-1.422c0.473-1.424,0-2.373-0.95-2.846c-1.422,0-3.316,0.473-4.739,0.473l0.473-4.268
		c0-2.371,0-3.789-0.473-3.789c-0.473,0.473-0.473,0.473-0.473,0c-9.956,4.262-22.283,7.107-36.981,8.529
		c-17.065,1.422-27.97,2.844-32.71,4.268l0.473,3.795c6.637-0.951,15.646-1.424,27.973-2.846v2.373c-0.475,0-0.95,0.473-1.422,0.473
		c-5.215,0.471-9.482,0.949-12.802,1.422c-3.792,0-7.584,0.473-10.904,0.473c-9.007,0-15.644-0.473-19.91-1.424
		c0.947,2.373,2.369,4.268,4.739,5.691l0,0c-1.895,0-4.265-0.473-7.109-0.473c-0.475,0-0.95,0-1.897,0
		c-3.319-0.479-6.162-0.951-8.534-1.424c0,0.473,0.475,0.473,1.422,0.945c-1.422,0-2.369,0-3.316,0
		c0.472,0.479,1.422,1.422,1.895,1.9c-2.37,0.473-4.739,0.945-7.584,1.895c-5.215-0.949-9.482-2.373-13.274-3.316
		c0,1.895,0.947,3.316,1.895,4.738c-3.316,0.473-6.637,0.473-10.429,0.951c-3.319-1.424-5.215-2.373-5.689-2.373
		c-2.37,0-3.792,0-3.792,0.473l0.947,0.477c0,0.473,0.475,0.945,0.95,1.896c-0.476,0-0.476,0-0.95,0l-0.473-0.473v0.473
		c-7.587,0.471-16.594,0.949-26.55,1.422c-8.532,0.949-16.592,1.895-23.23,4.267c-0.473,0-0.947,0-1.423-0.472
		c3.795-0.479,7.112-1.424,9.957-1.901v-2.367c-0.947-0.479-1.423-0.949-1.896-0.949c-0.475,0-2.372,0-5.217,0
		c-1.422,0-7.109,0.471-17.065,1.895c-1.423-0.473-2.37-0.945-3.793-1.895c0,0.471,0.473,1.422,0.948,1.895
		c-1.423,0-3.32,0.477-5.215,0.477c-3.32,0.473-6.637,0.945-9.481,0.945c-3.793-0.945-7.112-1.895-9.957-3.789
		c-0.947,0.473-1.422,2.367-2.37,4.738C42.188,258.609,37.446,259.082,34.129,259.082 M184.414,251.498
		c0.947,0.473,1.895,0.949,3.317,1.422c-0.473,0-0.473,0-0.947,0c-0.476,0-1.423,0-1.897,0
		C184.414,251.971,184.414,251.971,184.414,251.498 M174.457,268.566l-4.267-0.95c1.897,0,4.267,0,6.164,0c0,0.473,0,0.95,0,1.423
		C175.407,269.039,174.933,268.566,174.457,268.566 M192.474,273.778c1.422,0,3.316-0.473,4.739-0.473
		c3.319,0.473,6.164,1.423,9.481,1.896c0.476,0,0.95,0.473,1.423,0.473c-2.37,0.949-4.268,1.422-5.689,1.422
		C200.058,277.096,196.74,276.15,192.474,273.778 M196.266,259.555c0.947,0,6.162-0.945,15.646-2.844
		c2.37-0.473,5.215-0.473,8.06-0.945c0.947,0,1.42,0,2.37,0c6.162,0,9.954-0.478,12.326-1.423v-0.473
		c2.37-0.477,4.268-0.477,6.162-0.949c7.112-0.949,11.379-1.895,12.802-2.373l-0.476-0.471c2.37,0,6.164,0.471,11.852,1.422
		c0.473,0,1.422,0,1.895,0.473v1.422h2.372v1.895c0.473,0,1.423,0.478,2.846,0.95c-0.473,1.895,0,3.317,1.895,4.739v0.478
		c-0.473-0.478-0.473-0.478-0.945-0.478c-2.845,0.95-5.217,1.9-7.589,2.373c-6.16,1.422-10.901,2.371-14.693,2.371
		c-1.423,0-4.742-0.477-8.535-0.949c-3.316-0.473-6.161-0.473-8.059-0.473c0.475,1.422,1.422,2.367,2.369,3.317
		C224.235,265.244,211.437,262.399,196.266,259.555 M249.363,269.988c0,0-0.475,0-1.422,0
		C248.416,269.988,249.363,269.988,249.363,269.988L249.363,269.988L249.363,269.988 M265.007,279.468c0.473,0,0.473,0,0.95,0.473
		c-0.478,0-1.423-0.473-1.9-0.473C264.057,279.468,264.534,279.468,265.007,279.468 M273.541,288.952c-0.473,0-0.95,0-1.422,0
		c0.472,0,1.422,0,2.372,0C274.014,288.952,274.014,288.952,273.541,288.952 M266.429,267.616c0.95-0.472,2.373-0.95,3.795-1.423
		c0.945-0.473,1.423-0.949,2.367-1.422v0.473c0.95,0.949,1.9,1.9,3.322,2.845c-0.949,0-1.422,0-2.845,0
		C271.169,267.616,269.273,267.616,266.429,267.616 M271.169,272.355c-2.367,0-3.79,0-3.79,0.479l0.945,0.472
		c0,0.473,0,0.473,0,0.944h-0.473c-2.845-0.944-6.162-1.416-9.954-2.367c2.37,0,4.737,0,7.582,0c3.794,0,7.111,0,9.484-0.472v0.944
		C274.491,272.355,273.068,272.355,271.169,272.355 M252.208,249.604c-0.475-0.479-0.947-0.951-1.422-1.424
		c0.475,0,1.422-0.477,1.895-0.477c0,0.477,0,0.949,0,0.949v0.951 M275.913,248.18c-2.372-0.477-5.217-0.949-8.534-1.422
		c-0.478,0-0.95,0-1.422-0.477c1.895,0,5.212,0,9.956-0.473v0.473c1.896,0,4.268,0,6.635,0.477c0,0,0,0,0,0.473l0,0
		c-0.945,0-2.367,0.473-3.79,0.473C277.809,247.703,276.858,247.703,275.913,248.18 M285.87,255.288l0.473-0.473
		c0.472,1.423,0.949,2.373,1.422,3.795h-0.473c-0.949-0.477-1.899-1.422-2.372-2.372C285.393,255.765,285.87,255.765,285.87,255.288
		 M283.97,256.71c0,0.477-0.472,0.95-0.472,1.422c-0.473,0-0.95-0.473-1.423-0.473C283.025,257.66,283.498,257.188,283.97,256.71z"
		/>
	<path fill="#FFFFFF" d="M216.176,440.182L216.176,440.182c7.112,0.478,14.699-1.422,23.23-5.689
		c3.793-1.895,8.535-4.268,14.225-7.112c0.472,0.95,0.947,1.9,1.422,2.845c-2.845,0.95-5.215,2.373-8.06,4.745
		c-5.217,4.267-7.587,8.534-7.111,12.802h20.857c0.476,0,0.476-0.478,0.95-0.478l0,0c-3.792,3.322-5.689,7.589-5.689,11.856
		c0.475,0,0.947,0.467,0.947,0.467c0.476,0,1.897,0,4.268,0c1.897,0,3.792-0.944,5.214-2.367c0.95-0.944,1.896-1.422,3.317-1.899
		c-0.473,0.478-0.944,0.955-1.895,1.899c-7.584,8.057-12.799,15.169-14.696,20.858c0.476,0,0.476,0.478,0,0.478c0,0,1.423,0,3.792,0
		c2.845,0,6.637-3.322,12.799-9.484c7.112-7.584,10.907-11.374,11.379-11.852l0.478,0.478c-1.899,2.367-3.794,4.263-4.744,5.212
		c0.478,2.367,1.422,3.79,2.372,3.79c0.95-0.473,3.317-1.895,8.062-4.739c3.79-2.373,6.157-3.795,8.058-4.74
		c3.316,3.79,5.689,5.212,7.584,4.74c1.422,0,3.317-1.418,6.162-3.317c0,0.944-1.423,2.845-3.317,6.162
		c-1.423,2.845-2.372,5.217-2.372,7.584c0,0.95,0,1.899,0,2.372c-1.423,2.372-3.317,5.217-5.689,8.062
		c0.478,0,0.949,0.945,1.422,2.368c1.9,0.478,3.795-0.473,5.689-3.79c3.322-5.217,6.167-9.012,8.534-11.379
		c2.845,2.845,6.167,3.317,9.957,1.422l0.95-10.434c0.472-1.423,0.949-2.845,0.949-4.268h9.957l0,0c0.945,0,2.367,0.001,3.79,0.001
		c2.367,0,7.111-2.367,14.224-7.58c7.111-4.744,11.379-7.588,12.801-7.588l10.902-4.268c1.895,0,2.845,0.477,3.789,0.949
		c0.478,0,0.478,0.473,0.95,0.473c0,0,0,0,0.473,0.477c0.478,0.473,0.949,1.424,1.422,2.846c0.478,0,0.478-0.477,0.95-0.477
		c0,0.949,0,1.898-0.473,2.844c0,2.373,0,4.744,0,7.111l0,0c-0.95,3.791-0.478,7.113,1.423,9.957
		c1.422,2.367,3.316,3.789,5.212,4.268c0.949-0.479,1.899-1.422,1.899-1.9c0.473-0.945,0.473-2.844,0.473-5.211
		s-0.473-4.268-1.423-6.162v-0.473c0.473-4.268,0.95-7.59,1.423-9.484c2.845,1.895,7.584,5.217,15.174,10.906
		c0.468,1.422,0.944,2.846,1.422,4.734c2.845,8.063,7.58,15.646,13.747,22.285l1.895-1.422c-0.95-5.689-1.895-10.43-2.372-15.174
		c0.949,0.951,2.372,1.422,2.845,1.9l1.899-1.422c-1.899-2.846-4.267-7.113-6.64-12.324c-1.422-7.111-2.372-12.33-2.845-15.646
		c0-0.477-0.472-0.949-0.472-1.9c5.212,0,8.057,0,9.006-0.945c0.95-0.949,1.423-4.744,1.423-10.9c0-0.479,0-0.955,0-1.422
		c3.795,1.422,8.534,3.789,13.273,6.633c0.478,0.945,0.945,1.424,0.945,1.896c0.478-0.473,0.478-0.473,0.955-0.951
		c4.267,2.373,8.529,4.744,13.269,8.063c1.423-0.949,1.9-3.318,2.372-7.111c-2.372-1.896-4.739-4.268-8.062-6.641
		c-0.473-4.268-1.422-8.529-2.845-12.797c0.478,0.473,0.955,0.473,1.423,0.951c1.422-0.951,1.899-2.373,2.372-4.744
		c-0.473-0.945-0.473-2.369-0.95-3.318c2.372,0.949,4.268,0.949,6.167,0.949l1.423-2.371c-1.9-1.422-4.745-4.268-8.535-8.535
		c1.423,0.951,2.846,1.424,4.268,1.424c1.895,0,3.317,0,4.268-0.473c6.634,3.316,12.801,5.211,18.013,5.211l1.423-2.367
		c-1.895-2.844-2.845-4.744-2.845-4.744c-8.534-1.895-15.646-4.268-20.386-7.111c-6.162-3.313-12.329-9.002-18.486-16.592
		l-0.478,0.479c-0.944-0.951-1.422-1.424-2.367-2.373c-2.372-2.373-4.744-4.74-6.64-6.639c0.95-0.473,1.423-0.945,1.896-1.424
		c-4.74-8.057-11.379-15.641-19.437-22.279c-6.634-5.213-12.801-9.008-19.436-11.379c0.473,1.898,1.895,3.793,3.79,6.166
		c-1.896,0-2.367,0.473-2.367,0.473l0.944,0.473c0,0.477,0.478,0.949,0.478,1.422c-3.322-3.316-6.167-6.635-9.012-9.957
		c-1.895-3.789-3.317-7.584-3.317-11.852c0-2.844,0-4.266,0.473-4.738h-0.944c2.845-5.217,4.267-9.008,4.267-10.902
		c0-2.373-0.478-3.795-0.95-3.795c-0.472,0-0.472,0-0.949,0.473c-7.585,4.744-12.324,10.43-14.691,16.596c0,0,0,0-0.478,0h-18.964
		c0.473-1.422,0.473-2.844,0.473-4.744c0-2.367,0-3.789-0.473-4.268H347.5h-1.9c-2.367,2.846-3.789,5.689-4.739,8.063
		c-0.473,0-0.95-0.473-1.423-0.473c0,0.473,0.473,0.945,0.473,1.422h-1.422h-0.473c-0.95-1.422-1.423-2.372-1.895-2.372
		c0,0.473,0,0.95-0.478,1.422c-0.473-0.472-1.423-0.949-1.891-1.422c-0.478,0.95-0.478,1.895-0.478,2.845
		c-0.944,0-2.367,0-3.321,0.473c-0.468-1.423-1.891-2.367-3.313-2.845l-0.478-0.473l0,0c0,0,0,0-0.473,0
		c-0.95,0.473-1.895,0.95-2.372,1.895c0,0,0,0,0,0.478c-0.473,0.473-0.945,0.945-1.895,1.423c-0.473,0-0.95,0-1.423,0
		c-0.95-0.478-1.422-0.95-2.845-1.423c-0.95-0.478-1.895-1.422-2.845-2.372c0-0.473-0.473-0.473-0.473-0.95
		c-0.478-0.944-0.949-2.367-1.899-3.79c-0.473,0.473-0.945,1.423-1.423,2.846c-0.944,0.472-2.367,1.422-3.789,2.845
		c-4.268-3.795-7.59-5.69-10.435-5.69c-2.367,0-3.79,0-3.79,0.473v0.473c-0.944,10.435-0.944,18.019-1.422,22.758v0.473
		c-2.367,3.322-4.739,7.112-7.112,10.435c-1.895,0.472-3.316,0.472-4.739,0.472l-0.473,4.74h0.473c0,0-0.473,0.949-1.422,1.895
		c0,0,0,0.478,0.949,0.478c0,0-0.478,0.473-0.478,0.945h-0.472c-5.218,1.899-9.957,3.794-13.274,6.639
		c-1.899,1.423-3.795,2.845-5.689,4.74h-0.475c-1.423,0.949-3.792,3.794-7.112,8.534c-1.422,1.422-2.369,2.845-2.842,3.795
		c-0.475,0.944-0.95,1.422-1.897,2.367c-2.37,0.478-5.215,2.372-8.534,4.267l0,0c-0.473-1.422-0.947-1.895-1.895-1.895
		c-1.897,0.473-4.268,1.422-7.587,2.372c-2.845,0.945-5.215,1.895-6.638,2.845c0,1.89,0.476,3.313,1.423,3.79h9.481
		c0.476,0,0.947-0.478,1.423-0.478c0,0.955,0.475,2.377,0.475,3.322c0.473,1.422,1.423,2.845,2.37,4.267
		c-2.845,3.79-4.742,6.162-6.165,7.585c0,0.949,0,1.422,0,1.895c0,0,0.95,0.478,2.373,0.478c-0.476,0.473-0.476,0.945-0.95,1.422
		c-1.423,0.945-2.37,1.896-3.792,3.79c0.475,0.478,0.475,1.423,0.475,3.795c0,0.95,0.947,1.895,3.317,1.895
		c-2.37,0-3.792,0.95-3.792,2.372c0.475,1.896,0.475,2.84,0.475,3.795l1.895,0.468c1.897-0.468,4.742-2.367,9.01-6.157
		c0.947-0.95,1.895-1.899,2.369-2.372c-0.947,8.062-1.422,12.796-0.947,13.273c0.947,0,1.896,0.478,3.317,1.423
		c-3.317,0.944-7.111,2.845-11.376,5.212c-5.689,2.845-11.38,7.112-18.491,11.856C215.704,440.182,216.176,440.182,216.176,440.182
		 M247.941,405.1C247.941,405.1,247.466,405.577,247.941,405.1C247.466,405.577,247.466,405.1,247.941,405.1
		c-0.476,0-0.476,0-0.476,0H247.941 M249.363,412.689c0-0.478,0-0.95,0-1.423c0.475-0.478,0.947-0.478,1.423-0.478
		c0,0.478,0,0.478,0,0.95C250.311,412.212,249.838,412.689,249.363,412.689 M304.828,338.73c-0.944,0.473-1.895,1.422-2.845,2.367
		c1.423-1.895,2.372-3.317,2.845-4.267c1.9-1.896,4.268-4.263,7.112-7.107c0.478,0,0.95-0.478,0.95-0.478
		c0.472-0.473,0.949-0.473,0.949-0.473c-2.845,4.268-4.744,6.635-5.217,7.585c-0.473,0.473-0.473,0.473-0.95,0.949
		c-0.473,0-0.473-0.477-0.944-0.477C306.729,336.831,305.778,337.78,304.828,338.73 M307.2,318.817c0.473,0,0.95,0,1.423,0
		l1.895,1.422c-0.473,0.473-0.944,0.95-1.422,1.423c-1.423,0.949-2.367,2.372-3.79,2.845c1.423-2.372,1.895-3.795,1.895-4.268
		S307.2,319.29,307.2,318.817 M323.319,318.817L323.319,318.817L323.319,318.817L323.319,318.817 M333.275,325.929
		c0.478-0.472,0.478-0.472,0.945-0.949c2.372,0.478,4.745,0.478,6.64,1.423c1.422,0.949,3.317,1.9,5.217,2.844
		c5.689,2.846,11.379,4.268,16.591,4.74c5.689,4.744,9.957,8.063,13.747,10.434c6.639,7.107,10.906,10.902,12.328,10.902
		c2.373,0,3.795,0,4.268-0.473c0,0,0-0.477-0.473-0.477c-0.478-0.945-1.899-2.846-2.845-4.74l0,0
		c2.845,3.316,6.162,6.639,9.479,10.906c0.478,0.945,1.422,1.422,1.899,2.367c0.473,3.322,2.367,7.59,5.212,11.857
		c3.79,6.156,8.535,9.479,12.802,9.479c0,0,0,0,0.473,0c0.473,0.945,1.422,1.422,1.895,2.367c0.478,0.477,0.478,0.477,0.95,0.949
		c-3.317-0.473-6.64-0.949-10.429-2.371c-0.945-0.473-6.167-2.846-16.119-8.057c-0.473,0.477-0.473,0.943-0.95,1.422
		c-1.895,2.844,0,5.689,5.218,8.533h-0.473c-2.372,0-3.795,0-4.268,0c0,0.473-0.478,0.473-0.949,0.945
		c1.422,2.373,5.217,4.268,10.906,6.168c-0.478,0.473-0.95,1.422-1.423,2.844l0,0l-0.478-0.477
		c-2.367-1.895-4.267-2.846-6.161-2.846c-5.69,0-11.38-1.895-16.119-5.689c-0.95-0.945-1.899-1.422-2.845-2.367
		c-1.899-2.844-4.268-6.166-6.635-9.957c0-0.477-0.478-0.943-0.478-1.422c1.9-0.477,2.845-1.422,2.368-3.789
		c0-1.422-0.468-2.373-0.945-3.795c0-0.473-0.478-0.473-0.478-0.949l0,0c1.423-0.473,1.899-1.424,1.899-2.846
		c-0.477-0.473-0.944-0.945-0.944-0.945s-0.955,0-2.845,0l0,0c0.944,0,1.422-0.477,1.422-0.949c0.468-0.473,0.468-1.895,0.468-3.795
		c-0.468-1.422-0.945-1.895-1.89-1.895c-1.423,0-2.377,0-3.322,0c-0.478-0.473-0.478-0.949-0.945-1.895
		c0.473-0.479,0.945-1.424,1.423-1.9c0,0,0,0,0.468,0c0,0,0,0,0.477-0.473c1.9-0.949,2.845-1.422,3.79-2.373
		c-0.468-2.367-1.422-3.789-2.367-3.789c-3.317-0.949-6.162-0.473-7.584,1.422c-0.473,0.473-0.95,0.473-0.95,0.945l-2.367,0.951
		c-0.95,2.371-1.9,4.266-1.9,6.162c-0.944-1.424-2.367-2.846-3.316-4.268c0.949,2.844,2.372,5.689,3.794,9.012
		c0.473,0.473,0.945,1.422,0.945,1.895l0,0l-1.423,0.949l0,0c1.9,11.379,7.112,20.859,15.646,28.916l0,0
		c0,1.898,0,3.795,0.478,5.217c-3.8,5.689-6.167,9.484-6.64,12.328c0,0.473-0.473,1.424-0.473,1.891
		c-2.372,1.9-4.267,3.799-6.167,5.689c-0.472,0.477-0.944,0.955-1.422,1.422c-0.473,0.479-1.423,2.373-1.895,5.217l-0.473,4.268
		c0,0,0,0.473,0.473,0.473c-1.423,0.477-2.373,0.477-3.795,0.949c-0.473-0.949-0.473-1.422-0.945-2.371
		c-0.95-1.424-1.899-2.846-3.795-4.268c0.95-1.422,1.896-2.367,2.373-4.268c0,0,0-0.467,0.472-0.467
		c3.317-5.689,5.218-11.379,5.218-16.596c-0.478-0.473-0.95-1.424-1.9-1.424l-0.944-0.473c-2.373,5.689-5.218,11.381-8.534,16.592
		c0.944-2.367,1.422-4.74,1.422-7.584c0-2.373-0.478-4.268-0.95-4.74l-0.949-0.477c-1.423,0.949-3.79,4.268-6.157,9.957
		c-0.478,0.477-0.478,1.422-0.955,1.898c-4.267,0-7.106,1.423-9.002,3.79c-4.744,0.478-8.062-0.478-10.434-2.367l0,0
		c0.478-0.478,0.478-0.955,0.95-1.423c-1.423-0.955-3.795-4.744-8.535-12.329c-0.472-0.949-0.949-1.422-1.422-2.372
		c1.895-2.367,4.268-4.739,6.162-6.635c2.372-1.899,6.167-9.012,12.329-21.335c-0.95-1.423-1.896-1.896-2.845-2.367
		c-0.473,0-0.473,0-0.473,0.472c-2.372,1.423-4.745,3.317-7.59,5.218c2.845-3.795,4.745-7.59,5.689-11.856
		c0.478-2.368,0.95-5.213,0.95-7.585c0,1.896-0.473,4.268-1.895,6.64c-1.423,3.317-4.268,7.584-8.062,11.847
		c-4.268,5.222-7.112,8.534-9.484,10.434c-0.473-0.478-0.945-0.478-1.423-0.949c0,0.472-0.473,1.422-0.473,1.895
		c-0.472,0-0.472,0-0.472,0l0,0c-0.478,0-0.945,0-0.945,0c-1.423,0.478-1.899,0.95-1.899,2.372h-0.478
		c-2.367,0.473-3.313,0.95-3.79,0.95c0.945,4.739,1.899,9.479,2.845,13.273c-0.945,0-1.422,0-1.899,0
		c0,0.473-0.468,0.473-0.945,0.95c0,0.473,0,0.473,0,0.945c-3.79-4.74-7.112-7.112-10.429-7.112c-0.473,0-1.423,0-1.896,0
		c0-2.367,0-4.739,0-7.112c0-0.472-0.478-0.944-0.478-0.944c0.478-1.423,0.478-3.795,0.478-6.167c0-0.945,0-1.423,0-1.89
		c0-1.423-0.478-1.9-1.422-1.423l-1.423,0.945h-1.899c0,0.478,0,0.478,0,0.944c-0.473-0.467-0.945-0.944-1.423-1.422v-0.468
		c0.478-0.478,1.423-0.955,1.9-1.422c1.895-1.9,4.267-4.268,6.634-7.112c-0.944-0.478-1.895-0.95-2.845-1.422
		c1.423-2.373,2.373-4.745,3.795-7.112c0.95-1.899,2.372-3.795,3.317-6.167c0.478,0,0.95,0,1.422,0c0,0,1.9-0.473,5.213-0.945
		c1.422-0.477,3.799-0.949,6.167-1.422c7.111-2.845,10.901-8.062,10.901-15.174c0-1.422,0-2.367,0-2.845
		c0.478-0.473,0.95-0.945,1.422-1.417c4.268-4.268,7.112-8.063,9.484-11.38c-0.95,2.846-1.422,6.162-1.895,9.957h1.422
		c0.473,4.263,1.423,8.057,3.317,11.374c-5.217,3.795-9.956,9.007-13.751,15.646c-2.367,3.794-4.268,7.584-5.212,10.429
		c-0.478,1.9-0.95,3.795-0.478,5.217c3.322-1.422,8.062-6.161,14.224-15.173l0.478-0.473c1.422-1.896,2.367-3.795,3.789-5.217
		c0-0.473,0.478-0.473,0.478-0.945c-0.478,1.422-0.478,2.367,0,2.845c2.367-0.478,4.74,0.945,7.112,4.739
		c1.422-0.949,1.89-2.372,2.367-4.739c-0.478-0.478-0.945-2.372-1.423-5.217c0.478,0,0.945-0.473,0.945-0.473
		c0-0.473,0-0.473,0-0.95c0.478-0.944,0.478-1.895,0.955-2.845c-0.955-2.367-1.9-5.212-3.322-8.534c0-0.945,0-1.895-0.478-2.845
		h-4.734c-0.478-0.473-0.478-1.422-0.95-1.895l-1.422-2.845C326.642,332.568,329.486,329.724,333.275,325.929
		C332.799,325.929,332.799,325.929,333.275,325.929 M358.879,322.135L358.879,322.135c0-0.473,0-0.473-0.478-0.473
		C358.401,321.662,358.879,321.662,358.879,322.135 M356.979,319.768c-0.472-0.477-0.472-0.949-0.944-1.422
		c0-0.479-0.478-0.479-0.478-0.479s0,0,0.478,0C356.507,317.867,356.979,318.818,356.979,319.768 M269.273,389.453l0.473-0.472
		C269.746,388.981,269.746,388.981,269.273,389.453C269.746,389.453,269.273,389.453,269.273,389.453 M271.646,394.198
		c0.473,0.473,0.473,1.422,0.473,1.895c0.472,1.423,0.472,1.896,0.472,2.845c-0.944,0.95-1.895,1.423-2.845,2.372
		c-1.422,1.423-2.367,2.368-2.845,3.79c-0.473,0.478-1.422,1.423-2.367,1.9c0.945-1.9,1.423-4.268,1.895-7.59
		C268.802,397.043,270.696,395.62,271.646,394.198 M304.828,390.876L304.828,390.876L304.828,390.876
		c-0.473-0.945-0.473-1.423-0.944-1.895l5.689-5.689C308.15,385.187,306.729,387.559,304.828,390.876
		C305.306,390.403,305.306,390.403,304.828,390.876 M268.324,424.063c0.478,0,0.478,0,0.949,0c0.473,0.472,0.473,1.422,0.95,1.895
		C269.746,425.013,269.273,424.535,268.324,424.063 M264.057,424.063c0.478,1.422,1.423,2.372,1.9,3.794
		c-2.373-1.422-3.795-2.845-5.218-4.267C261.689,423.591,262.635,424.063,264.057,424.063 M290.604,426.436
		c-1.417,0-2.84-0.478-4.734-1.9c-1.9-0.944-3.795-2.845-6.167-5.212c-0.473-0.478-0.945-0.944-1.423-1.422
		c4.745-3.79,7.59-5.212,8.534-5.212c1.423,0,2.373,0,3.79,0.472l0,0v2.84c0.478,0,0.478,0,0.955,0.478
		c1.422,3.322,4.267,6.635,8.057,9.007c1.895,0.95,3.79,1.895,6.162,2.845c4.267,1.895,8.534,3.317,13.273,3.795
		c0.478,0.473,0.478,0.473,0.95,0.944h2.845c0,0.95,0,1.423-0.473,2.373c-1.422-1.423-2.845-2.373-5.217-2.845
		c-2.845-0.95-6.162-1.896-9.007-1.896c-2.372,0-3.795,0-4.267,0c0,0.473-0.478,0.473-0.95,0.945c0,0.478,0,1.422,0,1.899
		c-2.372,0-5.217-0.949-8.062-2.372c0-0.473,0-0.473,0-0.95c-0.468-0.944-0.468-1.895-0.468-3.316
		C294.872,426.908,293.449,426.436,290.604,426.436 M282.075,445.871L282.075,445.871L282.075,445.871L282.075,445.871
		 M299.139,447.771c2.372,0,4.745,0,7.59,0c0.472,0,0.944,0,1.895,0c-0.473,0.472-0.95,0.472-1.895,0.944
		C304.355,448.243,301.511,448.243,299.139,447.771L299.139,447.771 M309.096,436.864c0.949,0,1.899,0,3.322,0.473
		c-0.95,0-1.9,0.478-2.845,0.478C309.573,437.814,309.573,437.337,309.096,436.864L309.096,436.864 M342.755,441.133
		c0.478,0,0.95,0,1.423,0l-0.473,0.473C343.232,441.133,342.755,441.133,342.755,441.133 M364.091,419.324L364.091,419.324
		L364.091,419.324c-1.895,2.844-2.845,4.268-3.317,4.74c-0.473-0.951-0.95-1.896-1.422-2.373
		C360.301,421.225,362.196,420.746,364.091,419.324 M407.229,395.621c-0.945-0.949-1.89-1.422-2.367-1.9
		c0.478,0,1.422,0.479,1.899,0.479c4.735,1.422,10.425,2.844,17.536,3.789c1.9,0,3.322,0,3.795-0.473
		c1.895,3.795,2.845,7.111,2.845,10.906c0,0-0.473,0-0.473,0.473c-1.422-1.422-2.845-2.371-4.267-3.316V405.1
		c-0.95-1.422-1.423-1.895-1.9-2.367c-0.944-0.949-0.944-1.898-0.944-2.371h-2.845l-0.478-1.896
		c-3.79-0.477-7.112-0.949-10.425-1.422c-0.478-0.477-0.478-0.949-0.954-1.422C408.185,396.094,407.707,395.621,407.229,395.621
		 M390.639,410.789c-0.473-1.422-0.473-2.367-1.423-3.316c0.95-0.949,1.423-1.422,1.9-2.373c2.367,0.951,4.739,1.424,7.111,1.9
		l-0.478,0.473c-1.895,0-2.845,0.473-2.845,0.473l0.478,0.477v0.473c0,0,0,0,0,0.473c-1.899,0.949-3.322,1.9-4.744,2.373
		C391.116,411.268,390.639,410.789,390.639,410.789 M410.074,421.225c0,0.467,0,0.467,0,0.943
		C410.074,421.691,410.074,421.691,410.074,421.225L410.074,421.225 M422.403,416.957L422.403,416.957L422.403,416.957
		L422.403,416.957 M415.764,414.111c-0.944-0.477-1.895-0.955-3.313-1.422c1.891-0.477,3.79-0.949,5.685-1.422
		c0.473,0.473,0.95,0.945,1.423,1.895C418.136,413.162,417.187,413.635,415.764,414.111 M375.47,313.6L375.47,313.6
		c0,1.424,0.473,2.846,0.473,4.268c-0.473-0.945-1.418-1.422-1.896-1.895C374.524,315.023,374.992,314.078,375.47,313.6
		 M373.57,365.279l0.949,0.473c-0.949,3.322-0.473,5.217,1.423,7.111c0.473,0.477,2.845,1.422,7.584,3.789
		c2.845-2.367,2.845-5.211,0.478-8.057c-1.899-2.367-4.267-3.789-6.64-3.789C374.524,364.807,373.57,364.807,373.57,365.279z"/>
	<path fill="#FFFFFF" d="M216.176,72.293L216.176,72.293c7.112-0.473,14.699,1.422,23.23,5.689
		c3.793,1.895,8.535,4.268,14.225,7.111c0.472-0.949,0.947-1.898,1.422-2.844c-2.845-0.951-5.215-2.373-8.06-4.74
		c-5.217-4.268-7.587-8.533-7.111-12.801h20.857c0.476,0,0.476,0.473,0.95,0.473l0,0C257.897,61.863,256,58.068,256,53.33
		c0.475,0,0.947-0.473,0.947-0.473c0.476,0,1.897,0,4.268,0c1.897,0,3.792,0.945,5.214,2.367c0.95,0.949,1.896,1.422,3.317,1.9
		c-0.473-0.479-0.944-0.951-1.895-1.9c-7.584-8.057-12.799-15.168-14.696-20.857c0.476,0,0.476-0.473,0-0.473c0,0,1.423,0,3.792,0
		c2.845,0,6.637,3.316,12.799,9.479c7.112,7.584,10.907,11.379,11.379,11.852l0.478-0.473c-1.899-2.373-3.794-4.268-4.744-5.217
		c0.478-2.367,1.422-3.789,2.372-3.789c0.95,0.473,3.317,1.895,8.062,4.738c3.79,2.373,6.157,3.795,8.058,4.74
		c3.316-3.789,5.689-5.213,7.584-4.74c1.422,0,3.317,1.424,6.162,2.846c0-0.951-1.423-2.846-3.317-6.162
		c-1.423-2.846-2.372-5.217-2.372-7.584c0-0.951,0-1.9,0-2.373c-1.423-2.373-3.317-5.217-5.689-8.063
		c0.478,0,0.949-0.943,1.422-2.367c1.9-0.477,3.795,0.473,5.689,3.791c3.322,5.217,6.167,9.012,8.534,11.379
		c2.845-2.846,6.167-3.318,9.957-1.424l0.95,10.43c0.472,1.422,0.949,2.846,0.949,4.268h9.957v0.477c0.945,0,2.367-0.477,3.79-0.477
		c2.367,0,7.111,2.373,14.224,7.59c7.111,4.738,11.379,7.105,12.801,7.105l10.902,4.268c1.895,0,2.845-0.473,3.789-0.945
		c0.478,0,0.478-0.477,0.95-0.477c0,0,0,0,0.473,0c0.478-0.473,0.949-1.895,1.422-2.846c0.478,0,0.478,0.479,0.95,0.479
		c0-0.949,0-1.9-0.473-2.846c0-2.371,0-4.744,0-7.111l0,0c-0.95-3.795-0.478-7.111,1.423-9.484c1.422-2.367,3.316-3.789,5.212-4.738
		c0.949,0.471,1.899,1.422,1.899,1.895c0.473,0.949,0.473,2.844,0.473,5.217c0,2.371-0.473,4.268-1.423,6.639v0.473
		c0.473,4.268,0.95,7.584,1.423,9.479c2.845-1.895,7.584-5.211,15.174-10.9c0.468-1.422,0.944-2.846,1.422-4.74
		c2.845-8.061,7.58-15.646,13.747-22.285l1.895,1.422c-0.95,5.689-1.895,10.43-2.372,15.174c0.949-0.949,2.372-1.422,2.845-1.9
		l1.899,1.424c-1.899,2.844-4.267,7.111-6.64,12.328c-1.422,7.111-2.372,12.324-2.845,15.646c0,0.473-0.472,0.945-0.472,1.895
		c5.212,0,8.057,0,9.006,0.945c0.95,0.949,1.423,4.744,1.423,10.906c0,0.473,0,0.949,0,1.422c3.795-1.422,8.534-3.795,13.273-6.639
		c0.478-0.945,0.945-1.422,0.945-1.895c0.478,0.473,0.478,0.473,0.955,0.949c4.267-2.373,8.529-4.744,13.269-8.063
		c1.423,0.951,1.9,3.318,2.372,7.113c-2.372,1.895-4.739,4.268-8.062,7.111c-0.473,4.268-1.422,8.535-2.845,12.801
		c0.478-0.477,0.955-0.477,1.423-0.949c1.422,0.949,1.899,2.373,2.372,4.74c-0.473,0.949-0.473,2.371-0.95,3.322
		c2.372-0.951,4.268-0.951,6.167-0.951l1.423,2.373c-1.9,1.422-4.745,4.268-8.535,8.529c1.423-0.945,2.846-1.422,4.268-1.422
		c1.895,0,3.317,0.477,4.268,0.477c6.634-3.316,12.801-5.217,18.013-5.217l1.423,2.373c-1.895,2.844-2.845,4.738-2.845,4.738
		c-8.534,1.895-15.646,4.268-20.386,7.113c-6.162,3.316-12.329,9.006-18.486,16.59l-0.478-0.473
		c-0.944,0.951-1.422,1.424-2.367,2.373c-2.372,2.367-4.744,4.74-6.64,6.635c0.95,0.477,1.423,0.949,1.896,1.422
		c-4.74,8.063-11.379,15.646-19.437,22.281c-6.634,5.217-12.801,9.012-19.436,11.379c0.473-1.895,1.895-3.791,3.79-6.162
		c-1.896,0-2.367-0.473-2.367-0.473l0.944-0.479c0-0.473,0.478-0.943,0.478-1.422c-3.322,3.322-6.167,6.641-9.012,9.957
		c-1.895,3.795-3.317,7.584-3.317,11.379c0,2.846,0,4.268,0.473,4.74h-0.944c2.845,5.217,4.267,9.006,4.267,10.906
		c0,2.367-0.478,3.789-0.95,4.268c-0.472,0-0.472,0-0.949-0.479c-7.585-4.74-12.324-10.43-14.691-16.59c0,0,0,0-0.478,0h-18.964
		c0.473,1.422,0.473,2.844,0.473,4.738c0,2.373,0,3.795-0.473,4.268c0,0.473-0.472,0-0.472,0h-1.9
		c-2.367-2.846-3.789-5.689-4.739-8.057c-0.473,0-0.95,0.473-1.423,0.473c0-0.473,0.473-0.951,0.473-1.422h-1.422h-0.473
		c-0.95,1.422-1.423,2.371-1.895,2.371c0-0.477,0-0.949-0.478-1.422c-0.473,0.473-1.423,0.945-1.891,1.422
		c-0.478-0.949-0.478-1.9-0.478-2.844c-0.944,0-2.367,0-3.321,0c-0.468,1.422-1.891,2.367-3.313,2.844l-0.478,0.473l0,0
		c0,0,0,0-0.473,0c-0.95-0.473-1.895-0.949-2.372-1.895l0,0c-0.473-0.479-0.945-0.949-1.895-1.422c-0.473,0-0.95,0-1.423,0
		c-0.95,0.473-1.422,0.943-2.845,1.422c-0.95,0.473-1.895,1.422-2.845,2.367c0,0.477-0.473,0.477-0.473,0.477
		c-0.478,0.945-0.949,2.367-1.899,3.791c-0.473-0.473-0.945-1.424-1.423-2.367c-0.944-0.479-2.367-1.424-3.789-2.846
		c-4.268,3.789-7.59,5.213-10.435,5.213c-2.367,0-3.79,0-3.79-0.473v-0.473c-0.944-10.434-0.944-18.02-1.422-22.758v-0.473
		c-2.367-3.322-4.739-7.111-7.112-10.434c-1.895-0.473-3.316-0.473-4.739-0.473l-0.473-4.74h0.473c0,0-0.473-0.949-1.422-1.895
		c0,0,0-0.479,0.949-0.479l-0.478-0.471h-0.472c-5.218-1.896-9.957-3.795-13.274-6.641c-1.899-1.422-3.795-2.844-5.689-4.74h-0.475
		c-1.423-0.949-3.792-3.793-7.112-8.533c-1.422-1.422-2.369-2.846-2.842-3.789c-0.475-0.951-0.95-1.424-1.897-2.373
		c-2.37-0.473-5.215-2.373-8.534-4.268l0,0c-0.473,1.422-0.947,1.895-1.895,1.895c-1.897-0.473-4.268-1.422-7.587-2.367
		c-2.845-0.949-5.215-1.895-6.638-2.844c0-1.895,0.476-3.318,1.423-3.795h9.481c0.476,0,0.947,0.477,1.423,0.477
		c0-0.949,0.475-2.371,0.475-2.844c0.473-1.422,1.423-2.846,2.37-4.268c-2.845-3.795-4.742-6.166-6.165-7.59
		c0-0.943,0-1.416,0-1.895c0,0,0.95-0.473,2.373-0.473c-0.476-0.473-0.476-0.949-0.95-1.422c-1.423-0.949-2.37-1.895-3.792-3.795
		c0.475-0.473,0.475-1.422,0.475-3.789c0-0.949,0.947-1.9,3.317-1.9c-2.37,0-3.792-0.945-3.792-2.367
		c0.475-1.895,0.475-2.844,0.475-3.795l1.895-0.473c1.897,0.473,4.742,2.373,9.01,6.162c0.947,0.951,1.895,1.895,2.369,2.373
		c-0.947-8.063-1.422-12.801-0.947-13.273c0.947,0,1.896-0.479,3.317-1.424c-3.317-0.949-7.111-2.844-11.376-5.217
		c-5.689-2.844-11.38-7.111-18.491-11.852C215.704,72.766,216.176,72.293,216.176,72.293 M247.941,107.375
		C247.941,107.375,247.466,107.375,247.941,107.375C247.466,107.375,247.466,107.375,247.941,107.375c-0.476,0-0.476,0-0.476,0
		H247.941 M249.363,99.791c0,0.473,0,0.949,0,1.422c0.475,0.473,0.947,0.473,1.423,0.473c0-0.473,0-0.473,0-0.945
		C250.311,100.74,249.838,100.264,249.363,99.791 M304.828,174.223c-0.944-0.473-1.895-1.424-2.845-2.373
		c1.423,1.9,2.372,3.322,2.845,4.268c1.9,1.895,4.268,4.266,7.112,7.111c0.478,0,0.95,0.473,0.95,0.473
		c0.472,0.477,0.949,0.477,0.949,0.949c-2.845-4.268-4.744-6.635-5.217-7.584c-0.473-0.473-0.473-0.473-0.95-0.949
		c-0.473,0-0.473,0.477-0.944,0.477C306.729,175.645,305.778,175.172,304.828,174.223 M307.2,193.658c0.473,0,0.95,0,1.423,0
		l1.895-1.424c-0.473-0.471-0.944-0.943-1.422-1.422c-1.423-0.945-2.367-2.367-3.79-2.844c1.423,2.371,1.895,3.795,1.895,4.744
		C307.2,193.186,307.2,193.186,307.2,193.658 M323.319,193.658L323.319,193.658L323.319,193.658L323.319,193.658 M333.275,187.023
		c0.478,0.473,0.478,0.473,0.945,0.945c2.372-0.473,4.745-0.473,6.64-1.424c1.422-0.943,3.317-1.895,5.217-2.844
		c5.689-2.846,11.379-4.262,16.591-4.74c5.689-4.738,9.957-8.057,13.747-10.428c6.639-7.586,10.906-10.902,12.328-10.902
		c2.373,0,3.795,0,4.268,0.473c0,0.473,0,0.473-0.473,0.473c-0.478,0.949-1.899,2.844-2.845,5.217l0,0
		c2.845-3.322,6.162-6.641,9.479-10.906c0.478-0.945,1.422-1.424,1.899-2.367c0.473-3.322,2.367-7.59,5.212-12.33
		c3.79-6.162,8.535-9.479,12.802-9.479c0,0,0,0,0.473,0c0.473-0.949,1.422-1.422,1.895-2.373c0.478-0.473,0.478-0.473,0.95-0.949
		c-3.317,0.477-6.64,0.949-10.429,2.373c-0.945,0.471-6.167,2.844-16.119,7.584c-0.473-0.473-0.473-0.945-0.95-1.424
		c-1.895-2.844,0-5.689,5.218-8.533h-0.473c-2.372,0-3.795,0-4.268,0c0-0.473-0.478-0.473-0.949-0.945
		c1.422-2.373,5.217-4.268,10.906-6.162c-0.478-0.477-0.95-1.422-1.423-2.844l0,0l-0.478,0.473
		c-2.367,1.895-4.267,2.371-6.161,2.371c-5.69,0-11.38,1.895-16.119,5.686c-0.95,0.949-1.899,1.422-2.845,2.371
		c-1.899,2.846-4.268,6.162-6.635,9.957c0,0.473-0.478,0.949-0.478,1.422c1.9,0.473,2.845,1.424,2.368,3.795
		c0,1.418-0.468,2.367-0.945,3.791c0,0.471-0.478,0.471-0.478,0.949l0,0c1.423,0.473,1.899,1.422,1.899,2.367
		c-0.477,0.477-0.944,0.949-0.944,0.949s-0.955,0-2.845,0c0,0,0,0,0,0.473c0.944,0,1.422,0.479,1.422,0.951
		c0.468,0.471,0.468,1.895,0.468,3.793c-0.468,1.424-0.945,1.896-1.89,1.896c-1.423,0-2.377,0-3.322,0
		c-0.478,0.471-0.478,0.949-0.945,1.895c0.473,0.477,0.945,1.422,1.423,1.898c0,0,0,0,0.468,0c0,0,0,0,0.477,0
		c1.9,0.945,2.845,1.896,3.79,2.369c-0.468,2.371-1.422,3.793-2.367,3.793c-3.317,0.945-6.162,0.473-7.584-1.422
		c-0.473-0.477-0.95-0.477-0.95-0.949l-2.367-0.951c-0.95-2.367-1.9-4.262-1.9-6.162c-0.944,1.424-2.367,2.846-3.316,4.268
		c0.949-2.844,2.372-5.689,3.794-9.006c0.473-0.473,0.945-1.422,0.945-2.373l0,0l-1.423-0.945l0,0
		c1.9-11.379,7.112-20.863,15.646-28.447c0,0,0,0,0-0.473c0-1.895,0-3.795,0.478-5.217c-3.8-5.689-6.167-9.479-6.64-12.324
		c0-0.473-0.473-1.422-0.473-1.895c-2.372-1.9-4.267-3.795-6.167-5.689c-0.472-0.477-0.944-0.949-1.422-1.422
		c-0.473-0.479-1.423-2.373-1.895-5.217l-0.473-4.268c0,0,0-0.473,0.473-0.473c-1.423-0.477-2.373-0.477-3.795-0.949
		c-0.473,0.949-0.473,1.422-0.945,1.895c-0.95,1.422-1.899,2.844-3.795,4.268c0.95,1.422,1.896,2.371,2.373,4.266
		c0,0,0,0.479,0.472,0.479c3.317,5.689,5.218,11.373,5.218,16.592c-0.478,0.471-0.95,1.422-1.9,1.422h-0.944
		c-2.373-5.689-5.218-11.379-8.534-16.592c0.944,2.367,1.422,4.74,1.422,7.584c0,2.367-0.478,3.791-0.95,4.74l-0.949,0.473
		c-1.423-0.945-3.79-4.268-6.157-9.951c-0.478-0.479-0.478-1.424-0.955-1.9c-4.267,0-7.106-1.422-9.002-3.789
		c-4.744-0.479-8.062,0.473-10.434,1.895l0,0c0.478,0.473,0.478,0.949,0.95,1.422c-1.423,0.949-3.795,4.74-8.535,12.324
		c-0.472,0.949-0.949,1.422-1.422,2.373c1.895,2.371,4.268,4.738,6.162,6.639c2.372,1.895,6.167,9.006,12.329,21.33
		c-0.95,1.422-1.896,1.895-2.845,2.373c-0.473,0-0.473,0-0.473-0.479c-2.372-1.416-4.745-3.316-7.59-5.211
		c2.845,3.789,4.745,7.584,5.689,11.852c0.478,2.371,0.95,5.217,0.95,7.584c0-1.895-0.473-4.268-1.895-6.635
		c-1.423-3.322-4.268-7.59-8.062-12.328c-4.268-5.213-7.112-8.535-9.484-9.957c-0.473,0.477-0.945,0.477-1.423,0.477
		c0-0.477-0.473-1.422-0.473-1.898c-0.472,0-0.472,0-0.472,0l0,0c-0.478,0-0.945,0-0.945,0c-1.423-0.473-1.899-0.945-1.899-2.846
		h-0.478c-2.367-0.473-3.313-0.945-3.79-0.945c0.945-4.738,1.899-9.484,2.845-13.273c-0.945,0-1.422,0-1.899,0
		c0-0.477-0.468-0.477-0.945-0.949c0-0.473,0-0.473,0-0.951c-3.79,4.746-7.112,6.641-10.429,6.641c-0.473,0-1.423,0-1.896,0
		c0,2.371,0,4.738,0,7.111c0,0.473-0.478,0.945-0.478,0.945c0.478,1.422,0.478,3.795,0.478,6.166c0,0.945,0,1.424,0,1.896
		c0,1.422-0.478,1.895-1.422,1.895l-1.423-0.945h-1.899c0-0.479,0-0.479,0-0.479c-0.473,0.479-0.945,0.951-1.423,1.424v0.477
		c0.478,0.473,1.423,0.945,1.9,1.422c1.895,1.896,4.267,4.264,6.634,7.107c-0.944,0.479-1.895,0.949-2.845,1.422
		c1.423,2.373,2.373,4.746,3.795,6.641c0.95,1.895,2.372,3.789,3.317,6.162c0.478,0,0.95,0,1.422,0c0,0,1.9,0.473,5.213,0.949
		c1.422,0.473,3.799,0.945,6.167,1.422c7.111,2.846,10.901,8.057,10.901,15.17c0,1.422,0,2.371,0,2.844
		c0.478,0.473,0.95,0.951,1.422,1.422c4.268,4.268,7.112,8.063,9.484,11.381c-0.95-2.846-1.422-6.162-1.895-9.957h1.422
		c0.473-4.268,1.423-8.057,3.317-11.379c-5.217-3.791-9.956-9.008-13.751-15.643c-2.367-3.793-4.268-7.588-5.212-10.434
		c-0.478-1.895-0.95-3.789-0.478-5.211c3.322,1.422,8.062,6.16,14.224,15.168l0.478,0.477c1.422,1.896,2.367,3.791,3.789,5.213
		c0,0.473,0.478,0.473,0.478,0.949c-0.478-1.422-0.478-2.371,0-2.844c2.367,0.473,4.74-0.951,7.112-5.217
		c1.422,0.949,1.89,2.371,2.367,4.738c-0.478,0.479-0.945,2.373-1.423,5.217c0.478,0,0.945,0.473,0.945,0.473
		c0,0.479,0,0.479,0,0.951c0.478,0.949,0.478,1.895,0.955,2.844c-0.955,2.373-1.9,5.217-3.322,8.535c0,0.949,0,1.895-0.478,2.844
		h-4.734c-0.478,0.473-0.478,1.424-0.95,2.367l-1.422,2.846c2.845,1.9,5.685,4.744,8.529,8.063
		C332.799,186.545,332.799,186.545,333.275,187.023 M358.879,190.813L358.879,190.813c0,0.479,0,0.479-0.478,0.479
		C358.401,190.813,358.879,190.813,358.879,190.813 M356.979,193.186c-0.472,0.473-0.472,0.949-0.944,1.422
		c0,0.473-0.478,0.473-0.478,0.473s0,0,0.478,0C356.507,194.607,356.979,194.135,356.979,193.186 M269.273,123.021l0.473,0.473
		C269.746,123.494,269.746,123.494,269.273,123.021C269.746,123.494,269.273,123.494,269.273,123.021 M271.646,118.754
		c0.473-0.473,0.473-1.422,0.473-1.895c0.472-1.422,0.472-1.9,0.472-2.846c-0.944-0.949-1.895-1.422-2.845-1.898
		c-1.422-1.424-2.367-2.367-2.845-3.791c-0.473-0.477-1.422-1.422-2.367-1.898c0.945,1.898,1.423,4.266,1.895,7.588
		C268.802,115.438,270.696,117.332,271.646,118.754 M304.828,122.07C304.828,122.07,304.828,121.6,304.828,122.07
		C304.828,121.6,304.828,122.07,304.828,122.07c-0.473,0.951-0.473,1.424-0.944,1.896l5.689,5.689
		C308.15,127.289,306.729,124.916,304.828,122.07C305.306,122.07,305.306,122.07,304.828,122.07 M268.324,88.885
		c0.478,0,0.478,0,0.949,0c0.473-0.473,0.473-1.424,0.95-1.895C269.746,87.939,269.273,88.412,268.324,88.885 M264.057,88.885
		c0.478-1.424,1.423-2.367,1.9-3.791c-2.373,1.424-3.795,2.846-5.218,4.268C261.689,88.885,262.635,88.885,264.057,88.885
		 M290.604,86.039c-1.417,0-2.84,0.479-4.734,1.9c-1.9,0.945-3.795,2.844-6.167,5.211c-0.473,0.479-0.945,0.951-1.423,1.424
		c4.745,3.795,7.59,5.217,8.534,5.217c1.423,0,2.373,0,3.79-0.473V98.84v-2.844c0.478,0,0.478,0,0.955-0.473
		c1.422-3.316,4.267-6.639,8.057-9.006c1.895-0.951,3.79-1.9,6.162-2.846c4.267-1.9,8.534-3.322,13.273-3.795
		c0.478-0.473,0.478-0.473,0.95-0.945h2.845c0-0.949,0-1.422-0.473-2.371c-1.422,1.422-2.845,2.371-5.217,2.844
		c-2.845,0.951-6.162,1.895-9.007,1.895c-2.372,0-3.795,0-4.267,0c0-0.471-0.478-0.471-0.95-0.949c0-0.473,0-1.418,0-1.895
		c-2.372,0-5.217,0.949-8.062,2.373c0,0.471,0,0.471,0,0.943c-0.468,0.951-0.468,1.9-0.468,3.322
		C294.872,85.566,293.449,86.039,290.604,86.039 M282.075,66.604C282.075,67.076,282.075,67.076,282.075,66.604
		C282.075,67.076,282.075,67.076,282.075,66.604C282.075,67.076,282.075,66.604,282.075,66.604 M299.139,65.182
		c2.372,0,4.745,0,7.59,0c0.472,0,0.944,0,1.895,0c-0.473-0.473-0.95-0.473-1.895-0.951C304.355,64.23,301.511,64.23,299.139,65.182
		C299.139,64.709,299.139,64.709,299.139,65.182 M309.096,76.088c0.949,0,1.899,0,3.322-0.479c-0.95,0-1.9-0.471-2.845-0.471
		C309.573,75.139,309.573,75.139,309.096,76.088L309.096,76.088 M342.755,71.344c0.478,0,0.95,0,1.423,0.477l-0.473-0.477
		C343.232,71.344,342.755,71.344,342.755,71.344 M364.091,93.15L364.091,93.15L364.091,93.15c-1.895-2.844-2.845-4.266-3.317-4.738
		c-0.473,0.949-0.95,1.895-1.422,2.371C360.301,91.256,362.196,92.207,364.091,93.15 M407.229,117.332
		c-0.945,0.949-1.89,1.422-2.367,1.895c0.478,0,1.422-0.473,1.899-0.473c4.735-1.422,10.425-2.844,17.536-3.795
		c1.9,0,3.322,0,3.795,0.479c1.895-3.795,2.845-7.113,2.845-10.906c0,0-0.473,0-0.473-0.473c-1.422,1.422-2.845,2.367-4.267,3.316
		v0.473c-0.95,1.422-1.423,1.9-1.9,2.844c-0.944,0.951-0.944,1.424-0.944,1.9h-2.845l-0.478,1.895
		c-3.79,0.473-7.112,0.951-10.425,1.424c-0.478,0.471-0.478,0.949-0.954,1.422C408.185,116.859,407.707,116.859,407.229,117.332
		 M390.639,102.162c-0.473,1.418-0.473,2.369-1.423,3.318c0.95,0.945,1.423,1.422,1.9,2.367c2.367-0.945,4.739-1.422,7.111-1.895
		l-0.478-0.473c-1.895,0-2.845-0.479-2.845-0.479l0.478-0.471v-0.473l0,0c-1.899-0.951-3.322-1.896-4.744-2.373
		C391.116,101.213,390.639,101.686,390.639,102.162 M410.074,91.729c0-0.473,0-0.473,0-0.945
		C410.074,90.783,410.074,91.256,410.074,91.729C410.074,91.256,410.074,91.256,410.074,91.729 M422.403,95.523L422.403,95.523
		C422.403,95.996,422.403,95.996,422.403,95.523C422.403,95.996,422.403,95.523,422.403,95.523 M415.764,98.84
		c-0.944,0.479-1.895,0.951-3.313,1.424c1.891,0.477,3.79,0.949,5.685,1.422c0.473-0.473,0.95-0.949,1.423-1.895
		C418.136,99.318,417.187,99.318,415.764,98.84 M375.47,199.348L375.47,199.348c0-1.424,0.473-2.846,0.473-4.74
		c-0.473,0.949-1.418,1.422-1.896,2.367C374.524,197.453,374.992,198.396,375.47,199.348 M373.57,147.197l0.949-0.473
		c-0.949-2.846-0.473-5.217,1.423-7.113c0.473-0.471,2.845-1.422,7.584-3.789c2.845,2.846,2.845,5.213,0.478,8.057
		c-1.899,2.373-4.267,3.795-6.64,3.795C374.524,147.674,373.57,147.674,373.57,147.197z"/>
	<path fill="#FFFFFF" d="M210.015,233.957c-4.742,1.895-7.587,3.316-9.01,4.268l0.475,3.789c2.845,0,6.638-1.422,11.38-3.789
		c1.422-0.951,2.845-1.424,3.792-2.373c0,0.473,0,0.473,0,0.473c0,0.477,1.422,0.477,4.267,0.477c3.793,0,10.43-1.422,18.964-4.266
		c2.369-0.951,4.267-1.424,6.162-2.373c8.059,0.477,14.695,1.9,19.436,4.268c5.217,2.371,10.906,4.266,17.068,4.738
		c4.744,8.063,7.589,15.174,9.012,21.809c-1.423,0.478-2.372,0.478-2.845,0.95v3.794h3.789c0,0.945,0,1.896,0,2.846
		c0,0.473,0,0.945,0,1.422c-1.422,0.945-2.845,1.423-3.789,1.895l0.473,3.791c0.949,0.477,1.417,0.477,2.372,0.477l-0.478,0.945
		c-4.739,0.949-10.429,2.845-15.646,5.689c-7.584,3.795-13.746,8.062-18.013,12.329c-2.37-0.478-4.742-1.423-6.637-1.895
		c0.475,0.944,0.947,2.367,1.422,3.316c-6.164-1.422-10.432-1.895-13.749-1.895c-2.369-0.95-4.742-1.422-7.111-2.372
		c-0.473,1.895-0.947,3.79-0.947,5.689c-1.897-1.423-4.742-2.845-8.535-5.217c-3.792-1.896-7.111-2.845-10.429-2.845
		c-2.37,0-3.792,0-4.267,0.478c0,0,0,0.472,0.475,0.472c2.845,4.74,9.481,8.534,18.963,11.379c1.896,0.473,3.793,1.423,6.162,1.896
		c3.32,3.795,9.481,5.689,18.491,6.162c4.264,0.478,8.531,0.478,13.273,0c2.845,1.899,5.689,3.316,8.534,4.267
		c1.423,0.473,2.367,0.95,3.79,1.423c0.95,0.473,1.422,1.422,2.372,1.895c-2.372-0.473-3.795-0.473-4.739-0.473
		c-0.478,2.372-0.478,4.268,0,5.217c1.422,0,2.845,0.473,5.212,0.473c-0.945,0-1.423,0-2.367,0c-3.322,0-5.217,0-6.167-0.473
		c-1.423-0.477-2.845-1.899-4.268-4.267c-2.367,4.739-1.895,7.584,1.423,9.007c1.422,0.473,4.267,0.473,8.534,0.473
		c6.64,0,11.856-0.473,16.123-1.896c0.468,0,0.945-0.472,1.423-0.472c3.313,0,5.685,0,8.057,0c1.423,0,2.845,0,4.268,0
		c-1.9,1.895-2.845,4.267-3.795,6.634c0.473,0,0.473,0.478,0,0.478c0,0,1.422,0,3.795,0c3.789,0,7.111-1.422,9.956-3.795
		c0,0.473,0,0.473,0,0.95c0,0.473,1.423,0.473,4.268,0.473c1.895,0,3.317-0.95,4.267-2.372c0.945-1.423,2.367-2.367,4.268-2.367
		c1.89,0,3.313,0.944,3.789,2.367c0.478,1.422,1.423,2.372,3.79,2.372c3.795,0.001,6.64-1.894,9.957-5.216
		c1.899-1.896,3.322-3.791,4.744-5.213c0.473,0,0.473,0,0.945,0c0,0.945,0,1.895,0,3.316c1.422,1.896,2.845,2.846,5.217,3.795v0.473
		c-4.267,1.422-8.062,2.846-11.379,4.268v1.422c-3.317,1.422-6.162,2.367-9.484,3.317v3.794h13.751
		c3.317-1.898,6.64-3.32,9.007-5.217c3.795-0.473,7.59-2.367,10.902-4.738c1.422-0.951,3.799-2.846,6.639-5.217
		c0.95,0.477,2.373,0.949,4.268,0.949c2.372,0,5.217-0.949,8.534-2.373c4.268-2.367,6.64-5.211,7.584-9.479c0.478,0,0.478,0,0.95,0
		c1.895,0,7.584-2.373,15.642-7.584c8.062-4.744,12.801-8.063,14.224-9.957c-0.473-1.9-1.423-3.316-2.367-3.795
		c0,0-1.423,0.479-3.322,1.895c0.478-0.945,0.949-2.367,1.422-3.316c2.845-1.422,6.64-3.318,11.379-5.689
		c10.435-5.689,16.124-11.381,16.592-17.541c1.422-0.473,3.322-0.945,4.744-1.896c10.429-3.793,16.118-7.111,16.591-10.428
		l-1.895-1.423c-7.112,2.846-12.802,5.213-17.068,7.113c-0.95,0.473-2.372,0.945-3.317,1.422c0,0,0-0.477-0.478-0.477
		c3.795-0.945,6.167-1.896,8.062-2.846l-1.422-1.895c-0.473,0-0.473-0.473-0.473-0.473s-0.95,0-3.322,0
		c-1.422,0-5.212-0.477-11.374-1.422c-6.162-0.951-10.429-1.423-12.329-1.423c-2.845,0-6.634,0.473-10.901,1.896
		c-0.478,0-0.95,0-1.422,0.473c-1.423-1.423-1.9-3.318-2.845-4.74c2.367-0.945,4.267-1.424,5.689-2.846
		c1.895,0,4.739-0.473,7.584-0.945c3.795-0.477,9.007-1.422,16.118-2.371v-2.373l-1.422-0.945c-0.473,0-1.895,0-4.739,0
		c-0.95,0-2.845,0-5.69,0c0.95-0.477,1.423-0.477,2.373-0.949l-1.423-3.795c-2.372,0-6.64,1.422-12.329,3.795
		c-1.895,0.949-4.267,1.422-5.689,2.373c0.473-1.424,1.423-2.846,2.373-4.268c0.472,0,0.944,0,1.895,0
		c2.845,0,7.111-1.422,12.329-3.795c2.845-0.473,6.162-0.949,9.956-1.422c13.747-1.895,23.226-2.846,28.915-3.318v-2.371
		c-2.845-0.473-7.111-0.945-11.852-1.424v-1.422c-1.422-0.473-3.316-0.945-6.161-0.945c-3.79-2.844-8.535-5.217-13.747-7.588
		c-3.794-1.424-7.111-2.367-9.956-3.318c-2.845-1.895-6.167-3.789-9.012-6.162l1.422-0.949c-0.473-5.213-3.317-9.479-9.002-13.273
		c-0.477,2.844,0,5.217,1.423,7.111c1.89,1.895,3.313,4.268,4.734,6.162c-4.734-3.789-9.002-6.162-11.847-8.057v-1.422
		c-1.422,0-2.372-0.479-3.794-0.479c-0.95-0.473-1.423-0.473-1.896-0.473c-0.478,0-0.478,0-0.949,0c-0.95,0-1.423-0.473-2.373-0.473
		c-0.472-0.477-0.944-0.477-1.422-0.949v-0.473h-0.473c0,0-0.473,0-0.473-0.477c-8.534-6.635-12.801-9.48-13.751-9.48
		c-2.372,0-3.795,0-3.795,0.473l0.95,0.479c0,0.943,0.95,2.367,2.372,4.266c-1.899-0.949-3.795-1.898-6.167-2.844
		c-1.422-0.479-2.367-0.949-3.79-1.422c-6.634-3.795-10.901-7.113-13.746-9.484c0.473,1.895,0.945,3.795,1.896,5.217
		c-0.95,0-1.423-0.479-2.373-0.479l-5.689-2.844c-0.944-0.945-2.367-1.422-3.317-2.367c-1.895-0.951-3.316-1.895-4.739-2.373h-0.478
		c-1.895-0.945-3.317-1.422-4.267-1.422c-2.367,0-3.79,0-3.79,0.477l0.945,0.473c-0.468,4.268,3.794,8.057,12.328,10.902
		c0.473,0.949,0.95,1.9,1.896,3.322c-0.473,0-0.473,0-0.945-0.479c-1.422-0.471-2.372-0.471-3.322-0.471c0,0-0.473,0-0.944,0
		c-4.268-0.951-8.058-1.424-10.902-1.896c0-0.477-0.478-0.477-0.478-0.477c-1.899-1.422-3.321-2.367-4.739-2.367
		c-2.372,0-3.795,0-3.795,0.473l0.95,0.473c0,0.477,0.473,0.949,0.473,1.422c-0.945,0-1.895,0-1.895,0
		c0,0.477-0.473,0.477-0.95,0.949v1.424h-10.901l-0.478,1.422l-0.945-0.473c-9.484-2.373-15.646-3.795-18.014-3.795
		c-2.845,0-4.744,0-5.217,0s-0.95,0.473-1.895,0.949c3.317,2.846,6.634,5.213,9.002,6.635h-0.468
		c-2.845,0.479-4.268,1.895-4.268,3.795c0,0.473,0,0.945,0,1.422c-0.949,0.473-2.372,0.945-3.794,1.895c-0.95,0-1.896,0-2.845-0.471
		c-3.795-0.479-6.162-0.479-7.112-0.479c-7.112,0-11.852,0.479-14.224,1.422c0,1.424,0.473,2.373,0.95,3.795
		c0.944,0.951,1.422,1.895,1.422,2.373c-1.899,0-3.795,0.473-4.742,1.422c0,0.473,0.476,0.945,0.476,1.422
		c-1.897,0-4.268,0.473-7.112,0.945c-2.845,0.479-7.111,1.422-12.326,2.373v3.789h26.072c-1.895,0.479-3.789,0.479-6.162,0.479
		c-2.369,0-3.792,0-4.264,0.471c0,0.951,0,1.424,0,2.373c-2.373-0.949-4.742-1.422-6.165-1.422c-5.689,0-11.376,2.844-17.065,8.533
		l0.472,2.367c-5.214,0.951-10.429,1.424-15.644,1.424c-0.475,0-0.947,0-1.422,0v0.473
		C216.176,231.584,213.807,232.535,210.015,233.957 M268.802,215.465v-2.367c0.472,0,1.422,0,1.895,0s0.95,0,1.423,0
		c0,0.473,0,0.945,0,1.424C271.169,214.994,269.746,215.465,268.802,215.465 M294.404,221.627c-1.9,0.479-3.8,0.951-5.689,1.424
		c-0.478-1.424-1.423-2.367-1.9-3.791c7.59-1.422,13.747-4.738,18.964-10.906c4.739-5.689,16.118-8.533,34.132-8.057
		c7.112,0,13.279,0.945,19.441,1.895c1.895,2.846,5.217,4.74,9.951,6.162c0,0,0,0,0.478,0c-0.945,0-1.423,0.479-2.367,0.951l0,0
		v3.316c1.89,0,3.313,0,5.212,0.477c1.422,2.846,4.268,4.264,8.534,4.264c1.423,0,2.367,0,2.845,0
		c0.473,0.477,0.945,0.949,1.423,1.422c0.944,0.949,2.367,2.371,3.789,4.268c1.423,1.422,2.845,1.898,4.745,1.898
		c0.473,0,0.944,0,1.422,0c1.896,0.473,4.74,1.424,8.534,2.367c0.945,0.479,1.896,0.479,2.845,0.951
		c2.367,0.473,4.268,0.949,5.689,1.422l-1.422,2.373c-0.478,0.473-0.955,0.473-1.423,0.943c-4.744,4.268-7.111,8.063-8.534,11.852
		c-0.949,0-1.899,0-2.845,0v3.795c0.945,0,1.423,0,2.367,0c0,0,0,0,0,0.473c-0.944,0-1.422,0-2.367,0c-2.372,0-4.267,0-5.689-0.473
		c-1.422-0.473-2.845-0.473-3.795-0.473c-0.472,1.424-0.472,2.846-0.472,4.268v0.945c2.367,0.477,5.212,0.477,9.007,0.477
		c1.422,0,2.845,0,4.267,0c0.95,1.896,2.372,3.791,3.795,5.213c-0.95,0-2.372,0.473-3.795,0.473
		c0.473-0.473,1.423-0.473,1.895-0.945l-1.422-1.899c-0.473,0-0.473-0.473-0.473-0.473s-0.95,0-3.317,0
		c-2.372,0-6.64,0.473-13.278,1.422v-0.473c-2.367,0-5.689,0.473-9.007,1.422c0.95-1.422,1.895-2.844,2.845-4.268
		c-1.423,1.423-2.845,3.318-4.74,4.74c-0.944,0-1.422,0.473-2.367,0.473l-5.222,0.477v0.945c-0.468,0-0.945,0.479-1.89,0.479
		c-9.484,3.789-16.124,6.635-19.441,7.584l0.473,3.795c2.372-0.479,5.217-1.422,9.012-2.373c-8.062,3.318-15.646,5.689-23.703,7.111
		v3.318h22.754c0.472-0.473,1.895,0,4.267,0.949c0.95,0.473,1.895-0.477,1.895-2.371c3.322-0.473,7.59-1.896,13.274-3.795
		c9.007-2.84,14.696-5.213,17.068-8.057c1.422,0.473,2.845,0.473,4.268,0.949h0.472c2.845,0.945,6.167,1.422,9.957,1.422
		c0.945,0,2.367,0,3.322,0.473c0.944,0,1.89,0,2.367,0c-1.423,0.951-2.845,1.895-4.268,2.373c-4.267,2.84-6.634,3.789-7.111,3.789
		c-2.367,0-3.79-0.473-4.268-0.949c-0.472-0.473-0.472-0.473-0.944,0c-0.478,1.422-0.478,2.844,0,3.322
		c0,0.473,0.473,0.945,0.473,0.945c-2.846,1.422-5.218,1.898-6.64,1.898c-2.367,0-3.79-0.949-4.268-2.844
		c0-0.951,0-1.424,0.478-2.373c-1.422,3.318-2.372,5.689-2.845,7.113c-0.478,1.895-0.478,3.316,0,4.266
		c2.367-0.471,4.739-0.949,7.112-1.895c-2.373,2.846-7.112,5.213-14.701,7.584c-7.107,2.369-13.27,3.318-18.014,3.318
		c-0.473,0-0.945-0.473-1.895-1.422c-1.423-1.896-3.317-3.791-5.218-5.689c-0.944,0.477-1.422,1.898-1.895,4.266l-0.473,2.846
		c0.473,1.422,1.423,2.371,2.367,2.844c1.9,0.951,3.795,1.896,6.64,1.896s6.64-0.473,11.852-1.424
		c2.845-0.473,5.689-1.422,9.007-1.895c2.845-0.473,5.217-1.422,7.584-1.895c-6.162,3.316-12.324,5.689-19.436,8.057
		c-1.895,0-3.317-0.473-5.212-0.473c-0.95,0-1.9-0.473-2.845-0.473c-0.95,0-1.423,0-1.9,0v0.473c0,1.422,0,2.373,0,3.318
		c-16.118,3.322-31.76,2.844-46.461-1.424c-0.473,0-0.473,0-0.944,0c-5.689-1.422-9.957-3.317-13.279-4.739
		c0.955-1.423,1.9-2.367,2.377-3.79c0.468,0,0.945,0.473,1.418,0.473c8.062,2.845,13.751,4.267,17.068,4.739l0.95-1.895l0.473-0.478
		c-1.896-2.367-6.162-4.262-13.752-5.685c-0.473,0-0.944,0-0.944,0c-2.845-0.478-5.213-1.422-7.112-2.372l0.478-0.473
		c0.945-1.422,1.89-2.372,2.367-3.795c1.423-1.422,2.845-2.845,4.739-4.267c2.373-2.372,4.74-4.74,6.162-6.635
		c0.478-0.478,0.478-0.478,0.95-0.95c4.739-0.949,9.484-1.895,14.224-3.795c8.529-2.844,14.696-7.111,18.964-11.852
		c-0.95-1.422-1.9-1.895-2.845-1.895c-1.9,0.95-7.112,3.317-14.696,7.111c-1.423,0.473-2.845,1.424-4.268,1.896
		c0.95-0.95,1.423-1.896,2.372-2.372c1.896-0.473,3.79-1.422,5.689-2.367l-1.422-1.895c-0.478,0-0.478-0.479-0.478-0.479
		s-0.945,0-3.317,0c0,0,0,0-0.473,0l-0.478-1.895l-0.472-0.473c0.472-0.477,0.949-0.477,0.949-0.949
		c-0.478-1.894-0.949-2.846-1.899-3.318c5.217-1.422,11.379-3.322,18.491-5.689l-1.423-1.898c-0.478-0.473-0.478-0.473-0.95-0.473
		c0,0-1.422,0-3.794,0c-4.735,1.422-9.002,2.371-13.747,3.795c-4.739,1.422-8.534,1.895-11.379,2.844
		c-1.422,0.473-2.367,0.473-3.317,0.473c-1.422-3.316-3.316-7.584-6.161-12.801v-1.895c0.944,0,2.367,0.471,3.316,0.471
		c2.373,0,4.74,0,7.585,0c2.372,0,3.795,0,3.795-0.471c0-0.473,0-0.473-0.473-0.473v-2.373c-1.9-0.949-7.112-2.373-14.701-4.74
		h-0.473c-1.418-0.477-2.84-0.949-3.795-0.949c0.955,0,2.377,0,3.322,0c0.473,0,0.945,0,1.423,0c7.111,0,11.851-0.473,14.224-1.422
		v-1.422h2.367l0.478-4.74c-0.478-1.422-0.95-1.895-1.9-1.895c-1.422,0.473-2.845,0.943-5.212,0.473
		c-1.899-0.473-3.322-0.473-4.744-0.473c-0.945,0-1.896,0-2.367,0C299.139,221.154,296.294,221.154,294.404,221.627
		 M325.691,192.234c0.473,0,0.473,0,0.95,0l6.634-0.471c2.368,0.471,4.74,0.949,7.585,1.422c0.95,0,1.422,0.473,2.372,0.473
		c-6.167,0-11.379,0-15.646,0v-0.473L325.691,192.234 M357.456,187.496L357.456,187.496c0.473,0,1.423,0.473,1.896,0.473
		c0,0,0.472,0,0.472,0.477l0,0c0,0.473,0.478,0.945,0.478,1.422c-0.478,0-0.949,0-1.422,0c-1.423-0.949-2.845-1.898-4.268-2.844
		C355.557,187.023,356.507,187.023,357.456,187.496 M306.251,258.133c0.949,0,1.899-0.473,2.845-0.473
		c2.372-0.473,5.689-1.422,9.484-2.373c-2.845,0.95-5.689,1.9-9.484,2.845C308.15,258.133,307.2,258.609,306.251,258.133
		C306.251,258.609,306.251,258.609,306.251,258.133 M366.458,316.445c-0.468,0-0.945,0-1.417,0.477
		C365.99,316.922,366.458,316.445,366.458,316.445L366.458,316.445 M387.321,308.389L387.321,308.389
		c-1.423,0.949-2.845,1.422-4.268,2.373v-0.479C384.477,309.338,385.898,308.861,387.321,308.389
		C386.849,308.389,387.321,308.389,387.321,308.389 M384.949,316.445l-1.423-0.945c1.423-0.477,2.845-1.422,4.268-1.9
		c0,0.479-0.473,0.479-0.473,0.951c-1.895,2.371-3.795,4.268-5.217,5.217C382.582,318.818,384.004,317.395,384.949,316.445
		 M369.303,266.193c0.478,0.951,0.955,1.424,1.423,1.424c0.477,0.473,1.899,0.473,5.217,0.473c1.422,0,3.317,0,5.689,0
		c-6.64,1.422-13.274,3.322-19.908,5.689c0-2.367,0-4.268,0.473-5.213c0.949-0.477,1.895-0.477,2.845-0.949
		C365.99,267.617,367.413,267.145,369.303,266.193 M378.787,263.35c-0.473,0-0.473,0-0.95,0l0,0
		C378.314,263.35,378.787,263.35,378.787,263.35 M434.255,270.461c0.478,0,0.95,0,1.422,0h0.478l-0.478,0.473L434.255,270.461
		c0,0-1.423,0.951-4.268,2.846c0.95-0.951,1.9-1.895,2.372-2.846C432.832,270.461,433.31,270.461,434.255,270.461 M430.938,263.35
		c4.268,0,8.062,0,11.852-0.473c2.367,0,4.267-0.477,6.167-0.949c-0.478,0.473-0.478,0.949-0.955,1.422
		c-5.212,1.895-9.002,2.371-11.847,2.371C435.205,265.721,433.31,264.771,430.938,263.35 M435.205,224.473
		c1.422,0.477,2.372,0.949,2.845,0.949l0,0c-0.473,0-0.95,0.473-1.423,0.951c-0.473,0-0.95,0-1.422,0.473c0,0,0.472,0,0.472-0.473
		C435.677,225.422,435.677,224.949,435.205,224.473 M390.639,287.531L390.639,287.531
		C391.116,287.053,391.116,287.053,390.639,287.531c2.845-1.424,6.167-2.373,9.012-4.268c1.422-0.479,3.317-1.424,5.212-2.373
		c1.899-0.473,3.79-1.422,5.689-2.373c-1.423,1.9-3.79,3.795-6.162,6.168c-0.95,0.945-1.895,1.422-2.845,2.367
		c0-0.473-0.473-0.945-0.95-0.945l-1.422,0.945h-1.895c-0.473,1.422-0.95,2.373-1.896,3.795c-0.478-0.473-0.949-0.949-1.899-1.422
		C392.538,288.475,391.588,288.002,390.639,287.531 M395.383,221.154c0-0.471-0.478-0.471-0.478-0.949
		c0.478,0,1.423,0.479,1.9,0.479C395.855,220.684,395.855,221.154,395.383,221.154 M272.119,223.527
		c0.472,0.945,0.949,1.895,1.422,2.846c-0.95-0.479-1.895-0.951-2.845-1.424C271.169,224.473,271.646,224,272.119,223.527
		 M381.159,245.336v-3.322c0.945,0,2.367,0,4.268,0c3.789,0,6.634,0,8.057-0.473c2.845-0.473,5.689-1.422,8.062-2.846
		c-0.473-1.895-1.422-3.316-2.372-3.793h-23.23l-1.896,1.422c0.478,0.477,0.478,0.949,0.945,1.9
		c-1.422-0.479-2.845-0.951-4.267-0.951C372.625,239.168,375.942,242.014,381.159,245.336 M328.063,233.006l0.945,0.479
		c0,1.895,0.478,3.316,0.945,4.262c0.954,1.422,2.845,1.9,5.222,1.9c1.89,0,3.313-0.479,3.313-0.951l0,0
		c0.478,0,2.372,0.473,5.217,1.896c2.372,0.949,4.739,1.422,7.111,1.422c2.846,0,3.795,0,4.268,0s0.473-0.473,0.95-0.945v-0.949
		c4.739,0.949,9.007,0.949,13.269,0.949l0.478-3.322c-2.367-0.473-7.112-1.422-14.696-3.316c-6.162-1.424-10.429-2.373-12.329-2.373
		c-2.845,0-4.267,0-4.739,0s-0.95,0-1.895,0.479c0.944,0.943,1.895,1.895,3.316,2.367c-0.949,0-1.422,0-1.895,0.477l0.473,0.473
		v2.373c0-0.479-0.473-0.951-1.423-1.424c-0.472-0.949-0.949-2.371-0.949-3.322c-0.468-0.943-1.891-1.416-4.735-1.416
		C329.486,232.535,328.063,232.535,328.063,233.006z"/>
</g>
</svg>
