<?xml version="1.0" encoding="utf-8"?>
<!-- Generator: Adobe Illustrator 15.1.0, SVG Export Plug-In . SVG Version: 6.00 Build 0)  -->
<!DOCTYPE svg PUBLIC "-//W3C//DTD SVG 1.1//EN" "http://www.w3.org/Graphics/SVG/1.1/DTD/svg11.dtd">
<svg version="1.1" id="Ebene_1" xmlns="http://www.w3.org/2000/svg" xmlns:xlink="http://www.w3.org/1999/xlink" x="0px" y="0px"
	 width="512px" height="512px" viewBox="0 0 512 512" enable-background="new 0 0 512 512" xml:space="preserve">
<g>
	<path fill="#FFFFFF" d="M209.066,203.142h-1.422C208.116,203.142,208.594,203.615,209.066,203.142
		C209.066,203.615,209.066,203.142,209.066,203.142 M167.345,203.142h-18.013c5.212,1.422,9.479,1.895,13.746,0.944
		C164.028,203.615,165.45,203.615,167.345,203.142z"/>
	<path fill="#FFFFFF" d="M477.871,252.92v-2.845c-3.793-0.473-9.954-0.473-18.489-0.473c-1.422,0-3.792,0-6.164,0
		c-2.37-0.478-5.215-0.478-8.532-0.95c-3.792-0.473-7.111-0.949-9.956-1.422c2.845-1.422,5.215-2.845,7.587-4.268l-1.897-0.473
		c-8.534,3.318-20.86,5.689-36.979,7.112c-1.895,0-3.792,0-5.689,0c-1.422,0-3.317,0-4.739,0c-0.476,0-2.845,0-5.689,0
		c-0.473,0-0.473,0-0.473,0c-0.476,0-1.897,0-4.268,0c-3.319,0-6.639-0.478-9.956-0.478c-4.268-0.945-8.534-1.895-12.327-3.789
		c-12.326-5.217-22.755-7.584-31.762-7.584l0,0c-0.95-0.479-1.897-1.424-2.845-1.9c-5.689-3.317-11.379-5.213-16.594-5.213
		c-2.37,0-5.689,0.473-9.957,1.423c-2.369,0.473-5.689,1.423-9.481,2.368l0,0c-0.947,0-1.895-0.473-2.37-0.473h-1.422
		c-7.112-1.423-12.802-2.373-18.016-2.846c-2.37-1.895-5.689-3.317-9.954-4.267c-0.476-3.795-2.845-6.162-7.587-7.112
		c-1.895-0.473-5.689-0.473-11.852-0.473c-5.689,0-9.484,0-10.906,0.473c-2.845,0.473-5.212,1.895-7.112,4.268h-6.635
		c-1.895,1.895-5.212,2.372-10.901,1.895c-4.267,0-7.111,1.899-8.534,6.167c0.945,0,3.317,0.945,7.112,2.368
		c2.367,0.949,5.212,1.422,7.111,1.422c0.945,0,1.423,0,2.367,0c-0.944,0.949-1.422,1.422-2.367,2.372l1.423,1.896
		c0.473,0,1.422-0.473,2.367-0.473c0.478,0,0.95,0,1.422,0c-0.472,0.473-0.944,1.422-1.422,1.895
		c-3.79,1.422-6.635,2.372-8.534,2.372v2.368c1.422,0.477,3.795,0.949,6.64,0.949c0,0,0,0,0,0.473
		c-5.689,0-10.43,0.477-13.752,1.422v2.373c1.423,0.473,4.745,0.944,9.957,0.944l0.478,2.372c0.473,0,1.895,0.473,4.267,0.473
		c0.473,4.268,0.945,6.639,2.845,8.063c-1.422,0.473-2.372,0.473-2.845,0.473l0.473,2.371c-9.956-0.949-15.646-0.949-16.596-0.949
		c-0.945,0-2.367,0.477-4.268,0.949c-2.367,0.951-4.739,2.373-6.162,3.795c0.473,1.422,0.95,1.895,1.896,1.895
		c4.267-0.473,10.434-0.949,18.49-0.473c1.423,0,2.845,0,3.795,0.473v1.895c1.423,0,4.739,0.473,10.43,1.424
		c2.367,0.473,4.739,0.473,6.161,0.949c0.473,0.473,0.473,0.945,0.95,1.895c0,0,0,0.473,0.473,0.473h0.473
		c0,0.479-0.473,0.949-0.473,1.422c-0.473,1.424,0,2.373,0.95,2.846c1.422,0,3.316-0.473,4.739-0.473l-0.473,4.268
		c0,2.371,0,3.789,0.473,3.789c0.473-0.473,0.473-0.473,0.473,0c9.956-4.262,22.283-7.107,36.981-8.529
		c17.065-1.422,27.97-2.844,32.71-4.268l-0.473-3.795c-6.637,0.951-15.646,1.424-27.973,2.846v-2.373
		c0.475,0,0.95-0.473,1.422-0.473c5.215-0.471,9.482-0.949,12.802-1.422c3.792,0,7.584-0.473,10.904-0.473
		c9.007,0,15.644,0.473,19.91,1.424c-0.947-2.373-2.369-4.268-4.739-5.691l0,0c1.895,0,4.265,0.473,7.109,0.473
		c0.475,0,0.95,0,1.897,0c3.319,0.479,6.162,0.951,8.534,1.424c0-0.473-0.475-0.473-1.422-0.945c1.422,0,2.369,0,3.316,0
		c-0.472-0.479-1.422-1.422-1.895-1.9c2.37-0.473,4.739-0.945,7.584-1.895c5.215,0.949,9.482,2.373,13.274,3.316
		c0-1.895-0.947-3.316-1.895-4.738c3.316-0.473,6.637-0.473,10.429-0.951c3.319,1.424,5.215,2.373,5.689,2.373
		c2.37,0,3.792,0,3.792-0.473l-0.947-0.477c0-0.473-0.475-0.945-0.95-1.896c0.476,0,0.476,0,0.95,0l0.473,0.473v-0.473
		c7.587-0.471,16.594-0.949,26.55-1.422c8.532-0.949,16.592-1.895,23.23-4.267c0.473,0,0.947,0,1.423,0.472
		c-3.795,0.479-7.112,1.424-9.957,1.901v2.367c0.947,0.479,1.423,0.949,1.896,0.949c0.475,0,2.372,0,5.217,0
		c1.422,0,7.109-0.471,17.065-1.895c1.423,0.473,2.37,0.945,3.793,1.895c0-0.471-0.473-1.422-0.948-1.895
		c1.423,0,3.32-0.477,5.215-0.477c3.32-0.473,6.637-0.945,9.481-0.945c3.793,0.945,7.112,1.895,9.957,3.789
		c0.947-0.473,1.422-2.367,2.37-4.738C469.812,253.393,474.554,252.92,477.871,252.92 M327.586,260.505
		c-0.947-0.473-1.895-0.949-3.317-1.422c0.473,0,0.473,0,0.947,0c0.476,0,1.423,0,1.897,0
		C327.586,260.032,327.586,260.032,327.586,260.505 M337.543,243.436l4.267,0.95c-1.897,0-4.267,0-6.164,0c0-0.473,0-0.95,0-1.423
		C336.593,242.963,337.067,243.436,337.543,243.436 M319.526,238.224c-1.422,0-3.316,0.473-4.739,0.473
		c-3.319-0.473-6.164-1.423-9.481-1.896c-0.476,0-0.95-0.473-1.423-0.473c2.37-0.949,4.268-1.422,5.689-1.422
		C311.942,234.907,315.26,235.852,319.526,238.224 M315.734,252.448c-0.947,0-6.162,0.945-15.646,2.845
		c-2.37,0.473-5.215,0.473-8.06,0.945c-0.947,0-1.42,0-2.37,0c-6.162,0-9.954,0.478-12.326,1.423v0.473
		c-2.37,0.477-4.268,0.477-6.162,0.949c-7.112,0.949-11.379,1.895-12.802,2.373l0.476,0.471c-2.37,0-6.164-0.471-11.852-1.422
		c-0.473,0-1.422,0-1.895-0.473v-1.422h-2.372v-1.895c-0.473,0-1.423-0.478-2.846-0.95c0.473-1.896,0-3.317-1.895-4.739v-0.478
		c0.473,0.478,0.473,0.478,0.945,0.478c2.845-0.95,5.217-1.9,7.589-2.373c6.16-1.422,10.901-2.371,14.693-2.371
		c1.423,0,4.742,0.477,8.535,0.949c3.316,0.473,6.161,0.473,8.059,0.473c-0.475-1.422-1.422-2.367-2.369-3.317
		C287.765,246.758,300.563,249.603,315.734,252.448 M262.637,242.014c0,0,0.475,0,1.422,0
		C263.584,242.014,262.637,242.014,262.637,242.014L262.637,242.014L262.637,242.014 M246.993,232.535c-0.473,0-0.473,0-0.95-0.473
		c0.478,0,1.423,0.473,1.9,0.473C247.943,232.535,247.466,232.535,246.993,232.535 M238.459,223.05c0.473,0,0.95,0,1.422,0
		c-0.472,0-1.422,0-2.372,0C237.986,223.05,237.986,223.05,238.459,223.05 M245.571,244.386c-0.95,0.472-2.373,0.95-3.795,1.423
		c-0.945,0.473-1.423,0.949-2.367,1.422v-0.473c-0.95-0.949-1.9-1.9-3.322-2.845c0.949,0,1.422,0,2.845,0
		C240.831,244.386,242.727,244.386,245.571,244.386 M240.831,239.647c2.367,0,3.79,0,3.79-0.479l-0.945-0.472
		c0-0.473,0-0.473,0-0.944h0.473c2.845,0.944,6.162,1.416,9.954,2.367c-2.37,0-4.737,0-7.582,0c-3.794,0-7.111,0-9.484,0.472v-0.944
		C237.509,239.647,238.932,239.647,240.831,239.647 M259.792,262.399c0.475,0.479,0.947,0.951,1.422,1.424
		c-0.475,0-1.422,0.477-1.895,0.477c0-0.477,0-0.949,0-0.949v-0.951 M236.087,263.823c2.372,0.477,5.217,0.949,8.534,1.422
		c0.478,0,0.95,0,1.422,0.477c-1.895,0-5.212,0-9.956,0.473v-0.473c-1.896,0-4.268,0-6.635-0.477c0,0,0,0,0-0.473l0,0
		c0.945,0,2.367-0.473,3.79-0.473C234.191,264.3,235.142,264.3,236.087,263.823 M226.13,256.715l-0.473,0.473
		c-0.472-1.423-0.949-2.374-1.422-3.795h0.473c0.949,0.477,1.899,1.422,2.372,2.372C226.607,256.238,226.13,256.238,226.13,256.715
		 M228.03,255.292c0-0.478,0.472-0.95,0.472-1.423c0.473,0,0.95,0.473,1.423,0.473C228.975,254.342,228.502,254.815,228.03,255.292z
		"/>
	<path fill="#FFFFFF" d="M295.824,71.821L295.824,71.821c-7.112-0.478-14.699,1.422-23.23,5.689
		c-3.793,1.895-8.535,4.268-14.225,7.112c-0.472-0.95-0.947-1.9-1.422-2.845c2.845-0.95,5.215-2.373,8.06-4.745
		c5.217-4.267,7.587-8.534,7.111-12.802h-20.857c-0.476,0-0.476,0.478-0.95,0.478l0,0C254.103,61.386,256,57.12,256,52.852
		c-0.475,0-0.947-0.467-0.947-0.467c-0.476,0-1.897,0-4.268,0c-1.897,0-3.792,0.944-5.214,2.367
		c-0.95,0.944-1.896,1.422-3.317,1.899c0.473-0.478,0.944-0.955,1.895-1.899c7.584-8.057,12.799-15.169,14.696-20.858
		c-0.476,0-0.476-0.478,0-0.478c0,0-1.423,0-3.792,0c-2.845,0-6.637,3.322-12.799,9.484c-7.112,7.584-10.907,11.374-11.379,11.852
		l-0.478-0.478c1.899-2.367,3.794-4.263,4.744-5.212c-0.478-2.367-1.422-3.79-2.372-3.79c-0.95,0.473-3.317,1.895-8.062,4.739
		c-3.79,2.373-6.157,3.795-8.058,4.74c-3.316-3.79-5.689-5.212-7.584-4.74c-1.422,0-3.317,1.418-6.162,3.317
		c0-0.944,1.423-2.845,3.317-6.162c1.423-2.845,2.372-5.217,2.372-7.584c0-0.95,0-1.899,0-2.372
		c1.423-2.372,3.317-5.217,5.689-8.062c-0.478,0-0.949-0.945-1.422-2.368c-1.9-0.478-3.795,0.473-5.689,3.79
		c-3.322,5.217-6.167,9.012-8.534,11.379c-2.845-2.845-6.167-3.317-9.957-1.422l-0.95,10.434c-0.472,1.423-0.949,2.845-0.949,4.268
		h-9.957l0,0c-0.945,0-2.367,0-3.79,0c-2.367,0-7.111,2.367-14.224,7.579c-7.111,4.744-11.379,7.589-12.801,7.589l-10.902,4.268
		c-1.895,0-2.845-0.478-3.789-0.95c-0.478,0-0.478-0.473-0.95-0.473c0,0,0,0-0.473-0.477c-0.478-0.473-0.949-1.423-1.422-2.845
		c-0.478,0-0.478,0.477-0.95,0.477c0-0.949,0-1.899,0.473-2.845c0-2.372,0-4.744,0-7.111l0,0c0.95-3.79,0.478-7.112-1.423-9.957
		c-1.422-2.367-3.316-3.789-5.212-4.267c-0.949,0.478-1.899,1.422-1.899,1.899c-0.473,0.945-0.473,2.845-0.473,5.212
		s0.473,4.268,1.423,6.162v0.473c-0.473,4.267-0.95,7.589-1.423,9.484c-2.845-1.896-7.584-5.218-15.174-10.907
		c-0.468-1.422-0.944-2.845-1.422-4.734c-2.845-8.062-7.58-15.646-13.747-22.285l-1.895,1.422c0.95,5.689,1.895,10.43,2.372,15.174
		c-0.949-0.95-2.372-1.422-2.845-1.899L84.38,47.64c1.899,2.845,4.267,7.112,6.64,12.324c1.422,7.111,2.372,12.329,2.845,15.646
		c0,0.477,0.472,0.949,0.472,1.899c-5.212,0-8.057,0-9.006,0.945c-0.95,0.949-1.423,4.744-1.423,10.901c0,0.478,0,0.955,0,1.422
		c-3.795-1.422-8.534-3.789-13.273-6.634c-0.478-0.945-0.945-1.423-0.945-1.896c-0.478,0.473-0.478,0.473-0.955,0.95
		c-4.267-2.372-8.529-4.744-13.269-8.062c-1.423,0.949-1.9,3.317-2.372,7.111c2.372,1.896,4.739,4.268,8.062,6.64
		c0.473,4.268,1.422,8.529,2.845,12.797c-0.478-0.473-0.955-0.473-1.423-0.95c-1.422,0.95-1.899,2.372-2.372,4.744
		c0.473,0.945,0.473,2.368,0.95,3.317c-2.372-0.949-4.268-0.949-6.167-0.949l-1.423,2.372c1.9,1.422,4.745,4.267,8.535,8.534
		c-1.423-0.95-2.846-1.423-4.268-1.423c-1.895,0-3.317,0-4.268,0.473c-6.634-3.317-12.801-5.212-18.013-5.212l-1.423,2.367
		c1.895,2.845,2.845,4.745,2.845,4.745c8.534,1.895,15.646,4.267,20.386,7.111c6.162,3.313,12.329,9.002,18.486,16.591l0.478-0.478
		c0.944,0.95,1.422,1.423,2.367,2.373c2.372,2.372,4.744,4.739,6.64,6.639c-0.95,0.473-1.423,0.945-1.896,1.423
		c4.74,8.057,11.379,15.642,19.437,22.28c6.634,5.212,12.801,9.007,19.436,11.379c-0.473-1.899-1.895-3.794-3.79-6.167
		c1.896,0,2.367-0.472,2.367-0.472l-0.944-0.473c0-0.478-0.478-0.95-0.478-1.423c3.322,3.317,6.167,6.635,9.012,9.957
		c1.895,3.79,3.317,7.584,3.317,11.852c0,2.845,0,4.267-0.473,4.739h0.944c-2.845,5.217-4.267,9.007-4.267,10.901
		c0,2.373,0.478,3.795,0.95,3.795c0.472,0,0.472,0,0.949-0.473c7.585-4.744,12.324-10.429,14.691-16.596c0,0,0,0,0.478,0h18.964
		c-0.473,1.422-0.473,2.845-0.473,4.744c0,2.368,0,3.79,0.473,4.268h0.472h1.9c2.367-2.845,3.789-5.689,4.739-8.062
		c0.473,0,0.95,0.472,1.423,0.472c0-0.472-0.473-0.944-0.473-1.422h1.422h0.473c0.95,1.422,1.423,2.372,1.895,2.372
		c0-0.473,0-0.95,0.478-1.422c0.473,0.472,1.423,0.949,1.891,1.422c0.478-0.95,0.478-1.895,0.478-2.845c0.944,0,2.367,0,3.321-0.473
		c0.468,1.423,1.891,2.367,3.313,2.845l0.478,0.473l0,0c0,0,0,0,0.473,0c0.95-0.473,1.895-0.95,2.372-1.895c0,0,0,0,0-0.478
		c0.473-0.473,0.945-0.945,1.895-1.423c0.473,0,0.95,0,1.423,0c0.95,0.478,1.422,0.95,2.845,1.423
		c0.95,0.478,1.895,1.422,2.845,2.372c0,0.473,0.473,0.473,0.473,0.95c0.478,0.944,0.949,2.367,1.899,3.79
		c0.473-0.473,0.945-1.423,1.423-2.846c0.944-0.472,2.367-1.422,3.789-2.845c4.268,3.795,7.59,5.69,10.435,5.69
		c2.367,0,3.79,0,3.79-0.473v-0.473c0.944-10.435,0.944-18.019,1.422-22.758v-0.473c2.367-3.322,4.739-7.112,7.112-10.435
		c1.895-0.472,3.316-0.472,4.739-0.472l0.473-4.74h-0.473c0,0,0.473-0.949,1.422-1.895c0,0,0-0.478-0.949-0.478
		c0,0,0.478-0.473,0.478-0.945h0.472c5.218-1.899,9.957-3.794,13.274-6.639c1.899-1.423,3.795-2.845,5.689-4.74h0.475
		c1.423-0.949,3.792-3.794,7.112-8.534c1.422-1.422,2.369-2.845,2.842-3.795c0.475-0.944,0.95-1.422,1.897-2.367
		c2.37-0.478,5.215-2.372,8.534-4.267l0,0c0.473,1.422,0.947,1.895,1.895,1.895c1.897-0.473,4.268-1.422,7.587-2.372
		c2.845-0.945,5.215-1.895,6.638-2.845c0-1.89-0.476-3.313-1.423-3.79h-9.481c-0.476,0-0.947,0.478-1.423,0.478
		c0-0.955-0.475-2.377-0.475-3.322c-0.473-1.422-1.423-2.845-2.37-4.267c2.845-3.79,4.742-6.162,6.165-7.585
		c0-0.949,0-1.422,0-1.895c0,0-0.95-0.478-2.373-0.478c0.476-0.473,0.476-0.945,0.95-1.422c1.423-0.945,2.37-1.896,3.792-3.79
		c-0.475-0.478-0.475-1.423-0.475-3.795c0-0.95-0.947-1.895-3.317-1.895c2.37,0,3.792-0.95,3.792-2.372
		c-0.475-1.896-0.475-2.84-0.475-3.795l-1.895-0.468c-1.897,0.468-4.742,2.367-9.01,6.157c-0.947,0.95-1.895,1.899-2.369,2.372
		c0.947-8.062,1.422-12.796,0.947-13.273c-0.947,0-1.896-0.478-3.317-1.423c3.317-0.944,7.111-2.845,11.376-5.212
		c5.689-2.845,11.38-7.112,18.491-11.856C296.296,71.821,295.824,71.821,295.824,71.821 M264.059,106.903
		C264.059,106.903,264.534,106.425,264.059,106.903C264.534,106.425,264.534,106.903,264.059,106.903c0.476,0,0.476,0,0.476,0
		H264.059 M262.637,99.313c0,0.478,0,0.95,0,1.423c-0.475,0.478-0.947,0.478-1.423,0.478c0-0.478,0-0.478,0-0.95
		C261.689,99.791,262.162,99.313,262.637,99.313 M207.172,173.272c0.944-0.473,1.895-1.422,2.845-2.367
		c-1.423,1.895-2.372,3.317-2.845,4.267c-1.9,1.896-4.268,4.263-7.112,7.107c-0.478,0-0.95,0.478-0.95,0.478
		c-0.472,0.473-0.949,0.473-0.949,0.473c2.845-4.268,4.744-6.635,5.217-7.585c0.473-0.473,0.473-0.473,0.95-0.949
		c0.473,0,0.473,0.477,0.944,0.477C205.271,175.171,206.222,174.222,207.172,173.272 M204.8,193.185c-0.473,0-0.95,0-1.423,0
		l-1.895-1.422c0.473-0.473,0.944-0.95,1.422-1.423c1.423-0.949,2.367-2.372,3.79-2.845c-1.423,2.372-1.895,3.795-1.895,4.268
		S204.8,192.712,204.8,193.185 M188.681,193.185L188.681,193.185L188.681,193.185L188.681,193.185 M178.725,186.074
		c-0.478,0.472-0.478,0.472-0.945,0.949c-2.372-0.478-4.745-0.478-6.64-1.422c-1.422-0.95-3.317-1.9-5.217-2.845
		c-5.689-2.845-11.379-4.268-16.591-4.74c-5.689-4.744-9.957-8.062-13.747-10.434c-6.639-7.106-10.906-10.901-12.328-10.901
		c-2.373,0-3.795,0-4.268,0.473c0,0,0,0.477,0.473,0.477c0.478,0.945,1.899,2.846,2.845,4.74l0,0
		c-2.845-3.317-6.162-6.64-9.479-10.906c-0.478-0.945-1.422-1.423-1.899-2.368c-0.473-3.322-2.367-7.589-5.212-11.856
		c-3.79-6.156-8.535-9.479-12.802-9.479c0,0,0,0-0.473,0c-0.473-0.945-1.422-1.423-1.895-2.367c-0.478-0.478-0.478-0.478-0.95-0.95
		c3.317,0.473,6.64,0.95,10.429,2.372c0.945,0.473,6.167,2.845,16.119,8.057c0.473-0.478,0.473-0.944,0.95-1.422
		c1.895-2.845,0-5.689-5.218-8.534h0.473c2.372,0,3.795,0,4.268,0c0-0.473,0.478-0.473,0.949-0.945
		c-1.422-2.372-5.217-4.267-10.906-6.167c0.478-0.473,0.95-1.422,1.423-2.845l0,0l0.478,0.478c2.367,1.895,4.267,2.845,6.161,2.845
		c5.69,0,11.38,1.895,16.119,5.689c0.95,0.945,1.899,1.423,2.845,2.367c1.899,2.845,4.268,6.167,6.635,9.957
		c0,0.478,0.478,0.944,0.478,1.422c-1.9,0.478-2.845,1.423-2.368,3.79c0,1.422,0.468,2.372,0.945,3.795
		c0,0.472,0.478,0.472,0.478,0.949l0,0c-1.423,0.473-1.899,1.423-1.899,2.845c0.477,0.473,0.944,0.945,0.944,0.945s0.955,0,2.845,0
		l0,0c-0.944,0-1.422,0.478-1.422,0.95c-0.468,0.473-0.468,1.895-0.468,3.794c0.468,1.423,0.945,1.896,1.89,1.896
		c1.423,0,2.377,0,3.322,0c0.478,0.473,0.478,0.949,0.945,1.895c-0.473,0.478-0.945,1.423-1.423,1.9c0,0,0,0-0.468,0
		c0,0,0,0-0.477,0.472c-1.9,0.95-2.845,1.423-3.79,2.373c0.468,2.367,1.422,3.789,2.367,3.789c3.317,0.95,6.162,0.473,7.584-1.422
		c0.473-0.473,0.95-0.473,0.95-0.945l2.367-0.95c0.95-2.372,1.9-4.267,1.9-6.162c0.944,1.423,2.367,2.846,3.316,4.268
		c-0.949-2.845-2.372-5.689-3.794-9.012c-0.473-0.473-0.945-1.422-0.945-1.895l0,0l1.423-0.95l0,0
		c-1.9-11.379-7.112-20.858-15.646-28.915l0,0c0-1.899,0-3.795-0.478-5.217c3.8-5.689,6.167-9.484,6.64-12.329
		c0-0.473,0.473-1.423,0.473-1.89c2.372-1.9,4.267-3.8,6.167-5.689c0.472-0.478,0.944-0.955,1.422-1.423
		c0.473-0.478,1.423-2.372,1.895-5.217l0.473-4.268c0,0,0-0.472-0.473-0.472c1.423-0.478,2.373-0.478,3.795-0.95
		c0.473,0.95,0.473,1.422,0.945,2.372c0.95,1.423,1.899,2.845,3.795,4.268c-0.95,1.422-1.896,2.367-2.373,4.267
		c0,0,0,0.468-0.472,0.468c-3.317,5.689-5.218,11.379-5.218,16.596c0.478,0.473,0.95,1.423,1.9,1.423l0.944,0.473
		c2.373-5.689,5.218-11.38,8.534-16.592c-0.944,2.367-1.422,4.74-1.422,7.585c0,2.372,0.478,4.267,0.95,4.739l0.949,0.478
		c1.423-0.95,3.79-4.268,6.157-9.957c0.478-0.478,0.478-1.422,0.955-1.899c4.267,0,7.106-1.423,9.002-3.79
		c4.744-0.478,8.062,0.478,10.434,2.367l0,0c-0.478,0.478-0.478,0.955-0.95,1.423c1.423,0.955,3.795,4.744,8.535,12.329
		c0.472,0.949,0.949,1.422,1.422,2.372c-1.895,2.367-4.268,4.739-6.162,6.635c-2.372,1.899-6.167,9.012-12.329,21.335
		c0.95,1.423,1.896,1.896,2.845,2.367c0.473,0,0.473,0,0.473-0.472c2.372-1.423,4.745-3.317,7.59-5.218
		c-2.845,3.795-4.745,7.59-5.689,11.856c-0.478,2.368-0.95,5.213-0.95,7.585c0-1.896,0.473-4.268,1.895-6.64
		c1.423-3.317,4.268-7.584,8.062-11.847c4.268-5.222,7.112-8.534,9.484-10.434c0.473,0.478,0.945,0.478,1.423,0.949
		c0-0.472,0.473-1.422,0.473-1.895c0.472,0,0.472,0,0.472,0l0,0c0.478,0,0.945,0,0.945,0c1.423-0.478,1.899-0.95,1.899-2.372h0.478
		c2.367-0.473,3.313-0.95,3.79-0.95c-0.945-4.739-1.899-9.479-2.845-13.273c0.945,0,1.422,0,1.899,0c0-0.473,0.468-0.473,0.945-0.95
		c0-0.473,0-0.473,0-0.945c3.79,4.74,7.112,7.112,10.429,7.112c0.473,0,1.423,0,1.896,0c0,2.367,0,4.739,0,7.112
		c0,0.472,0.478,0.944,0.478,0.944c-0.478,1.423-0.478,3.795-0.478,6.167c0,0.945,0,1.423,0,1.89c0,1.423,0.478,1.9,1.422,1.423
		l1.423-0.945h1.899c0-0.478,0-0.478,0-0.944c0.473,0.467,0.945,0.944,1.423,1.422v0.468c-0.478,0.478-1.423,0.955-1.9,1.422
		c-1.895,1.9-4.267,4.268-6.634,7.112c0.944,0.478,1.895,0.95,2.845,1.422c-1.423,2.373-2.373,4.745-3.795,7.112
		c-0.95,1.899-2.372,3.795-3.317,6.167c-0.478,0-0.95,0-1.422,0c0,0-1.9,0.473-5.213,0.945c-1.422,0.477-3.799,0.949-6.167,1.422
		c-7.111,2.845-10.901,8.062-10.901,15.174c0,1.422,0,2.367,0,2.845c-0.478,0.473-0.95,0.945-1.422,1.417
		c-4.268,4.268-7.112,8.063-9.484,11.38c0.95-2.846,1.422-6.162,1.895-9.957h-1.422c-0.473-4.263-1.423-8.057-3.317-11.374
		c5.217-3.795,9.956-9.007,13.751-15.646c2.367-3.794,4.268-7.584,5.212-10.429c0.478-1.9,0.95-3.795,0.478-5.217
		c-3.322,1.422-8.062,6.161-14.224,15.173l-0.478,0.473c-1.422,1.896-2.367,3.795-3.789,5.217c0,0.473-0.478,0.473-0.478,0.945
		c0.478-1.422,0.478-2.367,0-2.845c-2.367,0.478-4.74-0.945-7.112-4.739c-1.422,0.949-1.89,2.372-2.367,4.739
		c0.478,0.478,0.945,2.372,1.423,5.217c-0.478,0-0.945,0.473-0.945,0.473c0,0.473,0,0.473,0,0.95
		c-0.478,0.944-0.478,1.895-0.955,2.845c0.955,2.367,1.9,5.212,3.322,8.534c0,0.945,0,1.895,0.478,2.845h4.734
		c0.478,0.473,0.478,1.422,0.95,1.895l1.422,2.845C185.358,179.434,182.514,182.279,178.725,186.074
		C179.201,186.074,179.201,186.074,178.725,186.074 M153.121,189.868L153.121,189.868c0,0.473,0,0.473,0.478,0.473
		C153.599,190.34,153.121,190.34,153.121,189.868 M155.021,192.236c0.472,0.477,0.472,0.949,0.944,1.422
		c0,0.478,0.478,0.478,0.478,0.478s0,0-0.478,0C155.493,194.135,155.021,193.185,155.021,192.236 M242.727,122.549l-0.473,0.472
		C242.254,123.021,242.254,123.021,242.727,122.549C242.254,122.549,242.727,122.549,242.727,122.549 M240.354,117.804
		c-0.473-0.473-0.473-1.422-0.473-1.895c-0.472-1.423-0.472-1.896-0.472-2.845c0.944-0.95,1.895-1.423,2.845-2.372
		c1.422-1.423,2.367-2.368,2.845-3.79c0.473-0.478,1.422-1.423,2.367-1.9c-0.945,1.9-1.423,4.268-1.895,7.59
		C243.198,114.959,241.304,116.382,240.354,117.804 M207.172,121.126L207.172,121.126L207.172,121.126
		c0.473,0.945,0.473,1.423,0.944,1.895l-5.689,5.689C203.85,126.816,205.271,124.444,207.172,121.126
		C206.694,121.599,206.694,121.599,207.172,121.126 M243.676,87.939c-0.478,0-0.478,0-0.949,0c-0.473-0.472-0.473-1.422-0.95-1.895
		C242.254,86.99,242.727,87.467,243.676,87.939 M247.943,87.939c-0.478-1.422-1.423-2.372-1.9-3.794
		c2.373,1.422,3.795,2.845,5.218,4.267C250.311,88.412,249.365,87.939,247.943,87.939 M221.396,85.567c1.417,0,2.84,0.478,4.734,1.9
		c1.9,0.944,3.795,2.845,6.167,5.212c0.473,0.478,0.945,0.944,1.423,1.422c-4.745,3.79-7.59,5.212-8.534,5.212
		c-1.423,0-2.373,0-3.79-0.472l0,0v-2.84c-0.478,0-0.478,0-0.955-0.478c-1.422-3.322-4.267-6.635-8.057-9.007
		c-1.895-0.95-3.79-1.895-6.162-2.845c-4.267-1.895-8.534-3.317-13.273-3.795c-0.478-0.473-0.478-0.473-0.95-0.944h-2.845
		c0-0.95,0-1.423,0.473-2.373c1.422,1.423,2.845,2.373,5.217,2.845c2.845,0.95,6.162,1.896,9.007,1.896c2.372,0,3.795,0,4.267,0
		c0-0.473,0.478-0.473,0.95-0.945c0-0.478,0-1.422,0-1.899c2.372,0,5.217,0.949,8.062,2.372c0,0.473,0,0.473,0,0.95
		c0.468,0.944,0.468,1.895,0.468,3.316C217.128,85.094,218.551,85.567,221.396,85.567 M229.925,66.131L229.925,66.131
		L229.925,66.131L229.925,66.131 M212.861,64.231c-2.372,0-4.745,0-7.59,0c-0.472,0-0.944,0-1.895,0
		c0.473-0.472,0.95-0.472,1.895-0.944C207.645,63.759,210.489,63.759,212.861,64.231L212.861,64.231 M202.904,75.138
		c-0.949,0-1.899,0-3.322-0.473c0.95,0,1.9-0.478,2.845-0.478C202.427,74.188,202.427,74.666,202.904,75.138L202.904,75.138
		 M169.245,70.871c-0.478,0-0.95,0-1.423,0l0.473-0.473C168.768,70.871,169.245,70.871,169.245,70.871 M147.909,92.679
		L147.909,92.679L147.909,92.679c1.895-2.845,2.845-4.268,3.317-4.74c0.473,0.95,0.95,1.896,1.422,2.373
		C151.699,90.779,149.804,91.256,147.909,92.679 M104.771,116.382c0.945,0.949,1.89,1.422,2.367,1.899
		c-0.478,0-1.422-0.478-1.899-0.478c-4.735-1.422-10.425-2.845-17.536-3.79c-1.9,0-3.322,0-3.795,0.473
		c-1.895-3.794-2.845-7.111-2.845-10.906c0,0,0.473,0,0.473-0.473c1.422,1.423,2.845,2.372,4.267,3.317v0.478
		c0.95,1.422,1.423,1.895,1.9,2.367c0.944,0.95,0.944,1.899,0.944,2.372h2.845l0.478,1.896c3.79,0.477,7.112,0.949,10.425,1.422
		c0.478,0.478,0.478,0.95,0.954,1.423C103.815,115.91,104.293,116.382,104.771,116.382 M121.361,101.213
		c0.473,1.422,0.473,2.367,1.423,3.317c-0.95,0.949-1.423,1.422-1.9,2.372c-2.367-0.95-4.739-1.423-7.111-1.9l0.478-0.472
		c1.895,0,2.845-0.473,2.845-0.473l-0.478-0.478v-0.473c0,0,0,0,0-0.473c1.899-0.949,3.322-1.899,4.744-2.372
		C120.884,100.736,121.361,101.213,121.361,101.213 M101.926,90.779c0-0.467,0-0.467,0-0.944
		C101.926,90.312,101.926,90.312,101.926,90.779L101.926,90.779 M89.597,95.046L89.597,95.046L89.597,95.046L89.597,95.046
		 M96.236,97.891c0.944,0.478,1.895,0.955,3.313,1.422c-1.891,0.478-3.79,0.95-5.685,1.423c-0.473-0.473-0.95-0.945-1.423-1.895
		C93.864,98.841,94.813,98.369,96.236,97.891 M136.53,198.403L136.53,198.403c0-1.423-0.473-2.846-0.473-4.268
		c0.473,0.945,1.418,1.422,1.896,1.895C137.476,196.98,137.008,197.925,136.53,198.403 M138.43,146.724l-0.949-0.473
		c0.949-3.322,0.473-5.217-1.423-7.111c-0.473-0.478-2.845-1.423-7.584-3.79c-2.845,2.367-2.845,5.212-0.478,8.057
		c1.899,2.367,4.267,3.79,6.64,3.79C137.476,147.197,138.43,147.197,138.43,146.724z"/>
	<path fill="#FFFFFF" d="M295.824,439.71L295.824,439.71c-7.112,0.473-14.699-1.422-23.23-5.689
		c-3.793-1.895-8.535-4.268-14.225-7.111c-0.472,0.949-0.947,1.898-1.422,2.844c2.845,0.951,5.215,2.373,8.06,4.74
		c5.217,4.268,7.587,8.533,7.111,12.801h-20.857c-0.476,0-0.476-0.473-0.95-0.473l0,0c3.792,3.318,5.689,7.113,5.689,11.852
		c-0.475,0-0.947,0.473-0.947,0.473c-0.476,0-1.897,0-4.268,0c-1.897,0-3.792-0.945-5.214-2.367c-0.95-0.949-1.896-1.422-3.317-1.9
		c0.473,0.479,0.944,0.951,1.895,1.9c7.584,8.057,12.799,15.168,14.696,20.857c-0.476,0-0.476,0.473,0,0.473c0,0-1.423,0-3.792,0
		c-2.845,0-6.637-3.316-12.799-9.479c-7.112-7.584-10.907-11.379-11.379-11.852l-0.478,0.473c1.899,2.373,3.794,4.268,4.744,5.217
		c-0.478,2.367-1.422,3.789-2.372,3.789c-0.95-0.473-3.317-1.895-8.062-4.738c-3.79-2.373-6.157-3.795-8.058-4.74
		c-3.316,3.789-5.689,5.213-7.584,4.74c-1.422,0-3.317-1.424-6.162-2.846c0,0.951,1.423,2.846,3.317,6.162
		c1.423,2.846,2.372,5.217,2.372,7.584c0,0.951,0,1.9,0,2.373c1.423,2.373,3.317,5.217,5.689,8.063
		c-0.478,0-0.949,0.943-1.422,2.367c-1.9,0.477-3.795-0.473-5.689-3.791c-3.322-5.217-6.167-9.012-8.534-11.379
		c-2.845,2.846-6.167,3.318-9.957,1.424l-0.95-10.43c-0.472-1.422-0.949-2.846-0.949-4.268h-9.957v-0.477
		c-0.945,0-2.367,0.477-3.79,0.477c-2.367,0-7.111-2.373-14.224-7.59c-7.111-4.738-11.379-7.105-12.801-7.105l-10.902-4.268
		c-1.895,0-2.845,0.473-3.789,0.945c-0.478,0-0.478,0.477-0.95,0.477c0,0,0,0-0.473,0c-0.478,0.473-0.949,1.895-1.422,2.846
		c-0.478,0-0.478-0.479-0.95-0.479c0,0.949,0,1.9,0.473,2.846c0,2.371,0,4.744,0,7.111l0,0c0.95,3.795,0.478,7.111-1.423,9.484
		c-1.422,2.367-3.316,3.789-5.212,4.738c-0.949-0.471-1.899-1.422-1.899-1.895c-0.473-0.949-0.473-2.844-0.473-5.217
		c0-2.371,0.473-4.268,1.423-6.639v-0.473c-0.473-4.268-0.95-7.584-1.423-9.479c-2.845,1.895-7.584,5.211-15.174,10.9
		c-0.468,1.422-0.944,2.846-1.422,4.74c-2.845,8.061-7.58,15.646-13.747,22.285l-1.895-1.422c0.95-5.689,1.895-10.43,2.372-15.174
		c-0.949,0.949-2.372,1.422-2.845,1.9l-1.899-1.424c1.899-2.844,4.267-7.111,6.64-12.328c1.422-7.111,2.372-12.324,2.845-15.646
		c0-0.473,0.472-0.945,0.472-1.895c-5.212,0-8.057,0-9.006-0.945c-0.95-0.949-1.423-4.744-1.423-10.906c0-0.473,0-0.949,0-1.422
		c-3.795,1.422-8.534,3.795-13.273,6.639c-0.478,0.945-0.945,1.422-0.945,1.895c-0.478-0.473-0.478-0.473-0.955-0.949
		c-4.267,2.373-8.529,4.744-13.269,8.063c-1.423-0.951-1.9-3.318-2.372-7.113c2.372-1.895,4.739-4.268,8.062-7.111
		c0.473-4.268,1.422-8.535,2.845-12.801c-0.478,0.477-0.955,0.477-1.423,0.949c-1.422-0.949-1.899-2.373-2.372-4.74
		c0.473-0.949,0.473-2.371,0.95-3.322c-2.372,0.951-4.268,0.951-6.167,0.951l-1.423-2.373c1.9-1.422,4.745-4.268,8.535-8.529
		c-1.423,0.945-2.846,1.422-4.268,1.422c-1.895,0-3.317-0.477-4.268-0.477c-6.634,3.316-12.801,5.217-18.013,5.217l-1.423-2.373
		c1.895-2.844,2.845-4.738,2.845-4.738c8.534-1.895,15.646-4.268,20.386-7.113c6.162-3.316,12.329-9.006,18.486-16.59l0.478,0.473
		c0.944-0.951,1.422-1.424,2.367-2.373c2.372-2.367,4.744-4.74,6.64-6.635c-0.95-0.477-1.423-0.949-1.896-1.422
		c4.74-8.063,11.379-15.646,19.437-22.281c6.634-5.217,12.801-9.012,19.436-11.379c-0.473,1.895-1.895,3.791-3.79,6.162
		c1.896,0,2.367,0.473,2.367,0.473l-0.944,0.479c0,0.473-0.478,0.943-0.478,1.422c3.322-3.322,6.167-6.641,9.012-9.957
		c1.895-3.795,3.317-7.584,3.317-11.379c0-2.846,0-4.268-0.473-4.74h0.944c-2.845-5.217-4.267-9.006-4.267-10.906
		c0-2.367,0.478-3.789,0.95-4.268c0.472,0,0.472,0,0.949,0.479c7.585,4.74,12.324,10.43,14.691,16.59c0,0,0,0,0.478,0h18.964
		c-0.473-1.422-0.473-2.844-0.473-4.738c0-2.373,0-3.795,0.473-4.268c0-0.473,0.472,0,0.472,0h1.9
		c2.367,2.846,3.789,5.689,4.739,8.057c0.473,0,0.95-0.473,1.423-0.473c0,0.473-0.473,0.951-0.473,1.422h1.422h0.473
		c0.95-1.422,1.423-2.371,1.895-2.371c0,0.477,0,0.949,0.478,1.422c0.473-0.473,1.423-0.945,1.891-1.422
		c0.478,0.949,0.478,1.9,0.478,2.844c0.944,0,2.367,0,3.321,0c0.468-1.422,1.891-2.367,3.313-2.844l0.478-0.473l0,0c0,0,0,0,0.473,0
		c0.95,0.473,1.895,0.949,2.372,1.895l0,0c0.473,0.479,0.945,0.949,1.895,1.422c0.473,0,0.95,0,1.423,0
		c0.95-0.473,1.422-0.943,2.845-1.422c0.95-0.473,1.895-1.422,2.845-2.367c0-0.477,0.473-0.477,0.473-0.477
		c0.478-0.945,0.949-2.367,1.899-3.791c0.473,0.473,0.945,1.424,1.423,2.367c0.944,0.479,2.367,1.424,3.789,2.846
		c4.268-3.789,7.59-5.213,10.435-5.213c2.367,0,3.79,0,3.79,0.473v0.473c0.944,10.434,0.944,18.02,1.422,22.758v0.473
		c2.367,3.322,4.739,7.111,7.112,10.434c1.895,0.473,3.316,0.473,4.739,0.473l0.473,4.74h-0.473c0,0,0.473,0.949,1.422,1.895
		c0,0,0,0.479-0.949,0.479l0.478,0.471h0.472c5.218,1.896,9.957,3.795,13.274,6.641c1.899,1.422,3.795,2.844,5.689,4.74h0.475
		c1.423,0.949,3.792,3.793,7.112,8.533c1.422,1.422,2.369,2.846,2.842,3.789c0.475,0.951,0.95,1.424,1.897,2.373
		c2.37,0.473,5.215,2.373,8.534,4.268l0,0c0.473-1.422,0.947-1.895,1.895-1.895c1.897,0.473,4.268,1.422,7.587,2.367
		c2.845,0.949,5.215,1.895,6.638,2.844c0,1.895-0.476,3.318-1.423,3.795h-9.481c-0.476,0-0.947-0.477-1.423-0.477
		c0,0.949-0.475,2.371-0.475,2.844c-0.473,1.422-1.423,2.846-2.37,4.268c2.845,3.795,4.742,6.166,6.165,7.59
		c0,0.943,0,1.416,0,1.895c0,0-0.95,0.473-2.373,0.473c0.476,0.473,0.476,0.949,0.95,1.422c1.423,0.949,2.37,1.895,3.792,3.795
		c-0.475,0.473-0.475,1.422-0.475,3.789c0,0.949-0.947,1.9-3.317,1.9c2.37,0,3.792,0.945,3.792,2.367
		c-0.475,1.895-0.475,2.844-0.475,3.795l-1.895,0.473c-1.897-0.473-4.742-2.373-9.01-6.162c-0.947-0.951-1.895-1.895-2.369-2.373
		c0.947,8.063,1.422,12.801,0.947,13.273c-0.947,0-1.896,0.479-3.317,1.424c3.317,0.949,7.111,2.844,11.376,5.217
		c5.689,2.844,11.38,7.111,18.491,11.852C296.296,439.237,295.824,439.71,295.824,439.71 M264.059,404.628
		C264.059,404.628,264.534,404.628,264.059,404.628C264.534,404.628,264.534,404.628,264.059,404.628c0.476,0,0.476,0,0.476,0
		H264.059 M262.637,412.212c0-0.473,0-0.949,0-1.422c-0.475-0.473-0.947-0.473-1.423-0.473c0,0.473,0,0.473,0,0.945
		C261.689,411.263,262.162,411.739,262.637,412.212 M207.172,337.78c0.944,0.473,1.895,1.424,2.845,2.373
		c-1.423-1.9-2.372-3.322-2.845-4.268c-1.9-1.895-4.268-4.266-7.112-7.111c-0.478,0-0.95-0.473-0.95-0.473
		c-0.472-0.477-0.949-0.477-0.949-0.949c2.845,4.268,4.744,6.635,5.217,7.584c0.473,0.473,0.473,0.473,0.95,0.949
		c0.473,0,0.473-0.477,0.944-0.477C205.271,336.358,206.222,336.831,207.172,337.78 M204.8,318.345c-0.473,0-0.95,0-1.423,0
		l-1.895,1.424c0.473,0.471,0.944,0.943,1.422,1.422c1.423,0.945,2.367,2.367,3.79,2.844c-1.423-2.371-1.895-3.795-1.895-4.744
		C204.8,318.817,204.8,318.817,204.8,318.345 M188.681,318.345L188.681,318.345L188.681,318.345L188.681,318.345 M178.725,324.979
		c-0.478-0.473-0.478-0.473-0.945-0.945c-2.372,0.473-4.745,0.473-6.64,1.424c-1.422,0.943-3.317,1.895-5.217,2.844
		c-5.689,2.846-11.379,4.262-16.591,4.74c-5.689,4.738-9.957,8.057-13.747,10.428c-6.639,7.586-10.906,10.902-12.328,10.902
		c-2.373,0-3.795,0-4.268-0.473c0-0.473,0-0.473,0.473-0.473c0.478-0.949,1.899-2.844,2.845-5.217l0,0
		c-2.845,3.322-6.162,6.641-9.479,10.906c-0.478,0.945-1.422,1.424-1.899,2.367c-0.473,3.322-2.367,7.59-5.212,12.33
		c-3.79,6.162-8.535,9.479-12.802,9.479c0,0,0,0-0.473,0c-0.473,0.949-1.422,1.422-1.895,2.373c-0.478,0.473-0.478,0.473-0.95,0.949
		c3.317-0.477,6.64-0.949,10.429-2.373c0.945-0.471,6.167-2.844,16.119-7.584c0.473,0.473,0.473,0.945,0.95,1.424
		c1.895,2.844,0,5.689-5.218,8.533h0.473c2.372,0,3.795,0,4.268,0c0,0.473,0.478,0.473,0.949,0.945
		c-1.422,2.373-5.217,4.268-10.906,6.162c0.478,0.477,0.95,1.422,1.423,2.844l0,0l0.478-0.473c2.367-1.895,4.267-2.371,6.161-2.371
		c5.69,0,11.38-1.895,16.119-5.686c0.95-0.949,1.899-1.422,2.845-2.371c1.899-2.846,4.268-6.162,6.635-9.957
		c0-0.473,0.478-0.949,0.478-1.422c-1.9-0.473-2.845-1.424-2.368-3.795c0-1.418,0.468-2.367,0.945-3.791
		c0-0.471,0.478-0.471,0.478-0.949l0,0c-1.423-0.473-1.899-1.422-1.899-2.367c0.477-0.477,0.944-0.949,0.944-0.949s0.955,0,2.845,0
		c0,0,0,0,0-0.473c-0.944,0-1.422-0.479-1.422-0.951c-0.468-0.471-0.468-1.895-0.468-3.793c0.468-1.424,0.945-1.896,1.89-1.896
		c1.423,0,2.377,0,3.322,0c0.478-0.471,0.478-0.949,0.945-1.895c-0.473-0.477-0.945-1.422-1.423-1.898c0,0,0,0-0.468,0
		c0,0,0,0-0.477,0c-1.9-0.945-2.845-1.896-3.79-2.369c0.468-2.371,1.422-3.793,2.367-3.793c3.317-0.945,6.162-0.473,7.584,1.422
		c0.473,0.477,0.95,0.477,0.95,0.949l2.367,0.951c0.95,2.367,1.9,4.262,1.9,6.162c0.944-1.424,2.367-2.846,3.316-4.268
		c-0.949,2.844-2.372,5.689-3.794,9.006c-0.473,0.473-0.945,1.422-0.945,2.373l0,0l1.423,0.945l0,0
		c-1.9,11.379-7.112,20.863-15.646,28.447c0,0,0,0,0,0.473c0,1.895,0,3.795-0.478,5.217c3.8,5.689,6.167,9.479,6.64,12.324
		c0,0.473,0.473,1.422,0.473,1.895c2.372,1.9,4.267,3.795,6.167,5.689c0.472,0.477,0.944,0.949,1.422,1.422
		c0.473,0.479,1.423,2.373,1.895,5.217l0.473,4.268c0,0,0,0.473-0.473,0.473c1.423,0.477,2.373,0.477,3.795,0.949
		c0.473-0.949,0.473-1.422,0.945-1.895c0.95-1.422,1.899-2.844,3.795-4.268c-0.95-1.422-1.896-2.371-2.373-4.266
		c0,0,0-0.479-0.472-0.479c-3.317-5.689-5.218-11.373-5.218-16.592c0.478-0.471,0.95-1.422,1.9-1.422h0.944
		c2.373,5.689,5.218,11.379,8.534,16.592c-0.944-2.367-1.422-4.74-1.422-7.584c0-2.367,0.478-3.791,0.95-4.74l0.949-0.473
		c1.423,0.945,3.79,4.268,6.157,9.951c0.478,0.479,0.478,1.424,0.955,1.9c4.267,0,7.106,1.422,9.002,3.789
		c4.744,0.479,8.062-0.473,10.434-1.895l0,0c-0.478-0.473-0.478-0.949-0.95-1.422c1.423-0.949,3.795-4.74,8.535-12.324
		c0.472-0.949,0.949-1.422,1.422-2.373c-1.895-2.371-4.268-4.738-6.162-6.639c-2.372-1.895-6.167-9.006-12.329-21.33
		c0.95-1.422,1.896-1.895,2.845-2.373c0.473,0,0.473,0,0.473,0.479c2.372,1.416,4.745,3.316,7.59,5.211
		c-2.845-3.789-4.745-7.584-5.689-11.852c-0.478-2.371-0.95-5.217-0.95-7.584c0,1.895,0.473,4.268,1.895,6.635
		c1.423,3.322,4.268,7.59,8.062,12.328c4.268,5.213,7.112,8.535,9.484,9.957c0.473-0.477,0.945-0.477,1.423-0.477
		c0,0.477,0.473,1.422,0.473,1.898c0.472,0,0.472,0,0.472,0l0,0c0.478,0,0.945,0,0.945,0c1.423,0.473,1.899,0.945,1.899,2.846h0.478
		c2.367,0.473,3.313,0.945,3.79,0.945c-0.945,4.738-1.899,9.484-2.845,13.273c0.945,0,1.422,0,1.899,0
		c0,0.477,0.468,0.477,0.945,0.949c0,0.473,0,0.473,0,0.951c3.79-4.746,7.112-6.641,10.429-6.641c0.473,0,1.423,0,1.896,0
		c0-2.371,0-4.738,0-7.111c0-0.473,0.478-0.945,0.478-0.945c-0.478-1.422-0.478-3.795-0.478-6.166c0-0.945,0-1.424,0-1.896
		c0-1.422,0.478-1.895,1.422-1.895l1.423,0.945h1.899c0,0.479,0,0.479,0,0.479c0.473-0.479,0.945-0.951,1.423-1.424v-0.477
		c-0.478-0.473-1.423-0.945-1.9-1.422c-1.895-1.896-4.267-4.264-6.634-7.107c0.944-0.479,1.895-0.949,2.845-1.422
		c-1.423-2.373-2.373-4.746-3.795-6.641c-0.95-1.895-2.372-3.789-3.317-6.162c-0.478,0-0.95,0-1.422,0c0,0-1.9-0.473-5.213-0.949
		c-1.422-0.473-3.799-0.945-6.167-1.422c-7.111-2.846-10.901-8.057-10.901-15.17c0-1.422,0-2.371,0-2.844
		c-0.478-0.473-0.95-0.951-1.422-1.422c-4.268-4.268-7.112-8.063-9.484-11.381c0.95,2.846,1.422,6.162,1.895,9.957h-1.422
		c-0.473,4.268-1.423,8.057-3.317,11.379c5.217,3.791,9.956,9.008,13.751,15.643c2.367,3.793,4.268,7.588,5.212,10.434
		c0.478,1.895,0.95,3.789,0.478,5.211c-3.322-1.422-8.062-6.16-14.224-15.168l-0.478-0.477c-1.422-1.896-2.367-3.791-3.789-5.213
		c0-0.473-0.478-0.473-0.478-0.949c0.478,1.422,0.478,2.371,0,2.844c-2.367-0.473-4.74,0.951-7.112,5.217
		c-1.422-0.949-1.89-2.371-2.367-4.738c0.478-0.479,0.945-2.373,1.423-5.217c-0.478,0-0.945-0.473-0.945-0.473
		c0-0.479,0-0.479,0-0.951c-0.478-0.949-0.478-1.895-0.955-2.844c0.955-2.373,1.9-5.217,3.322-8.535c0-0.949,0-1.895,0.478-2.844
		h4.734c0.478-0.473,0.478-1.424,0.95-2.367l1.422-2.846c-2.845-1.9-5.685-4.744-8.529-8.063
		C179.201,325.458,179.201,325.458,178.725,324.979 M153.121,321.19L153.121,321.19c0-0.479,0-0.479,0.478-0.479
		C153.599,321.19,153.121,321.19,153.121,321.19 M155.021,318.817c0.472-0.473,0.472-0.949,0.944-1.422
		c0-0.473,0.478-0.473,0.478-0.473s0,0-0.478,0C155.493,317.396,155.021,317.868,155.021,318.817 M242.727,388.981l-0.473-0.473
		C242.254,388.509,242.254,388.509,242.727,388.981C242.254,388.509,242.727,388.509,242.727,388.981 M240.354,393.249
		c-0.473,0.473-0.473,1.422-0.473,1.895c-0.472,1.422-0.472,1.9-0.472,2.846c0.944,0.949,1.895,1.422,2.845,1.898
		c1.422,1.424,2.367,2.367,2.845,3.791c0.473,0.477,1.422,1.422,2.367,1.898c-0.945-1.898-1.423-4.266-1.895-7.588
		C243.198,396.565,241.304,394.671,240.354,393.249 M207.172,389.933C207.172,389.933,207.172,390.403,207.172,389.933
		C207.172,390.403,207.172,389.933,207.172,389.933c0.473-0.951,0.473-1.424,0.944-1.896l-5.689-5.689
		C203.85,384.714,205.271,387.087,207.172,389.933C206.694,389.933,206.694,389.933,207.172,389.933 M243.676,423.118
		c-0.478,0-0.478,0-0.949,0c-0.473,0.473-0.473,1.424-0.95,1.895C242.254,424.063,242.727,423.591,243.676,423.118 M247.943,423.118
		c-0.478,1.424-1.423,2.367-1.9,3.791c2.373-1.424,3.795-2.846,5.218-4.268C250.311,423.118,249.365,423.118,247.943,423.118
		 M221.396,425.964c1.417,0,2.84-0.479,4.734-1.9c1.9-0.945,3.795-2.844,6.167-5.211c0.473-0.479,0.945-0.951,1.423-1.424
		c-4.745-3.795-7.59-5.217-8.534-5.217c-1.423,0-2.373,0-3.79,0.473v0.479v2.844c-0.478,0-0.478,0-0.955,0.473
		c-1.422,3.316-4.267,6.639-8.057,9.006c-1.895,0.951-3.79,1.9-6.162,2.846c-4.267,1.9-8.534,3.322-13.273,3.795
		c-0.478,0.473-0.478,0.473-0.95,0.945h-2.845c0,0.949,0,1.422,0.473,2.371c1.422-1.422,2.845-2.371,5.217-2.844
		c2.845-0.951,6.162-1.895,9.007-1.895c2.372,0,3.795,0,4.267,0c0,0.471,0.478,0.471,0.95,0.949c0,0.473,0,1.418,0,1.895
		c2.372,0,5.217-0.949,8.062-2.373c0-0.471,0-0.471,0-0.943c0.468-0.951,0.468-1.9,0.468-3.322
		C217.128,426.437,218.551,425.964,221.396,425.964 M229.925,445.399C229.925,444.927,229.925,444.927,229.925,445.399
		C229.925,444.927,229.925,444.927,229.925,445.399C229.925,444.927,229.925,445.399,229.925,445.399 M212.861,446.821
		c-2.372,0-4.745,0-7.59,0c-0.472,0-0.944,0-1.895,0c0.473,0.473,0.95,0.473,1.895,0.951
		C207.645,447.772,210.489,447.772,212.861,446.821C212.861,447.294,212.861,447.294,212.861,446.821 M202.904,435.915
		c-0.949,0-1.899,0-3.322,0.479c0.95,0,1.9,0.471,2.845,0.471C202.427,436.864,202.427,436.864,202.904,435.915L202.904,435.915
		 M169.245,440.659c-0.478,0-0.95,0-1.423-0.477l0.473,0.477C168.768,440.659,169.245,440.659,169.245,440.659 M147.909,418.853
		L147.909,418.853L147.909,418.853c1.895,2.844,2.845,4.266,3.317,4.738c0.473-0.949,0.95-1.895,1.422-2.371
		C151.699,420.747,149.804,419.796,147.909,418.853 M104.771,394.671c0.945-0.949,1.89-1.422,2.367-1.895
		c-0.478,0-1.422,0.473-1.899,0.473c-4.735,1.422-10.425,2.844-17.536,3.795c-1.9,0-3.322,0-3.795-0.479
		c-1.895,3.795-2.845,7.113-2.845,10.906c0,0,0.473,0,0.473,0.473c1.422-1.422,2.845-2.367,4.267-3.316v-0.473
		c0.95-1.422,1.423-1.9,1.9-2.844c0.944-0.951,0.944-1.424,0.944-1.9h2.845l0.478-1.895c3.79-0.473,7.112-0.951,10.425-1.424
		c0.478-0.471,0.478-0.949,0.954-1.422C103.815,395.144,104.293,395.144,104.771,394.671 M121.361,409.841
		c0.473-1.418,0.473-2.369,1.423-3.318c-0.95-0.945-1.423-1.422-1.9-2.367c-2.367,0.945-4.739,1.422-7.111,1.895l0.478,0.473
		c1.895,0,2.845,0.479,2.845,0.479l-0.478,0.471v0.473l0,0c1.899,0.951,3.322,1.896,4.744,2.373
		C120.884,410.79,121.361,410.317,121.361,409.841 M101.926,420.274c0,0.473,0,0.473,0,0.945
		C101.926,421.22,101.926,420.747,101.926,420.274C101.926,420.747,101.926,420.747,101.926,420.274 M89.597,416.479L89.597,416.479
		C89.597,416.007,89.597,416.007,89.597,416.479C89.597,416.007,89.597,416.479,89.597,416.479 M96.236,413.163
		c0.944-0.479,1.895-0.951,3.313-1.424c-1.891-0.477-3.79-0.949-5.685-1.422c-0.473,0.473-0.95,0.949-1.423,1.895
		C93.864,412.685,94.813,412.685,96.236,413.163 M136.53,312.655L136.53,312.655c0,1.424-0.473,2.846-0.473,4.74
		c0.473-0.949,1.418-1.422,1.896-2.367C137.476,314.55,137.008,313.606,136.53,312.655 M138.43,364.806l-0.949,0.473
		c0.949,2.846,0.473,5.217-1.423,7.113c-0.473,0.471-2.845,1.422-7.584,3.789c-2.845-2.846-2.845-5.213-0.478-8.057
		c1.899-2.373,4.267-3.795,6.64-3.795C137.476,364.329,138.43,364.329,138.43,364.806z"/>
	<path fill="#FFFFFF" d="M301.985,278.046c4.742-1.895,7.587-3.316,9.01-4.268l-0.475-3.789c-2.845,0-6.638,1.422-11.38,3.789
		c-1.422,0.951-2.845,1.424-3.792,2.373c0-0.473,0-0.473,0-0.473c0-0.477-1.422-0.477-4.267-0.477
		c-3.793,0-10.43,1.422-18.964,4.266c-2.369,0.951-4.267,1.424-6.162,2.373c-8.059-0.477-14.695-1.9-19.436-4.268
		c-5.217-2.371-10.906-4.266-17.068-4.738c-4.744-8.063-7.589-15.174-9.012-21.809c1.423-0.478,2.372-0.478,2.845-0.95v-3.794
		h-3.789c0-0.945,0-1.896,0-2.846c0-0.473,0-0.945,0-1.422c1.422-0.945,2.845-1.423,3.789-1.895l-0.473-3.791
		c-0.949-0.477-1.417-0.477-2.372-0.477l0.478-0.945c4.739-0.949,10.429-2.845,15.646-5.689c7.584-3.795,13.746-8.062,18.013-12.329
		c2.37,0.478,4.742,1.423,6.637,1.895c-0.475-0.944-0.947-2.367-1.422-3.316c6.164,1.422,10.432,1.895,13.749,1.895
		c2.369,0.95,4.742,1.422,7.111,2.372c0.473-1.895,0.947-3.79,0.947-5.689c1.897,1.423,4.742,2.845,8.535,5.217
		c3.792,1.896,7.111,2.845,10.429,2.845c2.37,0,3.792,0,4.267-0.478c0,0,0-0.472-0.475-0.472c-2.845-4.74-9.481-8.534-18.963-11.379
		c-1.896-0.473-3.793-1.423-6.162-1.896c-3.32-3.795-9.481-5.689-18.491-6.162c-4.264-0.478-8.531-0.478-13.273,0
		c-2.845-1.899-5.689-3.316-8.534-4.267c-1.423-0.473-2.367-0.95-3.79-1.423c-0.95-0.473-1.422-1.422-2.372-1.895
		c2.372,0.473,3.795,0.473,4.739,0.473c0.478-2.372,0.478-4.268,0-5.217c-1.422,0-2.845-0.473-5.212-0.473c0.945,0,1.423,0,2.367,0
		c3.322,0,5.217,0,6.167,0.473c1.423,0.477,2.845,1.899,4.268,4.267c2.367-4.739,1.895-7.584-1.423-9.007
		c-1.422-0.473-4.267-0.473-8.534-0.473c-6.64,0-11.856,0.473-16.123,1.896c-0.468,0-0.945,0.472-1.423,0.472
		c-3.313,0-5.685,0-8.057,0c-1.423,0-2.845,0-4.268,0c1.9-1.895,2.845-4.267,3.795-6.634c-0.473,0-0.473-0.478,0-0.478
		c0,0-1.422,0-3.795,0c-3.789,0-7.111,1.422-9.956,3.795c0-0.473,0-0.473,0-0.95c0-0.473-1.423-0.473-4.268-0.473
		c-1.895,0-3.317,0.95-4.267,2.372c-0.945,1.423-2.367,2.367-4.268,2.367c-1.89,0-3.313-0.944-3.789-2.367
		c-0.478-1.422-1.423-2.372-3.79-2.372c-3.795,0-6.64,1.895-9.957,5.217c-1.899,1.896-3.322,3.79-4.744,5.213
		c-0.473,0-0.473,0-0.945,0c0-0.945,0-1.896,0-3.317c-1.422-1.896-2.845-2.845-5.217-3.795v-0.473
		c4.267-1.422,8.062-2.845,11.379-4.267v-1.423c3.317-1.422,6.162-2.367,9.484-3.317v-3.794h-13.751
		c-3.317,1.899-6.64,3.321-9.007,5.217c-3.795,0.473-7.59,2.367-10.902,4.739c-1.422,0.95-3.799,2.845-6.639,5.217
		c-0.95-0.478-2.373-0.949-4.268-0.949c-2.372,0-5.217,0.949-8.534,2.372c-4.268,2.367-6.64,5.212-7.584,9.479
		c-0.478,0-0.478,0-0.95,0c-1.895,0-7.584,2.372-15.642,7.584c-8.062,4.744-12.801,8.062-14.224,9.957
		c0.473,1.899,1.423,3.316,2.367,3.794c0,0,1.423-0.478,3.322-1.895c-0.478,0.945-0.949,2.367-1.422,3.317
		c-2.845,1.422-6.64,3.317-11.379,5.689c-10.435,5.689-16.124,11.38-16.592,17.541c-1.422,0.473-3.322,0.944-4.744,1.896
		c-10.429,3.794-16.118,7.111-16.591,10.429l1.895,1.423c7.112-2.846,12.802-5.213,17.068-7.113c0.95-0.473,2.372-0.945,3.317-1.423
		c0,0,0,0.478,0.478,0.478c-3.795,0.945-6.167,1.896-8.062,2.845l1.422,1.895c0.473,0,0.473,0.473,0.473,0.473s0.95,0,3.322,0
		c1.422,0,5.212,0.478,11.374,1.423c6.162,0.951,10.429,1.423,12.329,1.423c2.845,0,6.634-0.473,10.901-1.896
		c0.478,0,0.95,0,1.422-0.473c1.423,1.423,1.9,3.318,2.845,4.74c-2.367,0.945-4.267,1.424-5.689,2.846
		c-1.895,0-4.739,0.473-7.584,0.945c-3.795,0.477-9.007,1.422-16.118,2.371v2.373l1.422,0.945c0.473,0,1.895,0,4.739,0
		c0.95,0,2.845,0,5.69,0c-0.95,0.477-1.423,0.477-2.373,0.949l1.423,3.795c2.372,0,6.64-1.422,12.329-3.795
		c1.895-0.949,4.267-1.422,5.689-2.373c-0.473,1.424-1.423,2.846-2.373,4.268c-0.472,0-0.944,0-1.895,0
		c-2.845,0-7.111,1.422-12.329,3.795c-2.845,0.473-6.162,0.949-9.956,1.422c-13.747,1.895-23.226,2.846-28.915,3.318v2.371
		c2.845,0.473,7.111,0.945,11.852,1.424v1.422c1.422,0.473,3.316,0.945,6.161,0.945c3.79,2.844,8.535,5.217,13.747,7.588
		c3.794,1.424,7.111,2.367,9.956,3.318c2.845,1.895,6.167,3.789,9.012,6.162l-1.422,0.949c0.473,5.213,3.317,9.479,9.002,13.273
		c0.477-2.844,0-5.217-1.423-7.111c-1.89-1.895-3.313-4.268-4.734-6.162c4.734,3.789,9.002,6.162,11.847,8.057v1.422
		c1.422,0,2.372,0.479,3.794,0.479c0.95,0.473,1.423,0.473,1.896,0.473c0.478,0,0.478,0,0.949,0c0.95,0,1.423,0.473,2.373,0.473
		c0.472,0.477,0.944,0.477,1.422,0.949v0.473h0.473c0,0,0.473,0,0.473,0.477c8.534,6.635,12.801,9.48,13.751,9.48
		c2.372,0,3.795,0,3.795-0.473l-0.95-0.479c0-0.943-0.95-2.367-2.372-4.266c1.899,0.949,3.795,1.898,6.167,2.844
		c1.422,0.479,2.367,0.949,3.79,1.422c6.634,3.795,10.901,7.113,13.746,9.484c-0.473-1.895-0.945-3.795-1.896-5.217
		c0.95,0,1.423,0.479,2.373,0.479l5.689,2.844c0.944,0.945,2.367,1.422,3.317,2.367c1.895,0.951,3.316,1.895,4.739,2.373h0.478
		c1.895,0.945,3.317,1.422,4.267,1.422c2.367,0,3.79,0,3.79-0.477l-0.945-0.473c0.468-4.268-3.794-8.057-12.328-10.902
		c-0.473-0.949-0.95-1.9-1.896-3.322c0.473,0,0.473,0,0.945,0.479c1.422,0.471,2.372,0.471,3.322,0.471c0,0,0.473,0,0.944,0
		c4.268,0.951,8.058,1.424,10.902,1.896c0,0.477,0.478,0.477,0.478,0.477c1.899,1.422,3.321,2.367,4.739,2.367
		c2.372,0,3.795,0,3.795-0.473l-0.95-0.473c0-0.477-0.473-0.949-0.473-1.422c0.945,0,1.895,0,1.895,0
		c0-0.477,0.473-0.477,0.95-0.949v-1.424h10.901l0.478-1.422l0.945,0.473c9.484,2.373,15.646,3.795,18.014,3.795
		c2.845,0,4.744,0,5.217,0s0.95-0.473,1.895-0.949c-3.317-2.846-6.634-5.213-9.002-6.635h0.468c2.845-0.479,4.268-1.895,4.268-3.795
		c0-0.473,0-0.945,0-1.422c0.949-0.473,2.372-0.945,3.794-1.895c0.95,0,1.896,0,2.845,0.471c3.795,0.479,6.162,0.479,7.112,0.479
		c7.112,0,11.852-0.479,14.224-1.422c0-1.424-0.473-2.373-0.95-3.795c-0.944-0.951-1.422-1.895-1.422-2.373
		c1.899,0,3.795-0.473,4.742-1.422c0-0.473-0.476-0.945-0.476-1.422c1.897,0,4.268-0.473,7.112-0.945
		c2.845-0.479,7.111-1.422,12.326-2.373v-3.789h-26.072c1.895-0.479,3.789-0.479,6.162-0.479c2.369,0,3.792,0,4.264-0.471
		c0-0.951,0-1.424,0-2.373c2.373,0.949,4.742,1.422,6.165,1.422c5.689,0,11.376-2.844,17.065-8.533l-0.472-2.367
		c5.214-0.951,10.429-1.424,15.644-1.424c0.475,0,0.947,0,1.422,0v-0.473C295.824,280.419,298.193,279.468,301.985,278.046
		 M243.198,296.538v2.367c-0.472,0-1.422,0-1.895,0s-0.95,0-1.423,0c0-0.473,0-0.945,0-1.424
		C240.831,297.009,242.254,296.538,243.198,296.538 M217.596,290.376c1.9-0.479,3.8-0.951,5.689-1.424
		c0.478,1.424,1.423,2.367,1.9,3.791c-7.59,1.422-13.747,4.738-18.964,10.906c-4.739,5.689-16.118,8.533-34.132,8.057
		c-7.112,0-13.279-0.945-19.441-1.895c-1.895-2.846-5.217-4.74-9.951-6.162c0,0,0,0-0.478,0c0.945,0,1.423-0.479,2.367-0.951l0,0
		v-3.316c-1.89,0-3.313,0-5.212-0.477c-1.422-2.846-4.268-4.264-8.534-4.264c-1.423,0-2.367,0-2.845,0
		c-0.473-0.477-0.945-0.949-1.423-1.422c-0.944-0.949-2.367-2.371-3.789-4.268c-1.423-1.422-2.845-1.898-4.745-1.898
		c-0.473,0-0.944,0-1.422,0c-1.896-0.473-4.74-1.424-8.534-2.367c-0.945-0.479-1.896-0.479-2.845-0.951
		c-2.367-0.473-4.268-0.949-5.689-1.422l1.422-2.373c0.478-0.473,0.955-0.473,1.423-0.943c4.744-4.268,7.111-8.063,8.534-11.852
		c0.949,0,1.899,0,2.845,0v-3.795c-0.945,0-1.423,0-2.367,0c0,0,0,0,0-0.473c0.944,0,1.422,0,2.367,0c2.372,0,4.267,0,5.689,0.473
		c1.422,0.473,2.845,0.473,3.795,0.473c0.472-1.424,0.472-2.846,0.472-4.268v-0.945c-2.367-0.477-5.212-0.477-9.007-0.477
		c-1.422,0-2.845,0-4.267,0c-0.95-1.896-2.372-3.792-3.795-5.213c0.95,0,2.372-0.473,3.795-0.473
		c-0.473,0.473-1.423,0.473-1.895,0.945l1.422,1.899c0.473,0,0.473,0.473,0.473,0.473s0.95,0,3.317,0
		c2.372,0,6.64-0.473,13.278-1.423v0.473c2.367,0,5.689-0.473,9.007-1.422c-0.95,1.422-1.895,2.845-2.845,4.268
		c1.423-1.423,2.845-3.319,4.74-4.741c0.944,0,1.422-0.473,2.367-0.473l5.222-0.477v-0.945c0.468,0,0.945-0.478,1.89-0.478
		c9.484-3.79,16.124-6.635,19.441-7.585l-0.473-3.795c-2.372,0.479-5.217,1.423-9.012,2.373c8.062-3.317,15.646-5.689,23.703-7.111
		v-3.318h-22.754c-0.472,0.473-1.895,0-4.267-0.949c-0.95-0.473-1.895,0.477-1.895,2.372c-3.322,0.473-7.59,1.896-13.274,3.794
		c-9.007,2.84-14.696,5.213-17.068,8.058c-1.422-0.473-2.845-0.473-4.268-0.95h-0.472c-2.845-0.945-6.167-1.422-9.957-1.422
		c-0.945,0-2.367,0-3.322-0.473c-0.944,0-1.89,0-2.367,0c1.423-0.95,2.845-1.895,4.268-2.373c4.267-2.84,6.634-3.789,7.111-3.789
		c2.367,0,3.79,0.473,4.268,0.949c0.472,0.473,0.472,0.473,0.944,0c0.478-1.422,0.478-2.844,0-3.321
		c0-0.473-0.473-0.945-0.473-0.945c2.846-1.423,5.218-1.899,6.64-1.899c2.367,0,3.79,0.949,4.268,2.845c0,0.95,0,1.423-0.478,2.372
		c1.422-3.317,2.372-5.689,2.845-7.112c0.478-1.895,0.478-3.317,0-4.267c-2.367,0.472-4.739,0.949-7.112,1.895
		c2.373-2.845,7.112-5.212,14.701-7.584c7.107-2.368,13.27-3.317,18.014-3.317c0.473,0,0.945,0.473,1.895,1.422
		c1.423,1.896,3.317,3.79,5.218,5.689c0.944-0.478,1.422-1.899,1.895-4.267l0.473-2.845c-0.473-1.423-1.423-2.372-2.367-2.845
		c-1.9-0.95-3.795-1.896-6.64-1.896s-6.64,0.473-11.852,1.423c-2.845,0.473-5.689,1.422-9.007,1.895
		c-2.845,0.473-5.217,1.423-7.584,1.896c6.162-3.317,12.324-5.689,19.436-8.058c1.895,0,3.317,0.473,5.212,0.473
		c0.95,0,1.9,0.473,2.845,0.473c0.95,0,1.423,0,1.9,0v-0.473c0-1.422,0-2.372,0-3.317c16.118-3.322,31.76-2.845,46.461,1.423
		c0.473,0,0.473,0,0.944,0c5.689,1.422,9.957,3.317,13.279,4.739c-0.955,1.423-1.9,2.367-2.377,3.79
		c-0.468,0-0.945-0.473-1.418-0.473c-8.062-2.845-13.751-4.267-17.068-4.739l-0.95,1.895l-0.473,0.478
		c1.896,2.367,6.162,4.262,13.752,5.685c0.473,0,0.944,0,0.944,0c2.845,0.478,5.213,1.422,7.112,2.372l-0.478,0.473
		c-0.945,1.422-1.89,2.372-2.367,3.795c-1.423,1.422-2.845,2.845-4.739,4.267c-2.373,2.372-4.74,4.74-6.162,6.635
		c-0.478,0.478-0.478,0.478-0.95,0.95c-4.739,0.949-9.484,1.895-14.224,3.795c-8.529,2.844-14.696,7.111-18.964,11.852
		c0.95,1.422,1.9,1.895,2.845,1.895c1.9-0.95,7.112-3.317,14.696-7.111c1.423-0.473,2.845-1.424,4.268-1.896
		c-0.95,0.95-1.423,1.896-2.372,2.372c-1.896,0.473-3.79,1.422-5.689,2.367l1.422,1.895c0.478,0,0.478,0.479,0.478,0.479
		s0.945,0,3.317,0c0,0,0,0,0.473,0l0.478,1.895l0.472,0.473c-0.472,0.477-0.949,0.477-0.949,0.949
		c0.478,1.895,0.949,2.846,1.899,3.319c-5.217,1.422-11.379,3.322-18.491,5.689l1.423,1.898c0.478,0.473,0.478,0.473,0.95,0.473
		c0,0,1.422,0,3.794,0c4.735-1.422,9.002-2.371,13.747-3.795c4.739-1.422,8.534-1.895,11.379-2.844
		c1.422-0.473,2.367-0.473,3.317-0.473c1.422,3.316,3.316,7.584,6.161,12.801v1.895c-0.944,0-2.367-0.471-3.316-0.471
		c-2.373,0-4.74,0-7.585,0c-2.372,0-3.795,0-3.795,0.471c0,0.473,0,0.473,0.473,0.473v2.373c1.9,0.949,7.112,2.373,14.701,4.74
		h0.473c1.418,0.477,2.84,0.949,3.795,0.949c-0.955,0-2.377,0-3.322,0c-0.473,0-0.945,0-1.423,0c-7.111,0-11.851,0.473-14.224,1.422
		v1.422h-2.367l-0.478,4.74c0.478,1.422,0.95,1.895,1.9,1.895c1.422-0.473,2.845-0.943,5.212-0.473
		c1.899,0.473,3.322,0.473,4.744,0.473c0.945,0,1.896,0,2.367,0C212.861,290.849,215.706,290.849,217.596,290.376 M186.309,319.769
		c-0.473,0-0.473,0-0.95,0l-6.634,0.471c-2.368-0.471-4.74-0.949-7.585-1.422c-0.95,0-1.422-0.473-2.372-0.473
		c6.167,0,11.379,0,15.646,0v0.473L186.309,319.769 M154.544,324.507L154.544,324.507c-0.473,0-1.423-0.473-1.896-0.473
		c0,0-0.472,0-0.472-0.477l0,0c0-0.473-0.478-0.945-0.478-1.422c0.478,0,0.949,0,1.422,0c1.423,0.949,2.845,1.898,4.268,2.844
		C156.443,324.979,155.493,324.979,154.544,324.507 M205.749,253.87c-0.949,0-1.899,0.473-2.845,0.473
		c-2.372,0.473-5.689,1.423-9.484,2.373c2.845-0.95,5.689-1.9,9.484-2.846C203.85,253.87,204.8,253.393,205.749,253.87
		C205.749,253.393,205.749,253.393,205.749,253.87 M145.542,195.557c0.468,0,0.945,0,1.417-0.477
		C146.01,195.081,145.542,195.557,145.542,195.557L145.542,195.557 M124.679,203.615L124.679,203.615
		c1.423-0.95,2.845-1.423,4.268-2.373v0.478C127.523,202.665,126.102,203.142,124.679,203.615
		C125.151,203.615,124.679,203.615,124.679,203.615 M127.051,195.557l1.423,0.945c-1.423,0.478-2.845,1.423-4.268,1.9
		c0-0.478,0.473-0.478,0.473-0.95c1.895-2.372,3.795-4.268,5.217-5.217C129.418,193.185,127.996,194.608,127.051,195.557
		 M142.697,245.809c-0.478-0.951-0.955-1.423-1.423-1.423c-0.477-0.473-1.899-0.473-5.217-0.473c-1.422,0-3.317,0-5.689,0
		c6.64-1.423,13.274-3.322,19.908-5.689c0,2.367,0,4.267-0.473,5.212c-0.949,0.478-1.895,0.478-2.845,0.95
		C146.01,244.386,144.587,244.858,142.697,245.809 M133.213,248.653c0.473,0,0.473,0,0.95,0l0,0
		C133.686,248.653,133.213,248.653,133.213,248.653 M77.745,241.542c-0.478,0-0.95,0-1.422,0h-0.478l0.478-0.473L77.745,241.542
		c0,0,1.423-0.95,4.268-2.845c-0.95,0.95-1.9,1.895-2.372,2.845C79.168,241.542,78.69,241.542,77.745,241.542 M81.063,248.653
		c-4.268,0-8.062,0-11.852,0.473c-2.367,0-4.267,0.478-6.167,0.95c0.478-0.473,0.478-0.95,0.955-1.423
		c5.212-1.895,9.002-2.371,11.847-2.371C76.795,246.282,78.69,247.231,81.063,248.653 M76.795,287.53
		c-1.422-0.477-2.372-0.949-2.845-0.949l0,0c0.473,0,0.95-0.473,1.423-0.951c0.473,0,0.95,0,1.422-0.473c0,0-0.472,0-0.472,0.473
		C76.323,286.581,76.323,287.054,76.795,287.53 M121.361,224.472L121.361,224.472C120.884,224.95,120.884,224.95,121.361,224.472
		c-2.845,1.423-6.167,2.373-9.012,4.268c-1.422,0.478-3.317,1.423-5.212,2.372c-1.899,0.473-3.79,1.423-5.689,2.373
		c1.423-1.9,3.79-3.795,6.162-6.167c0.95-0.945,1.895-1.423,2.845-2.368c0,0.473,0.473,0.945,0.95,0.945l1.422-0.945h1.895
		c0.473-1.422,0.95-2.372,1.896-3.794c0.478,0.472,0.949,0.949,1.899,1.422C119.462,223.528,120.412,224,121.361,224.472
		 M116.617,290.849c0,0.471,0.478,0.471,0.478,0.949c-0.478,0-1.423-0.479-1.9-0.479
		C116.145,291.319,116.145,290.849,116.617,290.849 M239.881,288.476c-0.472-0.945-0.949-1.895-1.422-2.846
		c0.95,0.479,1.895,0.951,2.845,1.424C240.831,287.53,240.354,288.003,239.881,288.476 M130.841,266.667v3.322
		c-0.945,0-2.367,0-4.268,0c-3.789,0-6.634,0-8.057,0.473c-2.845,0.473-5.689,1.422-8.062,2.846
		c0.473,1.895,1.422,3.316,2.372,3.793h23.23l1.896-1.422c-0.478-0.477-0.478-0.949-0.945-1.9c1.422,0.479,2.845,0.951,4.267,0.951
		C139.375,272.835,136.058,269.989,130.841,266.667 M183.937,278.997l-0.945-0.479c0-1.895-0.478-3.316-0.945-4.262
		c-0.954-1.422-2.845-1.9-5.222-1.9c-1.89,0-3.313,0.479-3.313,0.951l0,0c-0.478,0-2.372-0.473-5.217-1.896
		c-2.372-0.949-4.739-1.422-7.111-1.422c-2.846,0-3.795,0-4.268,0s-0.473,0.473-0.95,0.945v0.949
		c-4.739-0.949-9.007-0.949-13.269-0.949l-0.478,3.322c2.367,0.473,7.112,1.422,14.696,3.316c6.162,1.424,10.429,2.373,12.329,2.373
		c2.845,0,4.267,0,4.739,0s0.95,0,1.895-0.479c-0.944-0.943-1.895-1.895-3.316-2.367c0.949,0,1.422,0,1.895-0.477l-0.473-0.473
		v-2.373c0,0.479,0.473,0.951,1.423,1.424c0.472,0.949,0.949,2.371,0.949,3.322c0.468,0.943,1.891,1.416,4.735,1.416
		C182.514,279.468,183.937,279.468,183.937,278.997z"/>
</g>
</svg>
