<?xml version="1.0" encoding="utf-8"?>
<!-- Generator: Adobe Illustrator 23.0.0, SVG Export Plug-In . SVG Version: 6.00 Build 0)  -->
<svg version="1.1" id="Ebene_1" xmlns="http://www.w3.org/2000/svg" xmlns:xlink="http://www.w3.org/1999/xlink" x="0px" y="0px"
	 viewBox="0 0 142 140" style="enable-background:new 0 0 142 140;" xml:space="preserve">
<style type="text/css">
	.st0{clip-path:url(#SVGID_2_);fill:#6E6E6E;}
	.st1{clip-path:url(#SVGID_4_);fill:#6E6E6E;}
	.st2{clip-path:url(#SVGID_6_);fill:#6E6E6E;}
	.st3{clip-path:url(#SVGID_8_);fill:#6E6E6E;}
	.st4{clip-path:url(#SVGID_10_);fill:#9C9C9C;}
	.st5{clip-path:url(#SVGID_12_);fill:none;stroke:#181716;stroke-linejoin:round;stroke-miterlimit:10;}
	.st6{clip-path:url(#SVGID_14_);fill:#FFFFFF;}
	.st7{clip-path:url(#SVGID_16_);fill:#181716;}
	.st8{fill:#9C9C9C;}
	.st9{fill:#B1B2B3;}
	.st10{fill:#C5C6C6;}
	.st11{fill:#D9DADA;}
	.st12{fill:#828282;}
	.st13{clip-path:url(#SVGID_18_);fill:#212121;}
	.st14{clip-path:url(#SVGID_20_);fill:#181716;}
	.st15{clip-path:url(#SVGID_22_);fill:#181716;}
	.st16{clip-path:url(#SVGID_24_);fill:#FFFFFF;}
	.st17{clip-path:url(#SVGID_26_);fill:#FFFFFF;}
	.st18{clip-path:url(#SVGID_28_);fill:#FFFFFF;}
	.st19{clip-path:url(#SVGID_30_);fill:#B1B2B3;}
	.st20{clip-path:url(#SVGID_32_);fill:#181716;}
	.st21{clip-path:url(#SVGID_34_);fill:#181716;}
	.st22{clip-path:url(#SVGID_36_);fill:#B1B2B3;}
	.st23{clip-path:url(#SVGID_38_);fill:#B1B2B3;}
	.st24{clip-path:url(#SVGID_40_);fill:#181716;}
	.st25{clip-path:url(#SVGID_42_);fill:#181716;}
	.st26{clip-path:url(#SVGID_44_);fill:#FFFFFF;}
	.st27{clip-path:url(#SVGID_46_);fill:#FFFFFF;}
	.st28{clip-path:url(#SVGID_48_);fill:#181716;}
	.st29{clip-path:url(#SVGID_50_);fill:#181716;}
	.st30{clip-path:url(#SVGID_52_);fill:#B1B2B3;}
	.st31{clip-path:url(#SVGID_54_);fill:#B1B2B3;}
	.st32{clip-path:url(#SVGID_56_);fill:#181716;}
	.st33{clip-path:url(#SVGID_58_);fill:#181716;}
	.st34{clip-path:url(#SVGID_60_);fill:#B1B2B3;}
	.st35{clip-path:url(#SVGID_62_);fill:#565655;}
	.st36{fill:#565655;}
	.st37{clip-path:url(#SVGID_64_);fill:#181716;}
	.st38{clip-path:url(#SVGID_66_);fill:#565655;}
	.st39{clip-path:url(#SVGID_68_);fill:#181716;}
	.st40{clip-path:url(#SVGID_70_);fill:#3A3A39;}
	.st41{clip-path:url(#SVGID_72_);fill:#565655;}
	.st42{clip-path:url(#SVGID_74_);fill:#868786;}
	.st43{clip-path:url(#SVGID_76_);fill:#868786;}
	.st44{clip-path:url(#SVGID_78_);fill:#FFFFFF;}
	.st45{clip-path:url(#SVGID_80_);fill:#FFFFFF;}
	.st46{clip-path:url(#SVGID_82_);fill:#FFFFFF;}
	.st47{clip-path:url(#SVGID_84_);fill:#FFFFFF;}
	.st48{clip-path:url(#SVGID_86_);fill:#FFFFFF;}
	.st49{clip-path:url(#SVGID_88_);fill:#FFFFFF;}
	.st50{clip-path:url(#SVGID_90_);fill:#FFFFFF;}
	.st51{clip-path:url(#SVGID_92_);fill:#FFFFFF;}
	.st52{clip-path:url(#SVGID_94_);fill:#FFFFFF;}
	.st53{clip-path:url(#SVGID_96_);fill:#FFFFFF;}
	.st54{clip-path:url(#SVGID_98_);fill:#FFFFFF;}
	.st55{clip-path:url(#SVGID_100_);fill:#FFFFFF;}
	.st56{clip-path:url(#SVGID_102_);fill:#B1B2B3;}
	.st57{clip-path:url(#SVGID_104_);fill:#181716;}
	.st58{clip-path:url(#SVGID_106_);fill:#181716;}
	.st59{clip-path:url(#SVGID_108_);fill:#B1B2B3;}
	.st60{clip-path:url(#SVGID_110_);fill:#FFFFFF;}
	.st61{clip-path:url(#SVGID_112_);fill:#FFFFFF;}
	.st62{clip-path:url(#SVGID_114_);fill:#FFFFFF;}
	.st63{clip-path:url(#SVGID_116_);fill:#FFFFFF;}
	.st64{clip-path:url(#SVGID_118_);fill:#FFFFFF;}
	.st65{clip-path:url(#SVGID_120_);fill:#FFFFFF;}
	.st66{clip-path:url(#SVGID_122_);fill:#FFFFFF;}
	.st67{clip-path:url(#SVGID_124_);fill:#FFFFFF;}
	.st68{clip-path:url(#SVGID_126_);fill:#FFFFFF;}
	.st69{clip-path:url(#SVGID_128_);fill:#FFFFFF;}
	.st70{clip-path:url(#SVGID_130_);fill:#FFFFFF;}
	.st71{clip-path:url(#SVGID_132_);fill:#FFFFFF;}
	.st72{clip-path:url(#SVGID_134_);fill:#FFFFFF;}
	.st73{clip-path:url(#SVGID_136_);fill:#FFFFFF;}
	.st74{fill:#6E6E6E;}
	.st75{clip-path:url(#SVGID_138_);fill:#6E6E6E;}
	.st76{clip-path:url(#SVGID_140_);fill:#6E6E6E;}
	.st77{clip-path:url(#SVGID_142_);fill:#6E6E6E;}
	.st78{enable-background:new    ;}
	.st79{fill:#484847;}
	.st80{fill:#868786;}
</style>
<g>
	<g>
		<defs>
			<rect id="SVGID_1_" width="142" height="140"/>
		</defs>
		<clipPath id="SVGID_2_">
			<use xlink:href="#SVGID_1_"  style="overflow:visible;"/>
		</clipPath>
		<path class="st0" d="M102.1,105.5c3.9,0.3,7.8,0.6,11.5,1.6c3.8,1,7.4,2.7,10.2,5.6c2.8,2.8,4.5,6.8,4.2,10.8
			c-0.1,1-0.3,1.9-0.6,2.9c-0.8,2.8-2.3,5.5-4.4,7.4c-2.1,2-5,3.1-7.9,2.9c-4-0.3-7.4-3.3-9.9-6.5c-2.6-3.4-4.7-7.2-5.6-11.4
			c-0.9-4.2-0.6-8.8,1.3-12.6c0.1-0.2,0.2-0.4,0.4-0.5C101.6,105.4,101.9,105.5,102.1,105.5 M116.6,85.7c-6.8,5.1-13.3,11-17.1,18.8
			c-0.2,0.4-0.6,0.5-1,0.5c-2.4,0.2-4.8,0.5-7.2,0.7c2.6,0.2,5.1,0.1,7.7-0.2c-0.7,2.1-1.4,4.1-1.7,6.3c-1,6.3,1.4,12.8,5,18
			c3.1,4.6,7.5,8.8,12.9,9.2c5.7,0.4,10.9-3.8,13.3-9.1c1.8-4.2,2.2-9.2,0.2-13.3c-1.9-4.1-5.8-7-10-8.7c-5.5-2.2-11.5-2.6-17.4-2.8
			c5.1-8.6,12.2-15.8,20.7-20.9C120.1,83.3,118.2,84.5,116.6,85.7"/>
	</g>
	<g>
		<defs>
			<rect id="SVGID_3_" width="142" height="140"/>
		</defs>
		<clipPath id="SVGID_4_">
			<use xlink:href="#SVGID_3_"  style="overflow:visible;"/>
		</clipPath>
		<path class="st1" d="M91.3,105.8c-0.7,0-1.5,0-2.3,0.1c0,0.1,0.1,0.2,0.2,0.3C89.9,106.2,90.6,106,91.3,105.8"/>
	</g>
	<g>
		<defs>
			<rect id="SVGID_5_" width="142" height="140"/>
		</defs>
		<clipPath id="SVGID_6_">
			<use xlink:href="#SVGID_5_"  style="overflow:visible;"/>
		</clipPath>
		<path class="st2" d="M36.2,110.7c-0.4,3.5-2.8,6.4-5.4,8.6c-0.3,0.3-0.7,0.5-1.1,0.8c-0.3,0.2-0.6,0.3-0.9,0.2
			c-0.3-0.1-0.6-0.4-0.5-0.8C29.7,115.6,32.6,112.4,36.2,110.7 M30.5,121.6c4.7-2.2,8.2-7,8.8-12.3c0.1-0.4,0.5-0.6,0.9-0.8
			c4.5-1.5,9.3-2.3,14.1-2.2c-5-0.9-10.1,0.2-14.9,1.8c-0.8-4.8-3.3-9.2-6.4-12.8c-3.1-3.7-6.9-6.7-10.6-9.8c-1-0.8-2-1.6-3.3-1.6
			c-2.3,0-4.7,0-7,0c4.7,2.9,9.3,6.1,13.6,9.7c4.6,3.9,9.1,8.6,10.6,14.6c0.1,0.5,0.2,1.2-0.3,1.5c-2.7,1.3-5.2,3.3-7.1,5.7
			c-0.9,1.2-1.8,2.5-2,4c-0.1,0.8,0.1,1.7,0.6,2.2C28.3,122.4,29.5,122.1,30.5,121.6"/>
	</g>
	<g>
		<defs>
			<rect id="SVGID_7_" width="142" height="140"/>
		</defs>
		<clipPath id="SVGID_8_">
			<use xlink:href="#SVGID_7_"  style="overflow:visible;"/>
		</clipPath>
		<path class="st3" d="M57.1,133.6c-1.2-1.1-2.4-2.3-3.2-3.8s-1.2-3.2-0.9-4.8c0.3-1.4,1-2.7,1.9-3.9c3.5-4.7,8.9-7.7,14.1-10.2
			c0.5-0.2,1-0.4,1.5-0.1c2.4,1.6,4,4.3,4.6,7.2c0.6,2.9,0.3,5.9-0.7,8.6c-0.9,2.5-2.5,4.9-4.4,6.7c-2.2,2.1-5.3,3.6-8.2,3
			C60,135.9,58.4,134.8,57.1,133.6 M49.3,127.5c0.2,2.8,1.6,5.3,3.4,7.3c2.6,3,6.3,5.3,10.3,5.2c4.9-0.1,9.1-3.7,11.5-8
			c1.9-3.5,2.9-7.7,2.3-11.7s-2.7-7.8-6-10c1.6-0.7,3.2-1.1,4.9-1.6c1.7-0.4,3.4-0.9,5.1-1.3c-3.3,0.1-6.5,1-9.7,1.9
			c-2.2,0.6-4.3-2-6.6-1.8c1.6,0.7,3.2,1.4,4.8,2.1c-3.4,1.1-6.7,2.6-9.9,4.3c-2.6,1.4-5.1,3-7,5.2
			C50.4,121.5,49.1,124.5,49.3,127.5"/>
	</g>
	<g>
		<defs>
			<rect id="SVGID_9_" width="142" height="140"/>
		</defs>
		<clipPath id="SVGID_10_">
			<use xlink:href="#SVGID_9_"  style="overflow:visible;"/>
		</clipPath>
		<path class="st4" d="M100.1,41.5c-4.2,0-7.5-3.3-7.5-7.4s3.4-7.4,7.5-7.4s7.5,3.3,7.5,7.4S104.3,41.5,100.1,41.5 M58.8,39.9
			c0.6-1.8,0.9-3.6,0.9-5.5c0-1.8-0.3-3.6-0.9-5.4c-0.1-0.2,0-0.3,0.1-0.5c0.1-0.1,0.2-0.2,0.4-0.2h15.8c0.2,0,0.3,0.1,0.4,0.2
			s0.1,0.3,0.1,0.5c-0.6,1.7-0.9,3.5-0.9,5.4s0.3,3.7,0.9,5.5c0.1,0.2,0,0.3-0.1,0.5c-0.1,0.1-0.2,0.2-0.4,0.2H59.2
			c-0.2,0-0.3-0.1-0.4-0.2C58.7,40.3,58.7,40.1,58.8,39.9 M40.2,41.5c-4.2,0-7.5-3.3-7.5-7.4s3.4-7.4,7.5-7.4c4.2,0,7.5,3.3,7.5,7.4
			S44.3,41.5,40.2,41.5 M138.7,51.9h-0.2V5.5c0-2.8-2.3-5-5.1-5H8.6c-2.8,0-5.1,2.2-5.1,5v46.4H3.3c-1.5,0-2.8,1.2-2.8,2.7v21.7
			c0,1.5,1.2,2.7,2.8,2.7h0.2v0.3c0,2.8,2.3,5,5.1,5h16.5l3.9,1.8c1.7,0.8,3.7,1.2,5.6,1.2h72.5c1.9,0,3.9-0.4,5.6-1.2l4.1-1.8h16.6
			c2.8,0,5.1-2.2,5.1-5V79h0.2c1.5,0,2.8-1.2,2.8-2.7V54.6C141.5,53.2,140.3,51.9,138.7,51.9"/>
	</g>
	<g>
		<defs>
			<rect id="SVGID_11_" width="142" height="140"/>
		</defs>
		<clipPath id="SVGID_12_">
			<use xlink:href="#SVGID_11_"  style="overflow:visible;"/>
		</clipPath>
		<path class="st5" d="M100.1,41.5c-4.2,0-7.5-3.3-7.5-7.4s3.4-7.4,7.5-7.4s7.5,3.3,7.5,7.4S104.3,41.5,100.1,41.5z M58.8,39.9
			c0.6-1.8,0.9-3.6,0.9-5.5c0-1.8-0.3-3.6-0.9-5.4c-0.1-0.2,0-0.3,0.1-0.5c0.1-0.1,0.2-0.2,0.4-0.2h15.8c0.2,0,0.3,0.1,0.4,0.2
			s0.1,0.3,0.1,0.5c-0.6,1.7-0.9,3.5-0.9,5.4s0.3,3.7,0.9,5.5c0.1,0.2,0,0.3-0.1,0.5c-0.1,0.1-0.2,0.2-0.4,0.2H59.2
			c-0.2,0-0.3-0.1-0.4-0.2C58.7,40.3,58.7,40.1,58.8,39.9z M40.2,41.5c-4.2,0-7.5-3.3-7.5-7.4s3.4-7.4,7.5-7.4
			c4.2,0,7.5,3.3,7.5,7.4S44.3,41.5,40.2,41.5z M138.7,51.9h-0.2V5.5c0-2.8-2.3-5-5.1-5H8.6c-2.8,0-5.1,2.2-5.1,5v46.4H3.3
			c-1.5,0-2.8,1.2-2.8,2.7v21.7c0,1.5,1.2,2.7,2.8,2.7h0.2v0.3c0,2.8,2.3,5,5.1,5h16.5l3.9,1.8c1.7,0.8,3.7,1.2,5.6,1.2h72.5
			c1.9,0,3.9-0.4,5.6-1.2l4.1-1.8h16.6c2.8,0,5.1-2.2,5.1-5V79h0.2c1.5,0,2.8-1.2,2.8-2.7V54.6C141.5,53.2,140.3,51.9,138.7,51.9z"
			/>
	</g>
	<g>
		<defs>
			<rect id="SVGID_13_" width="142" height="140"/>
		</defs>
		<clipPath id="SVGID_14_">
			<use xlink:href="#SVGID_13_"  style="overflow:visible;"/>
		</clipPath>
		<path class="st6" d="M100.1,41c-3.9,0-7-3.1-7-6.9c0-3.8,3.2-6.9,7-6.9s7,3.1,7,6.9C107.1,37.9,104,41,100.1,41 M59.2,40.1
			c0.6-1.8,0.9-3.7,0.9-5.7c0-1.9-0.3-3.8-0.9-5.5H75c-0.6,1.7-0.9,3.6-0.9,5.5c0,2,0.3,3.9,0.9,5.7H59.2z M40,41
			c-3.9,0-7-3.1-7-6.9c0-3.8,3.2-6.9,7-6.9c3.9,0,7,3.1,7,6.9C47.1,37.9,43.9,41,40,41 M127,6H14.9L9,11.6v41.8h123.8V11.6L127,6z"
			/>
	</g>
	<g>
		<defs>
			<rect id="SVGID_15_" width="142" height="140"/>
		</defs>
		<clipPath id="SVGID_16_">
			<use xlink:href="#SVGID_15_"  style="overflow:visible;"/>
		</clipPath>
		<path class="st7" d="M59.7,39.7h14.9c-0.5-1.7-0.8-3.5-0.8-5.3s0.3-3.5,0.8-5.2H59.7c0.5,1.7,0.8,3.4,0.8,5.2S60.2,38,59.7,39.7
			 M75.6,40.5h-17l0.2-0.5c0.6-1.8,0.9-3.6,0.9-5.5s-0.3-3.7-0.9-5.4l-0.2-0.5h16.8l0,0.4c-0.6,1.7-0.9,3.6-0.9,5.4
			c0,1.9,0.3,3.8,0.9,5.5L75.6,40.5z M40,27.6c-3.7,0-6.7,2.9-6.7,6.5s3,6.5,6.7,6.5s6.7-2.9,6.7-6.5S43.7,27.6,40,27.6 M40,41.3
			c-4.1,0-7.4-3.2-7.4-7.2s3.3-7.2,7.4-7.2s7.4,3.2,7.4,7.2C47.5,38.1,44.1,41.3,40,41.3 M100.1,27.6c-3.7,0-6.7,2.9-6.7,6.5
			s3,6.5,6.7,6.5s6.7-2.9,6.7-6.5C106.7,30.5,103.7,27.6,100.1,27.6 M100.1,41.3c-4.1,0-7.4-3.2-7.4-7.2s3.3-7.2,7.4-7.2
			s7.4,3.2,7.4,7.2S104.2,41.3,100.1,41.3 M9.4,53h123V11.7l-5.6-5.4H15l-5.6,5.4V53z M133.2,53.7H8.7V11.4l6.1-5.8h112.4l6.1,5.8
			v42.3H133.2z"/>
	</g>
</g>
<polygon class="st8" points="15,6 9.2,11.6 9,20.5 38.1,20.3 44.9,6 "/>
<polygon class="st9" points="40.8,19.9 47.5,6 45.9,6 39.2,19.9 "/>
<polygon class="st10" points="42.7,19.9 49.3,6 48.5,6 41.9,19.9 "/>
<polygon class="st11" points="44.3,19.9 51,6 50.2,6 43.5,19.9 "/>
<rect x="9" y="19.5" transform="matrix(0.9999 -1.058213e-02 1.058213e-02 0.9999 -0.2071 0.7514)" class="st12" width="123.8" height="0.9"/>
<g>
	<g>
		<defs>
			<rect id="SVGID_17_" width="142" height="140"/>
		</defs>
		<clipPath id="SVGID_18_">
			<use xlink:href="#SVGID_17_"  style="overflow:visible;"/>
		</clipPath>
		<path class="st13" d="M59.7,39.7h14.9c-0.5-1.7-0.8-3.5-0.8-5.3s0.3-3.5,0.8-5.2H59.7c0.5,1.7,0.8,3.4,0.8,5.2S60.2,38,59.7,39.7
			 M75.6,40.5h-17l0.2-0.5c0.6-1.8,0.9-3.6,0.9-5.5s-0.3-3.7-0.9-5.4l-0.2-0.5h16.8l0,0.4c-0.6,1.7-0.9,3.6-0.9,5.4
			c0,1.9,0.3,3.8,0.9,5.5L75.6,40.5z M40,27.6c-3.7,0-6.7,2.9-6.7,6.5s3,6.5,6.7,6.5s6.7-2.9,6.7-6.5S43.7,27.6,40,27.6 M40,41.3
			c-4.1,0-7.4-3.2-7.4-7.2s3.3-7.2,7.4-7.2s7.4,3.2,7.4,7.2C47.5,38.1,44.1,41.3,40,41.3 M100.1,27.6c-3.7,0-6.7,2.9-6.7,6.5
			s3,6.5,6.7,6.5s6.7-2.9,6.7-6.5C106.7,30.5,103.7,27.6,100.1,27.6 M100.1,41.3c-4.1,0-7.4-3.2-7.4-7.2s3.3-7.2,7.4-7.2
			s7.4,3.2,7.4,7.2S104.2,41.3,100.1,41.3 M9.4,53h123V11.7l-5.6-5.4H15l-5.6,5.4V53z M133.2,53.7H8.7V11.4l6.1-5.8h112.4l6.1,5.8
			v42.3H133.2z"/>
	</g>
	<g>
		<defs>
			<rect id="SVGID_19_" width="142" height="140"/>
		</defs>
		<clipPath id="SVGID_20_">
			<use xlink:href="#SVGID_19_"  style="overflow:visible;"/>
		</clipPath>
		<path class="st14" d="M40.2,27.7c-3.6,0-6.5,2.9-6.5,6.4s2.9,6.4,6.5,6.4s6.5-2.9,6.5-6.4S43.8,27.7,40.2,27.7 M40.2,41.4
			c-4.1,0-7.5-3.3-7.5-7.3s3.4-7.3,7.5-7.3s7.5,3.3,7.5,7.3S44.3,41.4,40.2,41.4"/>
	</g>
	<g>
		<defs>
			<rect id="SVGID_21_" width="142" height="140"/>
		</defs>
		<clipPath id="SVGID_22_">
			<use xlink:href="#SVGID_21_"  style="overflow:visible;"/>
		</clipPath>
		<path class="st15" d="M100.1,27.7c-3.6,0-6.5,2.9-6.5,6.4s2.9,6.4,6.5,6.4s6.5-2.9,6.5-6.4S103.7,27.7,100.1,27.7 M100.1,41.4
			c-4.1,0-7.5-3.3-7.5-7.3s3.4-7.3,7.5-7.3s7.5,3.3,7.5,7.3S104.3,41.4,100.1,41.4"/>
	</g>
	<g>
		<defs>
			<rect id="SVGID_23_" width="142" height="140"/>
		</defs>
		<clipPath id="SVGID_24_">
			<use xlink:href="#SVGID_23_"  style="overflow:visible;"/>
		</clipPath>
		<path class="st16" d="M137.1,5.5v73.9l-0.1-2.3l-0.1-2.3l-0.2-4.6l-0.2-9.2l-0.1-2.3v-2.3l-0.1-4.6v-9.2v-9.2c0-3.1,0-6.2,0.1-9.2
			l0.2-9.2l0.2-4.6l0.1-2.3L137.1,5.5z"/>
	</g>
	<g>
		<defs>
			<rect id="SVGID_25_" width="142" height="140"/>
		</defs>
		<clipPath id="SVGID_26_">
			<use xlink:href="#SVGID_25_"  style="overflow:visible;"/>
		</clipPath>
		<path class="st17" d="M5.6,79.4v-50V16.8v-6.3v-3V5.9c0-0.3,0-0.5,0-0.8s0.1-0.5,0.2-0.8c0.4-1,1.4-1.7,2.5-1.7s2.1,0,3.2,0H18
			h12.8h102.6c-17.1,0.6-34.2,0.7-51.3,0.7L30.8,3.5h-6.4H18h-6.4H10H9.2H8.8H8.6c-0.1,0-0.1,0-0.1,0C7.7,3.5,7,4,6.7,4.7
			C6.6,4.9,6.5,5,6.5,5.2c0,0.1,0,0.2,0,0.3v0.4v1.6v3.1v6.3v12.5l-0.1,25c0,2.1,0,4.2-0.1,6.3l-0.1,3.1c0,1-0.1,2.1-0.1,3.1
			C6.1,69,6,71,5.9,73.1S5.8,77.3,5.6,79.4"/>
	</g>
	<g>
		<defs>
			<rect id="SVGID_27_" width="142" height="140"/>
		</defs>
		<clipPath id="SVGID_28_">
			<use xlink:href="#SVGID_27_"  style="overflow:visible;"/>
		</clipPath>
		<path class="st18" d="M3.5,54c-0.5,0.2-1,0.7-1.2,1.3c-0.1,0.2-0.1,0.4-0.1,0.7c0,0.2,0,0.4,0,0.7v17.5l0.5-10.8L2.9,58L3,56.3
			v-0.2V56v-0.1c0-0.1,0.1-0.3,0.1-0.4c0.1-0.2,0.2-0.4,0.4-0.5V54z"/>
	</g>
	<g>
		<defs>
			<rect id="SVGID_29_" width="142" height="140"/>
		</defs>
		<clipPath id="SVGID_30_">
			<use xlink:href="#SVGID_29_"  style="overflow:visible;"/>
		</clipPath>
		<path class="st19" d="M10.8,78.7c0,1-0.8,1.7-1.8,1.7s-1.8-0.8-1.8-1.7S8.1,77,9,77C10,77,10.8,77.8,10.8,78.7"/>
	</g>
	<g>
		<defs>
			<rect id="SVGID_31_" width="142" height="140"/>
		</defs>
		<clipPath id="SVGID_32_">
			<use xlink:href="#SVGID_31_"  style="overflow:visible;"/>
		</clipPath>
		<path class="st20" d="M8.6,79.9c-0.1,0-0.1,0-0.2,0c-0.2-0.1-0.3-0.3-0.2-0.5L9,77.7c0.1-0.2,0.3-0.2,0.5-0.2
			c0.2,0.1,0.3,0.3,0.2,0.5l-0.8,1.7C8.9,79.8,8.7,79.9,8.6,79.9"/>
	</g>
	<g>
		<defs>
			<rect id="SVGID_33_" width="142" height="140"/>
		</defs>
		<clipPath id="SVGID_34_">
			<use xlink:href="#SVGID_33_"  style="overflow:visible;"/>
		</clipPath>
		<path class="st21" d="M9.9,79.4c-0.1,0-0.1,0-0.2,0L8,78.6c-0.2-0.1-0.3-0.3-0.2-0.5c0.1-0.2,0.3-0.2,0.5-0.2l1.7,0.8
			c0.2,0.1,0.3,0.3,0.2,0.5C10.1,79.4,10,79.4,9.9,79.4"/>
	</g>
	<g>
		<defs>
			<rect id="SVGID_35_" width="142" height="140"/>
		</defs>
		<clipPath id="SVGID_36_">
			<use xlink:href="#SVGID_35_"  style="overflow:visible;"/>
		</clipPath>
		<path class="st22" d="M11.4,79.3c0,1.2-1,2.2-2.2,2.2c-1.1,0-2-0.8-2.2-1.8C7.3,80.5,8.1,81,9,81c1.2,0,2.2-1,2.2-2.2
			c0-0.1,0-0.2,0-0.3C11.3,78.7,11.4,79,11.4,79.3"/>
	</g>
	<g>
		<defs>
			<rect id="SVGID_37_" width="142" height="140"/>
		</defs>
		<clipPath id="SVGID_38_">
			<use xlink:href="#SVGID_37_"  style="overflow:visible;"/>
		</clipPath>
		<path class="st23" d="M134.4,79.1c0,1-0.8,1.7-1.8,1.7s-1.8-0.8-1.8-1.7s0.8-1.7,1.8-1.7S134.4,78.1,134.4,79.1"/>
	</g>
	<g>
		<defs>
			<rect id="SVGID_39_" width="142" height="140"/>
		</defs>
		<clipPath id="SVGID_40_">
			<use xlink:href="#SVGID_39_"  style="overflow:visible;"/>
		</clipPath>
		<path class="st24" d="M131.7,79.7c-0.1,0-0.3-0.1-0.3-0.2c-0.1-0.2,0-0.4,0.2-0.5l1.8-0.6c0.2-0.1,0.4,0,0.5,0.2s0,0.4-0.2,0.5
			l-1.8,0.6C131.8,79.7,131.8,79.7,131.7,79.7"/>
	</g>
	<g>
		<defs>
			<rect id="SVGID_41_" width="142" height="140"/>
		</defs>
		<clipPath id="SVGID_42_">
			<use xlink:href="#SVGID_41_"  style="overflow:visible;"/>
		</clipPath>
		<path class="st25" d="M132.9,80.2c-0.1,0-0.3-0.1-0.3-0.2l-0.6-1.7c-0.1-0.2,0-0.4,0.2-0.5s0.4,0,0.5,0.2l0.6,1.7
			c0.1,0.2,0,0.4-0.2,0.5C133,80.2,133,80.2,132.9,80.2"/>
	</g>
	<g>
		<defs>
			<rect id="SVGID_43_" width="142" height="140"/>
		</defs>
		<clipPath id="SVGID_44_">
			<use xlink:href="#SVGID_43_"  style="overflow:visible;"/>
		</clipPath>
		<path class="st26" d="M135,79.6c0,1.2-1,2.2-2.2,2.2c-1.1,0-2-0.8-2.2-1.8c0.3,0.8,1.1,1.3,2,1.3c1.2,0,2.2-1,2.2-2.2
			c0-0.1,0-0.2,0-0.3C134.9,79,135,79.3,135,79.6"/>
	</g>
	<g>
		<defs>
			<rect id="SVGID_45_" width="142" height="140"/>
		</defs>
		<clipPath id="SVGID_46_">
			<use xlink:href="#SVGID_45_"  style="overflow:visible;"/>
		</clipPath>
		<path class="st27" d="M10.8,6c0,1-0.8,1.7-1.8,1.7S7.2,6.9,7.2,6C7.2,5,8,4.3,9,4.3S10.8,5,10.8,6"/>
	</g>
	<g>
		<defs>
			<rect id="SVGID_47_" width="142" height="140"/>
		</defs>
		<clipPath id="SVGID_48_">
			<use xlink:href="#SVGID_47_"  style="overflow:visible;"/>
		</clipPath>
		<path class="st28" d="M8.6,7.1c-0.1,0-0.1,0-0.2,0C8.3,7,8.2,6.8,8.3,6.6l0.8-1.7c0.1-0.2,0.3-0.2,0.5-0.2C9.8,4.8,9.9,5,9.8,5.2
			L8.9,6.9C8.9,7,8.7,7.1,8.6,7.1"/>
	</g>
	<g>
		<defs>
			<rect id="SVGID_49_" width="142" height="140"/>
		</defs>
		<clipPath id="SVGID_50_">
			<use xlink:href="#SVGID_49_"  style="overflow:visible;"/>
		</clipPath>
		<path class="st29" d="M9.9,6.7c-0.1,0-0.1,0-0.2,0L8,5.8C7.8,5.7,7.8,5.5,7.9,5.4C8,5.2,8.2,5.1,8.3,5.2L10,6
			c0.2,0.1,0.3,0.3,0.2,0.5C10.1,6.6,10,6.7,9.9,6.7"/>
	</g>
	<g>
		<defs>
			<rect id="SVGID_51_" width="142" height="140"/>
		</defs>
		<clipPath id="SVGID_52_">
			<use xlink:href="#SVGID_51_"  style="overflow:visible;"/>
		</clipPath>
		<path class="st30" d="M11.4,6.5c0,1.2-1,2.2-2.2,2.2c-1.1,0-2-0.8-2.2-1.8c0.3,0.8,1.1,1.3,2,1.3c1.2,0,2.2-1,2.2-2.2
			c0-0.1,0-0.2,0-0.3C11.3,5.9,11.4,6.2,11.4,6.5"/>
	</g>
	<g>
		<defs>
			<rect id="SVGID_53_" width="142" height="140"/>
		</defs>
		<clipPath id="SVGID_54_">
			<use xlink:href="#SVGID_53_"  style="overflow:visible;"/>
		</clipPath>
		<path class="st31" d="M134.4,6.3c0,1-0.8,1.7-1.8,1.7s-1.8-0.8-1.8-1.7c0-1,0.8-1.7,1.8-1.7S134.4,5.4,134.4,6.3"/>
	</g>
	<g>
		<defs>
			<rect id="SVGID_55_" width="142" height="140"/>
		</defs>
		<clipPath id="SVGID_56_">
			<use xlink:href="#SVGID_55_"  style="overflow:visible;"/>
		</clipPath>
		<path class="st32" d="M131.7,6.9c-0.1,0-0.3-0.1-0.3-0.2c-0.1-0.2,0-0.4,0.2-0.5l1.8-0.6c0.2-0.1,0.4,0,0.5,0.2s0,0.4-0.2,0.5
			l-1.8,0.6C131.8,6.9,131.8,6.9,131.7,6.9"/>
	</g>
	<g>
		<defs>
			<rect id="SVGID_57_" width="142" height="140"/>
		</defs>
		<clipPath id="SVGID_58_">
			<use xlink:href="#SVGID_57_"  style="overflow:visible;"/>
		</clipPath>
		<path class="st33" d="M132.9,7.5c-0.1,0-0.3-0.1-0.3-0.2L132,5.5c-0.1-0.2,0-0.4,0.2-0.5s0.4,0,0.5,0.2l0.6,1.7
			c0.1,0.2,0,0.4-0.2,0.5C133,7.5,133,7.5,132.9,7.5"/>
	</g>
	<g>
		<defs>
			<rect id="SVGID_59_" width="142" height="140"/>
		</defs>
		<clipPath id="SVGID_60_">
			<use xlink:href="#SVGID_59_"  style="overflow:visible;"/>
		</clipPath>
		<path class="st34" d="M135,6.8c0,1.2-1,2.2-2.2,2.2c-1.1,0-2-0.8-2.2-1.8c0.3,0.8,1.1,1.3,2,1.3c1.2,0,2.2-1,2.2-2.2
			c0-0.1,0-0.2,0-0.3C134.9,6.2,135,6.5,135,6.8"/>
	</g>
	<g>
		<defs>
			<rect id="SVGID_61_" width="142" height="140"/>
		</defs>
		<clipPath id="SVGID_62_">
			<use xlink:href="#SVGID_61_"  style="overflow:visible;"/>
		</clipPath>
		<path class="st35" d="M40.2,27.7c-3.6,0-6.5,2.9-6.5,6.4s2.9,6.4,6.5,6.4s6.5-2.9,6.5-6.4S43.8,27.7,40.2,27.7 M40.2,41.4
			c-4.1,0-7.5-3.3-7.5-7.3s3.4-7.3,7.5-7.3s7.5,3.3,7.5,7.3S44.3,41.4,40.2,41.4"/>
	</g>
</g>
<rect x="38.8" y="27.6" class="st36" width="2.6" height="2.6"/>
<polygon class="st36" points="44.4,33.3 43.1,31.1 45.4,29.8 46.7,32.1 "/>
<polygon class="st36" points="43.1,37.3 44.4,35.1 46.7,36.3 45.4,38.6 "/>
<rect x="38.8" y="38.2" class="st36" width="2.6" height="2.6"/>
<polygon class="st36" points="35.9,35.1 37.2,37.3 34.9,38.6 33.6,36.3 "/>
<polygon class="st36" points="37.2,31.1 35.9,33.3 33.6,32.1 34.9,29.8 "/>
<g>
	<g>
		<defs>
			<rect id="SVGID_63_" width="142" height="140"/>
		</defs>
		<clipPath id="SVGID_64_">
			<use xlink:href="#SVGID_63_"  style="overflow:visible;"/>
		</clipPath>
		<path class="st37" d="M40.2,27.4c-3.8,0-6.9,3-6.9,6.7s3.1,6.7,6.9,6.7c3.8,0,6.9-3,6.9-6.7C47.1,30.4,44,27.4,40.2,27.4
			 M40.2,41.1c-3.9,0-7.2-3.1-7.2-7c0-3.8,3.2-7,7.2-7s7.2,3.1,7.2,7C47.3,38,44.1,41.1,40.2,41.1"/>
	</g>
	<g>
		<defs>
			<rect id="SVGID_65_" width="142" height="140"/>
		</defs>
		<clipPath id="SVGID_66_">
			<use xlink:href="#SVGID_65_"  style="overflow:visible;"/>
		</clipPath>
		<path class="st38" d="M100.1,27.7c-3.6,0-6.5,2.9-6.5,6.4s2.9,6.4,6.5,6.4s6.5-2.9,6.5-6.4S103.7,27.7,100.1,27.7 M100.1,41.4
			c-4.1,0-7.5-3.3-7.5-7.3s3.4-7.3,7.5-7.3s7.5,3.3,7.5,7.3S104.3,41.4,100.1,41.4"/>
	</g>
</g>
<rect x="98.8" y="27.6" class="st36" width="2.6" height="2.6"/>
<polygon class="st36" points="104.4,33.3 103.1,31.1 105.4,29.8 106.7,32.1 "/>
<polygon class="st36" points="103.1,37.3 104.4,35.1 106.7,36.3 105.4,38.6 "/>
<rect x="98.8" y="38.2" class="st36" width="2.6" height="2.6"/>
<polygon class="st36" points="95.8,35.1 97.1,37.3 94.9,38.6 93.5,36.3 "/>
<polygon class="st36" points="97.1,31.1 95.8,33.3 93.5,32.1 94.9,29.8 "/>
<g>
	<g>
		<defs>
			<rect id="SVGID_67_" width="142" height="140"/>
		</defs>
		<clipPath id="SVGID_68_">
			<use xlink:href="#SVGID_67_"  style="overflow:visible;"/>
		</clipPath>
		<path class="st39" d="M100.1,27.4c-3.8,0-6.9,3-6.9,6.7s3.1,6.7,6.9,6.7s6.9-3,6.9-6.7S103.9,27.4,100.1,27.4 M100.1,41.1
			c-3.9,0-7.2-3.1-7.2-7c0-3.8,3.2-7,7.2-7c3.9,0,7.2,3.1,7.2,7C107.3,38,104,41.1,100.1,41.1"/>
	</g>
	<g>
		<defs>
			<rect id="SVGID_69_" width="142" height="140"/>
		</defs>
		<clipPath id="SVGID_70_">
			<use xlink:href="#SVGID_69_"  style="overflow:visible;"/>
		</clipPath>
		<path class="st40" d="M40.2,27.4c-3.8,0-6.9,3-6.9,6.7s3.1,6.7,6.9,6.7c3.8,0,6.9-3,6.9-6.7C47.1,30.4,44,27.4,40.2,27.4
			 M40.2,41.1c-3.9,0-7.1-3.1-7.1-7c0-3.8,3.2-7,7.1-7s7.2,3.1,7.2,7C47.3,38,44.1,41.1,40.2,41.1 M100.1,27.4c-3.8,0-6.9,3-6.9,6.7
			s3.1,6.7,6.9,6.7s6.9-3,6.9-6.7S103.9,27.4,100.1,27.4 M100.1,41.1c-3.9,0-7.2-3.1-7.2-7c0-3.8,3.2-7,7.2-7c3.9,0,7.2,3.1,7.2,7
			C107.3,38,104,41.1,100.1,41.1"/>
	</g>
	<g>
		<defs>
			<rect id="SVGID_71_" width="142" height="140"/>
		</defs>
		<clipPath id="SVGID_72_">
			<use xlink:href="#SVGID_71_"  style="overflow:visible;"/>
		</clipPath>
		<path class="st41" d="M100.1,41c-3.9,0-7-3.1-7-6.9c0-3.8,3.1-6.9,7-6.9s7,3.1,7,6.9C107.1,37.9,104,41,100.1,41 M59.2,40.1
			c0.6-1.8,0.9-3.7,0.9-5.7c0-1.9-0.3-3.8-0.9-5.5H75c-0.6,1.7-0.9,3.6-0.9,5.5c0,2,0.3,3.9,0.9,5.7H59.2z M40.2,41
			c-3.9,0-7-3.1-7-6.9c0-3.8,3.1-6.9,7-6.9s7,3.1,7,6.9C47.2,37.9,44,41,40.2,41 M111.8,22.9H30.2c-2.1,0-3.8,1.7-3.8,3.7v16.7
			c0,0.8,0.3,1.5,0.7,2.1c0.1,0.1,0.2,0.2,0.3,0.3c0.7,0.8,1.7,1.3,2.8,1.3h81.6c2.1,0,3.8-1.7,3.8-3.7V26.6
			C115.6,24.6,113.9,22.9,111.8,22.9"/>
	</g>
	<g>
		<defs>
			<rect id="SVGID_73_" width="142" height="140"/>
		</defs>
		<clipPath id="SVGID_74_">
			<use xlink:href="#SVGID_73_"  style="overflow:visible;"/>
		</clipPath>
		<path class="st42" d="M49.1,35.2c0,3.9-3.3,7.1-7.3,7.1c-1.5,0-2.8-0.4-3.9-1.1c0.7,0.2,1.5,0.3,2.3,0.3c4.2,0,7.6-3.3,7.6-7.4
			c0-1.8-0.7-3.4-1.7-4.7C47.9,30.7,49.1,32.8,49.1,35.2"/>
	</g>
	<g>
		<defs>
			<rect id="SVGID_75_" width="142" height="140"/>
		</defs>
		<clipPath id="SVGID_76_">
			<use xlink:href="#SVGID_75_"  style="overflow:visible;"/>
		</clipPath>
		<path class="st43" d="M109.4,35.2c0,3.9-3.3,7.1-7.3,7.1c-1.5,0-2.8-0.4-3.9-1.1c0.7,0.2,1.5,0.3,2.3,0.3c4.2,0,7.6-3.3,7.6-7.4
			c0-1.8-0.7-3.4-1.7-4.7C108.2,30.7,109.4,32.8,109.4,35.2"/>
	</g>
	<g>
		<defs>
			<rect id="SVGID_77_" width="142" height="140"/>
		</defs>
		<clipPath id="SVGID_78_">
			<use xlink:href="#SVGID_77_"  style="overflow:visible;"/>
		</clipPath>
		<path class="st44" d="M58.7,38.8c0-0.6,0.1-1.1,0.1-1.7c0-0.5,0.1-1.1,0.1-1.6s0.1-1.1,0.1-1.6s0-1.1,0.1-1.7
			c0.2,0.5,0.3,1.1,0.3,1.6c0.1,0.6,0.1,1.1,0,1.7c0,0.6-0.1,1.1-0.2,1.7C59.1,37.7,58.9,38.3,58.7,38.8"/>
	</g>
	<g>
		<defs>
			<rect id="SVGID_79_" width="142" height="140"/>
		</defs>
		<clipPath id="SVGID_80_">
			<use xlink:href="#SVGID_79_"  style="overflow:visible;"/>
		</clipPath>
		<path class="st45" d="M57.9,38.3c0-0.5,0-0.9,0.1-1.4l0.1-1.4l0.1-1.4c0-0.5,0.1-0.9,0.1-1.4c0.1,0.4,0.2,0.9,0.3,1.4
			c0,0.5,0.1,0.9,0,1.4c0,0.5-0.1,0.9-0.2,1.4C58.3,37.4,58.1,37.8,57.9,38.3"/>
	</g>
	<g>
		<defs>
			<rect id="SVGID_81_" width="142" height="140"/>
		</defs>
		<clipPath id="SVGID_82_">
			<use xlink:href="#SVGID_81_"  style="overflow:visible;"/>
		</clipPath>
		<path class="st46" d="M57.1,37.8c0-0.4,0-0.7,0-1.1c0-0.4,0-0.7,0-1.1c0-0.4,0.1-0.7,0.1-1.1c0-0.4,0.1-0.7,0.2-1.1
			c0.1,0.4,0.2,0.7,0.2,1.1c0,0.4,0,0.7,0,1.1c0,0.4-0.1,0.7-0.2,1.1C57.4,37.1,57.3,37.4,57.1,37.8"/>
	</g>
	<g>
		<defs>
			<rect id="SVGID_83_" width="142" height="140"/>
		</defs>
		<clipPath id="SVGID_84_">
			<use xlink:href="#SVGID_83_"  style="overflow:visible;"/>
		</clipPath>
		<path class="st47" d="M75.7,30.2c-0.1,0.7-0.2,1.5-0.2,2.2s-0.1,1.4-0.1,2.2c0,0.7,0,1.4,0.1,2.2c0.1,0.7,0.1,1.4,0.2,2.2
			c-0.3-0.7-0.5-1.4-0.6-2.1c-0.1-0.7-0.2-1.5-0.2-2.2s0-1.5,0.2-2.2C75.3,31.6,75.5,30.9,75.7,30.2"/>
	</g>
	<g>
		<defs>
			<rect id="SVGID_85_" width="142" height="140"/>
		</defs>
		<clipPath id="SVGID_86_">
			<use xlink:href="#SVGID_85_"  style="overflow:visible;"/>
		</clipPath>
		<path class="st48" d="M76.8,30.4c-0.1,0.7-0.1,1.4-0.2,2c0,0.7-0.1,1.4-0.1,2c0,0.7,0,1.4,0.1,2c0.1,0.7,0.1,1.4,0.2,2
			c-0.3-0.6-0.5-1.3-0.6-2S76,35,76,34.3c0-0.7,0-1.4,0.2-2.1C76.4,31.7,76.6,31,76.8,30.4"/>
	</g>
	<g>
		<defs>
			<rect id="SVGID_87_" width="142" height="140"/>
		</defs>
		<clipPath id="SVGID_88_">
			<use xlink:href="#SVGID_87_"  style="overflow:visible;"/>
		</clipPath>
		<path class="st49" d="M78,30.6c0,0.6-0.1,1.3-0.1,1.9c0,0.6-0.1,1.3,0,1.9c0,0.6,0,1.3,0.1,1.9c0,0.6,0.1,1.3,0.2,1.9
			c-0.3-0.6-0.4-1.2-0.5-1.9c-0.1-0.6-0.2-1.3-0.2-1.9c0-0.6,0-1.3,0.2-1.9C77.6,31.8,77.7,31.2,78,30.6"/>
	</g>
	<g>
		<defs>
			<rect id="SVGID_89_" width="142" height="140"/>
		</defs>
		<clipPath id="SVGID_90_">
			<use xlink:href="#SVGID_89_"  style="overflow:visible;"/>
		</clipPath>
		<path class="st50" d="M79.1,30.7L79,32.5c0,0.6,0,1.2,0,1.8s0,1.2,0.1,1.8l0.1,1.8c-0.2-0.6-0.4-1.1-0.5-1.7
			c-0.1-0.6-0.2-1.2-0.2-1.8s0-1.2,0.1-1.8C78.7,31.9,78.9,31.3,79.1,30.7"/>
	</g>
	<g>
		<defs>
			<rect id="SVGID_91_" width="142" height="140"/>
		</defs>
		<clipPath id="SVGID_92_">
			<use xlink:href="#SVGID_91_"  style="overflow:visible;"/>
		</clipPath>
		<path class="st51" d="M80.2,30.9c0,0.6,0,1.1-0.1,1.6c0,0.5,0,1.1,0,1.6s0,1.1,0,1.6s0.1,1.1,0.1,1.6c-0.2-0.5-0.4-1.1-0.4-1.6
			c-0.1-0.5-0.1-1.1-0.1-1.7c0-0.6,0-1.1,0.1-1.7C79.8,32,80,31.4,80.2,30.9"/>
	</g>
	<g>
		<defs>
			<rect id="SVGID_93_" width="142" height="140"/>
		</defs>
		<clipPath id="SVGID_94_">
			<use xlink:href="#SVGID_93_"  style="overflow:visible;"/>
		</clipPath>
		<path class="st52" d="M81.3,31.1c0,0.5,0,1,0,1.5s0,1,0,1.5s0,1,0,1.5s0,1,0,1.5c-0.2-0.5-0.3-1-0.4-1.5s-0.1-1-0.1-1.5
			s0-1,0.1-1.5C81,32,81.1,31.6,81.3,31.1"/>
	</g>
	<g>
		<defs>
			<rect id="SVGID_95_" width="142" height="140"/>
		</defs>
		<clipPath id="SVGID_96_">
			<use xlink:href="#SVGID_95_"  style="overflow:visible;"/>
		</clipPath>
		<path class="st53" d="M82.4,31.3c0,0.5,0,0.9,0,1.4V34v1.3c0,0.4,0,0.9,0,1.4c-0.2-0.4-0.3-0.9-0.4-1.3c-0.1-0.5-0.1-0.9-0.1-1.4
			s0-0.9,0.1-1.4S82.2,31.7,82.4,31.3"/>
	</g>
	<g>
		<defs>
			<rect id="SVGID_97_" width="142" height="140"/>
		</defs>
		<clipPath id="SVGID_98_">
			<use xlink:href="#SVGID_97_"  style="overflow:visible;"/>
		</clipPath>
		<path class="st54" d="M83.5,31.4c0,0.4,0,0.8,0,1.2v1.2V35c0,0.4,0,0.8-0.1,1.2c-0.2-0.4-0.3-0.8-0.3-1.2C83,34.6,83,34.2,83,33.8
			s0-0.8,0.1-1.2C83.3,32.2,83.4,31.8,83.5,31.4"/>
	</g>
	<g>
		<defs>
			<rect id="SVGID_99_" width="142" height="140"/>
		</defs>
		<clipPath id="SVGID_100_">
			<use xlink:href="#SVGID_99_"  style="overflow:visible;"/>
		</clipPath>
		<path class="st55" d="M84.7,31.6c0.1,0.4,0.1,0.7,0.1,1.1s0,0.7,0,1.1c0,0.4,0,0.7,0,1.1c0,0.4,0,0.7-0.1,1.1
			c-0.1-0.3-0.2-0.7-0.3-1.1c-0.1-0.4-0.1-0.7-0.1-1.1c0-0.4,0-0.7,0.1-1.1C84.4,32.3,84.5,31.9,84.7,31.6"/>
	</g>
	<g>
		<defs>
			<rect id="SVGID_101_" width="142" height="140"/>
		</defs>
		<clipPath id="SVGID_102_">
			<use xlink:href="#SVGID_101_"  style="overflow:visible;"/>
		</clipPath>
		<path class="st56" d="M72.6,63.2c0,1-0.8,1.7-1.8,1.7S69,64.1,69,63.2c0-1,0.8-1.7,1.8-1.7C71.8,61.4,72.6,62.2,72.6,63.2"/>
	</g>
	<g>
		<defs>
			<rect id="SVGID_103_" width="142" height="140"/>
		</defs>
		<clipPath id="SVGID_104_">
			<use xlink:href="#SVGID_103_"  style="overflow:visible;"/>
		</clipPath>
		<path class="st57" d="M71.7,63.8L71.7,63.8L69.8,63c-0.2-0.1-0.3-0.3-0.2-0.5c0.1-0.2,0.3-0.3,0.5-0.2l1.7,0.8
			c0.2,0.1,0.3,0.3,0.2,0.5C72,63.7,71.8,63.8,71.7,63.8"/>
	</g>
	<g>
		<defs>
			<rect id="SVGID_105_" width="142" height="140"/>
		</defs>
		<clipPath id="SVGID_106_">
			<use xlink:href="#SVGID_105_"  style="overflow:visible;"/>
		</clipPath>
		<path class="st58" d="M70.4,64.3L70.4,64.3c-0.3-0.1-0.4-0.3-0.3-0.5l0.8-1.7c0.1-0.2,0.3-0.3,0.5-0.2s0.3,0.3,0.2,0.5l-0.8,1.7
			C70.7,64.2,70.6,64.3,70.4,64.3"/>
	</g>
	<g>
		<defs>
			<rect id="SVGID_107_" width="142" height="140"/>
		</defs>
		<clipPath id="SVGID_108_">
			<use xlink:href="#SVGID_107_"  style="overflow:visible;"/>
		</clipPath>
		<path class="st59" d="M73.2,63.7c0,1.2-1,2.2-2.2,2.2c-1.1,0-2-0.8-2.2-1.8c0.3,0.8,1.1,1.3,2,1.3c1.2,0,2.2-1,2.2-2.2
			c0-0.1,0-0.2,0-0.3C73.1,63.1,73.2,63.4,73.2,63.7"/>
	</g>
	<g>
		<defs>
			<rect id="SVGID_109_" width="142" height="140"/>
		</defs>
		<clipPath id="SVGID_110_">
			<use xlink:href="#SVGID_109_"  style="overflow:visible;"/>
		</clipPath>
		<path class="st60" d="M51.8,77h-2.3c-0.8,0-1.4-0.6-1.4-1.4v-3.1c0-0.8,0.6-1.4,1.4-1.4h2.3c0.8,0,1.4,0.6,1.4,1.4v3.1
			C53.3,76.4,52.6,77,51.8,77"/>
	</g>
	<g>
		<defs>
			<rect id="SVGID_111_" width="142" height="140"/>
		</defs>
		<clipPath id="SVGID_112_">
			<use xlink:href="#SVGID_111_"  style="overflow:visible;"/>
		</clipPath>
		<path class="st61" d="M55.2,73.2v3.1c0,1.3-1.1,2.4-2.4,2.4h-2.3c-0.6,0-1.2-0.3-1.7-0.7c0.2,0.1,0.4,0.1,0.7,0.1h2.3
			c1.3,0,2.4-1.1,2.4-2.4v-3.1c0-0.7-0.3-1.3-0.7-1.7C54.5,71.2,55.2,72.1,55.2,73.2"/>
	</g>
	<g>
		<defs>
			<rect id="SVGID_113_" width="142" height="140"/>
		</defs>
		<clipPath id="SVGID_114_">
			<use xlink:href="#SVGID_113_"  style="overflow:visible;"/>
		</clipPath>
		<path class="st62" d="M90.5,77h-2.3c-0.8,0-1.4-0.6-1.4-1.4v-3.1c0-0.8,0.6-1.4,1.4-1.4h2.3c0.8,0,1.4,0.6,1.4,1.4v3.1
			C91.9,76.4,91.3,77,90.5,77"/>
	</g>
	<g>
		<defs>
			<rect id="SVGID_115_" width="142" height="140"/>
		</defs>
		<clipPath id="SVGID_116_">
			<use xlink:href="#SVGID_115_"  style="overflow:visible;"/>
		</clipPath>
		<path class="st63" d="M93.8,73.2v3.1c0,1.3-1.1,2.4-2.4,2.4h-2.3c-0.6,0-1.2-0.3-1.7-0.7c0.2,0.1,0.4,0.1,0.7,0.1h2.3
			c1.3,0,2.4-1.1,2.4-2.4v-3.1c0-0.7-0.3-1.3-0.7-1.7C93.1,71.2,93.8,72.1,93.8,73.2"/>
	</g>
	<g>
		<defs>
			<rect id="SVGID_117_" width="142" height="140"/>
		</defs>
		<clipPath id="SVGID_118_">
			<use xlink:href="#SVGID_117_"  style="overflow:visible;"/>
		</clipPath>
		<path class="st64" d="M73.9,79.4h-6.2c-0.7,0-1.2-0.5-1.2-1.2v-2.4c0-0.6,0.5-1.2,1.2-1.2h6.2c0.7,0,1.2,0.5,1.2,1.2v2.4
			C75.1,78.9,74.6,79.4,73.9,79.4"/>
	</g>
	<g>
		<defs>
			<rect id="SVGID_119_" width="142" height="140"/>
		</defs>
		<clipPath id="SVGID_120_">
			<use xlink:href="#SVGID_119_"  style="overflow:visible;"/>
		</clipPath>
		<path class="st65" d="M77.3,76.2v2.4c0,1.3-1.1,2.3-2.4,2.3h-6.2c-0.5,0-1-0.2-1.4-0.5c0.1,0,0.3,0,0.4,0h6.2
			c1.3,0,2.4-1.1,2.4-2.3v-2.4c0-0.8-0.4-1.5-1-1.9C76.5,74.1,77.3,75.1,77.3,76.2"/>
	</g>
	<g>
		<defs>
			<rect id="SVGID_121_" width="142" height="140"/>
		</defs>
		<clipPath id="SVGID_122_">
			<use xlink:href="#SVGID_121_"  style="overflow:visible;"/>
		</clipPath>
		<path class="st66" d="M39.1,74.8c0,1.2-1,2.2-2.2,2.2s-2.2-1-2.2-2.2s1-2.2,2.2-2.2C38.1,72.7,39.1,73.7,39.1,74.8"/>
	</g>
	<g>
		<defs>
			<rect id="SVGID_123_" width="142" height="140"/>
		</defs>
		<clipPath id="SVGID_124_">
			<use xlink:href="#SVGID_123_"  style="overflow:visible;"/>
		</clipPath>
		<path class="st67" d="M40.5,75.5c0,1.6-1.4,3-3,3c-1.1,0-2.1-0.6-2.6-1.5c0.6,0.5,1.3,0.9,2.2,0.9c1.7,0,3.1-1.3,3.1-3
			c0-0.5-0.1-1-0.4-1.5C40.1,73.9,40.5,74.7,40.5,75.5"/>
	</g>
	<g>
		<defs>
			<rect id="SVGID_125_" width="142" height="140"/>
		</defs>
		<clipPath id="SVGID_126_">
			<use xlink:href="#SVGID_125_"  style="overflow:visible;"/>
		</clipPath>
		<path class="st68" d="M106,74.8c0,1.2-1,2.2-2.2,2.2s-2.2-1-2.2-2.2s1-2.2,2.2-2.2C105,72.7,106,73.7,106,74.8"/>
	</g>
	<g>
		<defs>
			<rect id="SVGID_127_" width="142" height="140"/>
		</defs>
		<clipPath id="SVGID_128_">
			<use xlink:href="#SVGID_127_"  style="overflow:visible;"/>
		</clipPath>
		<path class="st69" d="M107.3,75.5c0,1.6-1.4,3-3,3c-1.1,0-2.1-0.6-2.7-1.5c0.6,0.5,1.3,0.9,2.2,0.9c1.7,0,3.1-1.3,3.1-3
			c0-0.5-0.1-1-0.4-1.5C107,73.9,107.3,74.7,107.3,75.5"/>
	</g>
	<g>
		<defs>
			<rect id="SVGID_129_" width="142" height="140"/>
		</defs>
		<clipPath id="SVGID_130_">
			<use xlink:href="#SVGID_129_"  style="overflow:visible;"/>
		</clipPath>
		<path class="st70" d="M58.9,82c0.2-1.4,0.4-2.8,0.7-4.1c0.3-1.4,0.6-2.7,1-4l0.1-0.5c0.1-0.2,0.2-0.4,0.3-0.6c0.3-0.4,0.6-0.7,1-1
			c0.2-0.1,0.4-0.2,0.7-0.2c0.1,0,0.2,0,0.4-0.1c0.1,0,0.1,0,0.2,0c0.1,0,0.1,0,0.2,0h1.1c1.4,0,2.8,0,4.3,0c2.8,0,5.7,0.1,8.5,0.2
			c1.4,0.1,2.8,0.1,4.3,0.2l1.1,0.1h0.3c0.1,0,0.2,0,0.3,0.1c0.2,0.1,0.4,0.2,0.5,0.3c0.1,0.1,0.1,0.1,0.2,0.2l0.1,0.2l0.3,0.5
			l0.5,0.9l-0.6-0.8L84.1,73l-0.2-0.2c0-0.1-0.1-0.1-0.2-0.2s-0.3-0.2-0.4-0.2s-0.1,0-0.2,0h-0.3l-1.1,0.1c-1.4,0.1-2.8,0.1-4.3,0.2
			c-2.8,0.1-5.7,0.2-8.5,0.2c-1.4,0-2.8,0-4.3,0h-1.1h-0.1h-0.1c-0.1,0-0.1,0-0.2,0c-0.1,0-0.2,0.1-0.3,0.1
			c-0.2,0.1-0.4,0.3-0.5,0.5c-0.1,0.1-0.1,0.2-0.1,0.3L62,74.3c-0.4,1.3-0.9,2.6-1.4,3.9C60,79.4,59.5,80.7,58.9,82"/>
	</g>
	<g>
		<defs>
			<rect id="SVGID_131_" width="142" height="140"/>
		</defs>
		<clipPath id="SVGID_132_">
			<use xlink:href="#SVGID_131_"  style="overflow:visible;"/>
		</clipPath>
		<path class="st71" d="M114.6,76.1c-0.9-2-1.9-3.9-2.9-5.8s-1.9-3.9-2.9-5.8c-0.7-1.4-2-3.9-2.7-5.3c-0.3-0.6-0.9-0.9-1.5-0.9h-3.7
			h-4.3H88l-17.2-0.1h-8.6h-8.6H36.7c-0.5,0-1,0.3-1.2,0.7c-0.7,1.3-2.1,4.1-2.9,5.5l-3,5.8l-3,5.8l-3,5.8h1.6l2.7-5.1L31,71
			l3.1-5.7c0.7-1.4,1.8-3.5,2.4-4.6c0.2-0.5,0.7-0.7,1.2-0.7h15.8h8.6h8.6l17.2-0.1h8.6h4.3h2.9c0.6,0,1.2,0.3,1.5,0.9
			c0.6,1.2,1.7,3.2,2.4,4.5c1,1.9,2.1,3.8,3.1,5.7c1.1,1.9,2.1,3.8,3.2,5.7c1.1,1.9,2.2,3.8,3.3,5.6C116.5,80,115.6,78.1,114.6,76.1
			"/>
	</g>
	<g>
		<defs>
			<rect id="SVGID_133_" width="142" height="140"/>
		</defs>
		<clipPath id="SVGID_134_">
			<use xlink:href="#SVGID_133_"  style="overflow:visible;"/>
		</clipPath>
		<path class="st72" d="M132.9,56.6H9c-0.3,0-0.6-0.3-0.6-0.6s0.3-0.6,0.6-0.6h123.9c0.3,0,0.6,0.3,0.6,0.6S133.3,56.6,132.9,56.6"
			/>
	</g>
	<g>
		<defs>
			<rect id="SVGID_135_" width="142" height="140"/>
		</defs>
		<clipPath id="SVGID_136_">
			<use xlink:href="#SVGID_135_"  style="overflow:visible;"/>
		</clipPath>
		<path class="st73" d="M77.2,28.9c2-0.2,4.1-0.3,6.2-0.3h1.5H85h0.1c0.1,0,0.2,0,0.3,0.1c0.2,0.1,0.3,0.2,0.4,0.3
			c0.1,0.1,0.2,0.3,0.3,0.5c0.1,0.2,0.1,0.4,0.1,0.5v3c0,2,0,4,0,6v0.7v0.4v0.2c0,0.1,0,0.2,0,0.3c-0.1,0.4-0.3,0.7-0.7,0.8
			c-0.2,0.1-0.4,0.1-0.5,0.1h-0.4h-3.1l-12.3-0.1L63,41.2L56.9,41l6.2-0.1l6.2-0.1l12.3-0.1h3.1h0.4c0.1,0,0.1,0,0.2-0.1
			s0.2-0.2,0.2-0.3v-0.1V40v-0.4v-0.7c0-2,0-4,0-6v-3c0-0.1,0-0.2,0-0.3c0-0.1-0.1-0.1-0.1-0.2s-0.1-0.1-0.2-0.1h-0.1c0,0,0,0-0.1,0
			c0,0,0,0-0.1,0h-1.5C81.3,29.2,79.2,29.1,77.2,28.9"/>
	</g>
</g>
<path class="st74" d="M117.7,42.1h12.4V27.9h-12.4C117.7,27.9,117.7,42.1,117.7,42.1z M130.9,42.8H117V27.1h13.9V42.8z"/>
<rect x="118.3" y="28.3" class="st74" width="11.4" height="2.1"/>
<rect x="118.3" y="39.6" class="st74" width="11.4" height="2.1"/>
<g>
	<g>
		<defs>
			<rect id="SVGID_137_" width="142" height="140"/>
		</defs>
		<clipPath id="SVGID_138_">
			<use xlink:href="#SVGID_137_"  style="overflow:visible;"/>
		</clipPath>
		<path class="st75" d="M129,31.3c-0.2,0.3-0.5,1.5-0.5,3.6s0.3,3.3,0.5,3.6c0.2-0.3,0.5-1.5,0.5-3.6S129.2,31.6,129,31.3 M129,38.9
			c-0.9,0-1-3.4-1-4.1s0-4.1,1-4.1c0.9,0,1,3.4,1,4.1S129.9,38.9,129,38.9"/>
	</g>
</g>
<polygon class="st74" points="127.7,38.9 126.4,38.9 126.4,30.9 127.7,30.9 127.7,31.3 126.9,31.3 126.9,38.4 127.7,38.4 "/>
<rect x="126.6" y="34.6" class="st74" width="0.9" height="0.5"/>
<polygon class="st74" points="123.3,38.9 122,38.9 122,30.9 123.3,30.9 123.3,31.3 122.5,31.3 122.5,38.4 123.3,38.4 "/>
<rect x="122.3" y="34.6" class="st74" width="0.9" height="0.5"/>
<polygon class="st74" points="120.6,30.9 120.6,38.9 121.1,38.9 121.1,31.3 121.5,31.3 121.5,30.9 "/>
<g>
	<g>
		<defs>
			<rect id="SVGID_139_" width="142" height="140"/>
		</defs>
		<clipPath id="SVGID_140_">
			<use xlink:href="#SVGID_139_"  style="overflow:visible;"/>
		</clipPath>
		<path class="st76" d="M124.3,31.3h0.3c0.4,0,0.7,0.3,0.8,0.6c0.1,0.7,0.3,2.4-0.4,3.1c-0.2,0.2-0.4,0.3-0.7,0.4
			C124.3,35.4,124.3,31.3,124.3,31.3z M124.3,38.9v-2.2l1.2,2.2h0.5l-1.6-3c0.4-0.1,0.7-0.2,0.9-0.5c0.8-0.9,0.7-2.6,0.5-3.5
			c-0.1-0.6-0.6-1-1.2-1h-0.8v8H124.3z"/>
	</g>
</g>
<rect x="119.6" y="30.9" class="st74" width="1.3" height="0.5"/>
<g>
	<g>
		<defs>
			<rect id="SVGID_141_" width="142" height="140"/>
		</defs>
		<clipPath id="SVGID_142_">
			<use xlink:href="#SVGID_141_"  style="overflow:visible;"/>
		</clipPath>
		<path class="st77" d="M118.7,33.1c0-1.1,0.9-2.2,0.9-2.2H119c-0.3,0.4-0.8,1.3-0.8,2.2c0,0.7,0.4,1.5,0.8,2.3
			c0.3,0.7,0.6,1.3,0.6,1.7c0,0.6-0.7,1.3-1.3,1.8h0.7c0.5-0.5,1.1-1.2,1.1-1.8c0-0.5-0.3-1.2-0.6-1.9
			C119.1,34.4,118.7,33.7,118.7,33.1"/>
	</g>
</g>
<g class="st78">
	<path class="st79" d="M14.8,11.6c0-0.1-0.1-0.1-0.1-0.1c-0.1,0-0.1,0-0.2,0s-0.1,0-0.2,0c-0.1,0-0.1,0-0.2,0c-0.1,0-0.2,0-0.5,0
		s-0.5,0-0.7-0.1c-0.3,0-0.5,0-0.7-0.1s-0.4,0-0.5,0c0,0,0,0,0-0.1c0,0,0-0.1,0-0.1c0-0.1,0-0.1,0-0.2c0-0.1,0.1-0.1,0.2-0.1
		c0.5,0,1,0,1.4,0s1,0,1.4-0.1s1-0.1,1.4-0.1s1,0,1.4,0c0,0.2,0,0.3-0.1,0.4s-0.2,0.2-0.3,0.2c-0.1,0-0.3,0-0.5,0
		c-0.2,0-0.3,0-0.5,0c-0.2,0-0.3,0-0.4,0.1s-0.2,0.1-0.2,0.3c0,0,0,0.1,0,0.2c0,0.1,0,0.2,0,0.3c0,0.1,0,0.2,0,0.3
		c0,0.1,0,0.1,0,0.2c0,0.3,0,0.6,0.1,0.9c0.1,0.3,0.2,0.6,0.3,0.9c0.1,0.3,0.2,0.6,0.3,0.9c0.1,0.3,0.1,0.6,0.1,0.9
		c0,0.2-0.1,0.3-0.4,0.3c-0.2,0-0.3-0.1-0.4-0.3s-0.2-0.5-0.3-0.8s-0.2-0.7-0.2-1.1s-0.1-0.7-0.1-1.1c0-0.3-0.1-0.7-0.1-0.9
		C14.8,11.9,14.8,11.7,14.8,11.6z"/>
	<path class="st79" d="M19.8,9.4c0-0.1,0.1-0.1,0.1-0.2c0.1,0,0.1,0,0.2,0c0.1,0,0.3,0.1,0.4,0.2s0.3,0.4,0.5,0.6s0.3,0.6,0.5,0.9
		c0.2,0.3,0.3,0.7,0.5,1.1s0.3,0.7,0.4,1.1c0.1,0.4,0.2,0.7,0.3,1c0.1,0.3,0.2,0.6,0.2,0.8c0.1,0.2,0.1,0.4,0.1,0.5s0,0.2-0.1,0.2
		s-0.1,0.1-0.2,0.1c-0.1,0-0.1,0-0.2-0.1c0,0-0.1-0.1-0.1-0.1s-0.1-0.1-0.1-0.2c0-0.1,0-0.1-0.1-0.1c0-0.1-0.1-0.2-0.1-0.3
		c-0.1-0.2-0.1-0.3-0.2-0.5s-0.1-0.3-0.2-0.5s-0.1-0.3-0.1-0.3c-0.4-0.1-0.7-0.1-1.1-0.2s-0.8-0.1-1.2-0.2h-0.1
		c-0.2,0.8-0.4,1.4-0.5,1.9c-0.1,0.5-0.3,0.8-0.4,1c-0.1,0.2-0.2,0.3-0.2,0.2s-0.1-0.2-0.1-0.4c0-0.2,0-0.5,0-0.8s0.1-0.7,0.1-1.1
		c0.1-0.4,0.1-0.8,0.2-1.3s0.2-0.9,0.3-1.3s0.3-0.8,0.4-1.2S19.6,9.7,19.8,9.4z M19.6,12.2c0,0.2,0.1,0.3,0.2,0.4s0.3,0.1,0.5,0.2
		c0.2,0,0.4,0,0.6,0s0.4,0,0.5,0c0-0.2,0-0.4-0.1-0.7c-0.1-0.2-0.2-0.5-0.3-0.7c-0.1-0.2-0.2-0.5-0.3-0.7s-0.2-0.4-0.3-0.6
		c-0.1,0.1-0.1,0.2-0.2,0.3c-0.1,0.2-0.1,0.3-0.2,0.5c-0.1,0.2-0.1,0.4-0.2,0.6c-0.1,0.2-0.1,0.3-0.1,0.4c0,0,0,0.1,0,0.1
		C19.6,12.1,19.6,12.1,19.6,12.2z"/>
	<path class="st79" d="M23.4,10.1c0-0.2,0-0.3,0.1-0.4c0.1-0.1,0.1-0.2,0.2-0.3c0.1-0.1,0.2-0.1,0.3-0.1c0.1,0,0.3-0.1,0.4-0.1
		c0.1,0,0.3,0,0.4,0c0.1,0,0.3,0,0.4,0c0.2,0,0.4,0,0.6,0.1c0.2,0,0.4,0.1,0.6,0.2s0.3,0.2,0.4,0.4c0.1,0.2,0.2,0.4,0.2,0.7
		c0,0.2,0,0.5-0.1,0.7c-0.1,0.2-0.2,0.4-0.4,0.6c-0.1,0.2-0.3,0.4-0.5,0.6c-0.2,0.2-0.4,0.3-0.5,0.4s-0.4,0.2-0.5,0.3
		s-0.3,0.1-0.4,0.1c-0.1,0.2-0.1,0.4-0.1,0.7c0,0.2,0,0.5,0,0.7c0,0.2,0,0.4,0,0.6c0,0.2,0,0.4,0,0.5c0,0.1-0.1,0.3-0.2,0.3
		s-0.2,0.1-0.4,0.1c0-0.4-0.1-0.7-0.1-1.1s0-0.8-0.1-1.1s0-0.7,0-1.1c0-0.4,0-0.7-0.1-1s-0.1-0.6-0.1-0.9
		C23.5,10.6,23.5,10.3,23.4,10.1z M25.3,9.9c-0.1,0-0.2,0-0.3,0c-0.1,0-0.2,0-0.3,0.1c-0.1,0-0.2,0.1-0.3,0.1
		c-0.1,0.1-0.1,0.2-0.1,0.3v2c0.2,0,0.4-0.1,0.7-0.2c0.2-0.1,0.5-0.3,0.7-0.4c0.2-0.2,0.4-0.4,0.5-0.6c0.1-0.2,0.2-0.4,0.2-0.7
		c0-0.2,0-0.3-0.1-0.4c-0.1-0.1-0.1-0.2-0.2-0.2c-0.1,0-0.2-0.1-0.3-0.1C25.6,9.9,25.5,9.9,25.3,9.9z"/>
	<path class="st79" d="M27.7,10.1c0,0-0.1,0-0.1,0c0,0-0.1,0-0.2,0c-0.1,0-0.1,0-0.1-0.1s-0.1,0-0.1,0c0,0,0,0,0,0c0,0,0,0,0,0
		c0-0.1,0-0.1,0.1-0.2c0.1-0.1,0.1-0.1,0.2-0.1c0.1,0,0.1-0.1,0.2-0.1c0.1,0,0.1,0,0.2,0h0.1H28c0.1,0,0.3,0,0.5,0
		c0.2,0,0.4,0,0.6,0.1c0.2,0,0.4,0,0.7,0.1c0.2,0,0.4,0,0.6,0.1s0.3,0,0.5,0.1c0.1,0,0.2,0,0.2,0c0,0,0.1,0,0.2,0
		c0.1,0,0.1,0,0.2,0.1c0.1,0,0.1,0.1,0.2,0.1c0.1,0,0.1,0.1,0.1,0.1c0,0.1-0.1,0.1-0.1,0.2s-0.1,0.1-0.1,0.1c0,0-0.1,0-0.1,0
		s-0.1,0-0.1,0c-0.2,0-0.4,0-0.7,0c-0.2,0-0.4,0-0.7,0s-0.4,0-0.7,0c-0.2,0-0.4,0-0.7,0c0,0.1,0,0.2,0,0.4s0,0.4-0.1,0.6
		c0,0.2,0,0.4,0,0.6s0.1,0.4,0.2,0.5c0.2-0.1,0.4-0.2,0.6-0.2c0.2,0,0.4,0,0.6,0c0.1,0,0.2,0,0.3,0c0.1,0,0.3,0,0.4,0
		c0.1,0,0.2,0.1,0.3,0.2c0.1,0.1,0.1,0.2,0.1,0.3c0,0.1,0,0.2-0.1,0.2c0,0.1-0.1,0.1-0.3,0.1c0,0,0,0-0.1,0c0,0-0.1,0-0.2-0.1
		s-0.1,0-0.2-0.1s-0.1,0-0.1,0c0,0,0,0-0.1,0c0,0-0.1,0-0.1,0s-0.1,0-0.1,0c0,0-0.1,0-0.1,0c-0.1,0-0.2,0-0.3,0
		c-0.1,0-0.2,0-0.3,0.1c-0.1,0-0.1,0.1-0.2,0.2c0,0.1-0.1,0.2-0.1,0.3c0,0,0,0.1,0,0.2c0,0.1,0,0.2,0,0.4c0,0.1,0,0.3,0.1,0.4
		s0.1,0.3,0.1,0.4c0.1,0.1,0.1,0.2,0.2,0.3c0.1,0.1,0.1,0.1,0.2,0.1c0,0,0,0,0.1,0c0,0,0.1,0,0.1,0c0.2-0.1,0.4-0.3,0.5-0.4
		s0.4-0.3,0.6-0.4c0.2-0.1,0.4-0.2,0.6-0.3c0.2-0.1,0.4-0.1,0.6-0.1v0.4c0,0-0.1,0.1-0.2,0.2s-0.2,0.2-0.4,0.3s-0.3,0.3-0.6,0.4
		s-0.4,0.3-0.6,0.4s-0.4,0.2-0.6,0.3c-0.2,0.1-0.3,0.1-0.5,0.1c-0.2,0-0.3-0.1-0.5-0.2c-0.1-0.2-0.3-0.4-0.4-0.6s-0.2-0.6-0.3-0.9
		c-0.1-0.3-0.1-0.7-0.2-1.1s-0.1-0.7-0.1-1.1c0-0.4-0.1-0.7-0.1-1c0-0.3,0-0.6,0-0.8S27.7,10.2,27.7,10.1z"/>
</g>
<g class="st78">
	<path class="st79" d="M34.7,15.6c0,0,0-0.1,0-0.2c0-0.1,0-0.1,0-0.2s0-0.2,0-0.2c0-0.1,0-0.1,0-0.2c0-0.1,0-0.3,0-0.5
		c0-0.3,0-0.5,0-0.9c0-0.3,0.1-0.6,0.1-1c0-0.3,0.1-0.7,0.2-0.9c0.1-0.3,0.2-0.5,0.3-0.7s0.3-0.3,0.4-0.3c0,0,0,0,0,0c0,0,0,0,0,0
		c0,0,0,0,0,0c0,0,0.1,0,0.1,0.1c0,0,0.1,0.1,0.1,0.1v0.1v0.1c0,0,0,0.1-0.1,0.2c0,0.1-0.1,0.2-0.1,0.4c0,0.1-0.1,0.3-0.1,0.5
		s-0.1,0.3-0.1,0.5c0,0.1-0.1,0.3-0.1,0.4s0,0.2-0.1,0.2c0,0,0,0,0,0.1c0,0,0,0.1,0,0.1c0,0,0,0.1,0,0.1c0,0,0,0,0,0.1
		c0.1,0,0.2,0,0.3-0.1c0.1,0,0.2-0.1,0.3-0.1s0.2-0.1,0.3-0.1s0.2,0,0.3,0c0.3,0,0.6,0.1,0.8,0.3s0.2,0.5,0.2,0.8
		c0,0.3-0.1,0.5-0.2,0.8c-0.1,0.3-0.3,0.5-0.5,0.7c-0.2,0.2-0.4,0.4-0.7,0.5c-0.3,0.1-0.5,0.2-0.8,0.2c-0.1,0-0.2,0-0.3,0
		c-0.1,0-0.2,0-0.3-0.1c-0.1,0-0.2-0.1-0.2-0.2C34.8,15.9,34.7,15.8,34.7,15.6z M35.5,14.8c0,0.1,0,0.1,0,0.2c0,0.1,0,0.2,0.1,0.3
		s0.1,0.2,0.1,0.2c0.1,0.1,0.1,0.1,0.2,0.1c0.1,0,0.3,0,0.4-0.1s0.3-0.2,0.4-0.3s0.2-0.3,0.3-0.4c0.1-0.2,0.1-0.3,0.1-0.4
		c0-0.1,0-0.2-0.1-0.2c0,0-0.1-0.1-0.1-0.1s-0.1,0-0.2,0c-0.1,0-0.2,0-0.2,0c-0.1,0-0.3,0-0.4,0.1c-0.1,0-0.2,0.1-0.3,0.2
		c-0.1,0.1-0.2,0.2-0.2,0.3C35.5,14.5,35.5,14.6,35.5,14.8z"/>
</g>
<g class="st78">
	<path class="st79" d="M64.3,16.2c0-0.2,0-0.4,0.1-0.6c0-0.2,0.1-0.4,0.1-0.6c0-0.2,0.1-0.4,0.1-0.6s0.1-0.4,0.1-0.6v-0.2
		c0,0-0.1-0.1-0.2-0.1s-0.2-0.2-0.3-0.3c-0.1-0.1-0.2-0.2-0.3-0.3c-0.1-0.1-0.2-0.2-0.3-0.4c-0.1-0.1-0.2-0.3-0.2-0.4
		c-0.1-0.1-0.1-0.2-0.1-0.4c0,0,0-0.1,0-0.1c0,0,0-0.1,0-0.1s0-0.1,0.1-0.1c0,0,0.1,0,0.1,0c0.1,0,0.2,0,0.3,0.1
		c0.1,0.1,0.2,0.2,0.2,0.3c0.1,0.1,0.1,0.2,0.2,0.3s0.1,0.2,0.2,0.3s0.1,0.2,0.2,0.3s0.2,0.1,0.3,0.1c0.1,0,0.2,0,0.3-0.1
		c0.1-0.1,0.2-0.2,0.3-0.3c0.1-0.1,0.2-0.2,0.3-0.4c0.1-0.1,0.2-0.3,0.3-0.4c0.1-0.1,0.2-0.2,0.4-0.3c0.1-0.1,0.3-0.1,0.5-0.1
		c0,0.1,0,0.3-0.1,0.4c-0.1,0.1-0.1,0.2-0.2,0.3s-0.2,0.2-0.3,0.3c-0.1,0.1-0.2,0.2-0.3,0.3c-0.1,0.1-0.2,0.2-0.2,0.3
		s-0.1,0.3-0.1,0.4c0,0.1,0.1,0.2,0.2,0.3c0.1,0.1,0.2,0.3,0.4,0.4c0.2,0.2,0.3,0.3,0.5,0.5c0.2,0.2,0.4,0.3,0.5,0.4
		c0.2,0.1,0.3,0.3,0.4,0.3c0.1,0.1,0.2,0.2,0.2,0.2c0,0,0,0,0,0.1c0,0,0,0.1,0,0.1c0,0.1,0,0.2-0.1,0.2s-0.1,0.1-0.2,0.1
		c0,0,0,0,0,0c0,0,0,0,0,0c0,0-0.1-0.1-0.2-0.2c-0.1-0.1-0.2-0.1-0.3-0.2c-0.1-0.1-0.2-0.2-0.3-0.3s-0.2-0.2-0.3-0.3
		c-0.1-0.1-0.2-0.2-0.3-0.2c-0.1-0.1-0.1-0.1-0.2-0.2c0,0-0.1-0.1-0.2-0.2c-0.1-0.1-0.1-0.1-0.2-0.2s-0.1-0.1-0.2-0.1
		c-0.1,0-0.1-0.1-0.1,0l-0.2,0.2c0,0-0.1,0.1-0.1,0.3c0,0.2,0,0.3-0.1,0.6s0,0.4,0,0.7s0,0.5-0.1,0.6c0,0.2-0.1,0.4-0.2,0.5
		C64.9,17,64.8,17,64.7,17c-0.1,0-0.2,0-0.2-0.1c0-0.1-0.1-0.1-0.1-0.2s0-0.2,0-0.3C64.3,16.3,64.3,16.3,64.3,16.2z"/>
</g>
<g class="st78">
	<path class="st79" d="M71.5,16.2c0-0.2,0-0.4,0.1-0.6s0.1-0.4,0.1-0.6s0.1-0.4,0.1-0.6s0.1-0.4,0.1-0.6v-0.2c0,0-0.1-0.1-0.2-0.1
		s-0.2-0.2-0.3-0.3s-0.2-0.2-0.3-0.3s-0.2-0.2-0.3-0.4c-0.1-0.1-0.2-0.3-0.2-0.4c-0.1-0.1-0.1-0.2-0.1-0.4c0,0,0-0.1,0-0.1
		c0,0,0-0.1,0-0.1s0-0.1,0.1-0.1c0,0,0.1,0,0.1,0c0.1,0,0.2,0,0.3,0.1s0.2,0.2,0.2,0.3s0.1,0.2,0.2,0.3s0.1,0.2,0.2,0.3
		s0.1,0.2,0.2,0.3s0.2,0.1,0.3,0.1s0.2,0,0.3-0.1s0.2-0.2,0.3-0.3s0.2-0.2,0.3-0.4s0.2-0.3,0.3-0.4s0.2-0.2,0.4-0.3s0.3-0.1,0.5-0.1
		c0,0.1,0,0.3-0.1,0.4s-0.1,0.2-0.2,0.3s-0.2,0.2-0.3,0.3s-0.2,0.2-0.3,0.3s-0.2,0.2-0.2,0.3S73,13,73,13.2c0,0.1,0.1,0.2,0.2,0.3
		s0.2,0.3,0.4,0.4s0.3,0.3,0.5,0.5s0.4,0.3,0.5,0.4s0.3,0.3,0.4,0.3s0.2,0.2,0.2,0.2c0,0,0,0,0,0.1s0,0.1,0,0.1c0,0.1,0,0.2-0.1,0.2
		s-0.1,0.1-0.2,0.1c0,0,0,0,0,0s0,0,0,0c0,0-0.1-0.1-0.2-0.2s-0.2-0.1-0.3-0.2s-0.2-0.2-0.3-0.3s-0.2-0.2-0.3-0.3s-0.2-0.2-0.3-0.2
		s-0.1-0.1-0.2-0.2c0,0-0.1-0.1-0.2-0.2s-0.1-0.1-0.2-0.2s-0.1-0.1-0.2-0.1s-0.1-0.1-0.1,0l-0.2,0.2c0,0-0.1,0.1-0.1,0.3
		s0,0.3-0.1,0.6s0,0.4,0,0.7s0,0.5-0.1,0.6s-0.1,0.4-0.2,0.5S72,17,71.9,17c-0.1,0-0.2,0-0.2-0.1s-0.1-0.1-0.1-0.2s0-0.2,0-0.3
		S71.5,16.3,71.5,16.2z"/>
</g>
<g class="st78">
	<path class="st79" d="M78.7,16.2c0-0.2,0-0.4,0.1-0.6s0.1-0.4,0.1-0.6s0.1-0.4,0.1-0.6s0.1-0.4,0.1-0.6v-0.2c0,0-0.1-0.1-0.2-0.1
		s-0.2-0.2-0.3-0.3s-0.2-0.2-0.3-0.3s-0.2-0.2-0.3-0.4s-0.2-0.3-0.2-0.4s-0.1-0.2-0.1-0.4c0,0,0-0.1,0-0.1s0-0.1,0-0.1
		s0-0.1,0.1-0.1s0.1,0,0.1,0c0.1,0,0.2,0,0.3,0.1s0.2,0.2,0.2,0.3s0.1,0.2,0.2,0.3s0.1,0.2,0.2,0.3s0.1,0.2,0.2,0.3s0.2,0.1,0.3,0.1
		s0.2,0,0.3-0.1s0.2-0.2,0.3-0.3s0.2-0.2,0.3-0.4s0.2-0.3,0.3-0.4s0.2-0.2,0.4-0.3s0.3-0.1,0.5-0.1c0,0.1,0,0.3-0.1,0.4
		s-0.1,0.2-0.2,0.3S81,12,80.9,12.1s-0.2,0.2-0.3,0.3s-0.2,0.2-0.2,0.3s-0.1,0.3-0.1,0.4c0,0.1,0.1,0.2,0.2,0.3s0.2,0.3,0.4,0.4
		s0.3,0.3,0.5,0.5s0.4,0.3,0.5,0.4s0.3,0.3,0.4,0.3s0.2,0.2,0.2,0.2c0,0,0,0,0,0.1s0,0.1,0,0.1c0,0.1,0,0.2-0.1,0.2
		s-0.1,0.1-0.2,0.1c0,0,0,0,0,0s0,0,0,0c0,0-0.1-0.1-0.2-0.2s-0.2-0.1-0.3-0.2s-0.2-0.2-0.3-0.3S81.1,15,81,14.9s-0.2-0.2-0.3-0.2
		s-0.1-0.1-0.2-0.2c0,0-0.1-0.1-0.2-0.2s-0.1-0.1-0.2-0.2S80.1,14.1,80,14s-0.1-0.1-0.1,0l-0.2,0.2c0,0-0.1,0.1-0.1,0.3
		s0,0.3-0.1,0.6s0,0.4,0,0.7s0,0.5-0.1,0.6s-0.1,0.4-0.2,0.5S79.2,17,79.1,17c-0.1,0-0.2,0-0.2-0.1s-0.1-0.1-0.1-0.2s0-0.2,0-0.3
		S78.7,16.3,78.7,16.2z"/>
</g>
<g class="st78">
	<path class="st79" d="M85.9,16.2c0-0.2,0-0.4,0.1-0.6c0-0.2,0.1-0.4,0.1-0.6c0-0.2,0.1-0.4,0.1-0.6s0.1-0.4,0.1-0.6v-0.2
		c0,0-0.1-0.1-0.2-0.1s-0.2-0.2-0.3-0.3c-0.1-0.1-0.2-0.2-0.3-0.3c-0.1-0.1-0.2-0.2-0.3-0.4c-0.1-0.1-0.2-0.3-0.2-0.4
		c-0.1-0.1-0.1-0.2-0.1-0.4c0,0,0-0.1,0-0.1c0,0,0-0.1,0-0.1s0-0.1,0.1-0.1c0,0,0.1,0,0.1,0c0.1,0,0.2,0,0.3,0.1
		c0.1,0.1,0.2,0.2,0.2,0.3c0.1,0.1,0.1,0.2,0.2,0.3s0.1,0.2,0.2,0.3s0.1,0.2,0.2,0.3s0.2,0.1,0.3,0.1c0.1,0,0.2,0,0.3-0.1
		c0.1-0.1,0.2-0.2,0.3-0.3c0.1-0.1,0.2-0.2,0.3-0.4c0.1-0.1,0.2-0.3,0.3-0.4c0.1-0.1,0.2-0.2,0.4-0.3c0.1-0.1,0.3-0.1,0.5-0.1
		c0,0.1,0,0.3-0.1,0.4c-0.1,0.1-0.1,0.2-0.2,0.3s-0.2,0.2-0.3,0.3c-0.1,0.1-0.2,0.2-0.3,0.3c-0.1,0.1-0.2,0.2-0.2,0.3
		s-0.1,0.3-0.1,0.4c0,0.1,0.1,0.2,0.2,0.3c0.1,0.1,0.2,0.3,0.4,0.4c0.2,0.2,0.3,0.3,0.5,0.5c0.2,0.2,0.4,0.3,0.5,0.4
		c0.2,0.1,0.3,0.3,0.4,0.3c0.1,0.1,0.2,0.2,0.2,0.2c0,0,0,0,0,0.1c0,0,0,0.1,0,0.1c0,0.1,0,0.2-0.1,0.2s-0.1,0.1-0.2,0.1
		c0,0,0,0,0,0c0,0,0,0,0,0c0,0-0.1-0.1-0.2-0.2c-0.1-0.1-0.2-0.1-0.3-0.2c-0.1-0.1-0.2-0.2-0.3-0.3s-0.2-0.2-0.3-0.3
		c-0.1-0.1-0.2-0.2-0.3-0.2c-0.1-0.1-0.1-0.1-0.2-0.2c0,0-0.1-0.1-0.2-0.2c-0.1-0.1-0.1-0.1-0.2-0.2s-0.1-0.1-0.2-0.1
		c-0.1,0-0.1-0.1-0.1,0L87,14.2c0,0-0.1,0.1-0.1,0.3c0,0.2,0,0.3-0.1,0.6s0,0.4,0,0.7s0,0.5-0.1,0.6c0,0.2-0.1,0.4-0.2,0.5
		C86.5,17,86.4,17,86.3,17c-0.1,0-0.2,0-0.2-0.1c0-0.1-0.1-0.1-0.1-0.2s0-0.2,0-0.3C85.9,16.3,85.9,16.3,85.9,16.2z"/>
</g>
<g class="st78">
	<path class="st79" d="M93,16.2c0-0.2,0-0.4,0.1-0.6s0.1-0.4,0.1-0.6s0.1-0.4,0.1-0.6s0.1-0.4,0.1-0.6v-0.2c0,0-0.1-0.1-0.2-0.1
		s-0.2-0.2-0.3-0.3s-0.2-0.2-0.3-0.3s-0.2-0.2-0.3-0.4s-0.2-0.3-0.2-0.4S92,11.8,92,11.6c0,0,0-0.1,0-0.1s0-0.1,0-0.1s0-0.1,0.1-0.1
		s0.1,0,0.1,0c0.1,0,0.2,0,0.3,0.1s0.2,0.2,0.2,0.3s0.1,0.2,0.2,0.3s0.1,0.2,0.2,0.3s0.1,0.2,0.2,0.3s0.2,0.1,0.3,0.1s0.2,0,0.3-0.1
		s0.2-0.2,0.3-0.3s0.2-0.2,0.3-0.4s0.2-0.3,0.3-0.4s0.2-0.2,0.4-0.3s0.3-0.1,0.5-0.1c0,0.1,0,0.3-0.1,0.4s-0.1,0.2-0.2,0.3
		s-0.2,0.2-0.3,0.3s-0.2,0.2-0.3,0.3s-0.2,0.2-0.2,0.3s-0.1,0.3-0.1,0.4c0,0.1,0.1,0.2,0.2,0.3s0.2,0.3,0.4,0.4s0.3,0.3,0.5,0.5
		s0.4,0.3,0.5,0.4s0.3,0.3,0.4,0.3s0.2,0.2,0.2,0.2c0,0,0,0,0,0.1s0,0.1,0,0.1c0,0.1,0,0.2-0.1,0.2s-0.1,0.1-0.2,0.1c0,0,0,0,0,0
		s0,0,0,0c0,0-0.1-0.1-0.2-0.2s-0.2-0.1-0.3-0.2s-0.2-0.2-0.3-0.3s-0.2-0.2-0.3-0.3s-0.2-0.2-0.3-0.2s-0.1-0.1-0.2-0.2
		c0,0-0.1-0.1-0.2-0.2s-0.1-0.1-0.2-0.2s-0.1-0.1-0.2-0.1s-0.1-0.1-0.1,0l-0.2,0.2c0,0-0.1,0.1-0.1,0.3s0,0.3-0.1,0.6s0,0.4,0,0.7
		s0,0.5-0.1,0.6s-0.1,0.4-0.2,0.5S93.5,17,93.4,17c-0.1,0-0.2,0-0.2-0.1s-0.1-0.1-0.1-0.2s0-0.2,0-0.3S93,16.3,93,16.2z"/>
</g>
<g class="st78">
	<path class="st79" d="M100.2,16.2c0-0.2,0-0.4,0.1-0.6s0.1-0.4,0.1-0.6s0.1-0.4,0.1-0.6s0.1-0.4,0.1-0.6v-0.2c0,0-0.1-0.1-0.2-0.1
		s-0.2-0.2-0.3-0.3s-0.2-0.2-0.3-0.3s-0.2-0.2-0.3-0.4s-0.2-0.3-0.2-0.4s-0.1-0.2-0.1-0.4c0,0,0-0.1,0-0.1s0-0.1,0-0.1
		s0-0.1,0.1-0.1s0.1,0,0.1,0c0.1,0,0.2,0,0.3,0.1s0.2,0.2,0.2,0.3s0.1,0.2,0.2,0.3s0.1,0.2,0.2,0.3s0.1,0.2,0.2,0.3s0.2,0.1,0.3,0.1
		s0.2,0,0.3-0.1s0.2-0.2,0.3-0.3s0.2-0.2,0.3-0.4s0.2-0.3,0.3-0.4s0.2-0.2,0.4-0.3s0.3-0.1,0.5-0.1c0,0.1,0,0.3-0.1,0.4
		s-0.1,0.2-0.2,0.3s-0.2,0.2-0.3,0.3s-0.2,0.2-0.3,0.3s-0.2,0.2-0.2,0.3s-0.1,0.3-0.1,0.4c0,0.1,0.1,0.2,0.2,0.3s0.2,0.3,0.4,0.4
		s0.3,0.3,0.5,0.5s0.4,0.3,0.5,0.4s0.3,0.3,0.4,0.3s0.2,0.2,0.2,0.2c0,0,0,0,0,0.1s0,0.1,0,0.1c0,0.1,0,0.2-0.1,0.2
		s-0.1,0.1-0.2,0.1c0,0,0,0,0,0s0,0,0,0c0,0-0.1-0.1-0.2-0.2s-0.2-0.1-0.3-0.2s-0.2-0.2-0.3-0.3s-0.2-0.2-0.3-0.3s-0.2-0.2-0.3-0.2
		s-0.1-0.1-0.2-0.2c0,0-0.1-0.1-0.2-0.2s-0.1-0.1-0.2-0.2s-0.1-0.1-0.2-0.1s-0.1-0.1-0.1,0l-0.2,0.2c0,0-0.1,0.1-0.1,0.3
		s0,0.3-0.1,0.6s0,0.4,0,0.7s0,0.5-0.1,0.6s-0.1,0.4-0.2,0.5s-0.2,0.2-0.3,0.2c-0.1,0-0.2,0-0.2-0.1s-0.1-0.1-0.1-0.2s0-0.2,0-0.3
		S100.2,16.3,100.2,16.2z"/>
</g>
<g class="st78">
	<path class="st79" d="M107.4,16.2c0-0.2,0-0.4,0.1-0.6c0-0.2,0.1-0.4,0.1-0.6c0-0.2,0.1-0.4,0.1-0.6s0.1-0.4,0.1-0.6v-0.2
		c0,0-0.1-0.1-0.2-0.1s-0.2-0.2-0.3-0.3c-0.1-0.1-0.2-0.2-0.3-0.3c-0.1-0.1-0.2-0.2-0.3-0.4c-0.1-0.1-0.2-0.3-0.2-0.4
		c-0.1-0.1-0.1-0.2-0.1-0.4c0,0,0-0.1,0-0.1c0,0,0-0.1,0-0.1s0-0.1,0.1-0.1c0,0,0.1,0,0.1,0c0.1,0,0.2,0,0.3,0.1
		c0.1,0.1,0.2,0.2,0.2,0.3c0.1,0.1,0.1,0.2,0.2,0.3s0.1,0.2,0.2,0.3s0.1,0.2,0.2,0.3s0.2,0.1,0.3,0.1c0.1,0,0.2,0,0.3-0.1
		c0.1-0.1,0.2-0.2,0.3-0.3c0.1-0.1,0.2-0.2,0.3-0.4c0.1-0.1,0.2-0.3,0.3-0.4c0.1-0.1,0.2-0.2,0.4-0.3c0.1-0.1,0.3-0.1,0.5-0.1
		c0,0.1,0,0.3-0.1,0.4c-0.1,0.1-0.1,0.2-0.2,0.3s-0.2,0.2-0.3,0.3c-0.1,0.1-0.2,0.2-0.3,0.3c-0.1,0.1-0.2,0.2-0.2,0.3
		s-0.1,0.3-0.1,0.4c0,0.1,0.1,0.2,0.2,0.3c0.1,0.1,0.2,0.3,0.4,0.4c0.2,0.2,0.3,0.3,0.5,0.5c0.2,0.2,0.4,0.3,0.5,0.4
		c0.2,0.1,0.3,0.3,0.4,0.3c0.1,0.1,0.2,0.2,0.2,0.2c0,0,0,0,0,0.1c0,0,0,0.1,0,0.1c0,0.1,0,0.2-0.1,0.2s-0.1,0.1-0.2,0.1
		c0,0,0,0,0,0c0,0,0,0,0,0c0,0-0.1-0.1-0.2-0.2c-0.1-0.1-0.2-0.1-0.3-0.2c-0.1-0.1-0.2-0.2-0.3-0.3s-0.2-0.2-0.3-0.3
		c-0.1-0.1-0.2-0.2-0.3-0.2c-0.1-0.1-0.1-0.1-0.2-0.2c0,0-0.1-0.1-0.2-0.2c-0.1-0.1-0.1-0.1-0.2-0.2s-0.1-0.1-0.2-0.1
		c-0.1,0-0.1-0.1-0.1,0l-0.2,0.2c0,0-0.1,0.1-0.1,0.3c0,0.2,0,0.3-0.1,0.6s0,0.4,0,0.7s0,0.5-0.1,0.6c0,0.2-0.1,0.4-0.2,0.5
		c-0.1,0.1-0.2,0.2-0.3,0.2c-0.1,0-0.2,0-0.2-0.1c0-0.1-0.1-0.1-0.1-0.2s0-0.2,0-0.3C107.4,16.3,107.4,16.3,107.4,16.2z"/>
</g>
<g class="st78">
	<path class="st80" d="M24.1,28.4h-9.6v6.9h9.6V38h-9.7c-0.7,0-1.3-0.2-1.8-0.7c-0.5-0.5-0.7-1.1-0.7-1.8v-7.2
		c0-0.7,0.2-1.3,0.7-1.8c0.5-0.5,1.1-0.7,1.8-0.7h9.7V28.4z"/>
</g>
<g class="st78">
	<path class="st80" d="M14.9,40.9c-0.6-0.1-1-0.1-1.2-0.1c-0.3,0-0.4,0-0.4,0c0,0-0.1,0-0.1,0.1s0,0.1,0.1,0.1c0,0,0.2,0.1,0.5,0.1
		s0.5,0.1,0.6,0.2s0.3,0.1,0.4,0.2c0.1,0.1,0.2,0.2,0.3,0.4c0,0.1,0.1,0.3,0.1,0.6c0,0.5-0.1,0.8-0.4,1.1c-0.3,0.2-0.7,0.3-1.2,0.3
		c-0.3,0-0.5,0-0.8-0.1c-0.3,0-0.5-0.1-0.7-0.1l-0.2-0.1l0.1-1.1c0.6,0.1,1.1,0.1,1.5,0.1c0.2,0,0.3,0,0.3-0.1c0,0,0-0.1-0.1-0.1
		c0,0-0.2,0-0.4-0.1c-0.6-0.1-0.9-0.2-1.1-0.4c-0.2-0.2-0.3-0.5-0.3-0.9c0-0.5,0.1-0.9,0.4-1.1c0.3-0.2,0.7-0.3,1.2-0.3
		c0.4,0,0.8,0,1.3,0.1l0.3,0L14.9,40.9z"/>
	<path class="st80" d="M15.3,43.8v-4h1.4v4H15.3z"/>
	<path class="st80" d="M18.8,43.8H17v-4h1.7c0.7,0,1.2,0.2,1.5,0.5c0.3,0.3,0.5,0.8,0.5,1.5c0,0.7-0.1,1.2-0.4,1.5
		C19.9,43.6,19.5,43.8,18.8,43.8z M19.3,41.8c0-0.4,0-0.6-0.1-0.7s-0.2-0.2-0.5-0.2h-0.2v1.8h0.2c0.2,0,0.4-0.1,0.5-0.2
		C19.2,42.4,19.3,42.2,19.3,41.8z"/>
</g>
<g class="st78">
	<path class="st80" d="M21.1,43.8v-4h3v1.1h-1.6v0.3h1.3v1.1h-1.3v0.4h1.6v1.1H21.1z"/>
</g>
</svg>
