<?xml version="1.0" encoding="utf-8"?>
<!-- Generator: Adobe Illustrator 23.0.0, SVG Export Plug-In . SVG Version: 6.00 Build 0)  -->
<svg version="1.1" id="Ebene_1" xmlns="http://www.w3.org/2000/svg" xmlns:xlink="http://www.w3.org/1999/xlink" x="0px" y="0px"
	 viewBox="0 0 142 86" style="enable-background:new 0 0 142 86;" xml:space="preserve">
<style type="text/css">
	.st0{clip-path:url(#SVGID_2_);fill:url(#SVGID_3_);}
	.st1{clip-path:url(#SVGID_5_);fill:none;stroke:#181716;stroke-linejoin:round;stroke-miterlimit:10;}
	.st2{clip-path:url(#SVGID_7_);fill:#FFFFFF;}
	.st3{clip-path:url(#SVGID_9_);fill:#181716;}
	.st4{fill:#9C9C9C;}
	.st5{fill:#B1B2B3;}
	.st6{fill:#C5C6C6;}
	.st7{fill:#D9DADA;}
	.st8{fill:#828282;}
	.st9{clip-path:url(#SVGID_11_);fill:#212121;}
	.st10{clip-path:url(#SVGID_13_);fill:#181716;}
	.st11{clip-path:url(#SVGID_15_);fill:#181716;}
	.st12{clip-path:url(#SVGID_17_);fill:#FFFFFF;}
	.st13{clip-path:url(#SVGID_19_);fill:#FFFFFF;}
	.st14{clip-path:url(#SVGID_21_);fill:#FFFFFF;}
	.st15{clip-path:url(#SVGID_23_);fill:#B1B2B3;}
	.st16{clip-path:url(#SVGID_25_);fill:#181716;}
	.st17{clip-path:url(#SVGID_27_);fill:#181716;}
	.st18{clip-path:url(#SVGID_29_);fill:#B1B2B3;}
	.st19{clip-path:url(#SVGID_31_);fill:#B1B2B3;}
	.st20{clip-path:url(#SVGID_33_);fill:#181716;}
	.st21{clip-path:url(#SVGID_35_);fill:#181716;}
	.st22{clip-path:url(#SVGID_37_);fill:#FFFFFF;}
	.st23{clip-path:url(#SVGID_39_);fill:#FFFFFF;}
	.st24{clip-path:url(#SVGID_41_);fill:#181716;}
	.st25{clip-path:url(#SVGID_43_);fill:#181716;}
	.st26{clip-path:url(#SVGID_45_);fill:#B1B2B3;}
	.st27{clip-path:url(#SVGID_47_);fill:#B1B2B3;}
	.st28{clip-path:url(#SVGID_49_);fill:#181716;}
	.st29{clip-path:url(#SVGID_51_);fill:#181716;}
	.st30{clip-path:url(#SVGID_53_);fill:#B1B2B3;}
	.st31{clip-path:url(#SVGID_55_);fill:#565655;}
	.st32{fill:#565655;}
	.st33{clip-path:url(#SVGID_57_);fill:#181716;}
	.st34{clip-path:url(#SVGID_59_);fill:#565655;}
	.st35{clip-path:url(#SVGID_61_);fill:#181716;}
	.st36{clip-path:url(#SVGID_63_);fill:#3A3A39;}
	.st37{clip-path:url(#SVGID_65_);fill:#565655;}
	.st38{clip-path:url(#SVGID_67_);fill:#868786;}
	.st39{clip-path:url(#SVGID_69_);fill:#868786;}
	.st40{clip-path:url(#SVGID_71_);fill:#FFFFFF;}
	.st41{clip-path:url(#SVGID_73_);fill:#FFFFFF;}
	.st42{clip-path:url(#SVGID_75_);fill:#FFFFFF;}
	.st43{clip-path:url(#SVGID_77_);fill:#FFFFFF;}
	.st44{clip-path:url(#SVGID_79_);fill:#FFFFFF;}
	.st45{clip-path:url(#SVGID_81_);fill:#FFFFFF;}
	.st46{clip-path:url(#SVGID_83_);fill:#FFFFFF;}
	.st47{clip-path:url(#SVGID_85_);fill:#FFFFFF;}
	.st48{clip-path:url(#SVGID_87_);fill:#FFFFFF;}
	.st49{clip-path:url(#SVGID_89_);fill:#FFFFFF;}
	.st50{clip-path:url(#SVGID_91_);fill:#FFFFFF;}
	.st51{clip-path:url(#SVGID_93_);fill:#FFFFFF;}
	.st52{clip-path:url(#SVGID_95_);fill:#B1B2B3;}
	.st53{clip-path:url(#SVGID_97_);fill:#181716;}
	.st54{clip-path:url(#SVGID_99_);fill:#181716;}
	.st55{clip-path:url(#SVGID_101_);fill:#B1B2B3;}
	.st56{clip-path:url(#SVGID_103_);fill:#FFFFFF;}
	.st57{clip-path:url(#SVGID_105_);fill:#FFFFFF;}
	.st58{clip-path:url(#SVGID_107_);fill:#FFFFFF;}
	.st59{clip-path:url(#SVGID_109_);fill:#FFFFFF;}
	.st60{clip-path:url(#SVGID_111_);fill:#FFFFFF;}
	.st61{clip-path:url(#SVGID_113_);fill:#FFFFFF;}
	.st62{clip-path:url(#SVGID_115_);fill:#FFFFFF;}
	.st63{clip-path:url(#SVGID_117_);fill:#FFFFFF;}
	.st64{clip-path:url(#SVGID_119_);fill:#FFFFFF;}
	.st65{clip-path:url(#SVGID_121_);fill:#FFFFFF;}
	.st66{clip-path:url(#SVGID_123_);fill:#FFFFFF;}
	.st67{clip-path:url(#SVGID_125_);fill:#FFFFFF;}
	.st68{clip-path:url(#SVGID_127_);fill:#FFFFFF;}
	.st69{clip-path:url(#SVGID_129_);fill:#FFFFFF;}
	.st70{fill:#6E6E6E;}
	.st71{clip-path:url(#SVGID_131_);fill:#6E6E6E;}
	.st72{clip-path:url(#SVGID_133_);fill:#6E6E6E;}
	.st73{clip-path:url(#SVGID_135_);fill:#6E6E6E;}
	.st74{enable-background:new    ;}
	.st75{fill:#484847;}
	.st76{fill:#868786;}
</style>
<g>
	<g>
		<g>
			<defs>
				<path id="SVGID_1_" d="M58.7,39.5c-0.1-0.1-0.1-0.3-0.1-0.5c0.6-1.7,0.9-3.5,0.9-5.4c0-1.8-0.3-3.6-0.9-5.2
					c-0.1-0.2,0-0.3,0.1-0.5c0.1-0.1,0.2-0.2,0.4-0.2h16c0.2,0,0.3,0.1,0.4,0.2s0.1,0.3,0.1,0.5c-0.6,1.7-0.9,3.5-0.9,5.2
					c0,1.8,0.3,3.6,0.9,5.4c0.1,0.2,0,0.3-0.1,0.5c-0.1,0.1-0.2,0.2-0.4,0.2h-16C58.9,39.7,58.8,39.7,58.7,39.5 M32.1,33.4
					c0-4,3.4-7.2,7.6-7.2s7.6,3.2,7.6,7.2s-3.4,7.2-7.6,7.2C35.5,40.6,32.1,37.4,32.1,33.4 M92.9,33.4c0-4,3.4-7.2,7.6-7.2
					s7.6,3.2,7.6,7.2s-3.4,7.2-7.6,7.2C96.3,40.6,92.9,37.4,92.9,33.4 M7.7,0.5c-2.9,0-5.2,2.2-5.2,4.9v45.4H2.3
					c-1.5,0-2.8,1.2-2.8,2.7v21.2c0,1.5,1.3,2.7,2.8,2.7h0.2v0.3c0,2.7,2.3,4.9,5.2,4.9h16.7l4,1.8c1.8,0.8,3.7,1.2,5.7,1.2h73.5
					c1.9,0,3.9-0.4,5.7-1.2l4.2-1.8h16.9c2.9,0,5.2-2.2,5.2-4.9v-0.3h0.2c1.5,0,2.8-1.2,2.8-2.7V53.5c0-1.5-1.3-2.7-2.8-2.7h-0.2
					V5.4c0-2.7-2.3-4.9-5.2-4.9H7.7z"/>
			</defs>
			<clipPath id="SVGID_2_">
				<use xlink:href="#SVGID_1_"  style="overflow:visible;"/>
			</clipPath>
			
				<linearGradient id="SVGID_3_" gradientUnits="userSpaceOnUse" x1="1.0131" y1="-1.0085" x2="2.0131" y2="-1.0085" gradientTransform="matrix(-72.4704 -123.5227 123.5227 -72.4704 305.2267 156.8199)">
				<stop  offset="0" style="stop-color:#FF00FF"/>
				<stop  offset="0.978" style="stop-color:#8C94FF"/>
				<stop  offset="1" style="stop-color:#8C94FF"/>
			</linearGradient>
			<polygon class="st0" points="36.1,147.9 -37.6,22.3 105.9,-61.9 179.6,63.7 			"/>
		</g>
	</g>
	<g>
		<g>
			<defs>
				<rect id="SVGID_4_" x="-1" width="144" height="86"/>
			</defs>
			<clipPath id="SVGID_5_">
				<use xlink:href="#SVGID_4_"  style="overflow:visible;"/>
			</clipPath>
			<path class="st1" d="M100.5,40.6c-4.2,0-7.6-3.2-7.6-7.2s3.4-7.2,7.6-7.2s7.6,3.2,7.6,7.2S104.7,40.6,100.5,40.6z M58.6,39.1
				c0.6-1.7,0.9-3.5,0.9-5.4c0-1.8-0.3-3.6-0.9-5.2c-0.1-0.2,0-0.3,0.1-0.5c0.1-0.1,0.2-0.2,0.4-0.2h16c0.2,0,0.3,0.1,0.4,0.2
				s0.1,0.3,0.1,0.5c-0.6,1.7-0.9,3.4-0.9,5.2c0,1.8,0.3,3.6,0.9,5.4c0.1,0.2,0,0.3-0.1,0.5c-0.1,0.1-0.2,0.2-0.4,0.2h-16
				c-0.2,0-0.3-0.1-0.4-0.2C58.6,39.4,58.6,39.2,58.6,39.1z M39.7,40.6c-4.2,0-7.6-3.2-7.6-7.2s3.4-7.2,7.6-7.2s7.6,3.2,7.6,7.2
				C47.4,37.4,43.9,40.6,39.7,40.6z M139.7,50.8h-0.2V5.4c0-2.7-2.3-4.9-5.2-4.9H7.7c-2.9,0-5.2,2.2-5.2,4.9v45.4H2.3
				c-1.5,0-2.8,1.2-2.8,2.7v21.2c0,1.5,1.3,2.7,2.8,2.7h0.2v0.3c0,2.7,2.3,4.9,5.2,4.9h16.7l4,1.8c1.8,0.8,3.7,1.2,5.7,1.2h73.5
				c1.9,0,3.9-0.4,5.7-1.2l4.2-1.8h16.9c2.9,0,5.2-2.2,5.2-4.9v-0.3h0.2c1.5,0,2.8-1.2,2.8-2.7V53.5C142.5,52,141.2,50.8,139.7,50.8
				z"/>
		</g>
		<g>
			<defs>
				<rect id="SVGID_6_" x="-1" width="144" height="86"/>
			</defs>
			<clipPath id="SVGID_7_">
				<use xlink:href="#SVGID_6_"  style="overflow:visible;"/>
			</clipPath>
			<path class="st2" d="M100.5,40.1c-3.9,0-7.1-3-7.1-6.7s3.2-6.7,7.1-6.7s7.1,3,7.1,6.7S104.4,40.1,100.5,40.1 M59,39.2
				c0.6-1.7,0.9-3.6,0.9-5.5c0-1.9-0.3-3.7-0.9-5.4h16c-0.6,1.7-0.9,3.5-0.9,5.4c0,1.9,0.3,3.8,0.9,5.5H59z M39.6,40.1
				c-3.9,0-7.1-3-7.1-6.7s3.2-6.7,7.1-6.7s7.1,3,7.1,6.7C46.7,37.1,43.5,40.1,39.6,40.1 M127.8,5.8H14.1l-5.9,5.5v40.9h125.5V11.3
				L127.8,5.8z"/>
		</g>
		<g>
			<defs>
				<rect id="SVGID_8_" x="-1" width="144" height="86"/>
			</defs>
			<clipPath id="SVGID_9_">
				<use xlink:href="#SVGID_8_"  style="overflow:visible;"/>
			</clipPath>
			<path class="st3" d="M59.5,38.9h15.1c-0.5-1.7-0.8-3.4-0.8-5.2c0-1.7,0.3-3.4,0.8-5h-15c0.5,1.6,0.8,3.3,0.8,5
				C60.3,35.5,60,37.2,59.5,38.9 M75.6,39.6H58.5l0.2-0.5c0.6-1.7,0.9-3.6,0.9-5.4c0-1.8-0.3-3.6-0.9-5.3l-0.2-0.5h17.1l-0.2,0.5
				c-0.6,1.7-0.9,3.5-0.9,5.3c0,1.9,0.3,3.7,0.9,5.4L75.6,39.6z M39.6,27.1c-3.7,0-6.8,2.8-6.8,6.3s3,6.4,6.8,6.4
				c3.7,0,6.8-2.8,6.8-6.4S43.3,27.1,39.6,27.1 M39.6,40.5c-4.1,0-7.5-3.2-7.5-7.1s3.4-7.1,7.5-7.1s7.5,3.2,7.5,7.1
				S43.8,40.5,39.6,40.5 M100.5,27.1c-3.7,0-6.8,2.8-6.8,6.3s3,6.4,6.8,6.4s6.8-2.8,6.8-6.4S104.2,27.1,100.5,27.1 M100.5,40.5
				c-4.1,0-7.5-3.2-7.5-7.1s3.4-7.1,7.5-7.1s7.5,3.2,7.5,7.1S104.6,40.5,100.5,40.5 M8.5,51.9h124.8V11.5l-5.7-5.3H14.3l-5.7,5.3
				v40.4H8.5z M134.1,52.6H7.8V11.2L14,5.5h114l6.2,5.7L134.1,52.6L134.1,52.6z"/>
		</g>
	</g>
	<polygon class="st4" points="14.2,5.8 8.3,11.3 8.2,20.1 37.6,19.8 44.6,5.9 	"/>
	<polygon class="st5" points="40.4,19.5 47.2,5.8 45.6,5.8 38.8,19.5 	"/>
	<polygon class="st6" points="42.3,19.5 49,5.8 48.2,5.8 41.5,19.5 	"/>
	<polygon class="st7" points="44,19.5 50.7,5.8 49.9,5.8 43.1,19.5 	"/>
	
		<rect x="8.2" y="19.1" transform="matrix(0.9999 -1.081093e-02 1.081093e-02 0.9999 -0.2072 0.7681)" class="st8" width="125.5" height="0.9"/>
	<g>
		<g>
			<defs>
				<rect id="SVGID_10_" x="-1" width="144" height="86"/>
			</defs>
			<clipPath id="SVGID_11_">
				<use xlink:href="#SVGID_10_"  style="overflow:visible;"/>
			</clipPath>
			<path class="st9" d="M59.5,38.9h15.1c-0.5-1.7-0.8-3.4-0.8-5.2c0-1.7,0.3-3.4,0.8-5h-15c0.5,1.6,0.8,3.3,0.8,5
				C60.3,35.5,60,37.2,59.5,38.9 M75.6,39.6H58.5l0.2-0.5c0.6-1.7,0.9-3.6,0.9-5.4c0-1.8-0.3-3.6-0.9-5.3l-0.2-0.5h17.1l-0.2,0.5
				c-0.6,1.7-0.9,3.5-0.9,5.3c0,1.9,0.3,3.7,0.9,5.4L75.6,39.6z M39.6,27.1c-3.7,0-6.8,2.8-6.8,6.3s3,6.4,6.8,6.4
				c3.7,0,6.8-2.8,6.8-6.4S43.3,27.1,39.6,27.1 M39.6,40.5c-4.1,0-7.5-3.2-7.5-7.1s3.4-7.1,7.5-7.1s7.5,3.2,7.5,7.1
				S43.8,40.5,39.6,40.5 M100.5,27.1c-3.7,0-6.8,2.8-6.8,6.3s3,6.4,6.8,6.4s6.8-2.8,6.8-6.4S104.2,27.1,100.5,27.1 M100.5,40.5
				c-4.1,0-7.5-3.2-7.5-7.1s3.4-7.1,7.5-7.1s7.5,3.2,7.5,7.1S104.6,40.5,100.5,40.5 M8.5,51.9h124.8V11.5l-5.7-5.3H14.3l-5.7,5.3
				v40.4H8.5z M134.1,52.6H7.8V11.2L14,5.5h114l6.2,5.7L134.1,52.6L134.1,52.6z"/>
		</g>
		<g>
			<defs>
				<rect id="SVGID_12_" x="-1" width="144" height="86"/>
			</defs>
			<clipPath id="SVGID_13_">
				<use xlink:href="#SVGID_12_"  style="overflow:visible;"/>
			</clipPath>
			<path class="st10" d="M39.7,27.2c-3.7,0-6.6,2.8-6.6,6.2s3,6.2,6.6,6.2c3.7,0,6.6-2.8,6.6-6.2S43.4,27.2,39.7,27.2 M39.7,40.6
				c-4.2,0-7.6-3.2-7.6-7.2s3.4-7.2,7.6-7.2s7.6,3.2,7.6,7.2S43.9,40.6,39.7,40.6"/>
		</g>
		<g>
			<defs>
				<rect id="SVGID_14_" x="-1" width="144" height="86"/>
			</defs>
			<clipPath id="SVGID_15_">
				<use xlink:href="#SVGID_14_"  style="overflow:visible;"/>
			</clipPath>
			<path class="st11" d="M100.5,27.2c-3.7,0-6.6,2.8-6.6,6.2s3,6.2,6.6,6.2c3.7,0,6.6-2.8,6.6-6.2S104.2,27.2,100.5,27.2
				 M100.5,40.6c-4.2,0-7.6-3.2-7.6-7.2s3.4-7.2,7.6-7.2s7.6,3.2,7.6,7.2S104.7,40.6,100.5,40.6"/>
		</g>
		<g>
			<defs>
				<rect id="SVGID_16_" x="-1" width="144" height="86"/>
			</defs>
			<clipPath id="SVGID_17_">
				<use xlink:href="#SVGID_16_"  style="overflow:visible;"/>
			</clipPath>
			<path class="st12" d="M138,5.4v72.3l-0.1-2.3l-0.1-2.3l-0.2-4.5l-0.2-9l-0.1-2.3V55l-0.1-4.5v-9v-9c0-3,0-6,0.1-9l0.2-9l0.2-4.5
				l0.1-2.3L138,5.4z"/>
		</g>
		<g>
			<defs>
				<rect id="SVGID_18_" x="-1" width="144" height="86"/>
			</defs>
			<clipPath id="SVGID_19_">
				<use xlink:href="#SVGID_18_"  style="overflow:visible;"/>
			</clipPath>
			<path class="st13" d="M4.7,77.7v-49V16.5v-6.1V7.3V5.8c0-0.3,0-0.5,0-0.8s0.1-0.5,0.2-0.7c0.4-0.9,1.4-1.6,2.5-1.7
				c1.1,0,2.2,0,3.3,0h6.5h13h104.1c-17.3,0.6-34.7,0.7-52,0.7l-52,0.1h-6.5h-6.5h-6.5H9.2H8.4H8H7.7c-0.1,0-0.1,0-0.2,0
				C6.7,3.4,6,3.9,5.7,4.6c0,0.2-0.1,0.3-0.1,0.5c0,0.1,0,0.2,0,0.3v0.4v1.5v3.1v6.1v12.2L5.4,53.2c0,2,0,4.1-0.1,6.1l-0.1,3.1
				c0,1-0.1,2-0.1,3.1c-0.1,2-0.1,4.1-0.2,6.1C4.9,73.6,4.9,75.7,4.7,77.7"/>
		</g>
		<g>
			<defs>
				<rect id="SVGID_20_" x="-1" width="144" height="86"/>
			</defs>
			<clipPath id="SVGID_21_">
				<use xlink:href="#SVGID_20_"  style="overflow:visible;"/>
			</clipPath>
			<path class="st14" d="M2.5,52.9c-0.6,0.2-1,0.7-1.2,1.2c-0.1,0.2-0.1,0.4-0.1,0.6c0,0.2,0,0.4,0,0.7v17.1L1.7,62l0.2-5.3L2,55.1
				v-0.2v-0.1v-0.1c0-0.1,0.1-0.3,0.1-0.4c0.1-0.2,0.2-0.4,0.4-0.5V52.9z"/>
		</g>
		<g>
			<defs>
				<rect id="SVGID_22_" x="-1" width="144" height="86"/>
			</defs>
			<clipPath id="SVGID_23_">
				<use xlink:href="#SVGID_22_"  style="overflow:visible;"/>
			</clipPath>
			<path class="st15" d="M10,77.1c0,0.9-0.8,1.7-1.8,1.7S6.4,78,6.4,77.1c0-0.9,0.8-1.7,1.8-1.7S10,76.1,10,77.1"/>
		</g>
		<g>
			<defs>
				<rect id="SVGID_24_" x="-1" width="144" height="86"/>
			</defs>
			<clipPath id="SVGID_25_">
				<use xlink:href="#SVGID_24_"  style="overflow:visible;"/>
			</clipPath>
			<path class="st16" d="M7.7,78.2c-0.1,0-0.1,0-0.2,0c-0.2-0.1-0.3-0.3-0.2-0.5l1-1.7c0.1-0.2,0.3-0.2,0.5-0.2
				C8.9,76,9,76.2,8.9,76.3L8.1,78C8,78.1,7.9,78.2,7.7,78.2"/>
		</g>
		<g>
			<defs>
				<rect id="SVGID_26_" x="-1" width="144" height="86"/>
			</defs>
			<clipPath id="SVGID_27_">
				<use xlink:href="#SVGID_26_"  style="overflow:visible;"/>
			</clipPath>
			<path class="st17" d="M9,77.8c-0.1,0-0.1,0-0.2,0L7.1,77C7,76.8,6.9,76.6,7,76.4s0.3-0.2,0.5-0.2L9.2,77c0.2,0.1,0.3,0.3,0.2,0.5
				C9.3,77.7,9.2,77.8,9,77.8"/>
		</g>
		<g>
			<defs>
				<rect id="SVGID_28_" x="-1" width="144" height="86"/>
			</defs>
			<clipPath id="SVGID_29_">
				<use xlink:href="#SVGID_28_"  style="overflow:visible;"/>
			</clipPath>
			<path class="st18" d="M10.6,77.6c0,1.2-1,2.1-2.2,2.1c-1.1,0-2-0.8-2.2-1.8c0.3,0.7,1.1,1.3,2.1,1.3c1.2,0,2.2-0.9,2.2-2.1
				c0-0.1,0-0.2,0-0.3C10.5,77,10.6,77.3,10.6,77.6"/>
		</g>
		<g>
			<defs>
				<rect id="SVGID_30_" x="-1" width="144" height="86"/>
			</defs>
			<clipPath id="SVGID_31_">
				<use xlink:href="#SVGID_30_"  style="overflow:visible;"/>
			</clipPath>
			<path class="st19" d="M135.3,77.4c0,0.9-0.8,1.7-1.8,1.7s-1.8-0.8-1.8-1.7s0.8-1.7,1.8-1.7C134.5,75.7,135.3,76.5,135.3,77.4"/>
		</g>
		<g>
			<defs>
				<rect id="SVGID_32_" x="-1" width="144" height="86"/>
			</defs>
			<clipPath id="SVGID_33_">
				<use xlink:href="#SVGID_32_"  style="overflow:visible;"/>
			</clipPath>
			<path class="st20" d="M132.6,78c-0.2,0-0.3-0.1-0.3-0.2c-0.1-0.2,0-0.4,0.2-0.4l1.8-0.6c0.2-0.1,0.4,0,0.5,0.2s0,0.4-0.2,0.4
				l-1.8,0.6C132.7,78,132.6,78,132.6,78"/>
		</g>
		<g>
			<defs>
				<rect id="SVGID_34_" x="-1" width="144" height="86"/>
			</defs>
			<clipPath id="SVGID_35_">
				<use xlink:href="#SVGID_34_"  style="overflow:visible;"/>
			</clipPath>
			<path class="st21" d="M133.8,78.5c-0.2,0-0.3-0.1-0.3-0.2l-0.6-1.7c-0.1-0.2,0-0.4,0.2-0.4c0.2-0.1,0.4,0,0.5,0.2l0.6,1.7
				c0.1,0.2,0,0.4-0.2,0.4C133.9,78.5,133.9,78.5,133.8,78.5"/>
		</g>
		<g>
			<defs>
				<rect id="SVGID_36_" x="-1" width="144" height="86"/>
			</defs>
			<clipPath id="SVGID_37_">
				<use xlink:href="#SVGID_36_"  style="overflow:visible;"/>
			</clipPath>
			<path class="st22" d="M135.9,77.9c0,1.2-1,2.1-2.2,2.1c-1.1,0-2-0.8-2.2-1.8c0.3,0.8,1.1,1.3,2.1,1.3c1.2,0,2.2-1,2.2-2.1
				c0-0.1,0-0.2,0-0.3C135.8,77.3,135.9,77.6,135.9,77.9"/>
		</g>
		<g>
			<defs>
				<rect id="SVGID_38_" x="-1" width="144" height="86"/>
			</defs>
			<clipPath id="SVGID_39_">
				<use xlink:href="#SVGID_38_"  style="overflow:visible;"/>
			</clipPath>
			<path class="st23" d="M10,5.9c0,0.9-0.8,1.7-1.8,1.7S6.4,6.8,6.4,5.9s0.8-1.7,1.8-1.7C9.2,4.2,10,4.9,10,5.9"/>
		</g>
		<g>
			<defs>
				<rect id="SVGID_40_" x="-1" width="144" height="86"/>
			</defs>
			<clipPath id="SVGID_41_">
				<use xlink:href="#SVGID_40_"  style="overflow:visible;"/>
			</clipPath>
			<path class="st24" d="M7.7,7C7.6,7,7.6,7,7.5,7C7.4,6.8,7.3,6.6,7.4,6.5l0.9-1.6c0.1-0.2,0.3-0.2,0.5-0.2C8.9,4.8,9,5,8.9,5.1
				L8.1,6.8C8,6.9,7.9,7,7.7,7"/>
		</g>
		<g>
			<defs>
				<rect id="SVGID_42_" x="-1" width="144" height="86"/>
			</defs>
			<clipPath id="SVGID_43_">
				<use xlink:href="#SVGID_42_"  style="overflow:visible;"/>
			</clipPath>
			<path class="st25" d="M9,6.5c-0.1,0-0.1,0-0.2,0L7.1,5.7C7,5.6,6.9,5.4,7,5.2C7.1,5.1,7.3,5,7.5,5.1l1.7,0.8
				C9.4,6,9.4,6.2,9.4,6.4C9.3,6.5,9.2,6.5,9,6.5"/>
		</g>
		<g>
			<defs>
				<rect id="SVGID_44_" x="-1" width="144" height="86"/>
			</defs>
			<clipPath id="SVGID_45_">
				<use xlink:href="#SVGID_44_"  style="overflow:visible;"/>
			</clipPath>
			<path class="st26" d="M10.6,6.4c0,1.2-1,2.1-2.2,2.1c-1.1,0-2-0.8-2.2-1.8c0.3,0.8,1,1.3,2,1.3c1.2,0,2.2-0.9,2.2-2.1
				c0-0.1,0-0.2,0-0.3C10.5,5.8,10.6,6.1,10.6,6.4"/>
		</g>
		<g>
			<defs>
				<rect id="SVGID_46_" x="-1" width="144" height="86"/>
			</defs>
			<clipPath id="SVGID_47_">
				<use xlink:href="#SVGID_46_"  style="overflow:visible;"/>
			</clipPath>
			<path class="st27" d="M135.3,6.2c0,0.9-0.8,1.7-1.8,1.7s-1.8-0.8-1.8-1.7s0.8-1.7,1.8-1.7S135.3,5.3,135.3,6.2"/>
		</g>
		<g>
			<defs>
				<rect id="SVGID_48_" x="-1" width="144" height="86"/>
			</defs>
			<clipPath id="SVGID_49_">
				<use xlink:href="#SVGID_48_"  style="overflow:visible;"/>
			</clipPath>
			<path class="st28" d="M132.6,6.8c-0.2,0-0.3-0.1-0.3-0.2c-0.1-0.2,0-0.4,0.2-0.4l1.8-0.6c0.2-0.1,0.4,0,0.5,0.2s0,0.4-0.2,0.4
				l-1.8,0.6C132.7,6.8,132.6,6.8,132.6,6.8"/>
		</g>
		<g>
			<defs>
				<rect id="SVGID_50_" x="-1" width="144" height="86"/>
			</defs>
			<clipPath id="SVGID_51_">
				<use xlink:href="#SVGID_50_"  style="overflow:visible;"/>
			</clipPath>
			<path class="st29" d="M133.8,7.3c-0.2,0-0.3-0.1-0.3-0.2l-0.6-1.7c-0.1-0.2,0-0.4,0.2-0.4c0.2-0.1,0.4,0,0.5,0.2l0.6,1.7
				c0.1,0.2,0,0.4-0.2,0.4C133.9,7.3,133.9,7.3,133.8,7.3"/>
		</g>
		<g>
			<defs>
				<rect id="SVGID_52_" x="-1" width="144" height="86"/>
			</defs>
			<clipPath id="SVGID_53_">
				<use xlink:href="#SVGID_52_"  style="overflow:visible;"/>
			</clipPath>
			<path class="st30" d="M135.9,6.7c0,1.2-1,2.1-2.2,2.1c-1.1,0-2-0.8-2.2-1.8c0.3,0.8,1.1,1.3,2.1,1.3c1.2,0,2.2-1,2.2-2.1
				c0-0.1,0-0.2,0-0.3C135.8,6.1,135.9,6.4,135.9,6.7"/>
		</g>
		<g>
			<defs>
				<rect id="SVGID_54_" x="-1" width="144" height="86"/>
			</defs>
			<clipPath id="SVGID_55_">
				<use xlink:href="#SVGID_54_"  style="overflow:visible;"/>
			</clipPath>
			<path class="st31" d="M39.7,27.2c-3.7,0-6.6,2.8-6.6,6.2s3,6.2,6.6,6.2c3.7,0,6.6-2.8,6.6-6.2S43.4,27.2,39.7,27.2 M39.7,40.6
				c-4.2,0-7.6-3.2-7.6-7.2s3.4-7.2,7.6-7.2s7.6,3.2,7.6,7.2S43.9,40.6,39.7,40.6"/>
		</g>
	</g>
	<rect x="38.4" y="27" class="st32" width="2.7" height="2.5"/>
	<polygon class="st32" points="44.1,32.6 42.7,30.5 45,29.2 46.4,31.4 	"/>
	<polygon class="st32" points="42.7,36.5 44.1,34.3 46.4,35.6 45,37.7 	"/>
	<rect x="38.4" y="37.4" class="st32" width="2.7" height="2.5"/>
	<polygon class="st32" points="35.4,34.3 36.7,36.5 34.4,37.7 33.1,35.6 	"/>
	<polygon class="st32" points="36.7,30.5 35.4,32.6 33.1,31.4 34.4,29.2 	"/>
	<g>
		<g>
			<defs>
				<rect id="SVGID_56_" x="-1" width="144" height="86"/>
			</defs>
			<clipPath id="SVGID_57_">
				<use xlink:href="#SVGID_56_"  style="overflow:visible;"/>
			</clipPath>
			<path class="st33" d="M39.7,26.8c-3.9,0-7,3-7,6.6s3.1,6.6,7,6.6s7-3,7-6.6S43.6,26.8,39.7,26.8 M39.7,40.2c-4,0-7.3-3.1-7.3-6.8
				c0-3.8,3.3-6.8,7.3-6.8s7.3,3.1,7.3,6.8C47,37.2,43.7,40.2,39.7,40.2"/>
		</g>
		<g>
			<defs>
				<rect id="SVGID_58_" x="-1" width="144" height="86"/>
			</defs>
			<clipPath id="SVGID_59_">
				<use xlink:href="#SVGID_58_"  style="overflow:visible;"/>
			</clipPath>
			<path class="st34" d="M100.5,27.2c-3.7,0-6.6,2.8-6.6,6.2s3,6.2,6.6,6.2c3.7,0,6.6-2.8,6.6-6.2S104.2,27.2,100.5,27.2
				 M100.5,40.6c-4.2,0-7.6-3.2-7.6-7.2s3.4-7.2,7.6-7.2s7.6,3.2,7.6,7.2S104.7,40.6,100.5,40.6"/>
		</g>
	</g>
	<rect x="99.2" y="27" class="st32" width="2.7" height="2.5"/>
	<polygon class="st32" points="104.9,32.6 103.5,30.5 105.8,29.2 107.2,31.4 	"/>
	<polygon class="st32" points="103.5,36.5 104.9,34.3 107.2,35.6 105.8,37.7 	"/>
	<rect x="99.2" y="37.4" class="st32" width="2.7" height="2.5"/>
	<polygon class="st32" points="96.2,34.3 97.5,36.5 95.2,37.7 93.9,35.6 	"/>
	<polygon class="st32" points="97.5,30.5 96.2,32.6 93.9,31.4 95.2,29.2 	"/>
	<g>
		<g>
			<defs>
				<rect id="SVGID_60_" x="-1" width="144" height="86"/>
			</defs>
			<clipPath id="SVGID_61_">
				<use xlink:href="#SVGID_60_"  style="overflow:visible;"/>
			</clipPath>
			<path class="st35" d="M100.5,26.8c-3.9,0-7,3-7,6.6s3.1,6.6,7,6.6s7-3,7-6.6S104.4,26.8,100.5,26.8 M100.5,40.2
				c-4,0-7.3-3.1-7.3-6.8c0-3.8,3.3-6.8,7.3-6.8s7.3,3.1,7.3,6.8C107.8,37.2,104.5,40.2,100.5,40.2"/>
		</g>
		<g>
			<defs>
				<rect id="SVGID_62_" x="-1" width="144" height="86"/>
			</defs>
			<clipPath id="SVGID_63_">
				<use xlink:href="#SVGID_62_"  style="overflow:visible;"/>
			</clipPath>
			<path class="st36" d="M39.7,26.8c-3.9,0-7,3-7,6.6s3.1,6.6,7,6.6s7-3,7-6.6S43.6,26.8,39.7,26.8 M39.7,40.2c-4,0-7.3-3.1-7.3-6.8
				c0-3.8,3.3-6.8,7.3-6.8s7.3,3.1,7.3,6.8C47,37.2,43.7,40.2,39.7,40.2 M100.5,26.8c-3.9,0-7,3-7,6.6s3.1,6.6,7,6.6s7-3,7-6.6
				S104.4,26.8,100.5,26.8 M100.5,40.2c-4,0-7.3-3.1-7.3-6.8c0-3.8,3.3-6.8,7.3-6.8s7.3,3.1,7.3,6.8
				C107.8,37.2,104.5,40.2,100.5,40.2"/>
		</g>
		<g>
			<defs>
				<rect id="SVGID_64_" x="-1" width="144" height="86"/>
			</defs>
			<clipPath id="SVGID_65_">
				<use xlink:href="#SVGID_64_"  style="overflow:visible;"/>
			</clipPath>
			<path class="st37" d="M100.5,40.1c-3.9,0-7.1-3-7.1-6.7s3.2-6.7,7.1-6.7s7.1,3,7.1,6.7S104.5,40.1,100.5,40.1 M59.1,39.3
				c0.6-1.7,0.9-3.6,0.9-5.5c0-1.9-0.3-3.7-0.9-5.4h16c-0.6,1.7-0.9,3.5-0.9,5.4c0,1.9,0.3,3.8,0.9,5.5H59.1z M39.7,40.1
				c-3.9,0-7.1-3-7.1-6.7s3.2-6.7,7.1-6.7s7.1,3,7.1,6.7C46.9,37.1,43.7,40.1,39.7,40.1 M112.4,22.4H29.6c-2.1,0-3.9,1.6-3.9,3.6
				v16.3c0,0.8,0.3,1.5,0.7,2.1c0.1,0.1,0.2,0.2,0.3,0.3c0.7,0.8,1.7,1.2,2.9,1.2h82.8c2.1,0,3.8-1.6,3.8-3.6V26.1
				C116.2,24.1,114.5,22.4,112.4,22.4"/>
		</g>
		<g>
			<defs>
				<rect id="SVGID_66_" x="-1" width="144" height="86"/>
			</defs>
			<clipPath id="SVGID_67_">
				<use xlink:href="#SVGID_66_"  style="overflow:visible;"/>
			</clipPath>
			<path class="st38" d="M48.8,34.5c0,3.8-3.3,6.9-7.4,6.9c-1.5,0-2.9-0.4-4-1.1c0.7,0.2,1.5,0.3,2.3,0.3c4.2,0,7.7-3.2,7.7-7.2
				c0-1.7-0.7-3.3-1.8-4.6C47.5,30.1,48.8,32.1,48.8,34.5"/>
		</g>
		<g>
			<defs>
				<rect id="SVGID_68_" x="-1" width="144" height="86"/>
			</defs>
			<clipPath id="SVGID_69_">
				<use xlink:href="#SVGID_68_"  style="overflow:visible;"/>
			</clipPath>
			<path class="st39" d="M109.9,34.5c0,3.8-3.3,6.9-7.4,6.9c-1.5,0-2.9-0.4-4-1.1c0.7,0.2,1.5,0.3,2.3,0.3c4.2,0,7.7-3.2,7.7-7.2
				c0-1.7-0.7-3.3-1.8-4.6C108.7,30.1,109.9,32.1,109.9,34.5"/>
		</g>
		<g>
			<defs>
				<rect id="SVGID_70_" x="-1" width="144" height="86"/>
			</defs>
			<clipPath id="SVGID_71_">
				<use xlink:href="#SVGID_70_"  style="overflow:visible;"/>
			</clipPath>
			<path class="st40" d="M58.5,37.9c0-0.5,0.1-1.1,0.1-1.6s0.1-1.1,0.1-1.6s0.1-1.1,0.1-1.6s0-1.1,0.1-1.6c0.2,0.5,0.3,1.1,0.3,1.6
				c0.1,0.5,0.1,1.1,0,1.6c0,0.5-0.1,1.1-0.2,1.6C58.9,36.9,58.8,37.4,58.5,37.9"/>
		</g>
		<g>
			<defs>
				<rect id="SVGID_72_" x="-1" width="144" height="86"/>
			</defs>
			<clipPath id="SVGID_73_">
				<use xlink:href="#SVGID_72_"  style="overflow:visible;"/>
			</clipPath>
			<path class="st41" d="M57.7,37.5c0-0.5,0-0.9,0.1-1.4l0.1-1.3l0.1-1.3c0-0.4,0.1-0.9,0.1-1.3c0.2,0.4,0.2,0.9,0.3,1.3
				c0,0.5,0.1,0.9,0,1.4c0,0.5-0.1,0.9-0.2,1.4C58.1,36.6,57.9,37,57.7,37.5"/>
		</g>
		<g>
			<defs>
				<rect id="SVGID_74_" x="-1" width="144" height="86"/>
			</defs>
			<clipPath id="SVGID_75_">
				<use xlink:href="#SVGID_74_"  style="overflow:visible;"/>
			</clipPath>
			<path class="st42" d="M56.9,37c0-0.4,0-0.7,0-1.1c0-0.4,0-0.7,0-1.1c0-0.4,0.1-0.7,0.1-1.1c0-0.4,0.1-0.7,0.2-1.1
				c0.1,0.4,0.2,0.7,0.2,1.1c0,0.4,0,0.7,0,1.1c0,0.4-0.1,0.7-0.2,1.1C57.2,36.3,57.1,36.6,56.9,37"/>
		</g>
		<g>
			<defs>
				<rect id="SVGID_76_" x="-1" width="144" height="86"/>
			</defs>
			<clipPath id="SVGID_77_">
				<use xlink:href="#SVGID_76_"  style="overflow:visible;"/>
			</clipPath>
			<path class="st43" d="M75.8,29.6c-0.1,0.7-0.2,1.4-0.2,2.1s-0.1,1.4-0.1,2.1c0,0.7,0,1.4,0.1,2.1c0.1,0.7,0.2,1.4,0.2,2.1
				c-0.3-0.7-0.5-1.4-0.6-2.1c-0.1-0.7-0.2-1.4-0.2-2.2c0-0.7,0-1.5,0.2-2.2C75.3,31,75.5,30.3,75.8,29.6"/>
		</g>
		<g>
			<defs>
				<rect id="SVGID_78_" x="-1" width="144" height="86"/>
			</defs>
			<clipPath id="SVGID_79_">
				<use xlink:href="#SVGID_78_"  style="overflow:visible;"/>
			</clipPath>
			<path class="st44" d="M76.9,29.8c-0.1,0.7-0.1,1.3-0.2,2c0,0.7-0.1,1.3-0.1,2s0,1.3,0.1,2s0.1,1.3,0.2,2c-0.3-0.6-0.5-1.3-0.6-2
				s-0.2-1.3-0.2-2s0-1.4,0.2-2C76.5,31,76.7,30.4,76.9,29.8"/>
		</g>
		<g>
			<defs>
				<rect id="SVGID_80_" x="-1" width="144" height="86"/>
			</defs>
			<clipPath id="SVGID_81_">
				<use xlink:href="#SVGID_80_"  style="overflow:visible;"/>
			</clipPath>
			<path class="st45" d="M78.1,29.9c0,0.6-0.1,1.3-0.1,1.9c0,0.6-0.1,1.2,0,1.9c0,0.6,0,1.2,0.1,1.9c0,0.6,0.1,1.2,0.2,1.9
				c-0.3-0.6-0.4-1.2-0.5-1.8s-0.2-1.3-0.2-1.9c0-0.6,0-1.3,0.2-1.9C77.7,31.1,77.8,30.5,78.1,29.9"/>
		</g>
		<g>
			<defs>
				<rect id="SVGID_82_" x="-1" width="144" height="86"/>
			</defs>
			<clipPath id="SVGID_83_">
				<use xlink:href="#SVGID_82_"  style="overflow:visible;"/>
			</clipPath>
			<path class="st46" d="M79.2,30.1l-0.1,1.7c0,0.6,0,1.1,0,1.7s0,1.1,0.1,1.7l0.1,1.7c-0.2-0.5-0.4-1.1-0.5-1.7
				c-0.1-0.6-0.2-1.2-0.2-1.8s0-1.2,0.1-1.8C78.8,31.2,79,30.6,79.2,30.1"/>
		</g>
		<g>
			<defs>
				<rect id="SVGID_84_" x="-1" width="144" height="86"/>
			</defs>
			<clipPath id="SVGID_85_">
				<use xlink:href="#SVGID_84_"  style="overflow:visible;"/>
			</clipPath>
			<path class="st47" d="M80.3,30.3c0,0.5,0,1.1-0.1,1.6c0,0.5,0,1.1,0,1.6s0,1.1,0,1.6s0.1,1.1,0.1,1.6c-0.2-0.5-0.4-1-0.5-1.6
				c-0.1-0.5-0.1-1.1-0.1-1.6s0-1.1,0.1-1.6C80,31.3,80.1,30.8,80.3,30.3"/>
		</g>
		<g>
			<defs>
				<rect id="SVGID_86_" x="-1" width="144" height="86"/>
			</defs>
			<clipPath id="SVGID_87_">
				<use xlink:href="#SVGID_86_"  style="overflow:visible;"/>
			</clipPath>
			<path class="st48" d="M81.5,30.4c0,0.5,0,1,0,1.5c0,0.5,0,1,0,1.4c0,0.5,0,1,0,1.4c0,0.5,0,1,0,1.5c-0.2-0.5-0.3-0.9-0.4-1.4
				s-0.1-1-0.1-1.5s0-1,0.1-1.5C81.1,31.4,81.3,30.9,81.5,30.4"/>
		</g>
		<g>
			<defs>
				<rect id="SVGID_88_" x="-1" width="144" height="86"/>
			</defs>
			<clipPath id="SVGID_89_">
				<use xlink:href="#SVGID_88_"  style="overflow:visible;"/>
			</clipPath>
			<path class="st49" d="M82.6,30.6c0,0.5,0,0.9,0,1.3v1.3v1.3c0,0.4,0,0.9,0,1.3c-0.2-0.4-0.3-0.9-0.4-1.3
				c-0.1-0.4-0.1-0.9-0.1-1.3c0-0.4,0-0.9,0.1-1.3C82.3,31.5,82.4,31,82.6,30.6"/>
		</g>
		<g>
			<defs>
				<rect id="SVGID_90_" x="-1" width="144" height="86"/>
			</defs>
			<clipPath id="SVGID_91_">
				<use xlink:href="#SVGID_90_"  style="overflow:visible;"/>
			</clipPath>
			<path class="st50" d="M83.7,30.8c0,0.4,0,0.8,0,1.2v1.2v1.2c0,0.4,0,0.8-0.1,1.2c-0.2-0.4-0.3-0.8-0.3-1.2
				c-0.1-0.4-0.1-0.8-0.1-1.2s0-0.8,0.1-1.2S83.5,31.1,83.7,30.8"/>
		</g>
		<g>
			<defs>
				<rect id="SVGID_92_" x="-1" width="144" height="86"/>
			</defs>
			<clipPath id="SVGID_93_">
				<use xlink:href="#SVGID_92_"  style="overflow:visible;"/>
			</clipPath>
			<path class="st51" d="M84.8,30.9c0.1,0.4,0.1,0.7,0.1,1.1c0,0.4,0,0.7,0,1s0,0.7,0,1s0,0.7-0.1,1.1c-0.1-0.3-0.2-0.7-0.3-1
				s-0.1-0.7-0.1-1.1c0-0.4,0-0.7,0.1-1.1C84.6,31.6,84.7,31.3,84.8,30.9"/>
		</g>
		<g>
			<defs>
				<rect id="SVGID_94_" x="-1" width="144" height="86"/>
			</defs>
			<clipPath id="SVGID_95_">
				<use xlink:href="#SVGID_94_"  style="overflow:visible;"/>
			</clipPath>
			<path class="st52" d="M72.6,61.8c0,0.9-0.8,1.7-1.8,1.7S69,62.7,69,61.8s0.8-1.7,1.8-1.7C71.8,60.1,72.6,60.9,72.6,61.8"/>
		</g>
		<g>
			<defs>
				<rect id="SVGID_96_" x="-1" width="144" height="86"/>
			</defs>
			<clipPath id="SVGID_97_">
				<use xlink:href="#SVGID_96_"  style="overflow:visible;"/>
			</clipPath>
			<path class="st53" d="M71.7,62.5c-0.1,0-0.1,0-0.2,0l-1.8-0.7c-0.2-0.1-0.3-0.3-0.2-0.5s0.3-0.3,0.5-0.2l1.8,0.7
				c0.2,0.1,0.3,0.3,0.2,0.5C72,62.4,71.8,62.5,71.7,62.5"/>
		</g>
		<g>
			<defs>
				<rect id="SVGID_98_" x="-1" width="144" height="86"/>
			</defs>
			<clipPath id="SVGID_99_">
				<use xlink:href="#SVGID_98_"  style="overflow:visible;"/>
			</clipPath>
			<path class="st54" d="M70.4,62.9c-0.1,0-0.1,0-0.2,0c-0.2-0.1-0.3-0.3-0.2-0.5l0.8-1.7c0.1-0.2,0.3-0.3,0.5-0.2s0.3,0.3,0.2,0.5
				l-0.8,1.7C70.7,62.9,70.6,62.9,70.4,62.9"/>
		</g>
		<g>
			<defs>
				<rect id="SVGID_100_" x="-1" width="144" height="86"/>
			</defs>
			<clipPath id="SVGID_101_">
				<use xlink:href="#SVGID_100_"  style="overflow:visible;"/>
			</clipPath>
			<path class="st55" d="M73.2,62.3c0,1.2-1,2.1-2.2,2.1c-1.1,0-2-0.8-2.2-1.8c0.3,0.7,1.1,1.3,2.1,1.3c1.2,0,2.2-0.9,2.2-2.1
				c0-0.1,0-0.2,0-0.3C73.2,61.7,73.2,62,73.2,62.3"/>
		</g>
		<g>
			<defs>
				<rect id="SVGID_102_" x="-1" width="144" height="86"/>
			</defs>
			<clipPath id="SVGID_103_">
				<use xlink:href="#SVGID_102_"  style="overflow:visible;"/>
			</clipPath>
			<path class="st56" d="M51.6,75.4h-2.3c-0.8,0-1.4-0.6-1.4-1.3v-3c0-0.7,0.6-1.4,1.4-1.4h2.3c0.8,0,1.4,0.6,1.4,1.4v3
				C53,74.8,52.4,75.4,51.6,75.4"/>
		</g>
		<g>
			<defs>
				<rect id="SVGID_104_" x="-1" width="144" height="86"/>
			</defs>
			<clipPath id="SVGID_105_">
				<use xlink:href="#SVGID_104_"  style="overflow:visible;"/>
			</clipPath>
			<path class="st57" d="M55,71.6v3.1c0,1.3-1.1,2.3-2.4,2.3h-2.3c-0.6,0-1.2-0.2-1.7-0.6c0.2,0.1,0.5,0.1,0.7,0.1h2.3
				c1.3,0,2.4-1,2.4-2.3v-3.1c0-0.7-0.3-1.2-0.7-1.7C54.2,69.7,55,70.6,55,71.6"/>
		</g>
		<g>
			<defs>
				<rect id="SVGID_106_" x="-1" width="144" height="86"/>
			</defs>
			<clipPath id="SVGID_107_">
				<use xlink:href="#SVGID_106_"  style="overflow:visible;"/>
			</clipPath>
			<path class="st58" d="M90.8,75.4h-2.3c-0.8,0-1.4-0.6-1.4-1.3v-3c0-0.7,0.6-1.4,1.4-1.4h2.3c0.8,0,1.4,0.6,1.4,1.4v3
				C92.2,74.8,91.5,75.4,90.8,75.4"/>
		</g>
		<g>
			<defs>
				<rect id="SVGID_108_" x="-1" width="144" height="86"/>
			</defs>
			<clipPath id="SVGID_109_">
				<use xlink:href="#SVGID_108_"  style="overflow:visible;"/>
			</clipPath>
			<path class="st59" d="M94.2,71.6v3.1c0,1.3-1.1,2.3-2.4,2.3h-2.3c-0.6,0-1.2-0.2-1.7-0.6c0.2,0.1,0.5,0.1,0.7,0.1h2.3
				c1.3,0,2.4-1,2.4-2.3v-3.1c0-0.7-0.3-1.2-0.7-1.7C93.4,69.7,94.2,70.6,94.2,71.6"/>
		</g>
		<g>
			<defs>
				<rect id="SVGID_110_" x="-1" width="144" height="86"/>
			</defs>
			<clipPath id="SVGID_111_">
				<use xlink:href="#SVGID_110_"  style="overflow:visible;"/>
			</clipPath>
			<path class="st60" d="M73.9,77.7h-6.2c-0.7,0-1.2-0.5-1.2-1.1v-2.4c0-0.6,0.5-1.1,1.2-1.1h6.2c0.7,0,1.2,0.5,1.2,1.1v2.4
				C75.2,77.2,74.6,77.7,73.9,77.7"/>
		</g>
		<g>
			<defs>
				<rect id="SVGID_112_" x="-1" width="144" height="86"/>
			</defs>
			<clipPath id="SVGID_113_">
				<use xlink:href="#SVGID_112_"  style="overflow:visible;"/>
			</clipPath>
			<path class="st61" d="M77.4,74.6V77c0,1.3-1.1,2.3-2.4,2.3h-6.2c-0.5,0-1-0.2-1.4-0.4c0.1,0,0.3,0,0.4,0H74c1.3,0,2.4-1,2.4-2.3
				v-2.3c0-0.8-0.4-1.4-1-1.9C76.5,72.5,77.4,73.5,77.4,74.6"/>
		</g>
		<g>
			<defs>
				<rect id="SVGID_114_" x="-1" width="144" height="86"/>
			</defs>
			<clipPath id="SVGID_115_">
				<use xlink:href="#SVGID_114_"  style="overflow:visible;"/>
			</clipPath>
			<path class="st62" d="M38.7,73.3c0,1.2-1,2.1-2.3,2.1s-2.3-0.9-2.3-2.1s1-2.1,2.3-2.1S38.7,72.1,38.7,73.3"/>
		</g>
		<g>
			<defs>
				<rect id="SVGID_116_" x="-1" width="144" height="86"/>
			</defs>
			<clipPath id="SVGID_117_">
				<use xlink:href="#SVGID_116_"  style="overflow:visible;"/>
			</clipPath>
			<path class="st63" d="M40,73.9c0,1.6-1.4,2.9-3.1,2.9c-1.2,0-2.2-0.6-2.7-1.5c0.6,0.5,1.3,0.9,2.2,0.9c1.7,0,3.1-1.3,3.1-2.9
				c0-0.5-0.1-1-0.4-1.4C39.7,72.3,40,73.1,40,73.9"/>
		</g>
		<g>
			<defs>
				<rect id="SVGID_118_" x="-1" width="144" height="86"/>
			</defs>
			<clipPath id="SVGID_119_">
				<use xlink:href="#SVGID_118_"  style="overflow:visible;"/>
			</clipPath>
			<path class="st64" d="M106.5,73.3c0,1.2-1,2.1-2.3,2.1c-1.2,0-2.3-0.9-2.3-2.1s1-2.1,2.3-2.1C105.5,71.1,106.5,72.1,106.5,73.3"
				/>
		</g>
		<g>
			<defs>
				<rect id="SVGID_120_" x="-1" width="144" height="86"/>
			</defs>
			<clipPath id="SVGID_121_">
				<use xlink:href="#SVGID_120_"  style="overflow:visible;"/>
			</clipPath>
			<path class="st65" d="M107.8,73.9c0,1.6-1.4,2.9-3.1,2.9c-1.2,0-2.2-0.6-2.7-1.5c0.6,0.5,1.3,0.9,2.2,0.9c1.7,0,3.1-1.3,3.1-2.9
				c0-0.5-0.1-1-0.4-1.4C107.5,72.3,107.8,73.1,107.8,73.9"/>
		</g>
		<g>
			<defs>
				<rect id="SVGID_122_" x="-1" width="144" height="86"/>
			</defs>
			<clipPath id="SVGID_123_">
				<use xlink:href="#SVGID_122_"  style="overflow:visible;"/>
			</clipPath>
			<path class="st66" d="M58.7,80.2c0.2-1.4,0.4-2.7,0.7-4s0.6-2.6,1-3.9l0.1-0.5c0.1-0.2,0.2-0.4,0.3-0.6c0.3-0.4,0.6-0.7,1-0.9
				c0.2-0.1,0.4-0.2,0.7-0.2c0.1,0,0.2,0,0.4-0.1c0.1,0,0.1,0,0.2,0c0.1,0,0.1,0,0.2,0h1.1c1.4,0,2.9,0,4.3,0c2.9,0,5.8,0.1,8.6,0.2
				c1.4,0.1,2.9,0.1,4.3,0.2l1.1,0.1H83c0.1,0,0.2,0,0.3,0.1c0.2,0.1,0.4,0.2,0.5,0.3c0.1,0.1,0.1,0.1,0.2,0.2l0.1,0.2l0.3,0.4
				l0.5,0.9l-0.7-0.8l-0.3-0.4l-0.2-0.2c0-0.1-0.1-0.1-0.2-0.2s-0.3-0.1-0.4-0.2c-0.1,0-0.1,0-0.2,0h-0.3l-1.1,0.1
				c-1.4,0.1-2.9,0.1-4.3,0.2c-2.9,0.1-5.8,0.2-8.6,0.2c-1.4,0-2.9,0-4.3,0h-1.1c-0.1,0-0.1,0-0.1,0H63c-0.1,0-0.1,0-0.2,0
				c-0.1,0-0.2,0.1-0.3,0.1c-0.2,0.1-0.4,0.3-0.5,0.4c0.1,0.2,0,0.3,0,0.4l-0.2,0.5c-0.4,1.3-0.9,2.6-1.4,3.8
				C59.9,77.8,59.3,79,58.7,80.2"/>
		</g>
		<g>
			<defs>
				<rect id="SVGID_124_" x="-1" width="144" height="86"/>
			</defs>
			<clipPath id="SVGID_125_">
				<use xlink:href="#SVGID_124_"  style="overflow:visible;"/>
			</clipPath>
			<path class="st67" d="M115.2,74.5c-1-1.9-1.9-3.8-2.9-5.7c-1-1.9-2-3.8-3-5.7c-0.7-1.3-2-3.8-2.7-5.1c-0.3-0.5-0.9-0.9-1.5-0.9
				h-3.8L97,57h-8.7l-17.5-0.1h-8.7h-8.7H36.3c-0.5,0-1,0.3-1.3,0.7c-0.7,1.3-2.2,4-2.9,5.4l-3,5.7l-3,5.7l-3,5.7h1.7l2.8-5l3.1-5.6
				l3.1-5.6c0.7-1.3,1.9-3.4,2.5-4.5c0.2-0.4,0.7-0.7,1.3-0.7h16.1h8.7h8.7l17.5-0.1h8.7h4.4h2.9c0.6,0,1.2,0.3,1.5,0.9
				c0.6,1.1,1.7,3.1,2.4,4.4c1,1.9,2.1,3.7,3.2,5.6s2.2,3.7,3.2,5.6c1.1,1.8,2.2,3.7,3.3,5.5C117.1,78.3,116.2,76.4,115.2,74.5"/>
		</g>
		<g>
			<defs>
				<rect id="SVGID_126_" x="-1" width="144" height="86"/>
			</defs>
			<clipPath id="SVGID_127_">
				<use xlink:href="#SVGID_126_"  style="overflow:visible;"/>
			</clipPath>
			<path class="st68" d="M133.8,55.4H8.2c-0.3,0-0.6-0.3-0.6-0.6s0.3-0.6,0.6-0.6h125.7c0.3,0,0.6,0.3,0.6,0.6
				C134.4,55.1,134.2,55.4,133.8,55.4"/>
		</g>
		<g>
			<defs>
				<rect id="SVGID_128_" x="-1" width="144" height="86"/>
			</defs>
			<clipPath id="SVGID_129_">
				<use xlink:href="#SVGID_128_"  style="overflow:visible;"/>
			</clipPath>
			<path class="st69" d="M77.2,28.3c2.1-0.2,4.2-0.3,6.2-0.3H85h0.1h0.1c0.1,0,0.2,0,0.3,0.1c0.2,0.1,0.3,0.2,0.5,0.3
				c0.1,0.1,0.2,0.3,0.3,0.4c0.1,0.2,0.1,0.4,0.1,0.5v2.9c0,2,0,3.9,0,5.9v0.7v0.4v0.2c0,0.1,0,0.2,0,0.3c-0.1,0.3-0.3,0.7-0.7,0.8
				c-0.2,0.1-0.4,0.1-0.5,0.1h-0.4h-3.1l-12.5-0.1L63,40.4l-6.2-0.1l6.2-0.1l6.2-0.1L81.7,40h3.1h0.4c0.1,0,0.1,0,0.2-0.1
				s0.2-0.2,0.2-0.3v-0.1v-0.2v-0.4v-0.7c0-2,0-3.9,0-5.9v-2.9c0-0.1,0-0.2,0-0.3c0-0.1-0.1-0.1-0.1-0.2s-0.1-0.1-0.2-0.1h-0.1
				c0,0,0,0-0.1,0c0,0,0,0-0.1,0h-1.6C81.4,28.6,79.3,28.5,77.2,28.3"/>
		</g>
	</g>
	<path class="st70" d="M118.4,41.2H131v-14h-12.6V41.2z M131.8,41.9h-14.1V26.6h14.1V41.9z"/>
	<rect x="119" y="27.7" class="st70" width="11.5" height="2"/>
	<rect x="119" y="38.8" class="st70" width="11.5" height="2"/>
	<g>
		<g>
			<defs>
				<rect id="SVGID_130_" x="-1" width="144" height="86"/>
			</defs>
			<clipPath id="SVGID_131_">
				<use xlink:href="#SVGID_130_"  style="overflow:visible;"/>
			</clipPath>
			<path class="st71" d="M129.8,30.6c-0.2,0.3-0.5,1.4-0.5,3.5c0,2,0.3,3.2,0.5,3.5c0.2-0.3,0.5-1.4,0.5-3.5
				C130.3,32.1,130,30.9,129.8,30.6 M129.8,38.1c-0.9,0-1-3.3-1-4s0-4,1-4c0.9,0,1,3.3,1,4S130.7,38.1,129.8,38.1"/>
		</g>
	</g>
	<polygon class="st70" points="128.5,38.1 127.2,38.1 127.2,30.2 128.5,30.2 128.5,30.7 127.7,30.7 127.7,37.6 128.5,37.6 	"/>
	<rect x="127.4" y="33.9" class="st70" width="0.9" height="0.5"/>
	<polygon class="st70" points="124,38.1 122.7,38.1 122.7,30.2 124,30.2 124,30.7 123.2,30.7 123.2,37.6 124,37.6 	"/>
	<rect x="123" y="33.9" class="st70" width="0.9" height="0.5"/>
	<polygon class="st70" points="121.3,30.2 121.3,38.1 121.8,38.1 121.8,30.7 122.2,30.7 122.2,30.2 	"/>
	<g>
		<g>
			<defs>
				<rect id="SVGID_132_" x="-1" width="144" height="86"/>
			</defs>
			<clipPath id="SVGID_133_">
				<use xlink:href="#SVGID_132_"  style="overflow:visible;"/>
			</clipPath>
			<path class="st72" d="M125,30.7h0.3c0.4,0,0.7,0.3,0.8,0.6c0.1,0.7,0.3,2.3-0.4,3.1c-0.2,0.2-0.4,0.3-0.7,0.3
				C125,34.7,125,30.7,125,30.7z M125,38.1v-2.2l1.2,2.2h0.6l-1.6-2.9c0.4-0.1,0.7-0.2,0.9-0.5c0.8-0.8,0.7-2.5,0.5-3.4
				c-0.1-0.6-0.6-1-1.3-1h-0.8v7.8H125z"/>
		</g>
	</g>
	<rect x="120.3" y="30.2" class="st70" width="1.3" height="0.5"/>
	<g>
		<g>
			<defs>
				<rect id="SVGID_134_" x="-1" width="144" height="86"/>
			</defs>
			<clipPath id="SVGID_135_">
				<use xlink:href="#SVGID_134_"  style="overflow:visible;"/>
			</clipPath>
			<path class="st73" d="M119.4,32.4c0-1.1,0.9-2.1,0.9-2.1h-0.6c-0.3,0.4-0.8,1.2-0.8,2.2c0,0.7,0.4,1.5,0.8,2.3
				c0.3,0.7,0.6,1.3,0.6,1.7c0,0.5-0.7,1.3-1.3,1.7h0.7c0.5-0.5,1.1-1.1,1.1-1.7c0-0.5-0.3-1.2-0.7-1.9
				C119.8,33.7,119.4,33,119.4,32.4"/>
		</g>
	</g>
	<g class="st74">
		<path class="st75" d="M13.4,12.2c0-0.1-0.1-0.1-0.1-0.1c-0.1,0-0.1,0-0.2,0s-0.1,0-0.2,0c-0.1,0-0.1,0-0.2,0c-0.1,0-0.2,0-0.5,0
			s-0.5,0-0.7-0.1c-0.3,0-0.5,0-0.7-0.1s-0.4,0-0.5,0c0,0,0,0,0-0.1c0,0,0-0.1,0-0.1c0-0.1,0-0.1,0-0.2c0-0.1,0.1-0.1,0.2-0.1
			c0.5,0,1,0,1.4,0s1,0,1.4-0.1s1-0.1,1.4-0.1s1,0,1.4,0c0,0.2,0,0.3-0.1,0.4s-0.2,0.2-0.3,0.2c-0.1,0-0.3,0-0.5,0
			c-0.2,0-0.3,0-0.5,0c-0.2,0-0.3,0-0.4,0.1s-0.2,0.1-0.2,0.3c0,0,0,0.1,0,0.2c0,0.1,0,0.2,0,0.3c0,0.1,0,0.2,0,0.3
			c0,0.1,0,0.1,0,0.2c0,0.3,0,0.6,0.1,0.9c0.1,0.3,0.2,0.6,0.3,0.9c0.1,0.3,0.2,0.6,0.3,0.9c0.1,0.3,0.1,0.6,0.1,0.9
			c0,0.2-0.1,0.3-0.4,0.3c-0.2,0-0.3-0.1-0.4-0.3s-0.2-0.5-0.3-0.8s-0.2-0.7-0.2-1.1s-0.1-0.7-0.1-1.1c0-0.3-0.1-0.7-0.1-0.9
			C13.4,12.4,13.4,12.2,13.4,12.2z"/>
		<path class="st75" d="M18.4,10c0-0.1,0.1-0.1,0.1-0.2c0.1,0,0.1,0,0.2,0c0.1,0,0.3,0.1,0.4,0.2s0.3,0.4,0.5,0.6s0.3,0.6,0.5,0.9
			c0.2,0.3,0.3,0.7,0.5,1.1s0.3,0.7,0.4,1.1c0.1,0.4,0.2,0.7,0.3,1c0.1,0.3,0.2,0.6,0.2,0.8c0.1,0.2,0.1,0.4,0.1,0.5s0,0.2-0.1,0.2
			s-0.1,0.1-0.2,0.1c-0.1,0-0.1,0-0.2-0.1c0,0-0.1-0.1-0.1-0.1S21,16,21,16c0-0.1,0-0.1-0.1-0.1c0-0.1-0.1-0.2-0.1-0.3
			c-0.1-0.2-0.1-0.3-0.2-0.5s-0.1-0.3-0.2-0.5s-0.1-0.3-0.1-0.3c-0.4-0.1-0.7-0.1-1.1-0.2s-0.8-0.1-1.2-0.2h-0.1
			c-0.2,0.8-0.4,1.4-0.5,1.9c-0.1,0.5-0.3,0.8-0.4,1C17,16.9,16.9,17,16.8,17s-0.1-0.2-0.1-0.4c0-0.2,0-0.5,0-0.8s0.1-0.7,0.1-1.1
			c0.1-0.4,0.1-0.8,0.2-1.3s0.2-0.9,0.3-1.3s0.3-0.8,0.4-1.2S18.2,10.2,18.4,10z M18.2,12.7c0,0.2,0.1,0.3,0.2,0.4s0.3,0.1,0.5,0.2
			c0.2,0,0.4,0,0.6,0s0.4,0,0.5,0c0-0.2,0-0.4-0.1-0.7c-0.1-0.2-0.2-0.5-0.3-0.7c-0.1-0.2-0.2-0.5-0.3-0.7s-0.2-0.4-0.3-0.6
			c-0.1,0.1-0.1,0.2-0.2,0.3c-0.1,0.2-0.1,0.3-0.2,0.5c-0.1,0.2-0.1,0.4-0.2,0.6c-0.1,0.2-0.1,0.3-0.1,0.4c0,0,0,0.1,0,0.1
			C18.2,12.7,18.2,12.7,18.2,12.7z"/>
		<path class="st75" d="M22,10.7c0-0.2,0-0.3,0.1-0.4c0.1-0.1,0.1-0.2,0.2-0.3c0.1-0.1,0.2-0.1,0.3-0.1c0.1,0,0.3-0.1,0.4-0.1
			c0.1,0,0.3,0,0.4,0c0.1,0,0.3,0,0.4,0c0.2,0,0.4,0,0.6,0.1c0.2,0,0.4,0.1,0.6,0.2s0.3,0.2,0.4,0.4c0.1,0.2,0.2,0.4,0.2,0.7
			c0,0.2,0,0.5-0.1,0.7c-0.1,0.2-0.2,0.4-0.4,0.6c-0.1,0.2-0.3,0.4-0.5,0.6c-0.2,0.2-0.4,0.3-0.5,0.4s-0.4,0.2-0.5,0.3
			s-0.3,0.1-0.4,0.1c-0.1,0.2-0.1,0.4-0.1,0.7c0,0.2,0,0.5,0,0.7c0,0.2,0,0.4,0,0.6c0,0.2,0,0.4,0,0.5c0,0.1-0.1,0.3-0.2,0.3
			s-0.2,0.1-0.4,0.1c0-0.4-0.1-0.7-0.1-1.1s0-0.8-0.1-1.1s0-0.7,0-1.1c0-0.4,0-0.7-0.1-1s-0.1-0.6-0.1-0.9
			C22.1,11.1,22.1,10.9,22,10.7z M23.9,10.5c-0.1,0-0.2,0-0.3,0c-0.1,0-0.2,0-0.3,0.1c-0.1,0-0.2,0.1-0.3,0.1
			c-0.1,0.1-0.1,0.2-0.1,0.3v2c0.2,0,0.4-0.1,0.7-0.2c0.2-0.1,0.5-0.3,0.7-0.4c0.2-0.2,0.4-0.4,0.5-0.6c0.1-0.2,0.2-0.4,0.2-0.7
			c0-0.2,0-0.3-0.1-0.4c-0.1-0.1-0.1-0.2-0.2-0.2c-0.1,0-0.2-0.1-0.3-0.1C24.2,10.5,24.1,10.5,23.9,10.5z"/>
		<path class="st75" d="M26.3,10.6c0,0-0.1,0-0.1,0c0,0-0.1,0-0.2,0c-0.1,0-0.1,0-0.1-0.1s-0.1,0-0.1,0c0,0,0,0,0,0c0,0,0,0,0,0
			c0-0.1,0-0.1,0.1-0.2c0.1-0.1,0.1-0.1,0.2-0.1c0.1,0,0.1-0.1,0.2-0.1c0.1,0,0.1,0,0.2,0h0.1h0.1c0.1,0,0.3,0,0.5,0
			c0.2,0,0.4,0,0.6,0.1c0.2,0,0.4,0,0.7,0.1c0.2,0,0.4,0,0.6,0.1s0.3,0,0.5,0.1c0.1,0,0.2,0,0.2,0c0,0,0.1,0,0.2,0
			c0.1,0,0.1,0,0.2,0.1c0.1,0,0.1,0.1,0.2,0.1c0.1,0,0.1,0.1,0.1,0.1c0,0.1-0.1,0.1-0.1,0.2s-0.1,0.1-0.1,0.1c0,0-0.1,0-0.1,0
			s-0.1,0-0.1,0c-0.2,0-0.4,0-0.7,0c-0.2,0-0.4,0-0.7,0s-0.4,0-0.7,0c-0.2,0-0.4,0-0.7,0c0,0.1,0,0.2,0,0.4s0,0.4-0.1,0.6
			c0,0.2,0,0.4,0,0.6s0.1,0.4,0.2,0.5c0.2-0.1,0.4-0.2,0.6-0.2c0.2,0,0.4,0,0.6,0c0.1,0,0.2,0,0.3,0c0.1,0,0.3,0,0.4,0
			c0.1,0,0.2,0.1,0.3,0.2c0.1,0.1,0.1,0.2,0.1,0.3c0,0.1,0,0.2-0.1,0.2c0,0.1-0.1,0.1-0.3,0.1c0,0,0,0-0.1,0c0,0-0.1,0-0.2-0.1
			s-0.1,0-0.2-0.1s-0.1,0-0.1,0c0,0,0,0-0.1,0c0,0-0.1,0-0.1,0s-0.1,0-0.1,0c0,0-0.1,0-0.1,0c-0.1,0-0.2,0-0.3,0
			c-0.1,0-0.2,0-0.3,0.1c-0.1,0-0.1,0.1-0.2,0.2c0,0.1-0.1,0.2-0.1,0.3c0,0,0,0.1,0,0.2c0,0.1,0,0.2,0,0.4c0,0.1,0,0.3,0.1,0.4
			s0.1,0.3,0.1,0.4c0.1,0.1,0.1,0.2,0.2,0.3C28,16,28,16,28.1,16c0,0,0,0,0.1,0c0,0,0.1,0,0.1,0c0.2-0.1,0.4-0.3,0.5-0.4
			s0.4-0.3,0.6-0.4c0.2-0.1,0.4-0.2,0.6-0.3c0.2-0.1,0.4-0.1,0.6-0.1v0.4c0,0-0.1,0.1-0.2,0.2s-0.2,0.2-0.4,0.3s-0.3,0.3-0.6,0.4
			s-0.4,0.3-0.6,0.4s-0.4,0.2-0.6,0.3c-0.2,0.1-0.3,0.1-0.5,0.1c-0.2,0-0.3-0.1-0.5-0.2c-0.1-0.2-0.3-0.4-0.4-0.6s-0.2-0.6-0.3-0.9
			c-0.1-0.3-0.1-0.7-0.2-1.1s-0.1-0.7-0.1-1.1c0-0.4-0.1-0.7-0.1-1c0-0.3,0-0.6,0-0.8S26.3,10.7,26.3,10.6z"/>
	</g>
	<g class="st74">
		<path class="st75" d="M34.8,16.1c0-0.3,0-0.6,0.1-0.8s0.1-0.6,0.2-0.8c0.1-0.3,0.1-0.6,0.2-0.9s0.1-0.6,0.1-0.9c0,0,0-0.1,0-0.2
			c0-0.1,0-0.2,0-0.3s0-0.2,0-0.3c0-0.1,0-0.2,0-0.2c0,0,0-0.1-0.1-0.1c0,0-0.1-0.1-0.1-0.1H35c-0.2,0-0.3,0-0.4,0.1
			c-0.1,0.1-0.2,0.2-0.3,0.3c-0.1,0.1-0.2,0.2-0.2,0.4c-0.1,0.1-0.1,0.3-0.2,0.4c-0.1,0.1-0.2,0.2-0.3,0.3S33.4,13,33.2,13
			c0-0.3,0-0.5,0.1-0.8s0.2-0.5,0.4-0.7c0.2-0.2,0.4-0.4,0.6-0.5s0.5-0.2,0.8-0.2c0.1,0,0.2,0,0.3,0s0.1,0,0.2,0.1
			c0.1,0,0.1,0.1,0.1,0.2c0,0.1,0.1,0.2,0.1,0.3c0,0,0,0.1,0,0.2s0,0.2,0,0.3c0,0.1,0,0.2,0,0.4c0,0.1,0,0.2,0,0.2
			c0,0.3,0,0.5,0,0.8s-0.1,0.5-0.1,0.8c0,0.3-0.1,0.5-0.1,0.8s0,0.5,0,0.8h0.1l1.8-0.8c0,0,0,0,0,0c0,0,0,0,0.1,0c0,0,0.1,0,0.1,0
			s0,0,0.1,0c0,0,0.1,0,0.1,0c0.1,0,0.1,0,0.1,0c0,0,0.1,0,0.1,0.1s0,0.1,0,0.1c0,0.1,0,0.2-0.1,0.3c-0.1,0.1-0.1,0.1-0.2,0.1
			c-0.1,0-0.2,0.1-0.3,0.1c-0.1,0-0.2,0.1-0.2,0.1c0,0-0.1,0.1-0.2,0.1S37,15.9,36.9,16c-0.1,0.1-0.3,0.1-0.4,0.2
			c-0.1,0.1-0.3,0.1-0.4,0.2c-0.1,0.1-0.2,0.1-0.4,0.2c-0.1,0.1-0.2,0.1-0.2,0.1c0,0,0,0-0.1,0s0,0-0.1,0c0,0-0.1,0-0.1,0s0,0-0.1,0
			c-0.1,0-0.2,0-0.2,0c-0.1,0-0.1-0.1-0.1-0.1c0,0,0-0.1,0-0.2C34.8,16.3,34.8,16.2,34.8,16.1z"/>
	</g>
	<g class="st74">
		<path class="st76" d="M13.6,25.1h7.2c0.7,0,1.3,0.2,1.8,0.7c0.5,0.5,0.7,1.1,0.7,1.8v9.7h-2.7v-3.9h-6.9v3.9h-2.6v-9.7
			c0-0.7,0.2-1.3,0.7-1.8S12.9,25.1,13.6,25.1z M13.7,30.8h6.9v-3h-6.9V30.8z"/>
	</g>
	<g class="st74">
		<path class="st76" d="M14.1,40.1c-0.6-0.1-1-0.1-1.2-0.1c-0.3,0-0.4,0-0.4,0c0,0-0.1,0-0.1,0.1s0,0.1,0.1,0.1c0,0,0.2,0.1,0.5,0.1
			s0.5,0.1,0.6,0.2s0.3,0.1,0.4,0.2c0.1,0.1,0.2,0.2,0.3,0.4c0,0.1,0.1,0.3,0.1,0.6c0,0.5-0.1,0.8-0.4,1.1c-0.3,0.2-0.7,0.3-1.2,0.3
			c-0.3,0-0.5,0-0.8-0.1c-0.3,0-0.5-0.1-0.7-0.1L11,42.8l0.1-1.1c0.6,0.1,1.1,0.1,1.5,0.1c0.2,0,0.3,0,0.3-0.1c0,0,0-0.1-0.1-0.1
			c0,0-0.2,0-0.4-0.1c-0.6-0.1-0.9-0.2-1.1-0.4C11.1,41,11,40.7,11,40.3c0-0.5,0.1-0.9,0.4-1.1c0.3-0.2,0.7-0.3,1.2-0.3
			c0.4,0,0.8,0,1.3,0.1l0.3,0L14.1,40.1z"/>
		<path class="st76" d="M14.5,43v-4h1.4v4H14.5z"/>
		<path class="st76" d="M18,43h-1.8v-4H18c0.7,0,1.2,0.2,1.5,0.5c0.3,0.3,0.5,0.8,0.5,1.5c0,0.7-0.1,1.2-0.4,1.5
			C19.2,42.8,18.7,43,18,43z M18.5,41c0-0.4,0-0.6-0.1-0.7s-0.2-0.2-0.5-0.2h-0.2v1.8h0.2c0.2,0,0.4-0.1,0.5-0.2
			C18.5,41.6,18.5,41.4,18.5,41z"/>
	</g>
	<g class="st74">
		<path class="st76" d="M20.4,43v-4h3v1.1h-1.6v0.3H23v1.1h-1.3v0.4h1.6V43H20.4z"/>
	</g>
	<g class="st74">
		<path class="st75" d="M58.9,15.8c0-0.1,0-0.2-0.1-0.4c0-0.2-0.1-0.3-0.1-0.5s-0.1-0.4-0.1-0.6c0-0.2-0.1-0.4-0.1-0.6
			s-0.1-0.4-0.1-0.5c0-0.2,0-0.3,0-0.4c0,0,0-0.1,0-0.2c0-0.1,0-0.2,0-0.4c0-0.1,0-0.2,0.1-0.4c0-0.1,0-0.2,0.1-0.2c0,0,0,0,0.1,0
			s0.1,0,0.1,0c0,0,0.1,0,0.1,0s0.1,0,0.1,0c0.3,0,0.5,0,0.7,0.1c0.2,0.1,0.4,0.2,0.6,0.4s0.4,0.3,0.6,0.5c0.2,0.2,0.4,0.4,0.6,0.5
			s0.4,0.3,0.6,0.5s0.4,0.3,0.6,0.3c0,0,0-0.1,0-0.1c0-0.1,0-0.1,0-0.2s0-0.1,0-0.2c0-0.1,0-0.1,0-0.1c0-0.3,0-0.6-0.1-1
			c0-0.3-0.1-0.6-0.1-0.9c-0.1-0.3-0.1-0.6-0.1-0.9c0-0.3-0.1-0.6-0.1-1c0,0,0.1,0,0.1,0s0.1,0,0.2,0c0.1,0,0.1,0,0.2,0.1
			s0.1,0.1,0.1,0.1c0,0.4,0.1,0.8,0.1,1.1c0.1,0.4,0.1,0.8,0.2,1.1s0.1,0.8,0.2,1.1c0.1,0.4,0.1,0.8,0.1,1.1c0,0.1,0,0.1,0,0.2
			c0,0.1,0,0.2,0,0.2c0,0.1,0,0.1-0.1,0.2c0,0-0.1,0.1-0.2,0.1c-0.3,0-0.5-0.1-0.8-0.2c-0.2-0.1-0.5-0.3-0.7-0.5
			c-0.2-0.2-0.4-0.4-0.6-0.6c-0.2-0.2-0.4-0.4-0.6-0.6c-0.2-0.2-0.4-0.3-0.7-0.5c-0.2-0.1-0.5-0.2-0.7-0.2c0,0.3,0,0.6,0.1,0.8
			c0,0.3,0.1,0.5,0.1,0.8c0,0.3,0.1,0.5,0.1,0.8c0,0.3,0.1,0.5,0.1,0.8c0,0.1,0,0.2-0.1,0.2S59.3,16,59.2,16c-0.1,0-0.1,0-0.2,0
			C59,15.9,58.9,15.9,58.9,15.8z"/>
		<path class="st75" d="M64.3,9.9c0,0-0.1,0-0.1,0c0,0-0.1,0-0.2,0c-0.1,0-0.1,0-0.1-0.1s-0.1,0-0.1,0c0,0,0,0,0,0c0,0,0,0,0,0
			c0-0.1,0-0.1,0.1-0.2c0.1-0.1,0.1-0.1,0.2-0.1c0.1,0,0.1-0.1,0.2-0.1c0.1,0,0.1,0,0.2,0h0.1h0.1c0.1,0,0.3,0,0.5,0
			c0.2,0,0.4,0,0.6,0.1c0.2,0,0.4,0,0.7,0.1c0.2,0,0.4,0,0.6,0.1s0.3,0,0.5,0.1c0.1,0,0.2,0,0.2,0c0,0,0.1,0,0.2,0
			c0.1,0,0.1,0,0.2,0.1c0.1,0,0.1,0.1,0.2,0.1c0.1,0,0.1,0.1,0.1,0.1c0,0.1-0.1,0.1-0.1,0.2s-0.1,0.1-0.1,0.1c0,0-0.1,0-0.1,0
			s-0.1,0-0.1,0c-0.2,0-0.4,0-0.7,0c-0.2,0-0.4,0-0.7,0s-0.4,0-0.7,0c-0.2,0-0.4,0-0.7,0c0,0.1,0,0.2,0,0.4s0,0.4-0.1,0.6
			c0,0.2,0,0.4,0,0.6s0.1,0.4,0.2,0.5c0.2-0.1,0.4-0.2,0.6-0.2c0.2,0,0.4,0,0.6,0c0.1,0,0.2,0,0.3,0c0.1,0,0.3,0,0.4,0
			c0.1,0,0.2,0.1,0.3,0.2c0.1,0.1,0.1,0.2,0.1,0.3c0,0.1,0,0.2-0.1,0.2c0,0.1-0.1,0.1-0.3,0.1c0,0,0,0-0.1,0c0,0-0.1,0-0.2-0.1
			s-0.1,0-0.2-0.1s-0.1,0-0.1,0c0,0,0,0-0.1,0c0,0-0.1,0-0.1,0s-0.1,0-0.1,0c0,0-0.1,0-0.1,0c-0.1,0-0.2,0-0.3,0
			c-0.1,0-0.2,0-0.3,0.1c-0.1,0-0.1,0.1-0.2,0.2c0,0.1-0.1,0.2-0.1,0.3c0,0,0,0.1,0,0.2c0,0.1,0,0.2,0,0.4c0,0.1,0,0.3,0.1,0.4
			s0.1,0.3,0.1,0.4c0.1,0.1,0.1,0.2,0.2,0.3c0.1,0.1,0.1,0.1,0.2,0.1c0,0,0,0,0.1,0c0,0,0.1,0,0.1,0c0.2-0.1,0.4-0.3,0.5-0.4
			s0.4-0.3,0.6-0.4c0.2-0.1,0.4-0.2,0.6-0.3c0.2-0.1,0.4-0.1,0.6-0.1v0.4c0,0-0.1,0.1-0.2,0.2S68.2,14.8,68,15s-0.3,0.3-0.6,0.4
			s-0.4,0.3-0.6,0.4S66.5,16,66.3,16c-0.2,0.1-0.3,0.1-0.5,0.1c-0.2,0-0.3-0.1-0.5-0.2c-0.1-0.2-0.3-0.4-0.4-0.6s-0.2-0.6-0.3-0.9
			c-0.1-0.3-0.1-0.7-0.2-1.1s-0.1-0.7-0.1-1.1c0-0.4-0.1-0.7-0.1-1c0-0.3,0-0.6,0-0.8S64.3,10,64.3,9.9z"/>
		<path class="st75" d="M68.9,14c0-0.3,0-0.5,0.1-0.8s0.2-0.5,0.3-0.8c0.1-0.3,0.3-0.5,0.5-0.7c0.2-0.2,0.4-0.4,0.6-0.6
			c0.2-0.2,0.5-0.3,0.7-0.4c0.3-0.1,0.5-0.1,0.8-0.1c0.3,0,0.5,0.1,0.7,0.2s0.4,0.3,0.5,0.4s0.2,0.4,0.3,0.6
			c0.1,0.2,0.1,0.5,0.1,0.7c0,0.4-0.1,0.9-0.2,1.3c-0.1,0.4-0.3,0.8-0.6,1.1c-0.3,0.3-0.6,0.6-0.9,0.8c-0.4,0.2-0.8,0.3-1.3,0.3
			c-0.3,0-0.5-0.1-0.8-0.2s-0.4-0.3-0.5-0.5c-0.1-0.2-0.2-0.4-0.3-0.7C69,14.5,68.9,14.2,68.9,14z M69.6,14.1c0,0.1,0,0.3,0.1,0.4
			s0.1,0.3,0.2,0.4c0.1,0.1,0.2,0.2,0.3,0.3c0.1,0.1,0.3,0.1,0.4,0.1c0.3,0,0.7-0.1,1-0.2c0.3-0.2,0.5-0.4,0.7-0.6
			c0.2-0.3,0.4-0.5,0.5-0.8c0.1-0.3,0.2-0.6,0.2-0.9c0-0.2,0-0.4,0-0.5c0-0.2,0-0.4-0.1-0.5c-0.1-0.2-0.1-0.3-0.3-0.4
			c-0.1-0.1-0.3-0.1-0.5-0.1c-0.1,0-0.2,0-0.3,0c-0.1,0-0.2,0-0.4,0c-0.1,0-0.2,0.1-0.3,0.1c-0.1,0-0.1,0.1-0.1,0.2c0,0,0,0,0,0.1
			c0,0,0,0.1,0.1,0.1c0,0,0,0.1,0.1,0.1s0,0.1,0,0.1s0,0-0.1,0.1c0,0-0.1,0.1-0.1,0.1c-0.3,0.1-0.5,0.2-0.7,0.3
			c-0.2,0.1-0.3,0.2-0.4,0.4s-0.2,0.4-0.2,0.6C69.6,13.6,69.6,13.8,69.6,14.1z"/>
		<path class="st75" d="M74.5,15.8c0-0.1,0-0.2-0.1-0.4c0-0.2-0.1-0.3-0.1-0.5s-0.1-0.4-0.1-0.6c0-0.2-0.1-0.4-0.1-0.6
			S74,13.4,74,13.2c0-0.2,0-0.3,0-0.4c0,0,0-0.1,0-0.2c0-0.1,0-0.2,0-0.4c0-0.1,0-0.2,0.1-0.4c0-0.1,0-0.2,0.1-0.2c0,0,0,0,0.1,0
			s0.1,0,0.1,0c0,0,0.1,0,0.1,0s0.1,0,0.1,0c0.3,0,0.5,0,0.7,0.1c0.2,0.1,0.4,0.2,0.6,0.4s0.4,0.3,0.6,0.5c0.2,0.2,0.4,0.4,0.6,0.5
			s0.4,0.3,0.6,0.5s0.4,0.3,0.6,0.3c0,0,0-0.1,0-0.1c0-0.1,0-0.1,0-0.2s0-0.1,0-0.2c0-0.1,0-0.1,0-0.1c0-0.3,0-0.6-0.1-1
			c0-0.3-0.1-0.6-0.1-0.9c-0.1-0.3-0.1-0.6-0.1-0.9c0-0.3-0.1-0.6-0.1-1c0,0,0.1,0,0.1,0s0.1,0,0.2,0c0.1,0,0.1,0,0.2,0.1
			s0.1,0.1,0.1,0.1c0,0.4,0.1,0.8,0.1,1.1c0.1,0.4,0.1,0.8,0.2,1.1s0.1,0.8,0.2,1.1c0.1,0.4,0.1,0.8,0.1,1.1c0,0.1,0,0.1,0,0.2
			c0,0.1,0,0.2,0,0.2c0,0.1,0,0.1-0.1,0.2c0,0-0.1,0.1-0.2,0.1c-0.3,0-0.5-0.1-0.8-0.2c-0.2-0.1-0.5-0.3-0.7-0.5
			c-0.2-0.2-0.4-0.4-0.6-0.6c-0.2-0.2-0.4-0.4-0.6-0.6c-0.2-0.2-0.4-0.3-0.7-0.5c-0.2-0.1-0.5-0.2-0.7-0.2c0,0.3,0,0.6,0.1,0.8
			c0,0.3,0.1,0.5,0.1,0.8c0,0.3,0.1,0.5,0.1,0.8c0,0.3,0.1,0.5,0.1,0.8c0,0.1,0,0.2-0.1,0.2S74.9,16,74.8,16c-0.1,0-0.1,0-0.2,0
			C74.5,15.9,74.5,15.9,74.5,15.8z"/>
	</g>
	<g class="st74">
		<path class="st75" d="M81.5,10.5c0.2,0,0.4,0.1,0.6,0.2s0.3,0.3,0.4,0.5s0.2,0.5,0.3,0.7s0.1,0.6,0.2,0.9s0.1,0.6,0.2,0.9
			s0.1,0.5,0.3,0.7s0.2,0.4,0.4,0.5s0.3,0.2,0.6,0.2c0,0,0,0,0,0c0,0,0,0,0,0c0,0,0.1,0,0.1-0.1s0.1-0.1,0.1-0.1c0,0,0-0.1,0.1-0.3
			s0.1-0.3,0.1-0.6s0.1-0.5,0.2-0.8s0.1-0.6,0.2-0.9s0.2-0.6,0.2-0.8s0.2-0.5,0.2-0.7s0.1-0.4,0.2-0.5s0.1-0.2,0.2-0.2
			c0.1,0,0.1,0,0.1,0s0.1,0.1,0.1,0.1s0,0.1,0,0.1s0,0.1,0,0.1c0,0.1,0,0.2,0,0.4s-0.1,0.4-0.1,0.7s-0.1,0.6-0.2,0.9s-0.1,0.6-0.2,1
			s-0.2,0.6-0.3,0.9s-0.2,0.6-0.3,0.8s-0.2,0.4-0.3,0.6s-0.2,0.2-0.3,0.2c-0.1,0-0.3,0-0.4-0.1s-0.3-0.2-0.4-0.3s-0.2-0.3-0.3-0.4
			S83.1,15,83,14.8s-0.2-0.3-0.2-0.5s-0.1-0.3-0.2-0.4c-0.1-0.1-0.1-0.3-0.2-0.5s-0.2-0.4-0.3-0.6s-0.2-0.4-0.3-0.7
			s-0.2-0.4-0.2-0.6s-0.1-0.3-0.2-0.4s-0.1-0.2-0.1-0.2V10.5z"/>
		<path class="st75" d="M88.4,9.3c0-0.1,0.1-0.1,0.1-0.2s0.1,0,0.2,0c0.1,0,0.3,0.1,0.4,0.2s0.3,0.4,0.5,0.6s0.3,0.6,0.5,0.9
			s0.3,0.7,0.5,1.1s0.3,0.7,0.4,1.1s0.2,0.7,0.3,1s0.2,0.6,0.2,0.8s0.1,0.4,0.1,0.5s0,0.2-0.1,0.2s-0.1,0.1-0.2,0.1
			c-0.1,0-0.1,0-0.2-0.1S91,15.5,91,15.4s-0.1-0.1-0.1-0.2s0-0.1-0.1-0.1c0-0.1-0.1-0.2-0.1-0.3s-0.1-0.3-0.2-0.5s-0.1-0.3-0.2-0.5
			s-0.1-0.3-0.1-0.3c-0.4-0.1-0.7-0.1-1.1-0.2s-0.8-0.1-1.2-0.2h-0.1c-0.2,0.8-0.4,1.4-0.5,1.9s-0.3,0.8-0.4,1s-0.2,0.3-0.2,0.2
			s-0.1-0.2-0.1-0.4s0-0.5,0-0.8s0.1-0.7,0.1-1.1s0.1-0.8,0.2-1.3s0.2-0.9,0.3-1.3s0.3-0.8,0.4-1.2S88.2,9.5,88.4,9.3z M88.2,12
			c0,0.2,0.1,0.3,0.2,0.4s0.3,0.1,0.5,0.2s0.4,0,0.6,0s0.4,0,0.5,0c0-0.2,0-0.4-0.1-0.7s-0.2-0.5-0.3-0.7s-0.2-0.5-0.3-0.7
			s-0.2-0.4-0.3-0.6c-0.1,0.1-0.1,0.2-0.2,0.3s-0.1,0.3-0.2,0.5s-0.1,0.4-0.2,0.6s-0.1,0.3-0.1,0.4c0,0,0,0.1,0,0.1S88.2,12,88.2,12
			z"/>
		<path class="st75" d="M92,10c0-0.2,0-0.3,0.1-0.4s0.1-0.2,0.2-0.3s0.2-0.1,0.3-0.1s0.3-0.1,0.4-0.1s0.3,0,0.4,0s0.3,0,0.4,0
			c0.2,0,0.4,0,0.6,0.1s0.4,0.1,0.6,0.2s0.3,0.2,0.4,0.4s0.2,0.4,0.2,0.7c0,0.2,0,0.5-0.1,0.7s-0.2,0.4-0.4,0.6s-0.3,0.4-0.5,0.6
			s-0.4,0.3-0.5,0.4S93.7,13,93.5,13s-0.3,0.1-0.4,0.1c-0.1,0.2-0.1,0.4-0.1,0.7s0,0.5,0,0.7s0,0.4,0,0.6s0,0.4,0,0.5
			s-0.1,0.3-0.2,0.3S92.6,16,92.5,16c0-0.4-0.1-0.7-0.1-1.1s0-0.8-0.1-1.1s0-0.7,0-1.1s0-0.7-0.1-1s-0.1-0.6-0.1-0.9S92,10.2,92,10z
			 M93.9,9.8c-0.1,0-0.2,0-0.3,0s-0.2,0-0.3,0.1S93.1,9.9,93,10s-0.1,0.2-0.1,0.3v2c0.2,0,0.4-0.1,0.7-0.2s0.5-0.3,0.7-0.4
			s0.4-0.4,0.5-0.6s0.2-0.4,0.2-0.7c0-0.2,0-0.3-0.1-0.4s-0.1-0.2-0.2-0.2s-0.2-0.1-0.3-0.1S94,9.8,93.9,9.8z"/>
		<path class="st75" d="M95.7,14c0-0.3,0-0.5,0.1-0.8s0.2-0.5,0.3-0.8s0.3-0.5,0.5-0.7s0.4-0.4,0.6-0.6s0.5-0.3,0.7-0.4
			s0.5-0.1,0.8-0.1s0.5,0.1,0.7,0.2s0.4,0.3,0.5,0.4s0.2,0.4,0.3,0.6s0.1,0.5,0.1,0.7c0,0.4-0.1,0.9-0.2,1.3s-0.3,0.8-0.6,1.1
			s-0.6,0.6-0.9,0.8s-0.8,0.3-1.3,0.3c-0.3,0-0.5-0.1-0.8-0.2s-0.4-0.3-0.5-0.5s-0.2-0.4-0.3-0.7S95.7,14.2,95.7,14z M96.4,14.1
			c0,0.1,0,0.3,0.1,0.4s0.1,0.3,0.2,0.4s0.2,0.2,0.3,0.3s0.3,0.1,0.4,0.1c0.3,0,0.7-0.1,1-0.2s0.5-0.4,0.7-0.6s0.4-0.5,0.5-0.8
			s0.2-0.6,0.2-0.9c0-0.2,0-0.4,0-0.5s0-0.4-0.1-0.5s-0.1-0.3-0.3-0.4s-0.3-0.1-0.5-0.1c-0.1,0-0.2,0-0.3,0s-0.2,0-0.4,0
			s-0.2,0.1-0.3,0.1s-0.1,0.1-0.1,0.2c0,0,0,0,0,0.1s0,0.1,0.1,0.1s0,0.1,0.1,0.1s0,0.1,0,0.1s0,0-0.1,0.1s-0.1,0.1-0.1,0.1
			c-0.3,0.1-0.5,0.2-0.7,0.3s-0.3,0.2-0.4,0.4s-0.2,0.4-0.2,0.6S96.4,13.8,96.4,14.1z"/>
		<path class="st75" d="M100.7,10.6c0,0,0-0.1,0-0.2c0-0.1,0-0.2,0-0.3s0-0.2,0-0.3c0-0.1,0-0.2,0-0.2c0.1-0.1,0.1-0.2,0.3-0.2
			s0.3-0.1,0.4-0.1s0.3,0,0.4,0s0.3,0,0.3,0c0.1,0,0.2,0,0.4,0s0.3,0,0.5,0.1s0.3,0.1,0.5,0.1s0.3,0.1,0.4,0.2s0.2,0.2,0.3,0.3
			s0.1,0.3,0.1,0.4c0,0.2,0,0.4-0.1,0.5s-0.2,0.3-0.3,0.4s-0.3,0.3-0.5,0.4s-0.3,0.2-0.5,0.4s-0.3,0.2-0.3,0.4s-0.1,0.3-0.1,0.4
			c0,0,0,0,0,0s0,0,0,0c0.6,0.2,1.2,0.4,1.8,0.7s1.2,0.5,1.7,0.8c0,0,0,0,0.1,0.1s0,0.1,0.1,0.1s0,0.1,0,0.1s0,0.1,0,0.1
			c0,0,0,0.1,0,0.1s-0.1,0-0.1,0.1s-0.1,0-0.1,0s-0.1,0-0.1,0c-0.3,0-0.6-0.1-0.8-0.2s-0.6-0.3-0.8-0.4s-0.6-0.3-0.9-0.4
			s-0.6-0.2-0.9-0.2h-0.3c0.1,0.2,0.2,0.4,0.2,0.5s0.1,0.3,0.2,0.4s0.1,0.3,0.1,0.4s0,0.3,0,0.5c0,0,0,0.1,0,0.1s0,0.1,0,0.2
			s0,0.1,0,0.1s-0.1,0.1-0.1,0.1c-0.2-0.1-0.4-0.3-0.6-0.6s-0.3-0.6-0.4-0.9s-0.2-0.7-0.3-1.1s-0.2-0.8-0.2-1.1s-0.1-0.7-0.1-1
			S100.7,10.8,100.7,10.6z M101.4,11.1c0,0.1,0,0.2,0,0.3s0,0.2,0,0.3s0,0.2,0.1,0.3s0.1,0.2,0.1,0.3c0,0,0,0,0,0c0,0,0,0,0,0
			c0.1,0,0.2,0,0.3-0.1s0.3-0.1,0.4-0.2s0.3-0.2,0.4-0.3s0.3-0.2,0.4-0.4s0.2-0.3,0.3-0.4s0.1-0.3,0.1-0.4c0-0.1,0-0.2-0.1-0.3
			s-0.2-0.1-0.3-0.2S103,10,102.9,10s-0.2,0-0.3,0c-0.1,0-0.2,0-0.3,0s-0.2,0-0.4,0s-0.2,0.1-0.3,0.1s-0.2,0.1-0.2,0.2
			c0,0,0,0.1,0,0.2s0,0.2,0,0.3s0,0.2,0,0.3S101.4,11.1,101.4,11.1z"/>
		<path class="st75" d="M107.6,15.8c0-0.1,0.1-0.2,0.2-0.3s0.2-0.2,0.4-0.2s0.3-0.1,0.4-0.2s0.3-0.1,0.4-0.2s0.2-0.1,0.3-0.2
			s0.1-0.2,0.1-0.3c0-0.2,0-0.3-0.1-0.4s-0.2-0.2-0.3-0.3s-0.3-0.1-0.5-0.2s-0.4-0.1-0.6-0.2s-0.4-0.1-0.6-0.2s-0.3-0.1-0.5-0.2
			s-0.3-0.2-0.3-0.4s-0.1-0.3-0.1-0.5c0-0.2,0-0.3,0.1-0.5s0.2-0.3,0.3-0.4s0.3-0.3,0.4-0.4s0.3-0.2,0.5-0.3s0.3-0.1,0.5-0.2
			s0.3-0.1,0.5-0.1h0.1c0,0,0.1,0,0.2,0.1s0.2,0.1,0.2,0.1s0.1,0.1,0.2,0.1s0.1,0,0.1,0.1v0.2c-0.1,0-0.2,0-0.4,0.1
			s-0.3,0.1-0.5,0.1s-0.3,0.1-0.5,0.2s-0.3,0.2-0.5,0.2s-0.3,0.2-0.3,0.3s-0.1,0.3-0.1,0.4c0,0.2,0.1,0.4,0.2,0.5s0.4,0.2,0.6,0.3
			s0.5,0.2,0.8,0.2s0.5,0.1,0.8,0.2s0.4,0.2,0.6,0.4s0.2,0.3,0.2,0.6c0,0.1,0,0.3-0.1,0.4s-0.2,0.3-0.3,0.4s-0.3,0.3-0.4,0.4
			s-0.3,0.2-0.5,0.3s-0.3,0.2-0.5,0.2s-0.3,0.1-0.4,0.1c0,0-0.1,0-0.1,0s-0.1,0-0.1-0.1s-0.1-0.1-0.1-0.1S107.6,15.9,107.6,15.8z"/>
	</g>
	<g class="st74">
		<path class="st75" d="M114.7,13.2c0-0.1,0-0.2,0.1-0.2s0.1-0.1,0.2-0.2s0.2-0.1,0.3-0.1s0.2-0.1,0.2-0.1c0.2,0,0.2,0,0.3,0.1
			s0.1,0.2,0.1,0.3c0,0.1,0,0.2-0.1,0.3s-0.1,0.1-0.2,0.2s-0.2,0.1-0.2,0.1s-0.2,0-0.3,0c0,0,0,0,0,0c0,0,0,0,0,0c0,0,0,0-0.1-0.1
			s-0.1-0.1-0.1-0.1s-0.1-0.1-0.1-0.1S114.8,13.3,114.7,13.2C114.7,13.3,114.7,13.3,114.7,13.2C114.7,13.2,114.7,13.2,114.7,13.2z
			 M115.4,15.7c0-0.2,0-0.3,0.1-0.4s0.2-0.2,0.4-0.2s0.3-0.1,0.5-0.1s0.3,0,0.4,0c0,0.1,0,0.3-0.1,0.4s-0.1,0.2-0.2,0.3
			s-0.2,0.2-0.3,0.2s-0.3,0.1-0.4,0.1c-0.2,0-0.3,0-0.3-0.1S115.4,15.9,115.4,15.7z"/>
		<path class="st75" d="M117.9,15.8c0-0.2,0-0.4,0.1-0.6s0.2-0.4,0.3-0.6s0.2-0.4,0.3-0.6s0.1-0.4,0.1-0.7c0-0.2,0-0.4-0.1-0.6
			s-0.1-0.3-0.2-0.4s-0.2-0.3-0.3-0.4s-0.3-0.2-0.4-0.3s-0.3-0.2-0.4-0.3s-0.3-0.2-0.4-0.4c0-0.1,0-0.1,0.1-0.1s0.1,0,0.1-0.1
			s0.1,0,0.1,0s0.1,0,0.1,0c0.3,0,0.6,0.1,0.9,0.3s0.5,0.4,0.7,0.7s0.3,0.6,0.4,0.9s0.1,0.6,0.1,0.9c0,0.1,0,0.3,0,0.4
			s-0.1,0.4-0.1,0.6s-0.1,0.4-0.2,0.6s-0.1,0.4-0.2,0.5s-0.2,0.3-0.3,0.4s-0.3,0.2-0.4,0.2c-0.1,0-0.2,0-0.2-0.1
			S117.9,15.9,117.9,15.8z"/>
	</g>
</g>
</svg>
