<?xml version="1.0" encoding="utf-8"?>
<!-- Generator: Adobe Illustrator 23.0.0, SVG Export Plug-In . SVG Version: 6.00 Build 0)  -->
<svg version="1.1" id="Ebene_1" xmlns="http://www.w3.org/2000/svg" xmlns:xlink="http://www.w3.org/1999/xlink" x="0px" y="0px"
	 viewBox="0 0 142 86" style="enable-background:new 0 0 142 86;" xml:space="preserve">
<style type="text/css">
	.st0{clip-path:url(#SVGID_2_);fill:url(#SVGID_3_);}
	.st1{clip-path:url(#SVGID_5_);fill:none;stroke:#181716;stroke-linejoin:round;stroke-miterlimit:10;}
	.st2{clip-path:url(#SVGID_5_);fill:#FFFFFF;}
	.st3{clip-path:url(#SVGID_5_);fill:#181716;}
	.st4{fill:#9C9C9C;}
	.st5{fill:#B1B2B3;}
	.st6{fill:#C5C6C6;}
	.st7{fill:#D9DADA;}
	.st8{fill:#828282;}
	.st9{clip-path:url(#SVGID_7_);fill:#212121;}
	.st10{clip-path:url(#SVGID_7_);fill:#181716;}
	.st11{clip-path:url(#SVGID_7_);fill:#FFFFFF;}
	.st12{clip-path:url(#SVGID_7_);fill:#B1B2B3;}
	.st13{clip-path:url(#SVGID_7_);fill:#565655;}
	.st14{fill:#565655;}
	.st15{clip-path:url(#SVGID_9_);fill:#181716;}
	.st16{clip-path:url(#SVGID_9_);fill:#565655;}
	.st17{clip-path:url(#SVGID_11_);fill:#181716;}
	.st18{clip-path:url(#SVGID_11_);fill:#3A3A39;}
	.st19{clip-path:url(#SVGID_11_);fill:#565655;}
	.st20{clip-path:url(#SVGID_11_);fill:#868786;}
	.st21{clip-path:url(#SVGID_11_);fill:#FFFFFF;}
	.st22{clip-path:url(#SVGID_11_);fill:#B1B2B3;}
	.st23{fill:#6E6E6E;}
	.st24{clip-path:url(#SVGID_13_);fill:#6E6E6E;}
	.st25{clip-path:url(#SVGID_15_);fill:#6E6E6E;}
	.st26{clip-path:url(#SVGID_17_);fill:#6E6E6E;}
	.st27{fill:#484847;}
	.st28{font-family:'GloriaHallelujah';}
	.st29{font-size:8px;}
	.st30{letter-spacing:-1;}
	.st31{fill:#868786;}
	.st32{font-family:'Orbitron-Black';}
	.st33{font-size:17px;}
	.st34{font-family:'TitilliumWeb-Black';}
	.st35{font-size:6px;}
</style>
<g>
	<g>
		<defs>
			<path id="SVGID_1_" d="M58.7,39.5c-0.1-0.1-0.1-0.3-0.1-0.5c0.6-1.7,0.9-3.5,0.9-5.4c0-1.8-0.3-3.6-0.9-5.2
				c-0.1-0.2,0-0.3,0.1-0.5c0.1-0.1,0.2-0.2,0.4-0.2h16c0.2,0,0.3,0.1,0.4,0.2c0.1,0.1,0.1,0.3,0.1,0.5c-0.6,1.7-0.9,3.5-0.9,5.2
				c0,1.8,0.3,3.6,0.9,5.4c0.1,0.2,0,0.3-0.1,0.5c-0.1,0.1-0.2,0.2-0.4,0.2H59.1C58.9,39.7,58.8,39.7,58.7,39.5 M32.1,33.4
				c0-4,3.4-7.2,7.6-7.2c4.2,0,7.6,3.2,7.6,7.2c0,4-3.4,7.2-7.6,7.2C35.5,40.6,32.1,37.4,32.1,33.4 M92.9,33.4c0-4,3.4-7.2,7.6-7.2
				c4.2,0,7.6,3.2,7.6,7.2c0,4-3.4,7.2-7.6,7.2C96.3,40.6,92.9,37.4,92.9,33.4 M7.7,0.5c-2.9,0-5.2,2.2-5.2,4.9v45.4H2.3
				c-1.5,0-2.8,1.2-2.8,2.7v21.2c0,1.5,1.3,2.7,2.8,2.7h0.2v0.3c0,2.7,2.3,4.9,5.2,4.9h16.7l4,1.8c1.8,0.8,3.7,1.2,5.7,1.2h73.5
				c1.9,0,3.9-0.4,5.7-1.2l4.2-1.8l16.9,0c2.9,0,5.2-2.2,5.2-4.9v-0.3h0.2c1.5,0,2.8-1.2,2.8-2.7V53.5c0-1.5-1.3-2.7-2.8-2.7h-0.2
				V5.4c0-2.7-2.3-4.9-5.2-4.9H7.7z"/>
		</defs>
		<clipPath id="SVGID_2_">
			<use xlink:href="#SVGID_1_"  style="overflow:visible;"/>
		</clipPath>
		
			<linearGradient id="SVGID_3_" gradientUnits="userSpaceOnUse" x1="1.0131" y1="87.0085" x2="2.0131" y2="87.0085" gradientTransform="matrix(-72.4704 -123.5227 -123.5227 72.4704 10928.1787 -6075.6343)">
			<stop  offset="0" style="stop-color:#FF00FF"/>
			<stop  offset="0.978" style="stop-color:#8C94FF"/>
			<stop  offset="1" style="stop-color:#8C94FF"/>
		</linearGradient>
		<polygon class="st0" points="36.1,147.9 -37.6,22.3 105.9,-61.9 179.6,63.7 		"/>
	</g>
	<g>
		<defs>
			<rect id="SVGID_4_" x="-1" width="144" height="86"/>
		</defs>
		<clipPath id="SVGID_5_">
			<use xlink:href="#SVGID_4_"  style="overflow:visible;"/>
		</clipPath>
		<path class="st1" d="M100.5,40.6c-4.2,0-7.6-3.2-7.6-7.2c0-4,3.4-7.2,7.6-7.2c4.2,0,7.6,3.2,7.6,7.2
			C108.1,37.4,104.7,40.6,100.5,40.6z M58.6,39.1c0.6-1.7,0.9-3.5,0.9-5.4c0-1.8-0.3-3.6-0.9-5.2c-0.1-0.2,0-0.3,0.1-0.5
			c0.1-0.1,0.2-0.2,0.4-0.2h16c0.2,0,0.3,0.1,0.4,0.2c0.1,0.1,0.1,0.3,0.1,0.5c-0.6,1.7-0.9,3.4-0.9,5.2c0,1.8,0.3,3.6,0.9,5.4
			c0.1,0.2,0,0.3-0.1,0.5c-0.1,0.1-0.2,0.2-0.4,0.2H59.1c-0.2,0-0.3-0.1-0.4-0.2C58.6,39.4,58.6,39.2,58.6,39.1z M39.7,40.6
			c-4.2,0-7.6-3.2-7.6-7.2c0-4,3.4-7.2,7.6-7.2c4.2,0,7.6,3.2,7.6,7.2C47.4,37.4,43.9,40.6,39.7,40.6z M139.7,50.8h-0.2V5.4
			c0-2.7-2.3-4.9-5.2-4.9H7.7c-2.9,0-5.2,2.2-5.2,4.9v45.4H2.3c-1.5,0-2.8,1.2-2.8,2.7v21.2c0,1.5,1.3,2.7,2.8,2.7h0.2v0.3
			c0,2.7,2.3,4.9,5.2,4.9h16.7l4,1.8c1.8,0.8,3.7,1.2,5.7,1.2h73.5c1.9,0,3.9-0.4,5.7-1.2l4.2-1.8l16.9,0c2.9,0,5.2-2.2,5.2-4.9
			v-0.3h0.2c1.5,0,2.8-1.2,2.8-2.7V53.5C142.5,52,141.2,50.8,139.7,50.8z"/>
		<path class="st2" d="M100.5,40.1c-3.9,0-7.1-3-7.1-6.7c0-3.7,3.2-6.7,7.1-6.7c3.9,0,7.1,3,7.1,6.7
			C107.6,37.1,104.4,40.1,100.5,40.1 M59,39.2c0.6-1.7,0.9-3.6,0.9-5.5c0-1.9-0.3-3.7-0.9-5.4h16c-0.6,1.7-0.9,3.5-0.9,5.4
			c0,1.9,0.3,3.8,0.9,5.5H59z M39.6,40.1c-3.9,0-7.1-3-7.1-6.7c0-3.7,3.2-6.7,7.1-6.7c3.9,0,7.1,3,7.1,6.7
			C46.7,37.1,43.5,40.1,39.6,40.1 M127.8,5.8H14.1l-5.9,5.5v40.9h125.5V11.3L127.8,5.8z"/>
		<path class="st3" d="M59.5,38.9h15.1c-0.5-1.7-0.8-3.4-0.8-5.2c0-1.7,0.3-3.4,0.8-5h-15c0.5,1.6,0.8,3.3,0.8,5
			C60.3,35.5,60,37.2,59.5,38.9 M75.6,39.6H58.5l0.2-0.5c0.6-1.7,0.9-3.6,0.9-5.4c0-1.8-0.3-3.6-0.9-5.3l-0.2-0.5h17.1l-0.2,0.5
			c-0.6,1.7-0.9,3.5-0.9,5.3c0,1.9,0.3,3.7,0.9,5.4L75.6,39.6z M39.6,27.1c-3.7,0-6.8,2.8-6.8,6.3s3,6.4,6.8,6.4
			c3.7,0,6.8-2.8,6.8-6.4S43.3,27.1,39.6,27.1 M39.6,40.5c-4.1,0-7.5-3.2-7.5-7.1c0-3.9,3.4-7.1,7.5-7.1c4.1,0,7.5,3.2,7.5,7.1
			C47.1,37.3,43.8,40.5,39.6,40.5 M100.5,27.1c-3.7,0-6.8,2.8-6.8,6.3s3,6.4,6.8,6.4s6.8-2.8,6.8-6.4S104.2,27.1,100.5,27.1
			 M100.5,40.5c-4.1,0-7.5-3.2-7.5-7.1c0-3.9,3.4-7.1,7.5-7.1c4.1,0,7.5,3.2,7.5,7.1C108,37.3,104.6,40.5,100.5,40.5 M8.5,51.9
			h124.8V11.5l-5.7-5.3H14.3l-5.7,5.3V51.9z M134.1,52.6H7.8V11.2l6.2-5.7h114l6.2,5.7V52.6z"/>
	</g>
	<polygon class="st4" points="14.2,5.8 8.3,11.3 8.2,20.1 37.6,19.8 44.6,5.9 	"/>
	<polygon class="st5" points="40.4,19.5 47.2,5.8 45.6,5.8 38.8,19.5 	"/>
	<polygon class="st6" points="42.3,19.5 49,5.8 48.2,5.8 41.5,19.5 	"/>
	<polygon class="st7" points="44,19.5 50.7,5.8 49.9,5.8 43.1,19.5 	"/>
	
		<rect x="8.2" y="19.1" transform="matrix(0.9999 -1.081048e-02 1.081048e-02 0.9999 -0.2069 0.7678)" class="st8" width="125.5" height="0.9"/>
	<g>
		<defs>
			<rect id="SVGID_6_" x="-1" width="144" height="86"/>
		</defs>
		<clipPath id="SVGID_7_">
			<use xlink:href="#SVGID_6_"  style="overflow:visible;"/>
		</clipPath>
		<path class="st9" d="M59.5,38.9h15.1c-0.5-1.7-0.8-3.4-0.8-5.2c0-1.7,0.3-3.4,0.8-5h-15c0.5,1.6,0.8,3.3,0.8,5
			C60.3,35.5,60,37.2,59.5,38.9 M75.6,39.6H58.5l0.2-0.5c0.6-1.7,0.9-3.6,0.9-5.4c0-1.8-0.3-3.6-0.9-5.3l-0.2-0.5h17.1l-0.2,0.5
			c-0.6,1.7-0.9,3.5-0.9,5.3c0,1.9,0.3,3.7,0.9,5.4L75.6,39.6z M39.6,27.1c-3.7,0-6.8,2.8-6.8,6.3s3,6.4,6.8,6.4
			c3.7,0,6.8-2.8,6.8-6.4S43.3,27.1,39.6,27.1 M39.6,40.5c-4.1,0-7.5-3.2-7.5-7.1c0-3.9,3.4-7.1,7.5-7.1c4.1,0,7.5,3.2,7.5,7.1
			C47.1,37.3,43.8,40.5,39.6,40.5 M100.5,27.1c-3.7,0-6.8,2.8-6.8,6.3s3,6.4,6.8,6.4s6.8-2.8,6.8-6.4S104.2,27.1,100.5,27.1
			 M100.5,40.5c-4.1,0-7.5-3.2-7.5-7.1c0-3.9,3.4-7.1,7.5-7.1c4.1,0,7.5,3.2,7.5,7.1C108,37.3,104.6,40.5,100.5,40.5 M8.5,51.9
			h124.8V11.5l-5.7-5.3H14.3l-5.7,5.3V51.9z M134.1,52.6H7.8V11.2l6.2-5.7h114l6.2,5.7V52.6z"/>
		<path class="st10" d="M39.7,27.2c-3.7,0-6.6,2.8-6.6,6.2s3,6.2,6.6,6.2c3.7,0,6.6-2.8,6.6-6.2S43.4,27.2,39.7,27.2 M39.7,40.6
			c-4.2,0-7.6-3.2-7.6-7.2s3.4-7.2,7.6-7.2s7.6,3.2,7.6,7.2S43.9,40.6,39.7,40.6"/>
		<path class="st10" d="M100.5,27.2c-3.7,0-6.6,2.8-6.6,6.2s3,6.2,6.6,6.2c3.7,0,6.6-2.8,6.6-6.2S104.2,27.2,100.5,27.2 M100.5,40.6
			c-4.2,0-7.6-3.2-7.6-7.2s3.4-7.2,7.6-7.2c4.2,0,7.6,3.2,7.6,7.2S104.7,40.6,100.5,40.6"/>
		<path class="st11" d="M138,5.4v72.3l-0.1-2.3l-0.1-2.3l-0.2-4.5l-0.2-9l-0.1-2.3l0-2.3l-0.1-4.5l0-9l0-9c0-3,0-6,0.1-9l0.2-9
			l0.2-4.5l0.1-2.3L138,5.4z"/>
		<path class="st11" d="M4.7,77.7v-49V16.5v-6.1V7.3V5.8c0-0.3,0-0.5,0-0.8c0-0.3,0.1-0.5,0.2-0.7c0.4-0.9,1.4-1.6,2.5-1.7
			c1.1,0,2.2,0,3.3,0h6.5h13h104.1c-17.3,0.6-34.7,0.7-52,0.7l-52,0.1l-6.5,0l-6.5,0l-6.5,0l-1.6,0l-0.8,0l-0.4,0H7.7
			c-0.1,0-0.1,0-0.2,0c-0.8,0-1.5,0.5-1.8,1.2C5.7,4.8,5.6,4.9,5.6,5.1c0,0.1,0,0.2,0,0.3l0,0.4l0,1.5l0,3.1l0,6.1l0,12.2L5.4,53.2
			c0,2,0,4.1-0.1,6.1l-0.1,3.1c0,1-0.1,2-0.1,3.1c-0.1,2-0.1,4.1-0.2,6.1C4.9,73.6,4.9,75.7,4.7,77.7"/>
		<path class="st11" d="M2.5,52.9c-0.6,0.2-1,0.7-1.2,1.2c-0.1,0.2-0.1,0.4-0.1,0.6c0,0.2,0,0.4,0,0.7v17.1L1.7,62l0.2-5.3L2,55.1
			l0-0.2l0-0.1l0-0.1c0-0.1,0.1-0.3,0.1-0.4c0.1-0.2,0.2-0.4,0.4-0.5V52.9z"/>
		<path class="st12" d="M10,77.1c0,0.9-0.8,1.7-1.8,1.7c-1,0-1.8-0.8-1.8-1.7c0-0.9,0.8-1.7,1.8-1.7C9.2,75.4,10,76.1,10,77.1"/>
		<path class="st10" d="M7.7,78.2c-0.1,0-0.1,0-0.2,0c-0.2-0.1-0.3-0.3-0.2-0.5L8.3,76c0.1-0.2,0.3-0.2,0.5-0.2
			C8.9,76,9,76.2,8.9,76.3L8.1,78C8,78.1,7.9,78.2,7.7,78.2"/>
		<path class="st10" d="M9,77.8c-0.1,0-0.1,0-0.2,0l-1.7-0.8C7,76.8,6.9,76.6,7,76.4c0.1-0.2,0.3-0.2,0.5-0.2l1.7,0.8
			c0.2,0.1,0.3,0.3,0.2,0.5C9.3,77.7,9.2,77.8,9,77.8"/>
		<path class="st12" d="M10.6,77.6c0,1.2-1,2.1-2.2,2.1c-1.1,0-2-0.8-2.2-1.8c0.3,0.7,1.1,1.3,2.1,1.3c1.2,0,2.2-0.9,2.2-2.1
			c0-0.1,0-0.2,0-0.3C10.5,77,10.6,77.3,10.6,77.6"/>
		<path class="st12" d="M135.3,77.4c0,0.9-0.8,1.7-1.8,1.7c-1,0-1.8-0.8-1.8-1.7s0.8-1.7,1.8-1.7C134.5,75.7,135.3,76.5,135.3,77.4"
			/>
		<path class="st10" d="M132.6,78c-0.2,0-0.3-0.1-0.3-0.2c-0.1-0.2,0-0.4,0.2-0.4l1.8-0.6c0.2-0.1,0.4,0,0.5,0.2
			c0.1,0.2,0,0.4-0.2,0.4l-1.8,0.6C132.7,78,132.6,78,132.6,78"/>
		<path class="st10" d="M133.8,78.5c-0.2,0-0.3-0.1-0.3-0.2l-0.6-1.7c-0.1-0.2,0-0.4,0.2-0.4c0.2-0.1,0.4,0,0.5,0.2l0.6,1.7
			c0.1,0.2,0,0.4-0.2,0.4C133.9,78.5,133.9,78.5,133.8,78.5"/>
		<path class="st11" d="M135.9,77.9c0,1.2-1,2.1-2.2,2.1c-1.1,0-2-0.8-2.2-1.8c0.3,0.8,1.1,1.3,2.1,1.3c1.2,0,2.2-1,2.2-2.1
			c0-0.1,0-0.2,0-0.3C135.8,77.3,135.9,77.6,135.9,77.9"/>
		<path class="st11" d="M10,5.9c0,0.9-0.8,1.7-1.8,1.7c-1,0-1.8-0.8-1.8-1.7c0-0.9,0.8-1.7,1.8-1.7C9.2,4.2,10,4.9,10,5.9"/>
		<path class="st10" d="M7.7,7c-0.1,0-0.1,0-0.2,0C7.4,6.8,7.3,6.6,7.4,6.5l0.9-1.6c0.1-0.2,0.3-0.2,0.5-0.2C8.9,4.8,9,5,8.9,5.1
			L8.1,6.8C8,6.9,7.9,7,7.7,7"/>
		<path class="st10" d="M9,6.5c-0.1,0-0.1,0-0.2,0L7.1,5.7C7,5.6,6.9,5.4,7,5.2C7.1,5.1,7.3,5,7.5,5.1l1.7,0.8
			C9.4,6,9.4,6.2,9.4,6.4C9.3,6.5,9.2,6.5,9,6.5"/>
		<path class="st12" d="M10.6,6.4c0,1.2-1,2.1-2.2,2.1c-1.1,0-2-0.8-2.2-1.8C6.5,7.5,7.2,8,8.2,8c1.2,0,2.2-0.9,2.2-2.1
			c0-0.1,0-0.2,0-0.3C10.5,5.8,10.6,6.1,10.6,6.4"/>
		<path class="st12" d="M135.3,6.2c0,0.9-0.8,1.7-1.8,1.7c-1,0-1.8-0.8-1.8-1.7c0-0.9,0.8-1.7,1.8-1.7
			C134.5,4.5,135.3,5.3,135.3,6.2"/>
		<path class="st10" d="M132.6,6.8c-0.2,0-0.3-0.1-0.3-0.2c-0.1-0.2,0-0.4,0.2-0.4l1.8-0.6c0.2-0.1,0.4,0,0.5,0.2
			c0.1,0.2,0,0.4-0.2,0.4l-1.8,0.6C132.7,6.8,132.6,6.8,132.6,6.8"/>
		<path class="st10" d="M133.8,7.3c-0.2,0-0.3-0.1-0.3-0.2l-0.6-1.7c-0.1-0.2,0-0.4,0.2-0.4c0.2-0.1,0.4,0,0.5,0.2l0.6,1.7
			c0.1,0.2,0,0.4-0.2,0.4C133.9,7.3,133.9,7.3,133.8,7.3"/>
		<path class="st12" d="M135.9,6.7c0,1.2-1,2.1-2.2,2.1c-1.1,0-2-0.8-2.2-1.8c0.3,0.8,1.1,1.3,2.1,1.3c1.2,0,2.2-1,2.2-2.1
			c0-0.1,0-0.2,0-0.3C135.8,6.1,135.9,6.4,135.9,6.7"/>
		<path class="st13" d="M39.7,27.2c-3.7,0-6.6,2.8-6.6,6.2s3,6.2,6.6,6.2c3.7,0,6.6-2.8,6.6-6.2S43.4,27.2,39.7,27.2 M39.7,40.6
			c-4.2,0-7.6-3.2-7.6-7.2s3.4-7.2,7.6-7.2s7.6,3.2,7.6,7.2S43.9,40.6,39.7,40.6"/>
	</g>
	<rect x="38.4" y="27" class="st14" width="2.7" height="2.5"/>
	<polygon class="st14" points="44.1,32.6 42.7,30.5 45,29.2 46.4,31.4 	"/>
	<polygon class="st14" points="42.7,36.5 44.1,34.3 46.4,35.6 45,37.7 	"/>
	<rect x="38.4" y="37.4" class="st14" width="2.7" height="2.5"/>
	<polygon class="st14" points="35.4,34.3 36.7,36.5 34.4,37.7 33.1,35.6 	"/>
	<polygon class="st14" points="36.7,30.5 35.4,32.6 33.1,31.4 34.4,29.2 	"/>
	<g>
		<defs>
			<rect id="SVGID_8_" x="-1" width="144" height="86"/>
		</defs>
		<clipPath id="SVGID_9_">
			<use xlink:href="#SVGID_8_"  style="overflow:visible;"/>
		</clipPath>
		<path class="st15" d="M39.7,26.8c-3.9,0-7,3-7,6.6c0,3.6,3.1,6.6,7,6.6s7-3,7-6.6C46.7,29.8,43.6,26.8,39.7,26.8 M39.7,40.2
			c-4,0-7.3-3.1-7.3-6.8c0-3.8,3.3-6.8,7.3-6.8c4,0,7.3,3.1,7.3,6.8C47,37.2,43.7,40.2,39.7,40.2"/>
		<path class="st16" d="M100.5,27.2c-3.7,0-6.6,2.8-6.6,6.2s3,6.2,6.6,6.2c3.7,0,6.6-2.8,6.6-6.2S104.2,27.2,100.5,27.2 M100.5,40.6
			c-4.2,0-7.6-3.2-7.6-7.2s3.4-7.2,7.6-7.2c4.2,0,7.6,3.2,7.6,7.2S104.7,40.6,100.5,40.6"/>
	</g>
	<rect x="99.2" y="27" class="st14" width="2.7" height="2.5"/>
	<polygon class="st14" points="104.9,32.6 103.5,30.5 105.8,29.2 107.2,31.4 	"/>
	<polygon class="st14" points="103.5,36.5 104.9,34.3 107.2,35.6 105.8,37.7 	"/>
	<rect x="99.2" y="37.4" class="st14" width="2.7" height="2.5"/>
	<polygon class="st14" points="96.2,34.3 97.5,36.5 95.2,37.7 93.9,35.6 	"/>
	<polygon class="st14" points="97.5,30.5 96.2,32.6 93.9,31.4 95.2,29.2 	"/>
	<g>
		<defs>
			<rect id="SVGID_10_" x="-1" width="144" height="86"/>
		</defs>
		<clipPath id="SVGID_11_">
			<use xlink:href="#SVGID_10_"  style="overflow:visible;"/>
		</clipPath>
		<path class="st17" d="M100.5,26.8c-3.9,0-7,3-7,6.6c0,3.6,3.1,6.6,7,6.6c3.9,0,7-3,7-6.6C107.5,29.8,104.4,26.8,100.5,26.8
			 M100.5,40.2c-4,0-7.3-3.1-7.3-6.8c0-3.8,3.3-6.8,7.3-6.8c4,0,7.3,3.1,7.3,6.8C107.8,37.2,104.5,40.2,100.5,40.2"/>
		<path class="st18" d="M39.7,26.8c-3.9,0-7,3-7,6.6c0,3.6,3.1,6.6,7,6.6s7-3,7-6.6C46.7,29.8,43.6,26.8,39.7,26.8 M39.7,40.2
			c-4,0-7.3-3.1-7.3-6.8c0-3.8,3.3-6.8,7.3-6.8c4,0,7.3,3.1,7.3,6.8C47,37.2,43.7,40.2,39.7,40.2 M100.5,26.8c-3.9,0-7,3-7,6.6
			c0,3.6,3.1,6.6,7,6.6c3.9,0,7-3,7-6.6C107.5,29.8,104.4,26.8,100.5,26.8 M100.5,40.2c-4,0-7.3-3.1-7.3-6.8c0-3.8,3.3-6.8,7.3-6.8
			c4,0,7.3,3.1,7.3,6.8C107.8,37.2,104.5,40.2,100.5,40.2"/>
		<path class="st19" d="M100.5,40.1c-3.9,0-7.1-3-7.1-6.7c0-3.7,3.2-6.7,7.1-6.7c3.9,0,7.1,3,7.1,6.7
			C107.6,37.1,104.5,40.1,100.5,40.1 M59.1,39.3c0.6-1.7,0.9-3.6,0.9-5.5c0-1.9-0.3-3.7-0.9-5.4h16c-0.6,1.7-0.9,3.5-0.9,5.4
			c0,1.9,0.3,3.8,0.9,5.5H59.1z M39.7,40.1c-3.9,0-7.1-3-7.1-6.7c0-3.7,3.2-6.7,7.1-6.7c3.9,0,7.1,3,7.1,6.7
			C46.9,37.1,43.7,40.1,39.7,40.1 M112.4,22.4H29.6c-2.1,0-3.9,1.6-3.9,3.6v16.3c0,0.8,0.3,1.5,0.7,2.1c0.1,0.1,0.2,0.2,0.3,0.3
			c0.7,0.8,1.7,1.2,2.9,1.2h82.8c2.1,0,3.8-1.6,3.8-3.6V26.1C116.2,24.1,114.5,22.4,112.4,22.4"/>
		<path class="st20" d="M48.8,34.5c0,3.8-3.3,6.9-7.4,6.9c-1.5,0-2.9-0.4-4-1.1c0.7,0.2,1.5,0.3,2.3,0.3c4.2,0,7.7-3.2,7.7-7.2
			c0-1.7-0.7-3.3-1.8-4.6C47.5,30.1,48.8,32.1,48.8,34.5"/>
		<path class="st20" d="M109.9,34.5c0,3.8-3.3,6.9-7.4,6.9c-1.5,0-2.9-0.4-4-1.1c0.7,0.2,1.5,0.3,2.3,0.3c4.2,0,7.7-3.2,7.7-7.2
			c0-1.7-0.7-3.3-1.8-4.6C108.7,30.1,109.9,32.1,109.9,34.5"/>
		<path class="st21" d="M58.5,37.9c0-0.5,0.1-1.1,0.1-1.6c0-0.5,0.1-1.1,0.1-1.6c0-0.5,0.1-1.1,0.1-1.6c0-0.5,0-1.1,0.1-1.6
			c0.2,0.5,0.3,1.1,0.3,1.6c0.1,0.5,0.1,1.1,0,1.6c0,0.5-0.1,1.1-0.2,1.6C58.9,36.9,58.8,37.4,58.5,37.9"/>
		<path class="st21" d="M57.7,37.5c0-0.5,0-0.9,0.1-1.4l0.1-1.3l0.1-1.3c0-0.4,0.1-0.9,0.1-1.3c0.2,0.4,0.2,0.9,0.3,1.3
			c0,0.5,0.1,0.9,0,1.4c0,0.5-0.1,0.9-0.2,1.4C58.1,36.6,57.9,37,57.7,37.5"/>
		<path class="st21" d="M56.9,37c0-0.4,0-0.7,0-1.1c0-0.4,0-0.7,0-1.1c0-0.4,0.1-0.7,0.1-1.1c0-0.4,0.1-0.7,0.2-1.1
			c0.1,0.4,0.2,0.7,0.2,1.1c0,0.4,0,0.7,0,1.1c0,0.4-0.1,0.7-0.2,1.1C57.2,36.3,57.1,36.6,56.9,37"/>
		<path class="st21" d="M75.8,29.6c-0.1,0.7-0.2,1.4-0.2,2.1c0,0.7-0.1,1.4-0.1,2.1c0,0.7,0,1.4,0.1,2.1c0.1,0.7,0.2,1.4,0.2,2.1
			c-0.3-0.7-0.5-1.4-0.6-2.1c-0.1-0.7-0.2-1.4-0.2-2.2c0-0.7,0-1.5,0.2-2.2C75.3,31,75.5,30.3,75.8,29.6"/>
		<path class="st21" d="M76.9,29.8c-0.1,0.7-0.1,1.3-0.2,2c0,0.7-0.1,1.3-0.1,2c0,0.7,0,1.3,0.1,2c0.1,0.7,0.1,1.3,0.2,2
			c-0.3-0.6-0.5-1.3-0.6-2c-0.1-0.7-0.2-1.3-0.2-2c0-0.7,0-1.4,0.2-2C76.5,31,76.7,30.4,76.9,29.8"/>
		<path class="st21" d="M78.1,29.9c0,0.6-0.1,1.3-0.1,1.9c0,0.6-0.1,1.2,0,1.9c0,0.6,0,1.2,0.1,1.9c0,0.6,0.1,1.2,0.2,1.9
			c-0.3-0.6-0.4-1.2-0.5-1.8c-0.1-0.6-0.2-1.3-0.2-1.9c0-0.6,0-1.3,0.2-1.9C77.7,31.1,77.8,30.5,78.1,29.9"/>
		<path class="st21" d="M79.2,30.1l-0.1,1.7c0,0.6,0,1.1,0,1.7c0,0.6,0,1.1,0.1,1.7l0.1,1.7c-0.2-0.5-0.4-1.1-0.5-1.7
			c-0.1-0.6-0.2-1.2-0.2-1.8c0-0.6,0-1.2,0.1-1.8C78.8,31.2,79,30.6,79.2,30.1"/>
		<path class="st21" d="M80.3,30.3c0,0.5,0,1.1-0.1,1.6c0,0.5,0,1.1,0,1.6c0,0.5,0,1.1,0,1.6c0,0.5,0.1,1.1,0.1,1.6
			c-0.2-0.5-0.4-1-0.5-1.6c-0.1-0.5-0.1-1.1-0.1-1.6c0-0.5,0-1.1,0.1-1.6C80,31.3,80.1,30.8,80.3,30.3"/>
		<path class="st21" d="M81.5,30.4c0,0.5,0,1,0,1.5c0,0.5,0,1,0,1.4c0,0.5,0,1,0,1.4c0,0.5,0,1,0,1.5c-0.2-0.5-0.3-0.9-0.4-1.4
			c-0.1-0.5-0.1-1-0.1-1.5c0-0.5,0-1,0.1-1.5C81.1,31.4,81.3,30.9,81.5,30.4"/>
		<path class="st21" d="M82.6,30.6c0,0.5,0,0.9,0,1.3l0,1.3l0,1.3c0,0.4,0,0.9,0,1.3c-0.2-0.4-0.3-0.9-0.4-1.3
			c-0.1-0.4-0.1-0.9-0.1-1.3c0-0.4,0-0.9,0.1-1.3C82.3,31.5,82.4,31,82.6,30.6"/>
		<path class="st21" d="M83.7,30.8c0,0.4,0,0.8,0,1.2l0,1.2l0,1.2c0,0.4,0,0.8-0.1,1.2c-0.2-0.4-0.3-0.8-0.3-1.2
			c-0.1-0.4-0.1-0.8-0.1-1.2c0-0.4,0-0.8,0.1-1.2S83.5,31.1,83.7,30.8"/>
		<path class="st21" d="M84.8,30.9c0.1,0.4,0.1,0.7,0.1,1.1c0,0.4,0,0.7,0,1c0,0.3,0,0.7,0,1c0,0.3,0,0.7-0.1,1.1
			c-0.1-0.3-0.2-0.7-0.3-1s-0.1-0.7-0.1-1.1c0-0.4,0-0.7,0.1-1.1C84.6,31.6,84.7,31.3,84.8,30.9"/>
		<path class="st22" d="M72.6,61.8c0,0.9-0.8,1.7-1.8,1.7c-1,0-1.8-0.8-1.8-1.7s0.8-1.7,1.8-1.7C71.8,60.1,72.6,60.9,72.6,61.8"/>
		<path class="st17" d="M71.7,62.5c-0.1,0-0.1,0-0.2,0l-1.8-0.7c-0.2-0.1-0.3-0.3-0.2-0.5s0.3-0.3,0.5-0.2l1.8,0.7
			c0.2,0.1,0.3,0.3,0.2,0.5C72,62.4,71.8,62.5,71.7,62.5"/>
		<path class="st17" d="M70.4,62.9c-0.1,0-0.1,0-0.2,0c-0.2-0.1-0.3-0.3-0.2-0.5l0.8-1.7c0.1-0.2,0.3-0.3,0.5-0.2
			c0.2,0.1,0.3,0.3,0.2,0.5l-0.8,1.7C70.7,62.9,70.6,62.9,70.4,62.9"/>
		<path class="st22" d="M73.2,62.3c0,1.2-1,2.1-2.2,2.1c-1.1,0-2-0.8-2.2-1.8c0.3,0.7,1.1,1.3,2.1,1.3c1.2,0,2.2-0.9,2.2-2.1
			c0-0.1,0-0.2,0-0.3C73.2,61.7,73.2,62,73.2,62.3"/>
		<path class="st21" d="M51.6,75.4h-2.3c-0.8,0-1.4-0.6-1.4-1.3v-3c0-0.7,0.6-1.4,1.4-1.4h2.3c0.8,0,1.4,0.6,1.4,1.4v3
			C53,74.8,52.4,75.4,51.6,75.4"/>
		<path class="st21" d="M55,71.6v3.1c0,1.3-1.1,2.3-2.4,2.3h-2.3c-0.6,0-1.2-0.2-1.7-0.6c0.2,0.1,0.5,0.1,0.7,0.1h2.3
			c1.3,0,2.4-1,2.4-2.3v-3.1c0-0.7-0.3-1.2-0.7-1.7C54.2,69.7,55,70.6,55,71.6"/>
		<path class="st21" d="M90.8,75.4h-2.3c-0.8,0-1.4-0.6-1.4-1.3v-3c0-0.7,0.6-1.4,1.4-1.4h2.3c0.8,0,1.4,0.6,1.4,1.4v3
			C92.2,74.8,91.5,75.4,90.8,75.4"/>
		<path class="st21" d="M94.2,71.6v3.1c0,1.3-1.1,2.3-2.4,2.3h-2.3c-0.6,0-1.2-0.2-1.7-0.6c0.2,0.1,0.5,0.1,0.7,0.1h2.3
			c1.3,0,2.4-1,2.4-2.3v-3.1c0-0.7-0.3-1.2-0.7-1.7C93.4,69.7,94.2,70.6,94.2,71.6"/>
		<path class="st21" d="M73.9,77.7h-6.2c-0.7,0-1.2-0.5-1.2-1.1v-2.4c0-0.6,0.5-1.1,1.2-1.1h6.2c0.7,0,1.2,0.5,1.2,1.1v2.4
			C75.2,77.2,74.6,77.7,73.9,77.7"/>
		<path class="st21" d="M77.4,74.6V77c0,1.3-1.1,2.3-2.4,2.3h-6.2c-0.5,0-1-0.2-1.4-0.4c0.1,0,0.3,0,0.4,0h6.2c1.3,0,2.4-1,2.4-2.3
			v-2.3c0-0.8-0.4-1.4-1-1.9C76.5,72.5,77.4,73.5,77.4,74.6"/>
		<path class="st21" d="M38.7,73.3c0,1.2-1,2.1-2.3,2.1s-2.3-0.9-2.3-2.1c0-1.2,1-2.1,2.3-2.1S38.7,72.1,38.7,73.3"/>
		<path class="st21" d="M40,73.9c0,1.6-1.4,2.9-3.1,2.9c-1.2,0-2.2-0.6-2.7-1.5c0.6,0.5,1.3,0.9,2.2,0.9c1.7,0,3.1-1.3,3.1-2.9
			c0-0.5-0.1-1-0.4-1.4C39.7,72.3,40,73.1,40,73.9"/>
		<path class="st21" d="M106.5,73.3c0,1.2-1,2.1-2.3,2.1c-1.2,0-2.3-0.9-2.3-2.1c0-1.2,1-2.1,2.3-2.1
			C105.5,71.1,106.5,72.1,106.5,73.3"/>
		<path class="st21" d="M107.8,73.9c0,1.6-1.4,2.9-3.1,2.9c-1.2,0-2.2-0.6-2.7-1.5c0.6,0.5,1.3,0.9,2.2,0.9c1.7,0,3.1-1.3,3.1-2.9
			c0-0.5-0.1-1-0.4-1.4C107.5,72.3,107.8,73.1,107.8,73.9"/>
		<path class="st21" d="M58.7,80.2c0.2-1.4,0.4-2.7,0.7-4c0.3-1.3,0.6-2.6,1-3.9l0.1-0.5c0.1-0.2,0.2-0.4,0.3-0.6
			c0.3-0.4,0.6-0.7,1-0.9c0.2-0.1,0.4-0.2,0.7-0.2c0.1,0,0.2,0,0.4-0.1c0.1,0,0.1,0,0.2,0c0.1,0,0.1,0,0.2,0l1.1,0
			c1.4,0,2.9,0,4.3,0c2.9,0,5.8,0.1,8.6,0.2c1.4,0.1,2.9,0.1,4.3,0.2l1.1,0.1l0.3,0c0.1,0,0.2,0,0.3,0.1c0.2,0.1,0.4,0.2,0.5,0.3
			c0.1,0.1,0.1,0.1,0.2,0.2l0.1,0.2l0.3,0.4l0.5,0.9l-0.7-0.8l-0.3-0.4l-0.2-0.2c0-0.1-0.1-0.1-0.2-0.2c-0.1-0.1-0.3-0.1-0.4-0.2
			c-0.1,0-0.1,0-0.2,0l-0.3,0l-1.1,0.1c-1.4,0.1-2.9,0.1-4.3,0.2c-2.9,0.1-5.8,0.2-8.6,0.2c-1.4,0-2.9,0-4.3,0l-1.1,0
			c-0.1,0-0.1,0-0.1,0s-0.1,0-0.1,0c-0.1,0-0.1,0-0.2,0c-0.1,0-0.2,0.1-0.3,0.1c-0.2,0.1-0.4,0.3-0.5,0.4C62.1,72,62,72.1,62,72.2
			l-0.2,0.5c-0.4,1.3-0.9,2.6-1.4,3.8C59.9,77.8,59.3,79,58.7,80.2"/>
		<path class="st21" d="M115.2,74.5c-1-1.9-1.9-3.8-2.9-5.7c-1-1.9-2-3.8-3-5.7c-0.7-1.3-2-3.8-2.7-5.1c-0.3-0.5-0.9-0.9-1.5-0.9
			l-3.8,0L97,57l-8.7,0l-17.5-0.1l-8.7,0l-8.7,0l-17.1,0c-0.5,0-1,0.3-1.3,0.7c-0.7,1.3-2.2,4-2.9,5.4l-3,5.7l-3,5.7l-3,5.7h1.7
			l2.8-5l3.1-5.6l3.1-5.6c0.7-1.3,1.9-3.4,2.5-4.5c0.2-0.4,0.7-0.7,1.3-0.7l16.1,0l8.7,0l8.7,0l17.5-0.1l8.7,0l4.4,0l2.9,0
			c0.6,0,1.2,0.3,1.5,0.9c0.6,1.1,1.7,3.1,2.4,4.4c1,1.9,2.1,3.7,3.2,5.6c1.1,1.9,2.2,3.7,3.2,5.6c1.1,1.8,2.2,3.7,3.3,5.5
			C117.1,78.3,116.2,76.4,115.2,74.5"/>
		<path class="st21" d="M133.8,55.4H8.2c-0.3,0-0.6-0.3-0.6-0.6c0-0.3,0.3-0.6,0.6-0.6h125.7c0.3,0,0.6,0.3,0.6,0.6
			C134.4,55.1,134.2,55.4,133.8,55.4"/>
		<path class="st21" d="M77.2,28.3c2.1-0.2,4.2-0.3,6.2-0.3l1.6,0c0,0,0.1,0,0.1,0c0,0,0.1,0,0.1,0c0.1,0,0.2,0,0.3,0.1
			c0.2,0.1,0.3,0.2,0.5,0.3c0.1,0.1,0.2,0.3,0.3,0.4c0.1,0.2,0.1,0.4,0.1,0.5l0,2.9c0,2,0,3.9,0,5.9l0,0.7l0,0.4l0,0.2
			c0,0.1,0,0.2,0,0.3c-0.1,0.3-0.3,0.7-0.7,0.8c-0.2,0.1-0.4,0.1-0.5,0.1l-0.4,0l-3.1,0l-12.5-0.1l-6.2-0.1l-6.2-0.1l6.2-0.1
			l6.2-0.1l12.5-0.1l3.1,0l0.4,0c0.1,0,0.1,0,0.2-0.1c0.1-0.1,0.2-0.2,0.2-0.3c0,0,0-0.1,0-0.1l0-0.2l0-0.4l0-0.7c0-2,0-3.9,0-5.9
			l0-2.9c0-0.1,0-0.2,0-0.3c0-0.1-0.1-0.1-0.1-0.2c0-0.1-0.1-0.1-0.2-0.1c0,0-0.1,0-0.1,0c0,0,0,0-0.1,0c0,0,0,0-0.1,0l-1.6,0
			C81.4,28.6,79.3,28.5,77.2,28.3"/>
	</g>
	<path class="st23" d="M118.4,41.2H131v-14h-12.6V41.2z M131.8,41.9h-14.1V26.6h14.1V41.9z"/>
	<rect x="119" y="27.7" class="st23" width="11.5" height="2"/>
	<rect x="119" y="38.8" class="st23" width="11.5" height="2"/>
	<g>
		<defs>
			<rect id="SVGID_12_" x="-1" width="144" height="86"/>
		</defs>
		<clipPath id="SVGID_13_">
			<use xlink:href="#SVGID_12_"  style="overflow:visible;"/>
		</clipPath>
		<path class="st24" d="M129.8,30.6c-0.2,0.3-0.5,1.4-0.5,3.5c0,2,0.3,3.2,0.5,3.5c0.2-0.3,0.5-1.4,0.5-3.5
			C130.3,32.1,130,30.9,129.8,30.6 M129.8,38.1c-0.9,0-1-3.3-1-4s0-4,1-4c0.9,0,1,3.3,1,4S130.7,38.1,129.8,38.1"/>
	</g>
	<polygon class="st23" points="128.5,38.1 127.2,38.1 127.2,30.2 128.5,30.2 128.5,30.7 127.7,30.7 127.7,37.6 128.5,37.6 	"/>
	<rect x="127.4" y="33.9" class="st23" width="0.9" height="0.5"/>
	<polygon class="st23" points="124,38.1 122.7,38.1 122.7,30.2 124,30.2 124,30.7 123.2,30.7 123.2,37.6 124,37.6 	"/>
	<rect x="123" y="33.9" class="st23" width="0.9" height="0.5"/>
	<polygon class="st23" points="121.3,30.2 121.3,38.1 121.8,38.1 121.8,30.7 122.2,30.7 122.2,30.2 	"/>
	<g>
		<defs>
			<rect id="SVGID_14_" x="-1" width="144" height="86"/>
		</defs>
		<clipPath id="SVGID_15_">
			<use xlink:href="#SVGID_14_"  style="overflow:visible;"/>
		</clipPath>
		<path class="st25" d="M125,30.7h0.3c0.4,0,0.7,0.3,0.8,0.6c0.1,0.7,0.3,2.3-0.4,3.1c-0.2,0.2-0.4,0.3-0.7,0.3V30.7z M125,38.1
			v-2.2l1.2,2.2h0.6l-1.6-2.9c0.4-0.1,0.7-0.2,0.9-0.5c0.8-0.8,0.7-2.5,0.5-3.4c-0.1-0.6-0.6-1-1.3-1h-0.8v7.8H125z"/>
	</g>
	<rect x="120.3" y="30.2" class="st23" width="1.3" height="0.5"/>
	<g>
		<defs>
			<rect id="SVGID_16_" x="-1" width="144" height="86"/>
		</defs>
		<clipPath id="SVGID_17_">
			<use xlink:href="#SVGID_16_"  style="overflow:visible;"/>
		</clipPath>
		<path class="st26" d="M119.4,32.4c0-1.1,0.9-2.1,0.9-2.1h-0.6c-0.3,0.4-0.8,1.2-0.8,2.2c0,0.7,0.4,1.5,0.8,2.3
			c0.3,0.7,0.6,1.3,0.6,1.7c0,0.5-0.7,1.3-1.3,1.7h0.7c0.5-0.5,1.1-1.1,1.1-1.7c0-0.5-0.3-1.2-0.7-1.9
			C119.8,33.7,119.4,33,119.4,32.4"/>
	</g>
	<text transform="matrix(1 0 0 1 10.21 16.8418)"><tspan x="0" y="0" class="st27 st28 st29">TAPE</tspan><tspan x="20.8" y="0" class="st27 st28 st29 st30"> </tspan><tspan x="22.9" y="0" class="st27 st28 st29">2</tspan></text>
	<text transform="matrix(1 0 0 1 10.0757 37.3813)" class="st31 st32 st33">A</text>
	<text transform="matrix(1 0 0 1 10.873 42.9795)"><tspan x="0" y="0" class="st31 st34 st35">SID</tspan><tspan x="9.3" y="0" class="st31 st34 st35">E</tspan></text>
	<text transform="matrix(1 0 0 1 58.3896 16.1304)"><tspan x="0" y="0" class="st27 st28 st29">NEON</tspan><tspan x="20.9" y="0" class="st27 st28 st29 st30"> </tspan><tspan x="23.1" y="0" class="st27 st28 st29">VAPORS</tspan><tspan x="52" y="0" class="st27 st28 st29 st30"> </tspan><tspan x="54.2" y="0" class="st27 st28 st29"> </tspan></text>
	<text transform="matrix(1 0 0 1 114.752 16.1304)" class="st27 st28 st29">:)</text>
</g>
</svg>
