<?xml version="1.0" encoding="utf-8"?>
<!-- Generator: Adobe Illustrator 23.0.0, SVG Export Plug-In . SVG Version: 6.00 Build 0)  -->
<svg version="1.1" id="Ebene_1" xmlns="http://www.w3.org/2000/svg" xmlns:xlink="http://www.w3.org/1999/xlink" x="0px" y="0px"
	 viewBox="0 0 142 86" style="enable-background:new 0 0 142 86;" xml:space="preserve">
<style type="text/css">
	.st0{clip-path:url(#SVGID_2_);fill:url(#SVGID_3_);}
	.st1{clip-path:url(#SVGID_5_);fill:none;stroke:#181716;stroke-linejoin:round;stroke-miterlimit:10;}
	.st2{clip-path:url(#SVGID_7_);fill:#FFFFFF;}
	.st3{clip-path:url(#SVGID_9_);fill:#181716;}
	.st4{fill:#9C9C9C;}
	.st5{fill:#B1B2B3;}
	.st6{fill:#C5C6C6;}
	.st7{fill:#D9DADA;}
	.st8{fill:#828282;}
	.st9{clip-path:url(#SVGID_11_);fill:#212121;}
	.st10{clip-path:url(#SVGID_13_);fill:#181716;}
	.st11{clip-path:url(#SVGID_15_);fill:#181716;}
	.st12{clip-path:url(#SVGID_17_);fill:#FFFFFF;}
	.st13{clip-path:url(#SVGID_19_);fill:#FFFFFF;}
	.st14{clip-path:url(#SVGID_21_);fill:#FFFFFF;}
	.st15{clip-path:url(#SVGID_23_);fill:#B1B2B3;}
	.st16{clip-path:url(#SVGID_25_);fill:#181716;}
	.st17{clip-path:url(#SVGID_27_);fill:#181716;}
	.st18{clip-path:url(#SVGID_29_);fill:#B1B2B3;}
	.st19{clip-path:url(#SVGID_31_);fill:#B1B2B3;}
	.st20{clip-path:url(#SVGID_33_);fill:#181716;}
	.st21{clip-path:url(#SVGID_35_);fill:#181716;}
	.st22{clip-path:url(#SVGID_37_);fill:#FFFFFF;}
	.st23{clip-path:url(#SVGID_39_);fill:#FFFFFF;}
	.st24{clip-path:url(#SVGID_41_);fill:#181716;}
	.st25{clip-path:url(#SVGID_43_);fill:#181716;}
	.st26{clip-path:url(#SVGID_45_);fill:#B1B2B3;}
	.st27{clip-path:url(#SVGID_47_);fill:#B1B2B3;}
	.st28{clip-path:url(#SVGID_49_);fill:#181716;}
	.st29{clip-path:url(#SVGID_51_);fill:#181716;}
	.st30{clip-path:url(#SVGID_53_);fill:#B1B2B3;}
	.st31{clip-path:url(#SVGID_55_);fill:#565655;}
	.st32{fill:#565655;}
	.st33{clip-path:url(#SVGID_57_);fill:#181716;}
	.st34{clip-path:url(#SVGID_59_);fill:#565655;}
	.st35{clip-path:url(#SVGID_61_);fill:#181716;}
	.st36{clip-path:url(#SVGID_63_);fill:#3A3A39;}
	.st37{clip-path:url(#SVGID_65_);fill:#565655;}
	.st38{clip-path:url(#SVGID_67_);fill:#868786;}
	.st39{clip-path:url(#SVGID_69_);fill:#868786;}
	.st40{clip-path:url(#SVGID_71_);fill:#FFFFFF;}
	.st41{clip-path:url(#SVGID_73_);fill:#FFFFFF;}
	.st42{clip-path:url(#SVGID_75_);fill:#FFFFFF;}
	.st43{clip-path:url(#SVGID_77_);fill:#FFFFFF;}
	.st44{clip-path:url(#SVGID_79_);fill:#FFFFFF;}
	.st45{clip-path:url(#SVGID_81_);fill:#FFFFFF;}
	.st46{clip-path:url(#SVGID_83_);fill:#FFFFFF;}
	.st47{clip-path:url(#SVGID_85_);fill:#FFFFFF;}
	.st48{clip-path:url(#SVGID_87_);fill:#FFFFFF;}
	.st49{clip-path:url(#SVGID_89_);fill:#FFFFFF;}
	.st50{clip-path:url(#SVGID_91_);fill:#FFFFFF;}
	.st51{clip-path:url(#SVGID_93_);fill:#FFFFFF;}
	.st52{clip-path:url(#SVGID_95_);fill:#B1B2B3;}
	.st53{clip-path:url(#SVGID_97_);fill:#181716;}
	.st54{clip-path:url(#SVGID_99_);fill:#181716;}
	.st55{clip-path:url(#SVGID_101_);fill:#B1B2B3;}
	.st56{clip-path:url(#SVGID_103_);fill:#FFFFFF;}
	.st57{clip-path:url(#SVGID_105_);fill:#FFFFFF;}
	.st58{clip-path:url(#SVGID_107_);fill:#FFFFFF;}
	.st59{clip-path:url(#SVGID_109_);fill:#FFFFFF;}
	.st60{clip-path:url(#SVGID_111_);fill:#FFFFFF;}
	.st61{clip-path:url(#SVGID_113_);fill:#FFFFFF;}
	.st62{clip-path:url(#SVGID_115_);fill:#FFFFFF;}
	.st63{clip-path:url(#SVGID_117_);fill:#FFFFFF;}
	.st64{clip-path:url(#SVGID_119_);fill:#FFFFFF;}
	.st65{clip-path:url(#SVGID_121_);fill:#FFFFFF;}
	.st66{clip-path:url(#SVGID_123_);fill:#FFFFFF;}
	.st67{clip-path:url(#SVGID_125_);fill:#FFFFFF;}
	.st68{clip-path:url(#SVGID_127_);fill:#FFFFFF;}
	.st69{clip-path:url(#SVGID_129_);fill:#FFFFFF;}
	.st70{fill:#6E6E6E;}
	.st71{clip-path:url(#SVGID_131_);fill:#6E6E6E;}
	.st72{clip-path:url(#SVGID_133_);fill:#6E6E6E;}
	.st73{clip-path:url(#SVGID_135_);fill:#6E6E6E;}
	.st74{enable-background:new    ;}
	.st75{fill:#484847;}
	.st76{fill:#868786;}
</style>
<g>
	<g>
		<defs>
			<path id="SVGID_1_" d="M58.8,39.5c-0.1-0.1-0.1-0.3-0.1-0.5c0.6-1.7,0.9-3.5,0.9-5.4c0-1.8-0.3-3.6-0.9-5.2
				c-0.1-0.2,0-0.3,0.1-0.5c0.1-0.1,0.2-0.2,0.4-0.2H75c0.2,0,0.3,0.1,0.4,0.2s0.1,0.3,0.1,0.5c-0.6,1.7-0.9,3.5-0.9,5.2
				c0,1.8,0.3,3.6,0.9,5.4c0.1,0.2,0,0.3-0.1,0.5c-0.1,0.1-0.2,0.2-0.4,0.2H59.2C59.1,39.7,58.9,39.7,58.8,39.5 M32.6,33.4
				c0-4,3.4-7.2,7.5-7.2s7.5,3.2,7.5,7.2s-3.4,7.2-7.5,7.2S32.6,37.4,32.6,33.4 M92.6,33.4c0-4,3.4-7.2,7.5-7.2
				c4.2,0,7.5,3.2,7.5,7.2s-3.4,7.2-7.5,7.2C95.9,40.6,92.6,37.4,92.6,33.4 M8.6,0.5c-2.8,0-5.1,2.2-5.1,4.9v45.4H3.3
				c-1.5,0-2.8,1.2-2.8,2.7v21.2c0,1.5,1.2,2.7,2.8,2.7h0.2v0.3c0,2.7,2.3,4.9,5.1,4.9h16.5l3.9,1.8c1.7,0.8,3.7,1.2,5.6,1.2h72.5
				c1.9,0,3.9-0.4,5.6-1.2l4.1-1.8h16.6c2.8,0,5.1-2.2,5.1-4.9v-0.3h0.2c1.5,0,2.8-1.2,2.8-2.7V53.5c0-1.5-1.2-2.7-2.8-2.7h-0.2V5.4
				c0-2.7-2.3-4.9-5.1-4.9H8.6z"/>
		</defs>
		<clipPath id="SVGID_2_">
			<use xlink:href="#SVGID_1_"  style="overflow:visible;"/>
		</clipPath>
		
			<linearGradient id="SVGID_3_" gradientUnits="userSpaceOnUse" x1="1.0096" y1="-1.0022" x2="2.0096" y2="-1.0022" gradientTransform="matrix(-71.5312 -123.3977 123.3977 -71.5312 302.6476 157.597)">
			<stop  offset="0" style="stop-color:#27C4FF"/>
			<stop  offset="0.978" style="stop-color:#FF0F9D"/>
			<stop  offset="1" style="stop-color:#FF0F9D"/>
		</linearGradient>
		<polygon class="st0" points="36,146.7 -36.4,21.9 106,-60.7 178.4,64.1 		"/>
	</g>
</g>
<g>
	<g>
		<defs>
			<rect id="SVGID_4_" width="142" height="86"/>
		</defs>
		<clipPath id="SVGID_5_">
			<use xlink:href="#SVGID_4_"  style="overflow:visible;"/>
		</clipPath>
		<path class="st1" d="M100.1,40.6c-4.2,0-7.5-3.2-7.5-7.2s3.4-7.2,7.5-7.2s7.5,3.2,7.5,7.2S104.3,40.6,100.1,40.6z M58.8,39.1
			c0.6-1.7,0.9-3.5,0.9-5.4c0-1.8-0.3-3.6-0.9-5.2c-0.1-0.2,0-0.3,0.1-0.5c0.1-0.1,0.2-0.2,0.4-0.2h15.8c0.2,0,0.3,0.1,0.4,0.2
			s0.1,0.3,0.1,0.5c-0.6,1.7-0.9,3.5-0.9,5.2c0,1.8,0.3,3.6,0.9,5.4c0.1,0.2,0,0.3-0.1,0.5s-0.2,0.2-0.4,0.2H59.2
			c-0.2,0-0.3-0.1-0.4-0.2C58.7,39.4,58.7,39.2,58.8,39.1z M40.2,40.6c-4.2,0-7.5-3.2-7.5-7.2s3.4-7.2,7.5-7.2
			c4.2,0,7.5,3.2,7.5,7.2S44.3,40.6,40.2,40.6z M138.7,50.8h-0.2V5.4c0-2.7-2.3-4.9-5.1-4.9H8.6c-2.8,0-5.1,2.2-5.1,4.9v45.4H3.3
			c-1.5,0-2.8,1.2-2.8,2.7v21.2c0,1.5,1.2,2.7,2.8,2.7h0.2v0.3c0,2.7,2.3,4.9,5.1,4.9h16.5l3.9,1.8c1.7,0.8,3.7,1.2,5.6,1.2h72.5
			c1.9,0,3.9-0.4,5.6-1.2l4.1-1.8h16.6c2.8,0,5.1-2.2,5.1-4.9v-0.3h0.2c1.5,0,2.8-1.2,2.8-2.7V53.5C141.5,52,140.3,50.8,138.7,50.8z
			"/>
	</g>
	<g>
		<defs>
			<rect id="SVGID_6_" width="142" height="86"/>
		</defs>
		<clipPath id="SVGID_7_">
			<use xlink:href="#SVGID_6_"  style="overflow:visible;"/>
		</clipPath>
		<path class="st2" d="M100.1,40.1c-3.9,0-7-3-7-6.7s3.1-6.7,7-6.7s7,3,7,6.7S103.9,40.1,100.1,40.1 M59.2,39.2
			c0.6-1.7,0.9-3.6,0.9-5.5c0-1.9-0.3-3.7-0.9-5.4H75c-0.6,1.7-0.9,3.5-0.9,5.4c0,1.9,0.3,3.8,0.9,5.5H59.2z M40.1,40.1
			c-3.9,0-7-3-7-6.7s3.1-6.7,7-6.7s7,3,7,6.7S43.9,40.1,40.1,40.1 M127,5.9H14.9l-5.8,5.5v40.9h123.7v-41L127,5.9z"/>
	</g>
	<g>
		<defs>
			<rect id="SVGID_8_" width="142" height="86"/>
		</defs>
		<clipPath id="SVGID_9_">
			<use xlink:href="#SVGID_8_"  style="overflow:visible;"/>
		</clipPath>
		<path class="st3" d="M59.7,38.9h14.9c-0.5-1.7-0.8-3.4-0.8-5.2c0-1.7,0.3-3.4,0.8-5H59.7c0.5,1.6,0.8,3.3,0.8,5
			C60.5,35.5,60.2,37.2,59.7,38.9 M75.6,39.6h-17l0.2-0.5c0.6-1.7,0.9-3.6,0.9-5.4c0-1.8-0.3-3.6-0.9-5.3L58.7,28h16.8l-0.2,0.5
			c-0.6,1.7-0.9,3.5-0.9,5.3c0,1.9,0.3,3.7,0.9,5.4L75.6,39.6z M40.1,27.1c-3.7,0-6.7,2.8-6.7,6.3s3,6.3,6.7,6.3s6.7-2.8,6.7-6.3
			C46.7,29.9,43.7,27.1,40.1,27.1 M40.1,40.5c-4.1,0-7.4-3.2-7.4-7.1s3.3-7.1,7.4-7.1s7.4,3.2,7.4,7.1S44.1,40.5,40.1,40.5
			 M100.1,27.1c-3.7,0-6.7,2.8-6.7,6.3s3,6.3,6.7,6.3s6.7-2.8,6.7-6.3C106.7,29.9,103.7,27.1,100.1,27.1 M100.1,40.5
			c-4.1,0-7.4-3.2-7.4-7.1s3.3-7.1,7.4-7.1s7.4,3.2,7.4,7.1S104.1,40.5,100.1,40.5 M9.4,51.9h123V11.5l-5.6-5.3H15.1l-5.6,5.3v40.4
			H9.4z M133.2,52.6H8.7V11.2l6.1-5.7h112.4l6.1,5.7v41.4H133.2z"/>
	</g>
</g>
<polygon class="st4" points="15,5.9 9.2,11.3 9.1,20.1 38.1,19.8 44.9,5.9 "/>
<polygon class="st5" points="40.8,19.5 47.5,5.9 45.9,5.9 39.2,19.5 "/>
<polygon class="st6" points="42.7,19.5 49.3,5.9 48.5,5.9 41.9,19.5 "/>
<polygon class="st7" points="44.3,19.5 51,5.9 50.2,5.9 43.5,19.5 "/>
<rect x="9.1" y="19.1" transform="matrix(0.9999 -1.081093e-02 1.081093e-02 0.9999 -0.2072 0.7681)" class="st8" width="123.7" height="0.9"/>
<g>
	<g>
		<defs>
			<rect id="SVGID_10_" width="142" height="86"/>
		</defs>
		<clipPath id="SVGID_11_">
			<use xlink:href="#SVGID_10_"  style="overflow:visible;"/>
		</clipPath>
		<path class="st9" d="M59.7,38.9h14.9c-0.5-1.7-0.8-3.4-0.8-5.2c0-1.7,0.3-3.4,0.8-5H59.7c0.5,1.6,0.8,3.3,0.8,5
			C60.5,35.5,60.2,37.2,59.7,38.9 M75.6,39.6h-17l0.2-0.5c0.6-1.7,0.9-3.6,0.9-5.4c0-1.8-0.3-3.6-0.9-5.3L58.7,28h16.8l-0.2,0.5
			c-0.6,1.7-0.9,3.5-0.9,5.3c0,1.9,0.3,3.7,0.9,5.4L75.6,39.6z M40.1,27.1c-3.7,0-6.7,2.8-6.7,6.3s3,6.3,6.7,6.3s6.7-2.8,6.7-6.3
			C46.7,29.9,43.7,27.1,40.1,27.1 M40.1,40.5c-4.1,0-7.4-3.2-7.4-7.1s3.3-7.1,7.4-7.1s7.4,3.2,7.4,7.1S44.1,40.5,40.1,40.5
			 M100.1,27.1c-3.7,0-6.7,2.8-6.7,6.3s3,6.3,6.7,6.3s6.7-2.8,6.7-6.3C106.7,29.9,103.7,27.1,100.1,27.1 M100.1,40.5
			c-4.1,0-7.4-3.2-7.4-7.1s3.3-7.1,7.4-7.1s7.4,3.2,7.4,7.1S104.1,40.5,100.1,40.5 M9.4,51.9h123V11.5l-5.6-5.3H15.1l-5.6,5.3v40.4
			H9.4z M133.2,52.6H8.7V11.2l6.1-5.7h112.4l6.1,5.7v41.4H133.2z"/>
	</g>
	<g>
		<defs>
			<rect id="SVGID_12_" width="142" height="86"/>
		</defs>
		<clipPath id="SVGID_13_">
			<use xlink:href="#SVGID_12_"  style="overflow:visible;"/>
		</clipPath>
		<path class="st10" d="M40.2,27.2c-3.6,0-6.5,2.8-6.5,6.2s2.9,6.2,6.5,6.2s6.5-2.8,6.5-6.2S43.8,27.2,40.2,27.2 M40.2,40.6
			c-4.1,0-7.5-3.2-7.5-7.2s3.4-7.2,7.5-7.2s7.5,3.2,7.5,7.2S44.3,40.6,40.2,40.6"/>
	</g>
	<g>
		<defs>
			<rect id="SVGID_14_" width="142" height="86"/>
		</defs>
		<clipPath id="SVGID_15_">
			<use xlink:href="#SVGID_14_"  style="overflow:visible;"/>
		</clipPath>
		<path class="st11" d="M100.1,27.2c-3.6,0-6.5,2.8-6.5,6.2s2.9,6.2,6.5,6.2s6.5-2.8,6.5-6.2S103.7,27.2,100.1,27.2 M100.1,40.6
			c-4.1,0-7.5-3.2-7.5-7.2s3.4-7.2,7.5-7.2s7.5,3.2,7.5,7.2S104.2,40.6,100.1,40.6"/>
	</g>
	<g>
		<defs>
			<rect id="SVGID_16_" width="142" height="86"/>
		</defs>
		<clipPath id="SVGID_17_">
			<use xlink:href="#SVGID_16_"  style="overflow:visible;"/>
		</clipPath>
		<path class="st12" d="M137.1,5.4v72.3l-0.1-2.3l-0.1-2.3l-0.2-4.5l-0.2-9l-0.1-2.3V55l-0.1-4.5v-9v-9c0-3,0-6,0.1-9l0.2-9l0.2-4.5
			l0.1-2.3L137.1,5.4z"/>
	</g>
	<g>
		<defs>
			<rect id="SVGID_18_" width="142" height="86"/>
		</defs>
		<clipPath id="SVGID_19_">
			<use xlink:href="#SVGID_18_"  style="overflow:visible;"/>
		</clipPath>
		<path class="st13" d="M5.6,77.7v-49V16.5v-6.1V7.3V5.8c0-0.3,0-0.5,0-0.8s0.1-0.5,0.2-0.7c0.4-0.9,1.4-1.6,2.5-1.7
			c1.1,0,2.1,0,3.2,0H18h12.8h102.6c-17.1,0.6-34.2,0.7-51.3,0.7L30.8,3.5h-6.4H18h-6.4H10H9.2H8.8H8.6c-0.1,0-0.1,0-0.1,0
			C7.7,3.5,7,4,6.7,4.6C6.6,4.8,6.5,5,6.5,5.1s0,0.2,0,0.3v0.4v1.5v3.1v6.1v12.2L6.4,53.2c0,2,0,4.1-0.1,6.1l-0.1,3.1
			c0,1-0.1,2-0.1,3.1c-0.1,2-0.1,4.1-0.2,6.1C5.9,73.6,5.8,75.6,5.6,77.7"/>
	</g>
	<g>
		<defs>
			<rect id="SVGID_20_" width="142" height="86"/>
		</defs>
		<clipPath id="SVGID_21_">
			<use xlink:href="#SVGID_20_"  style="overflow:visible;"/>
		</clipPath>
		<path class="st14" d="M3.5,52.8C3,53,2.5,53.5,2.3,54c-0.1,0.2-0.1,0.4-0.1,0.6c0,0.2,0,0.4,0,0.7v17.1L2.6,62l0.2-5.3L3,55v-0.2
			v-0.1v-0.1c0-0.1,0.1-0.3,0.1-0.4c0.1-0.2,0.2-0.4,0.4-0.5V52.8z"/>
	</g>
	<g>
		<defs>
			<rect id="SVGID_22_" width="142" height="86"/>
		</defs>
		<clipPath id="SVGID_23_">
			<use xlink:href="#SVGID_22_"  style="overflow:visible;"/>
		</clipPath>
		<path class="st15" d="M10.8,77.1c0,0.9-0.8,1.7-1.8,1.7S7.3,78,7.3,77.1s0.8-1.7,1.8-1.7S10.8,76.1,10.8,77.1"/>
	</g>
	<g>
		<defs>
			<rect id="SVGID_24_" width="142" height="86"/>
		</defs>
		<clipPath id="SVGID_25_">
			<use xlink:href="#SVGID_24_"  style="overflow:visible;"/>
		</clipPath>
		<path class="st16" d="M8.6,78.1c-0.1,0-0.1,0-0.2,0c-0.2-0.1-0.3-0.3-0.2-0.5l1-1.6c0.1-0.2,0.3-0.2,0.5-0.2
			c0.2,0.1,0.3,0.3,0.2,0.5L9,77.9C8.9,78.1,8.8,78.1,8.6,78.1"/>
	</g>
	<g>
		<defs>
			<rect id="SVGID_26_" width="142" height="86"/>
		</defs>
		<clipPath id="SVGID_27_">
			<use xlink:href="#SVGID_26_"  style="overflow:visible;"/>
		</clipPath>
		<path class="st17" d="M9.9,77.7c-0.1,0-0.1,0-0.2,0L8,76.9c-0.2-0.1-0.3-0.3-0.2-0.5c0.1-0.2,0.3-0.2,0.5-0.2L10,77
			c0.2,0.1,0.3,0.3,0.2,0.5C10.2,77.7,10,77.7,9.9,77.7"/>
	</g>
	<g>
		<defs>
			<rect id="SVGID_28_" width="142" height="86"/>
		</defs>
		<clipPath id="SVGID_29_">
			<use xlink:href="#SVGID_28_"  style="overflow:visible;"/>
		</clipPath>
		<path class="st18" d="M11.4,77.6c0,1.2-1,2.1-2.2,2.1c-1.1,0-2-0.8-2.2-1.8c0.3,0.7,1.1,1.3,2,1.3c1.2,0,2.2-0.9,2.2-2.1
			c0-0.1,0-0.2,0-0.3C11.4,77,11.4,77.3,11.4,77.6"/>
	</g>
	<g>
		<defs>
			<rect id="SVGID_30_" width="142" height="86"/>
		</defs>
		<clipPath id="SVGID_31_">
			<use xlink:href="#SVGID_30_"  style="overflow:visible;"/>
		</clipPath>
		<path class="st19" d="M134.4,77.4c0,0.9-0.8,1.7-1.8,1.7s-1.8-0.8-1.8-1.7c0-0.9,0.8-1.7,1.8-1.7
			C133.6,75.7,134.4,76.4,134.4,77.4"/>
	</g>
	<g>
		<defs>
			<rect id="SVGID_32_" width="142" height="86"/>
		</defs>
		<clipPath id="SVGID_33_">
			<use xlink:href="#SVGID_32_"  style="overflow:visible;"/>
		</clipPath>
		<path class="st20" d="M131.7,78c-0.1,0-0.3-0.1-0.3-0.2c-0.1-0.2,0-0.4,0.2-0.4l1.8-0.6c0.2-0.1,0.4,0,0.5,0.2s0,0.4-0.2,0.4
			l-1.8,0.6C131.8,77.9,131.8,78,131.7,78"/>
	</g>
	<g>
		<defs>
			<rect id="SVGID_34_" width="142" height="86"/>
		</defs>
		<clipPath id="SVGID_35_">
			<use xlink:href="#SVGID_34_"  style="overflow:visible;"/>
		</clipPath>
		<path class="st21" d="M132.9,78.5c-0.1,0-0.3-0.1-0.3-0.2l-0.6-1.7c-0.1-0.2,0-0.4,0.2-0.4c0.2-0.1,0.4,0,0.5,0.2l0.6,1.7
			c0.1,0.2,0,0.4-0.2,0.4C133,78.5,133,78.5,132.9,78.5"/>
	</g>
	<g>
		<defs>
			<rect id="SVGID_36_" width="142" height="86"/>
		</defs>
		<clipPath id="SVGID_37_">
			<use xlink:href="#SVGID_36_"  style="overflow:visible;"/>
		</clipPath>
		<path class="st22" d="M135,77.9c0,1.2-1,2.1-2.2,2.1c-1.1,0-2-0.8-2.2-1.8c0.3,0.8,1.1,1.3,2,1.3c1.2,0,2.2-1,2.2-2.1
			c0-0.1,0-0.2,0-0.3C134.9,77.3,135,77.6,135,77.9"/>
	</g>
	<g>
		<defs>
			<rect id="SVGID_38_" width="142" height="86"/>
		</defs>
		<clipPath id="SVGID_39_">
			<use xlink:href="#SVGID_38_"  style="overflow:visible;"/>
		</clipPath>
		<path class="st23" d="M10.8,5.9c0,0.9-0.8,1.7-1.8,1.7S7.3,6.8,7.3,5.9s0.8-1.7,1.8-1.7S10.8,5,10.8,5.9"/>
	</g>
	<g>
		<defs>
			<rect id="SVGID_40_" width="142" height="86"/>
		</defs>
		<clipPath id="SVGID_41_">
			<use xlink:href="#SVGID_40_"  style="overflow:visible;"/>
		</clipPath>
		<path class="st24" d="M8.6,7C8.5,7,8.5,7,8.4,7C8.3,6.9,8.2,6.6,8.3,6.5l0.8-1.6c0.1-0.2,0.3-0.2,0.5-0.2C9.8,4.8,9.9,5,9.8,5.2
			L9,6.8C8.9,6.9,8.8,7,8.6,7"/>
	</g>
	<g>
		<defs>
			<rect id="SVGID_42_" width="142" height="86"/>
		</defs>
		<clipPath id="SVGID_43_">
			<use xlink:href="#SVGID_42_"  style="overflow:visible;"/>
		</clipPath>
		<path class="st25" d="M9.9,6.6c-0.1,0-0.1,0-0.2,0L8,5.7C7.9,5.6,7.8,5.4,7.9,5.3C8,5.1,8.2,5,8.4,5.1l1.7,0.8
			c0.2,0.1,0.3,0.3,0.2,0.5C10.2,6.5,10,6.6,9.9,6.6"/>
	</g>
	<g>
		<defs>
			<rect id="SVGID_44_" width="142" height="86"/>
		</defs>
		<clipPath id="SVGID_45_">
			<use xlink:href="#SVGID_44_"  style="overflow:visible;"/>
		</clipPath>
		<path class="st26" d="M11.4,6.4c0,1.2-1,2.1-2.2,2.1c-1.1,0-2-0.8-2.2-1.8C7.4,7.5,8.1,8,9.1,8c1.2,0,2.2-0.9,2.2-2.1
			c0-0.1,0-0.2,0-0.3C11.4,5.8,11.4,6.1,11.4,6.4"/>
	</g>
	<g>
		<defs>
			<rect id="SVGID_46_" width="142" height="86"/>
		</defs>
		<clipPath id="SVGID_47_">
			<use xlink:href="#SVGID_46_"  style="overflow:visible;"/>
		</clipPath>
		<path class="st27" d="M134.4,6.2c0,0.9-0.8,1.7-1.8,1.7s-1.8-0.8-1.8-1.7s0.8-1.7,1.8-1.7C133.6,4.5,134.4,5.3,134.4,6.2"/>
	</g>
	<g>
		<defs>
			<rect id="SVGID_48_" width="142" height="86"/>
		</defs>
		<clipPath id="SVGID_49_">
			<use xlink:href="#SVGID_48_"  style="overflow:visible;"/>
		</clipPath>
		<path class="st28" d="M131.7,6.8c-0.1,0-0.3-0.1-0.3-0.2c-0.1-0.2,0-0.4,0.2-0.4l1.8-0.6c0.2-0.1,0.4,0,0.5,0.2s0,0.4-0.2,0.4
			l-1.8,0.6C131.8,6.8,131.8,6.8,131.7,6.8"/>
	</g>
	<g>
		<defs>
			<rect id="SVGID_50_" width="142" height="86"/>
		</defs>
		<clipPath id="SVGID_51_">
			<use xlink:href="#SVGID_50_"  style="overflow:visible;"/>
		</clipPath>
		<path class="st29" d="M132.9,7.3c-0.1,0-0.3-0.1-0.3-0.2L132,5.4c-0.1-0.2,0-0.4,0.2-0.4c0.2-0.1,0.4,0,0.5,0.2l0.6,1.7
			c0.1,0.2,0,0.4-0.2,0.4C133,7.3,133,7.3,132.9,7.3"/>
	</g>
	<g>
		<defs>
			<rect id="SVGID_52_" width="142" height="86"/>
		</defs>
		<clipPath id="SVGID_53_">
			<use xlink:href="#SVGID_52_"  style="overflow:visible;"/>
		</clipPath>
		<path class="st30" d="M135,6.7c0,1.2-1,2.1-2.2,2.1c-1.1,0-2-0.8-2.2-1.8c0.3,0.8,1.1,1.3,2,1.3c1.2,0,2.2-1,2.2-2.1
			c0-0.1,0-0.2,0-0.3C134.9,6.1,135,6.4,135,6.7"/>
	</g>
	<g>
		<defs>
			<rect id="SVGID_54_" width="142" height="86"/>
		</defs>
		<clipPath id="SVGID_55_">
			<use xlink:href="#SVGID_54_"  style="overflow:visible;"/>
		</clipPath>
		<path class="st31" d="M40.2,27.2c-3.6,0-6.5,2.8-6.5,6.2s2.9,6.2,6.5,6.2s6.5-2.8,6.5-6.2S43.8,27.2,40.2,27.2 M40.2,40.6
			c-4.1,0-7.5-3.2-7.5-7.2s3.4-7.2,7.5-7.2s7.5,3.2,7.5,7.2S44.3,40.6,40.2,40.6"/>
	</g>
</g>
<rect x="38.9" y="27.1" class="st32" width="2.6" height="2.5"/>
<polygon class="st32" points="44.5,32.6 43.1,30.5 45.4,29.2 46.7,31.4 "/>
<polygon class="st32" points="43.1,36.5 44.5,34.3 46.7,35.6 45.4,37.7 "/>
<rect x="38.8" y="37.4" class="st32" width="2.6" height="2.5"/>
<polygon class="st32" points="35.9,34.3 37.2,36.5 34.9,37.7 33.6,35.6 "/>
<polygon class="st32" points="37.2,30.5 35.9,32.6 33.6,31.4 34.9,29.2 "/>
<g>
	<g>
		<defs>
			<rect id="SVGID_56_" width="142" height="86"/>
		</defs>
		<clipPath id="SVGID_57_">
			<use xlink:href="#SVGID_56_"  style="overflow:visible;"/>
		</clipPath>
		<path class="st33" d="M40.2,26.8c-3.8,0-6.9,3-6.9,6.6s3.1,6.6,6.9,6.6c3.8,0,6.9-3,6.9-6.6C47.1,29.8,44,26.8,40.2,26.8
			 M40.2,40.2c-3.9,0-7.1-3.1-7.1-6.8c0-3.8,3.2-6.8,7.1-6.8s7.1,3.1,7.1,6.8C47.3,37.2,44.1,40.2,40.2,40.2"/>
	</g>
	<g>
		<defs>
			<rect id="SVGID_58_" width="142" height="86"/>
		</defs>
		<clipPath id="SVGID_59_">
			<use xlink:href="#SVGID_58_"  style="overflow:visible;"/>
		</clipPath>
		<path class="st34" d="M100.1,27.2c-3.6,0-6.5,2.8-6.5,6.2s2.9,6.2,6.5,6.2s6.5-2.8,6.5-6.2S103.7,27.2,100.1,27.2 M100.1,40.6
			c-4.1,0-7.5-3.2-7.5-7.2s3.4-7.2,7.5-7.2s7.5,3.2,7.5,7.2S104.2,40.6,100.1,40.6"/>
	</g>
</g>
<rect x="98.8" y="27.1" class="st32" width="2.6" height="2.5"/>
<polygon class="st32" points="104.4,32.6 103.1,30.5 105.3,29.2 106.7,31.4 "/>
<polygon class="st32" points="103.1,36.5 104.4,34.3 106.7,35.6 105.3,37.7 "/>
<rect x="98.8" y="37.4" class="st32" width="2.6" height="2.5"/>
<polygon class="st32" points="95.8,34.3 97.1,36.5 94.8,37.7 93.5,35.6 "/>
<polygon class="st32" points="97.1,30.5 95.8,32.6 93.5,31.4 94.8,29.2 "/>
<g>
	<g>
		<defs>
			<rect id="SVGID_60_" width="142" height="86"/>
		</defs>
		<clipPath id="SVGID_61_">
			<use xlink:href="#SVGID_60_"  style="overflow:visible;"/>
		</clipPath>
		<path class="st35" d="M100.1,26.8c-3.8,0-6.9,3-6.9,6.6s3.1,6.6,6.9,6.6s6.9-3,6.9-6.6S103.9,26.8,100.1,26.8 M100.1,40.2
			c-3.9,0-7.1-3.1-7.1-6.8c0-3.8,3.2-6.8,7.1-6.8s7.1,3.1,7.1,6.8C107.2,37.2,104,40.2,100.1,40.2"/>
	</g>
	<g>
		<defs>
			<rect id="SVGID_62_" width="142" height="86"/>
		</defs>
		<clipPath id="SVGID_63_">
			<use xlink:href="#SVGID_62_"  style="overflow:visible;"/>
		</clipPath>
		<path class="st36" d="M40.2,26.8c-3.8,0-6.9,3-6.9,6.6s3.1,6.6,6.9,6.6c3.8,0,6.9-3,6.9-6.6C47.1,29.8,44,26.8,40.2,26.8
			 M40.2,40.2c-3.9,0-7.1-3.1-7.1-6.8c0-3.8,3.2-6.8,7.1-6.8s7.1,3.1,7.1,6.8C47.3,37.2,44.1,40.2,40.2,40.2 M100.1,26.8
			c-3.8,0-6.9,3-6.9,6.6s3.1,6.6,6.9,6.6s6.9-3,6.9-6.6S103.9,26.8,100.1,26.8 M100.1,40.2c-3.9,0-7.1-3.1-7.1-6.8
			c0-3.8,3.2-6.8,7.1-6.8s7.1,3.1,7.1,6.8C107.2,37.2,104,40.2,100.1,40.2"/>
	</g>
	<g>
		<defs>
			<rect id="SVGID_64_" width="142" height="86"/>
		</defs>
		<clipPath id="SVGID_65_">
			<use xlink:href="#SVGID_64_"  style="overflow:visible;"/>
		</clipPath>
		<path class="st37" d="M100.1,40.1c-3.9,0-7-3-7-6.7s3.1-6.7,7-6.7s7,3,7,6.7S104,40.1,100.1,40.1 M59.2,39.3
			c0.6-1.7,0.9-3.6,0.9-5.5c0-1.9-0.3-3.7-0.9-5.4H75c-0.6,1.7-0.9,3.5-0.9,5.4c0,1.9,0.3,3.8,0.9,5.5H59.2z M40.2,40.1
			c-3.9,0-7-3-7-6.7s3.1-6.7,7-6.7s7,3,7,6.7S44,40.1,40.2,40.1 M111.8,22.5H30.2c-2.1,0-3.8,1.6-3.8,3.6v16.3
			c0,0.8,0.3,1.5,0.7,2.1c0.1,0.1,0.2,0.2,0.3,0.3c0.7,0.8,1.7,1.2,2.8,1.2h81.6c2.1,0,3.8-1.6,3.8-3.6V26.1
			C115.6,24.1,113.9,22.5,111.8,22.5"/>
	</g>
	<g>
		<defs>
			<rect id="SVGID_66_" width="142" height="86"/>
		</defs>
		<clipPath id="SVGID_67_">
			<use xlink:href="#SVGID_66_"  style="overflow:visible;"/>
		</clipPath>
		<path class="st38" d="M49.1,34.5c0,3.8-3.3,6.9-7.3,6.9c-1.5,0-2.8-0.4-3.9-1.1c0.7,0.2,1.5,0.3,2.3,0.3c4.2,0,7.6-3.2,7.6-7.2
			c0-1.7-0.7-3.3-1.7-4.6C47.9,30.1,49.1,32.1,49.1,34.5"/>
	</g>
	<g>
		<defs>
			<rect id="SVGID_68_" width="142" height="86"/>
		</defs>
		<clipPath id="SVGID_69_">
			<use xlink:href="#SVGID_68_"  style="overflow:visible;"/>
		</clipPath>
		<path class="st39" d="M109.4,34.5c0,3.8-3.3,6.9-7.3,6.9c-1.5,0-2.8-0.4-3.9-1.1c0.7,0.2,1.5,0.3,2.3,0.3c4.2,0,7.6-3.2,7.6-7.2
			c0-1.7-0.7-3.3-1.7-4.6C108.2,30.1,109.4,32.1,109.4,34.5"/>
	</g>
	<g>
		<defs>
			<rect id="SVGID_70_" width="142" height="86"/>
		</defs>
		<clipPath id="SVGID_71_">
			<use xlink:href="#SVGID_70_"  style="overflow:visible;"/>
		</clipPath>
		<path class="st40" d="M58.7,37.9c0-0.5,0.1-1.1,0.1-1.6s0.1-1.1,0.1-1.6s0.1-1.1,0.1-1.6s0-1.1,0.1-1.6c0.2,0.5,0.3,1.1,0.3,1.6
			c0.1,0.5,0.1,1.1,0,1.6c0,0.5-0.1,1.1-0.2,1.6C59.1,36.9,58.9,37.4,58.7,37.9"/>
	</g>
	<g>
		<defs>
			<rect id="SVGID_72_" width="142" height="86"/>
		</defs>
		<clipPath id="SVGID_73_">
			<use xlink:href="#SVGID_72_"  style="overflow:visible;"/>
		</clipPath>
		<path class="st41" d="M57.9,37.5c0-0.5,0-0.9,0.1-1.4l0.1-1.3l0.1-1.3c0-0.4,0.1-0.9,0.1-1.3c0.1,0.4,0.2,0.9,0.3,1.3
			c0,0.5,0.1,0.9,0,1.4c0,0.5-0.1,0.9-0.2,1.4C58.3,36.6,58.1,37,57.9,37.5"/>
	</g>
	<g>
		<defs>
			<rect id="SVGID_74_" width="142" height="86"/>
		</defs>
		<clipPath id="SVGID_75_">
			<use xlink:href="#SVGID_74_"  style="overflow:visible;"/>
		</clipPath>
		<path class="st42" d="M57.1,37c0-0.4,0-0.7,0-1.1c0-0.4,0-0.7,0-1.1c0-0.4,0.1-0.7,0.1-1.1c0-0.4,0.1-0.7,0.2-1.1
			c0.1,0.4,0.2,0.7,0.2,1.1c0,0.4,0,0.7,0,1.1c0,0.4-0.1,0.7-0.2,1.1C57.4,36.3,57.3,36.6,57.1,37"/>
	</g>
	<g>
		<defs>
			<rect id="SVGID_76_" width="142" height="86"/>
		</defs>
		<clipPath id="SVGID_77_">
			<use xlink:href="#SVGID_76_"  style="overflow:visible;"/>
		</clipPath>
		<path class="st43" d="M75.7,29.6c-0.1,0.7-0.2,1.4-0.2,2.1s-0.1,1.4-0.1,2.1c0,0.7,0,1.4,0.1,2.1c0.1,0.7,0.1,1.4,0.2,2.1
			c-0.3-0.7-0.5-1.4-0.6-2.1c-0.1-0.7-0.2-1.4-0.2-2.2c0-0.7,0-1.5,0.2-2.2C75.3,31,75.5,30.3,75.7,29.6"/>
	</g>
	<g>
		<defs>
			<rect id="SVGID_78_" width="142" height="86"/>
		</defs>
		<clipPath id="SVGID_79_">
			<use xlink:href="#SVGID_78_"  style="overflow:visible;"/>
		</clipPath>
		<path class="st44" d="M76.8,29.8c-0.1,0.7-0.1,1.3-0.2,2c0,0.7-0.1,1.3-0.1,2s0,1.3,0.1,2s0.1,1.3,0.2,2c-0.3-0.6-0.4-1.3-0.6-2
			c-0.1-0.7-0.2-1.3-0.2-2s0-1.4,0.2-2C76.4,31.1,76.6,30.4,76.8,29.8"/>
	</g>
	<g>
		<defs>
			<rect id="SVGID_80_" width="142" height="86"/>
		</defs>
		<clipPath id="SVGID_81_">
			<use xlink:href="#SVGID_80_"  style="overflow:visible;"/>
		</clipPath>
		<path class="st45" d="M78,29.9c0,0.6-0.1,1.3-0.1,1.9c0,0.6-0.1,1.2,0,1.9c0,0.6,0,1.2,0.1,1.9c0,0.6,0.1,1.2,0.2,1.9
			c-0.3-0.6-0.4-1.2-0.5-1.8s-0.2-1.3-0.2-1.9c0-0.6,0-1.3,0.2-1.9C77.6,31.1,77.7,30.5,78,29.9"/>
	</g>
	<g>
		<defs>
			<rect id="SVGID_82_" width="142" height="86"/>
		</defs>
		<clipPath id="SVGID_83_">
			<use xlink:href="#SVGID_82_"  style="overflow:visible;"/>
		</clipPath>
		<path class="st46" d="M79.1,30.1L79,31.8c0,0.6,0,1.1,0,1.7c0,0.6,0,1.1,0,1.7l0.1,1.7c-0.2-0.5-0.4-1.1-0.5-1.7
			c-0.1-0.6-0.2-1.2-0.2-1.8s0-1.2,0.1-1.8C78.7,31.2,78.8,30.6,79.1,30.1"/>
	</g>
	<g>
		<defs>
			<rect id="SVGID_84_" width="142" height="86"/>
		</defs>
		<clipPath id="SVGID_85_">
			<use xlink:href="#SVGID_84_"  style="overflow:visible;"/>
		</clipPath>
		<path class="st47" d="M80.2,30.3c0,0.5,0,1.1-0.1,1.6c0,0.5,0,1.1,0,1.6s0,1.1,0,1.6s0.1,1.1,0.1,1.6c-0.2-0.5-0.4-1-0.4-1.6
			c-0.1-0.5-0.1-1.1-0.1-1.6s0-1.1,0.1-1.6C79.8,31.3,80,30.8,80.2,30.3"/>
	</g>
	<g>
		<defs>
			<rect id="SVGID_86_" width="142" height="86"/>
		</defs>
		<clipPath id="SVGID_87_">
			<use xlink:href="#SVGID_86_"  style="overflow:visible;"/>
		</clipPath>
		<path class="st48" d="M81.3,30.4c0,0.5,0,1,0,1.5c0,0.5,0,1,0,1.4c0,0.5,0,1,0,1.4c0,0.5,0,1,0,1.5c-0.2-0.5-0.3-0.9-0.4-1.4
			s-0.1-1-0.1-1.5s0-1,0.1-1.5S81.1,30.9,81.3,30.4"/>
	</g>
	<g>
		<defs>
			<rect id="SVGID_88_" width="142" height="86"/>
		</defs>
		<clipPath id="SVGID_89_">
			<use xlink:href="#SVGID_88_"  style="overflow:visible;"/>
		</clipPath>
		<path class="st49" d="M82.4,30.6c0,0.5,0,0.9,0,1.3v1.3v1.3c0,0.4,0,0.9,0,1.3c-0.2-0.4-0.3-0.9-0.4-1.3c-0.1-0.4-0.1-0.9-0.1-1.3
			c0-0.4,0-0.9,0.1-1.3C82.1,31.5,82.2,31,82.4,30.6"/>
	</g>
	<g>
		<defs>
			<rect id="SVGID_90_" width="142" height="86"/>
		</defs>
		<clipPath id="SVGID_91_">
			<use xlink:href="#SVGID_90_"  style="overflow:visible;"/>
		</clipPath>
		<path class="st50" d="M83.5,30.8c0,0.4,0,0.8,0,1.2v1.2v1.2c0,0.4,0,0.8-0.1,1.2c-0.2-0.4-0.3-0.8-0.3-1.2C83,34,83,33.6,83,33.2
			s0-0.8,0.1-1.2S83.4,31.1,83.5,30.8"/>
	</g>
	<g>
		<defs>
			<rect id="SVGID_92_" width="142" height="86"/>
		</defs>
		<clipPath id="SVGID_93_">
			<use xlink:href="#SVGID_92_"  style="overflow:visible;"/>
		</clipPath>
		<path class="st51" d="M84.6,30.9c0.1,0.4,0.1,0.7,0.1,1.1c0,0.4,0,0.7,0,1s0,0.7,0,1s0,0.7-0.1,1.1c-0.1-0.3-0.2-0.7-0.3-1
			c-0.1-0.4-0.1-0.7-0.1-1.1c0-0.4,0-0.7,0.1-1.1C84.4,31.6,84.5,31.3,84.6,30.9"/>
	</g>
	<g>
		<defs>
			<rect id="SVGID_94_" width="142" height="86"/>
		</defs>
		<clipPath id="SVGID_95_">
			<use xlink:href="#SVGID_94_"  style="overflow:visible;"/>
		</clipPath>
		<path class="st52" d="M72.6,61.8c0,0.9-0.8,1.7-1.8,1.7S69,62.7,69,61.8s0.8-1.7,1.8-1.7C71.8,60.1,72.6,60.9,72.6,61.8"/>
	</g>
	<g>
		<defs>
			<rect id="SVGID_96_" width="142" height="86"/>
		</defs>
		<clipPath id="SVGID_97_">
			<use xlink:href="#SVGID_96_"  style="overflow:visible;"/>
		</clipPath>
		<path class="st53" d="M71.7,62.5L71.7,62.5l-1.8-0.7c-0.2-0.1-0.3-0.3-0.2-0.5c0.1-0.2,0.3-0.3,0.5-0.2l1.7,0.7
			c0.2,0.1,0.3,0.3,0.2,0.5C72,62.4,71.8,62.5,71.7,62.5"/>
	</g>
	<g>
		<defs>
			<rect id="SVGID_98_" width="142" height="86"/>
		</defs>
		<clipPath id="SVGID_99_">
			<use xlink:href="#SVGID_98_"  style="overflow:visible;"/>
		</clipPath>
		<path class="st54" d="M70.4,62.9L70.4,62.9c-0.3-0.1-0.4-0.3-0.3-0.5l0.8-1.7c0.1-0.2,0.3-0.3,0.5-0.2s0.3,0.3,0.2,0.5l-0.8,1.7
			C70.7,62.8,70.6,62.9,70.4,62.9"/>
	</g>
	<g>
		<defs>
			<rect id="SVGID_100_" width="142" height="86"/>
		</defs>
		<clipPath id="SVGID_101_">
			<use xlink:href="#SVGID_100_"  style="overflow:visible;"/>
		</clipPath>
		<path class="st55" d="M73.2,62.3c0,1.2-1,2.1-2.2,2.1c-1.1,0-2-0.8-2.2-1.8c0.3,0.7,1.1,1.3,2,1.3c1.2,0,2.2-0.9,2.2-2.1
			c0-0.1,0-0.2,0-0.3C73.1,61.7,73.2,62,73.2,62.3"/>
	</g>
	<g>
		<defs>
			<rect id="SVGID_102_" width="142" height="86"/>
		</defs>
		<clipPath id="SVGID_103_">
			<use xlink:href="#SVGID_102_"  style="overflow:visible;"/>
		</clipPath>
		<path class="st56" d="M51.8,75.4h-2.3c-0.8,0-1.4-0.6-1.4-1.3v-3c0-0.7,0.6-1.3,1.4-1.3h2.3c0.8,0,1.4,0.6,1.4,1.3v3
			C53.3,74.8,52.6,75.4,51.8,75.4"/>
	</g>
	<g>
		<defs>
			<rect id="SVGID_104_" width="142" height="86"/>
		</defs>
		<clipPath id="SVGID_105_">
			<use xlink:href="#SVGID_104_"  style="overflow:visible;"/>
		</clipPath>
		<path class="st57" d="M55.2,71.6v3.1c0,1.3-1.1,2.3-2.4,2.3h-2.3c-0.6,0-1.2-0.2-1.7-0.6c0.2,0.1,0.4,0.1,0.7,0.1h2.3
			c1.3,0,2.4-1,2.4-2.3V71c0-0.7-0.3-1.2-0.7-1.7C54.5,69.7,55.2,70.5,55.2,71.6"/>
	</g>
	<g>
		<defs>
			<rect id="SVGID_106_" width="142" height="86"/>
		</defs>
		<clipPath id="SVGID_107_">
			<use xlink:href="#SVGID_106_"  style="overflow:visible;"/>
		</clipPath>
		<path class="st58" d="M90.5,75.4h-2.3c-0.8,0-1.4-0.6-1.4-1.3v-3c0-0.7,0.6-1.3,1.4-1.3h2.3c0.8,0,1.4,0.6,1.4,1.3v3
			C91.9,74.8,91.3,75.4,90.5,75.4"/>
	</g>
	<g>
		<defs>
			<rect id="SVGID_108_" width="142" height="86"/>
		</defs>
		<clipPath id="SVGID_109_">
			<use xlink:href="#SVGID_108_"  style="overflow:visible;"/>
		</clipPath>
		<path class="st59" d="M93.8,71.6v3.1c0,1.3-1.1,2.3-2.4,2.3h-2.3c-0.6,0-1.2-0.2-1.7-0.6c0.2,0.1,0.4,0.1,0.7,0.1h2.3
			c1.3,0,2.4-1,2.4-2.3V71c0-0.7-0.3-1.2-0.7-1.7C93.1,69.7,93.8,70.5,93.8,71.6"/>
	</g>
	<g>
		<defs>
			<rect id="SVGID_110_" width="142" height="86"/>
		</defs>
		<clipPath id="SVGID_111_">
			<use xlink:href="#SVGID_110_"  style="overflow:visible;"/>
		</clipPath>
		<path class="st60" d="M73.9,77.7h-6.2c-0.7,0-1.2-0.5-1.2-1.1v-2.4c0-0.6,0.5-1.1,1.2-1.1h6.2c0.7,0,1.2,0.5,1.2,1.1v2.4
			C75.1,77.2,74.6,77.7,73.9,77.7"/>
	</g>
	<g>
		<defs>
			<rect id="SVGID_112_" width="142" height="86"/>
		</defs>
		<clipPath id="SVGID_113_">
			<use xlink:href="#SVGID_112_"  style="overflow:visible;"/>
		</clipPath>
		<path class="st61" d="M77.3,74.6V77c0,1.3-1.1,2.3-2.4,2.3h-6.2c-0.5,0-1-0.2-1.4-0.4c0.1,0,0.3,0,0.4,0h6.2c1.3,0,2.4-1,2.4-2.3
			v-2.3c0-0.8-0.4-1.4-1-1.9C76.5,72.5,77.3,73.5,77.3,74.6"/>
	</g>
	<g>
		<defs>
			<rect id="SVGID_114_" width="142" height="86"/>
		</defs>
		<clipPath id="SVGID_115_">
			<use xlink:href="#SVGID_114_"  style="overflow:visible;"/>
		</clipPath>
		<path class="st62" d="M39.1,73.2c0,1.2-1,2.1-2.2,2.1s-2.2-0.9-2.2-2.1s1-2.1,2.2-2.1S39.1,72.1,39.1,73.2"/>
	</g>
	<g>
		<defs>
			<rect id="SVGID_116_" width="142" height="86"/>
		</defs>
		<clipPath id="SVGID_117_">
			<use xlink:href="#SVGID_116_"  style="overflow:visible;"/>
		</clipPath>
		<path class="st63" d="M40.5,73.9c0,1.6-1.4,2.9-3,2.9c-1.1,0-2.1-0.6-2.6-1.5c0.6,0.5,1.3,0.9,2.2,0.9c1.7,0,3.1-1.3,3.1-2.9
			c0-0.5-0.1-1-0.4-1.4C40.1,72.3,40.5,73.1,40.5,73.9"/>
	</g>
	<g>
		<defs>
			<rect id="SVGID_118_" width="142" height="86"/>
		</defs>
		<clipPath id="SVGID_119_">
			<use xlink:href="#SVGID_118_"  style="overflow:visible;"/>
		</clipPath>
		<path class="st64" d="M106,73.2c0,1.2-1,2.1-2.2,2.1s-2.2-0.9-2.2-2.1s1-2.1,2.2-2.1S106,72.1,106,73.2"/>
	</g>
	<g>
		<defs>
			<rect id="SVGID_120_" width="142" height="86"/>
		</defs>
		<clipPath id="SVGID_121_">
			<use xlink:href="#SVGID_120_"  style="overflow:visible;"/>
		</clipPath>
		<path class="st65" d="M107.3,73.9c0,1.6-1.4,2.9-3,2.9c-1.1,0-2.1-0.6-2.6-1.5c0.6,0.5,1.3,0.9,2.2,0.9c1.7,0,3.1-1.3,3.1-2.9
			c0-0.5-0.1-1-0.4-1.4C107,72.3,107.3,73.1,107.3,73.9"/>
	</g>
	<g>
		<defs>
			<rect id="SVGID_122_" width="142" height="86"/>
		</defs>
		<clipPath id="SVGID_123_">
			<use xlink:href="#SVGID_122_"  style="overflow:visible;"/>
		</clipPath>
		<path class="st66" d="M58.9,80.2c0.2-1.4,0.4-2.7,0.7-4s0.6-2.6,1-3.9l0.1-0.5c0.1-0.2,0.2-0.4,0.3-0.6c0.2-0.4,0.6-0.7,1-0.9
			c0.2-0.1,0.4-0.2,0.7-0.2c0.1,0,0.2,0,0.4-0.1c0.1,0,0.1,0,0.2,0c0.1,0,0.1,0,0.2,0h1.1c1.4,0,2.8,0,4.3,0c2.8,0,5.7,0.1,8.5,0.2
			c1.4,0.1,2.8,0.1,4.3,0.2l1.1,0.1h0.3c0.1,0,0.2,0,0.3,0.1c0.2,0.1,0.4,0.2,0.5,0.3C84,71,84,71,84.1,71.1l0.1,0.2l0.3,0.4
			l0.5,0.9l-0.6-0.8l-0.3-0.4l-0.2-0.2c0-0.1-0.1-0.1-0.2-0.2s-0.3-0.2-0.4-0.2s-0.1,0-0.2,0h-0.3l-1.1,0.1
			c-1.4,0.1-2.8,0.1-4.3,0.2c-2.8,0.1-5.7,0.2-8.5,0.2c-1.4,0-2.8,0-4.3,0h-1.1c-0.1,0-0.1,0-0.1,0h-0.1c-0.1,0-0.1,0-0.2,0
			c-0.1,0-0.2,0.1-0.3,0.1c-0.2,0.1-0.4,0.3-0.5,0.4s-0.1,0.2-0.1,0.3L62,72.6c-0.4,1.3-0.9,2.6-1.4,3.8C60,77.7,59.5,79,58.9,80.2"
			/>
	</g>
	<g>
		<defs>
			<rect id="SVGID_124_" width="142" height="86"/>
		</defs>
		<clipPath id="SVGID_125_">
			<use xlink:href="#SVGID_124_"  style="overflow:visible;"/>
		</clipPath>
		<path class="st67" d="M114.6,74.5c-0.9-1.9-1.9-3.8-2.9-5.7c-1-1.9-1.9-3.8-2.9-5.7c-0.7-1.3-2-3.8-2.7-5.1
			c-0.3-0.5-0.9-0.9-1.5-0.9h-3.7h-4.3H88L70.8,57h-8.6h-8.6H36.7c-0.5,0-1,0.3-1.2,0.7c-0.7,1.3-2.1,4-2.9,5.4l-3,5.6l-3,5.6
			l-3,5.7h1.6l2.7-5l3.1-5.6l3.1-5.6c0.7-1.3,1.8-3.4,2.4-4.5c0.2-0.4,0.7-0.7,1.2-0.7h15.8h8.6h8.6l17.2-0.1h8.6h4.3h2.9
			c0.6,0,1.2,0.3,1.5,0.9c0.6,1.1,1.7,3.1,2.4,4.4c1,1.9,2.1,3.7,3.1,5.6c1.1,1.9,2.1,3.7,3.2,5.6c1.1,1.8,2.2,3.7,3.3,5.5
			C116.5,78.3,115.5,76.4,114.6,74.5"/>
	</g>
	<g>
		<defs>
			<rect id="SVGID_126_" width="142" height="86"/>
		</defs>
		<clipPath id="SVGID_127_">
			<use xlink:href="#SVGID_126_"  style="overflow:visible;"/>
		</clipPath>
		<path class="st68" d="M132.9,55.4H9.1c-0.3,0-0.6-0.3-0.6-0.6s0.3-0.6,0.6-0.6H133c0.3,0,0.6,0.3,0.6,0.6S133.3,55.4,132.9,55.4"
			/>
	</g>
	<g>
		<defs>
			<rect id="SVGID_128_" width="142" height="86"/>
		</defs>
		<clipPath id="SVGID_129_">
			<use xlink:href="#SVGID_128_"  style="overflow:visible;"/>
		</clipPath>
		<path class="st69" d="M77.2,28.3c2-0.2,4.1-0.3,6.1-0.3h1.5h0.1H85c0.1,0,0.2,0,0.3,0.1c0.2,0.1,0.3,0.2,0.4,0.3
			c0.1,0.1,0.2,0.3,0.3,0.4c0.1,0.2,0.1,0.4,0.1,0.5v2.9c0,2,0,3.9,0,5.9v0.7v0.4v0.2c0,0.1,0,0.2,0,0.3c-0.1,0.3-0.3,0.7-0.7,0.8
			c-0.2,0.1-0.4,0.1-0.5,0.1h-0.4h-3.1l-12.3-0.1L63,40.3l-6.1-0.1L63,40l6.1-0.1l12.3-0.1h3.1h0.4c0.1,0,0.1,0,0.2-0.1
			s0.2-0.2,0.2-0.3v-0.1v-0.2v-0.4V38c0-2,0-3.9,0-5.9v-2.9c0-0.1,0-0.2,0-0.3c0-0.1-0.1-0.1-0.1-0.2s-0.1-0.1-0.2-0.1h-0.1
			c0,0,0,0-0.1,0c0,0,0,0-0.1,0h-1.5C81.3,28.6,79.2,28.5,77.2,28.3"/>
	</g>
</g>
<path class="st70" d="M117.7,41.2h12.4V27.3h-12.4C117.7,27.3,117.7,41.2,117.7,41.2z M130.9,41.9H117V26.6h13.9V41.9z"/>
<rect x="118.3" y="27.7" class="st70" width="11.4" height="2"/>
<rect x="118.3" y="38.8" class="st70" width="11.4" height="2"/>
<g>
	<g>
		<defs>
			<rect id="SVGID_130_" width="142" height="86"/>
		</defs>
		<clipPath id="SVGID_131_">
			<use xlink:href="#SVGID_130_"  style="overflow:visible;"/>
		</clipPath>
		<path class="st71" d="M129,30.6c-0.2,0.3-0.5,1.4-0.5,3.5c0,2,0.3,3.2,0.5,3.5c0.2-0.3,0.5-1.4,0.5-3.5
			C129.5,32.1,129.2,30.9,129,30.6 M129,38.1c-0.9,0-1-3.3-1-4s0-4,1-4c0.9,0,1,3.3,1,4C129.9,34.8,129.9,38.1,129,38.1"/>
	</g>
</g>
<polygon class="st70" points="127.7,38.1 126.4,38.1 126.4,30.2 127.7,30.2 127.7,30.7 126.9,30.7 126.9,37.6 127.7,37.6 "/>
<rect x="126.6" y="33.9" class="st70" width="0.9" height="0.5"/>
<polygon class="st70" points="123.3,38.1 122,38.1 122,30.2 123.3,30.2 123.3,30.7 122.5,30.7 122.5,37.6 123.3,37.6 "/>
<rect x="122.2" y="33.9" class="st70" width="0.9" height="0.5"/>
<polygon class="st70" points="120.6,30.2 120.6,38.1 121.1,38.1 121.1,30.7 121.5,30.7 121.5,30.2 "/>
<g>
	<g>
		<defs>
			<rect id="SVGID_132_" width="142" height="86"/>
		</defs>
		<clipPath id="SVGID_133_">
			<use xlink:href="#SVGID_132_"  style="overflow:visible;"/>
		</clipPath>
		<path class="st72" d="M124.3,30.7h0.3c0.4,0,0.7,0.3,0.8,0.6c0.1,0.7,0.3,2.3-0.4,3.1c-0.2,0.2-0.4,0.3-0.7,0.3
			C124.3,34.7,124.3,30.7,124.3,30.7z M124.3,38.1v-2.2l1.2,2.2h0.5l-1.6-2.9c0.4-0.1,0.7-0.2,0.9-0.5c0.8-0.8,0.7-2.5,0.5-3.4
			c-0.1-0.6-0.6-1-1.2-1h-0.8v7.8H124.3z"/>
	</g>
</g>
<rect x="119.6" y="30.2" class="st70" width="1.3" height="0.5"/>
<g>
	<g>
		<defs>
			<rect id="SVGID_134_" width="142" height="86"/>
		</defs>
		<clipPath id="SVGID_135_">
			<use xlink:href="#SVGID_134_"  style="overflow:visible;"/>
		</clipPath>
		<path class="st73" d="M118.7,32.4c0-1.1,0.9-2.1,0.9-2.1H119c-0.3,0.4-0.8,1.2-0.8,2.2c0,0.7,0.4,1.5,0.8,2.3
			c0.3,0.7,0.6,1.3,0.6,1.7c0,0.5-0.7,1.3-1.3,1.7h0.7c0.5-0.5,1-1.1,1-1.7c0-0.5-0.3-1.2-0.6-1.9C119.1,33.7,118.7,33,118.7,32.4"
			/>
	</g>
</g>
<g class="st74">
	<path class="st75" d="M15.7,11.5c0-0.1-0.1-0.1-0.1-0.1c-0.1,0-0.1,0-0.2,0s-0.1,0-0.2,0c-0.1,0-0.1,0-0.2,0c-0.1,0-0.2,0-0.5,0
		s-0.5,0-0.7-0.1c-0.3,0-0.5,0-0.7-0.1s-0.4,0-0.5,0c0,0,0,0,0-0.1c0,0,0-0.1,0-0.1c0-0.1,0-0.1,0-0.2c0-0.1,0.1-0.1,0.2-0.1
		c0.5,0,1,0,1.4,0s1,0,1.4-0.1s1-0.1,1.4-0.1s1,0,1.4,0c0,0.2,0,0.3-0.1,0.4s-0.2,0.2-0.3,0.2c-0.1,0-0.3,0-0.5,0
		c-0.2,0-0.3,0-0.5,0c-0.2,0-0.3,0-0.4,0.1s-0.2,0.1-0.2,0.3c0,0,0,0.1,0,0.2c0,0.1,0,0.2,0,0.3c0,0.1,0,0.2,0,0.3
		c0,0.1,0,0.1,0,0.2c0,0.3,0,0.6,0.1,0.9c0.1,0.3,0.2,0.6,0.3,0.9c0.1,0.3,0.2,0.6,0.3,0.9c0.1,0.3,0.1,0.6,0.1,0.9
		c0,0.2-0.1,0.3-0.4,0.3c-0.2,0-0.3-0.1-0.4-0.3s-0.2-0.5-0.3-0.8S16,14.4,16,14s-0.1-0.7-0.1-1.1c0-0.3-0.1-0.7-0.1-0.9
		C15.7,11.7,15.7,11.5,15.7,11.5z"/>
	<path class="st75" d="M20.7,9.3c0-0.1,0.1-0.1,0.1-0.2c0.1,0,0.1,0,0.2,0c0.1,0,0.3,0.1,0.4,0.2s0.3,0.4,0.5,0.6s0.3,0.6,0.5,0.9
		c0.2,0.3,0.3,0.7,0.5,1.1s0.3,0.7,0.4,1.1c0.1,0.4,0.2,0.7,0.3,1c0.1,0.3,0.2,0.6,0.2,0.8c0.1,0.2,0.1,0.4,0.1,0.5s0,0.2-0.1,0.2
		s-0.1,0.1-0.2,0.1c-0.1,0-0.1,0-0.2-0.1c0,0-0.1-0.1-0.1-0.1s-0.1-0.1-0.1-0.2c0-0.1,0-0.1-0.1-0.1c0-0.1-0.1-0.2-0.1-0.3
		c-0.1-0.2-0.1-0.3-0.2-0.5s-0.1-0.3-0.2-0.5s-0.1-0.3-0.1-0.3c-0.4-0.1-0.7-0.1-1.1-0.2s-0.8-0.1-1.2-0.2h-0.1
		c-0.2,0.8-0.4,1.4-0.5,1.9c-0.1,0.5-0.3,0.8-0.4,1c-0.1,0.2-0.2,0.3-0.2,0.2s-0.1-0.2-0.1-0.4c0-0.2,0-0.5,0-0.8s0.1-0.7,0.1-1.1
		c0.1-0.4,0.1-0.8,0.2-1.3s0.2-0.9,0.3-1.3s0.3-0.8,0.4-1.2S20.6,9.5,20.7,9.3z M20.6,12c0,0.2,0.1,0.3,0.2,0.4s0.3,0.1,0.5,0.2
		c0.2,0,0.4,0,0.6,0s0.4,0,0.5,0c0-0.2,0-0.4-0.1-0.7c-0.1-0.2-0.2-0.5-0.3-0.7c-0.1-0.2-0.2-0.5-0.3-0.7s-0.2-0.4-0.3-0.6
		c-0.1,0.1-0.1,0.2-0.2,0.3c-0.1,0.2-0.1,0.3-0.2,0.5c-0.1,0.2-0.1,0.4-0.2,0.6c-0.1,0.2-0.1,0.3-0.1,0.4c0,0,0,0.1,0,0.1
		C20.6,12,20.6,12,20.6,12z"/>
	<path class="st75" d="M24.3,10c0-0.2,0-0.3,0.1-0.4c0.1-0.1,0.1-0.2,0.2-0.3c0.1-0.1,0.2-0.1,0.3-0.1c0.1,0,0.3-0.1,0.4-0.1
		c0.1,0,0.3,0,0.4,0c0.1,0,0.3,0,0.4,0c0.2,0,0.4,0,0.6,0.1c0.2,0,0.4,0.1,0.6,0.2s0.3,0.2,0.4,0.4c0.1,0.2,0.2,0.4,0.2,0.7
		c0,0.2,0,0.5-0.1,0.7c-0.1,0.2-0.2,0.4-0.4,0.6c-0.1,0.2-0.3,0.4-0.5,0.6c-0.2,0.2-0.4,0.3-0.5,0.4s-0.4,0.2-0.5,0.3
		s-0.3,0.1-0.4,0.1c-0.1,0.2-0.1,0.4-0.1,0.7c0,0.2,0,0.5,0,0.7c0,0.2,0,0.4,0,0.6c0,0.2,0,0.4,0,0.5c0,0.1-0.1,0.3-0.2,0.3
		S25,16,24.9,16c0-0.4-0.1-0.7-0.1-1.1s0-0.8-0.1-1.1s0-0.7,0-1.1c0-0.4,0-0.7-0.1-1s-0.1-0.6-0.1-0.9C24.5,10.4,24.4,10.2,24.3,10z
		 M26.3,9.8c-0.1,0-0.2,0-0.3,0c-0.1,0-0.2,0-0.3,0.1c-0.1,0-0.2,0.1-0.3,0.1c-0.1,0.1-0.1,0.2-0.1,0.3v2c0.2,0,0.4-0.1,0.7-0.2
		c0.2-0.1,0.5-0.3,0.7-0.4c0.2-0.2,0.4-0.4,0.5-0.6c0.1-0.2,0.2-0.4,0.2-0.7c0-0.2,0-0.3-0.1-0.4C27.1,10,27.1,9.9,27,9.9
		c-0.1,0-0.2-0.1-0.3-0.1C26.5,9.8,26.4,9.8,26.3,9.8z"/>
	<path class="st75" d="M28.6,10c0,0-0.1,0-0.1,0c0,0-0.1,0-0.2,0c-0.1,0-0.1,0-0.1-0.1s-0.1,0-0.1,0c0,0,0,0,0,0c0,0,0,0,0,0
		c0-0.1,0-0.1,0.1-0.2c0.1-0.1,0.1-0.1,0.2-0.1c0.1,0,0.1-0.1,0.2-0.1c0.1,0,0.1,0,0.2,0h0.1h0.1c0.1,0,0.3,0,0.5,0
		c0.2,0,0.4,0,0.6,0.1c0.2,0,0.4,0,0.7,0.1c0.2,0,0.4,0,0.6,0.1s0.3,0,0.5,0.1c0.1,0,0.2,0,0.2,0c0,0,0.1,0,0.2,0
		c0.1,0,0.1,0,0.2,0.1c0.1,0,0.1,0.1,0.2,0.1c0.1,0,0.1,0.1,0.1,0.1c0,0.1-0.1,0.1-0.1,0.2s-0.1,0.1-0.1,0.1c0,0-0.1,0-0.1,0
		s-0.1,0-0.1,0c-0.2,0-0.4,0-0.7,0c-0.2,0-0.4,0-0.7,0s-0.4,0-0.7,0c-0.2,0-0.4,0-0.7,0c0,0.1,0,0.2,0,0.4s0,0.4-0.1,0.6
		c0,0.2,0,0.4,0,0.6s0.1,0.4,0.2,0.5c0.2-0.1,0.4-0.2,0.6-0.2c0.2,0,0.4,0,0.6,0c0.1,0,0.2,0,0.3,0c0.1,0,0.3,0,0.4,0
		c0.1,0,0.2,0.1,0.3,0.2c0.1,0.1,0.1,0.2,0.1,0.3c0,0.1,0,0.2-0.1,0.2c0,0.1-0.1,0.1-0.3,0.1c0,0,0,0-0.1,0c0,0-0.1,0-0.2-0.1
		s-0.1,0-0.2-0.1s-0.1,0-0.1,0c0,0,0,0-0.1,0c0,0-0.1,0-0.1,0s-0.1,0-0.1,0c0,0-0.1,0-0.1,0c-0.1,0-0.2,0-0.3,0
		c-0.1,0-0.2,0-0.3,0.1c-0.1,0-0.1,0.1-0.2,0.2c0,0.1-0.1,0.2-0.1,0.3c0,0,0,0.1,0,0.2c0,0.1,0,0.2,0,0.4c0,0.1,0,0.3,0.1,0.4
		s0.1,0.3,0.1,0.4c0.1,0.1,0.1,0.2,0.2,0.3c0.1,0.1,0.1,0.1,0.2,0.1c0,0,0,0,0.1,0c0,0,0.1,0,0.1,0c0.2-0.1,0.4-0.3,0.5-0.4
		s0.4-0.3,0.6-0.4c0.2-0.1,0.4-0.2,0.6-0.3c0.2-0.1,0.4-0.1,0.6-0.1v0.4c0,0-0.1,0.1-0.2,0.2s-0.2,0.2-0.4,0.3s-0.3,0.3-0.6,0.4
		s-0.4,0.3-0.6,0.4s-0.4,0.2-0.6,0.3c-0.2,0.1-0.3,0.1-0.5,0.1c-0.2,0-0.3-0.1-0.5-0.2c-0.1-0.2-0.3-0.4-0.4-0.6s-0.2-0.6-0.3-0.9
		C29,14,29,13.7,28.9,13.3s-0.1-0.7-0.1-1.1c0-0.4-0.1-0.7-0.1-1c0-0.3,0-0.6,0-0.8S28.6,10,28.6,10z"/>
</g>
<g class="st74">
	<path class="st75" d="M35.6,11.1c0-0.1,0-0.2,0-0.3s0-0.3,0-0.4c0-0.1,0.1-0.2,0.1-0.3c0.1-0.1,0.1-0.1,0.3-0.1
		c0.1,0,0.1,0.1,0.2,0.2c0,0.1,0.1,0.3,0.1,0.4c0,0.2,0,0.4,0.1,0.6c0,0.2,0,0.4,0,0.6s0,0.4,0,0.5c0,0.1,0,0.2,0,0.3
		c0,0.1,0,0.2,0.1,0.4c0,0.2,0.1,0.4,0.1,0.6c0.1,0.2,0.1,0.4,0.2,0.7s0.1,0.4,0.2,0.7s0.1,0.4,0.2,0.6s0.1,0.3,0.1,0.4c0,0,0,0,0,0
		c0,0,0,0,0,0c0,0.1,0,0.1-0.1,0.1s-0.1,0.1-0.1,0.1s-0.1,0-0.2,0c-0.1,0-0.1,0-0.2,0c0,0-0.1,0-0.1,0s-0.1,0-0.1,0
		c-0.1-0.4-0.2-0.7-0.3-1.2c-0.1-0.4-0.2-0.8-0.3-1.2c-0.1-0.4-0.2-0.8-0.2-1.3S35.6,11.5,35.6,11.1z"/>
</g>
<g class="st74">
	<path class="st76" d="M14.3,25.2h7.2c0.7,0,1.3,0.2,1.8,0.7c0.5,0.5,0.7,1.1,0.7,1.8v9.7h-2.7v-3.9h-6.9v3.9h-2.6v-9.7
		c0-0.7,0.2-1.3,0.7-1.8S13.6,25.2,14.3,25.2z M14.5,30.8h6.9v-3h-6.9V30.8z"/>
</g>
<g class="st74">
	<path class="st76" d="M14.9,40.1c-0.6-0.1-1-0.1-1.2-0.1c-0.3,0-0.4,0-0.4,0c0,0-0.1,0-0.1,0.1s0,0.1,0.1,0.1c0,0,0.2,0.1,0.5,0.1
		s0.5,0.1,0.6,0.2s0.3,0.1,0.4,0.2c0.1,0.1,0.2,0.2,0.3,0.4c0,0.1,0.1,0.3,0.1,0.6c0,0.5-0.1,0.8-0.4,1.1c-0.3,0.2-0.7,0.3-1.2,0.3
		c-0.3,0-0.5,0-0.8-0.1c-0.3,0-0.5-0.1-0.7-0.1l-0.2-0.1l0.1-1.1c0.6,0.1,1.1,0.1,1.5,0.1c0.2,0,0.3,0,0.3-0.1c0,0,0-0.1-0.1-0.1
		c0,0-0.2,0-0.4-0.1c-0.6-0.1-0.9-0.2-1.1-0.4c-0.2-0.2-0.3-0.5-0.3-0.9c0-0.5,0.1-0.9,0.4-1.1c0.3-0.2,0.7-0.3,1.2-0.3
		c0.4,0,0.8,0,1.3,0.1l0.3,0L14.9,40.1z"/>
	<path class="st76" d="M15.3,43v-4h1.4v4H15.3z"/>
	<path class="st76" d="M18.8,43H17v-4h1.7c0.7,0,1.2,0.2,1.5,0.5c0.3,0.3,0.5,0.8,0.5,1.5c0,0.7-0.1,1.2-0.4,1.5
		C20,42.8,19.5,43,18.8,43z M19.3,41c0-0.4,0-0.6-0.1-0.7s-0.2-0.2-0.5-0.2h-0.2v1.8h0.2c0.2,0,0.4-0.1,0.5-0.2
		C19.2,41.6,19.3,41.4,19.3,41z"/>
</g>
<g class="st74">
	<path class="st76" d="M21.1,43v-4h3v1.1h-1.6v0.3h1.3v1.1h-1.3v0.4h1.6V43H21.1z"/>
</g>
<g class="st74">
	<path class="st75" d="M67.1,13.4c0-0.3,0-0.5,0.1-0.8c0.1-0.3,0.2-0.5,0.3-0.8s0.3-0.5,0.5-0.7c0.2-0.2,0.4-0.4,0.6-0.6
		s0.5-0.3,0.7-0.4s0.5-0.1,0.8-0.1c0.1,0,0.3,0,0.5,0c0.2,0,0.4,0.1,0.6,0.1s0.3,0.1,0.5,0.2c0.1,0.1,0.2,0.2,0.2,0.4c0,0,0,0,0,0
		c0,0,0,0,0,0c0,0,0,0,0,0c0,0,0,0-0.1,0.1c0,0-0.1,0.1-0.1,0.1c0,0,0,0,0,0c0,0,0,0,0,0c0,0,0,0,0,0c0,0,0,0,0,0c0,0-0.1,0-0.2-0.1
		c-0.1,0-0.2-0.1-0.3-0.2c-0.1-0.1-0.2-0.1-0.3-0.2c-0.1,0-0.2-0.1-0.2-0.1c0,0,0,0-0.1,0c0,0,0,0,0,0s0,0,0,0c-0.2,0-0.5,0-0.7,0.1
		c-0.2,0.1-0.4,0.2-0.6,0.4s-0.4,0.3-0.5,0.5c-0.2,0.2-0.3,0.4-0.4,0.6c-0.1,0.2-0.2,0.5-0.2,0.7s-0.1,0.5-0.1,0.7
		c0,0.3,0,0.6,0.1,0.8s0.2,0.4,0.4,0.6c0.2,0.2,0.4,0.3,0.6,0.3c0.2,0.1,0.5,0.1,0.8,0.1c0.2,0,0.3,0,0.6-0.1c0.2,0,0.4-0.1,0.7-0.2
		s0.4-0.2,0.5-0.4c0.1-0.1,0.2-0.3,0.2-0.6c0-0.1,0-0.2,0-0.2c0,0-0.1-0.1-0.1-0.1s-0.1,0-0.2,0c-0.1,0-0.1,0-0.2,0
		c-0.1,0-0.2,0-0.3,0.1c-0.1,0-0.2,0.1-0.2,0.1c-0.1,0-0.2,0.1-0.2,0.1c-0.1,0-0.2,0.1-0.3,0.1c-0.1,0-0.2,0-0.3-0.1
		s-0.1-0.1-0.1-0.3c0-0.1,0.1-0.3,0.2-0.4c0.1-0.1,0.2-0.2,0.4-0.2s0.3-0.1,0.5-0.1c0.2,0,0.3,0,0.4,0c0.2,0,0.4,0,0.5,0
		c0.2,0,0.3,0.1,0.4,0.2s0.2,0.2,0.3,0.3s0.1,0.3,0.1,0.5c0,0.3-0.1,0.6-0.3,0.8c-0.2,0.2-0.4,0.4-0.7,0.6c-0.3,0.2-0.6,0.3-0.9,0.3
		C70.2,16,69.9,16,69.6,16c-0.4,0-0.7-0.1-1-0.2c-0.3-0.1-0.6-0.3-0.8-0.6c-0.2-0.2-0.4-0.5-0.5-0.8S67.1,13.8,67.1,13.4z"/>
	<path class="st75" d="M74.4,9.3c0-0.1,0.1-0.1,0.1-0.2c0.1,0,0.1,0,0.2,0c0.1,0,0.3,0.1,0.4,0.2s0.3,0.4,0.5,0.6s0.3,0.6,0.5,0.9
		c0.2,0.3,0.3,0.7,0.5,1.1s0.3,0.7,0.4,1.1c0.1,0.4,0.2,0.7,0.3,1c0.1,0.3,0.2,0.6,0.2,0.8c0.1,0.2,0.1,0.4,0.1,0.5s0,0.2-0.1,0.2
		s-0.1,0.1-0.2,0.1c-0.1,0-0.1,0-0.2-0.1c0,0-0.1-0.1-0.1-0.1S77,15.4,77,15.3c0-0.1,0-0.1-0.1-0.1c0-0.1-0.1-0.2-0.1-0.3
		c-0.1-0.2-0.1-0.3-0.2-0.5s-0.1-0.3-0.2-0.5s-0.1-0.3-0.1-0.3c-0.4-0.1-0.7-0.1-1.1-0.2s-0.8-0.1-1.2-0.2h-0.1
		c-0.2,0.8-0.4,1.4-0.5,1.9c-0.1,0.5-0.3,0.8-0.4,1c-0.1,0.2-0.2,0.3-0.2,0.2s-0.1-0.2-0.1-0.4c0-0.2,0-0.5,0-0.8s0.1-0.7,0.1-1.1
		c0.1-0.4,0.1-0.8,0.2-1.3s0.2-0.9,0.3-1.3s0.3-0.8,0.4-1.2S74.2,9.5,74.4,9.3z M74.2,12c0,0.2,0.1,0.3,0.2,0.4s0.3,0.1,0.5,0.2
		c0.2,0,0.4,0,0.6,0s0.4,0,0.5,0c0-0.2,0-0.4-0.1-0.7c-0.1-0.2-0.2-0.5-0.3-0.7c-0.1-0.2-0.2-0.5-0.3-0.7S75,10.1,74.9,10
		c-0.1,0.1-0.1,0.2-0.2,0.3c-0.1,0.2-0.1,0.3-0.2,0.5c-0.1,0.2-0.1,0.4-0.2,0.6c-0.1,0.2-0.1,0.3-0.1,0.4c0,0,0,0.1,0,0.1
		C74.2,12,74.2,12,74.2,12z"/>
	<path class="st75" d="M78.1,12.8c0-0.1,0-0.2,0-0.3c0-0.1,0-0.3,0-0.5s0-0.3,0-0.4c0-0.1,0-0.2,0-0.3c0,0,0-0.1,0-0.2
		c0-0.1,0-0.1,0.1-0.2c0-0.1,0.1-0.1,0.1-0.2c0-0.1,0.1-0.1,0.2-0.1c0.2,0,0.3,0,0.5,0.1c0.2,0.1,0.3,0.2,0.4,0.4s0.3,0.3,0.4,0.5
		c0.1,0.2,0.3,0.4,0.4,0.6s0.2,0.4,0.4,0.5c0.1,0.2,0.2,0.3,0.4,0.4c0.1-0.1,0.2-0.2,0.3-0.3c0.1-0.2,0.1-0.3,0.2-0.5
		s0.1-0.4,0.1-0.6s0.1-0.4,0.2-0.6c0.1-0.2,0.2-0.3,0.3-0.4c0.1-0.1,0.3-0.2,0.5-0.2c0.2,0,0.4,0.1,0.6,0.3c0.2,0.2,0.4,0.4,0.5,0.7
		c0.2,0.3,0.3,0.6,0.4,0.9c0.1,0.3,0.2,0.7,0.3,1c0.1,0.3,0.1,0.6,0.2,0.9c0,0.3,0.1,0.4,0.1,0.5c0,0,0,0.1,0,0.2c0,0.1,0,0.1,0,0.1
		c0,0-0.1,0.1-0.1,0.1s-0.1,0-0.2,0c0,0-0.1,0-0.1,0c0,0-0.1-0.1-0.1-0.1c0,0-0.1-0.1-0.1-0.1c0,0,0-0.1,0-0.1
		c0-0.3-0.1-0.5-0.2-0.9c-0.1-0.3-0.1-0.6-0.2-0.9s-0.2-0.6-0.3-0.9c-0.1-0.3-0.3-0.6-0.5-0.8c-0.2,0.1-0.3,0.2-0.4,0.4
		s-0.2,0.4-0.2,0.6c-0.1,0.2-0.1,0.4-0.2,0.6s-0.1,0.4-0.2,0.6s-0.2,0.3-0.3,0.4c-0.1,0.1-0.3,0.2-0.5,0.2c-0.1,0-0.3,0-0.4-0.1
		s-0.3-0.2-0.4-0.4s-0.2-0.3-0.4-0.5s-0.2-0.4-0.3-0.5c-0.1-0.2-0.2-0.3-0.3-0.5c-0.1-0.2-0.2-0.3-0.3-0.4c0,0.2-0.1,0.3-0.1,0.4
		s0,0.2-0.1,0.4c0,0.1,0,0.2,0,0.4c0,0.1,0,0.3,0,0.4c0,0.2,0,0.4,0.1,0.7c0,0.2,0.1,0.4,0.1,0.6c0,0.2,0.1,0.4,0.1,0.6
		s0.1,0.4,0.1,0.7v0.1c0,0,0,0-0.1,0.1S78.8,16,78.8,16c0,0-0.1,0.1-0.1,0.1c0,0-0.1,0-0.1,0.1c0,0,0,0,0,0c0,0,0,0,0,0c0,0,0,0,0,0
		s0,0,0,0c0-0.3-0.1-0.6-0.1-0.9c0-0.3-0.1-0.5-0.1-0.8c0-0.3-0.1-0.5-0.1-0.8S78.1,13.1,78.1,12.8z"/>
	<path class="st75" d="M85.3,10c0,0-0.1,0-0.1,0c0,0-0.1,0-0.2,0c-0.1,0-0.1,0-0.1-0.1s-0.1,0-0.1,0c0,0,0,0,0,0c0,0,0,0,0,0
		c0-0.1,0-0.1,0.1-0.2c0.1-0.1,0.1-0.1,0.2-0.1c0.1,0,0.1-0.1,0.2-0.1c0.1,0,0.1,0,0.2,0h0.1h0.1c0.1,0,0.3,0,0.5,0
		c0.2,0,0.4,0,0.6,0.1c0.2,0,0.4,0,0.7,0.1c0.2,0,0.4,0,0.6,0.1s0.3,0,0.5,0.1c0.1,0,0.2,0,0.2,0c0,0,0.1,0,0.2,0
		c0.1,0,0.1,0,0.2,0.1c0.1,0,0.1,0.1,0.2,0.1c0.1,0,0.1,0.1,0.1,0.1c0,0.1-0.1,0.1-0.1,0.2s-0.1,0.1-0.1,0.1c0,0-0.1,0-0.1,0
		s-0.1,0-0.1,0c-0.2,0-0.4,0-0.7,0c-0.2,0-0.4,0-0.7,0s-0.4,0-0.7,0c-0.2,0-0.4,0-0.7,0c0,0.1,0,0.2,0,0.4s0,0.4-0.1,0.6
		c0,0.2,0,0.4,0,0.6s0.1,0.4,0.2,0.5c0.2-0.1,0.4-0.2,0.6-0.2c0.2,0,0.4,0,0.6,0c0.1,0,0.2,0,0.3,0c0.1,0,0.3,0,0.4,0
		c0.1,0,0.2,0.1,0.3,0.2c0.1,0.1,0.1,0.2,0.1,0.3c0,0.1,0,0.2-0.1,0.2c0,0.1-0.1,0.1-0.3,0.1c0,0,0,0-0.1,0c0,0-0.1,0-0.2-0.1
		s-0.1,0-0.2-0.1s-0.1,0-0.1,0c0,0,0,0-0.1,0c0,0-0.1,0-0.1,0s-0.1,0-0.1,0c0,0-0.1,0-0.1,0c-0.1,0-0.2,0-0.3,0
		c-0.1,0-0.2,0-0.3,0.1c-0.1,0-0.2,0.1-0.2,0.2c0,0.1-0.1,0.2-0.1,0.3c0,0,0,0.1,0,0.2c0,0.1,0,0.2,0,0.4c0,0.1,0,0.3,0.1,0.4
		s0.1,0.3,0.1,0.4c0.1,0.1,0.1,0.2,0.2,0.3c0.1,0.1,0.1,0.1,0.2,0.1c0,0,0,0,0.1,0c0,0,0.1,0,0.1,0c0.2-0.1,0.4-0.3,0.5-0.4
		s0.4-0.3,0.6-0.4c0.2-0.1,0.4-0.2,0.6-0.3c0.2-0.1,0.4-0.1,0.6-0.1v0.4c0,0-0.1,0.1-0.2,0.2s-0.2,0.2-0.4,0.3s-0.3,0.3-0.6,0.4
		s-0.4,0.3-0.6,0.4s-0.4,0.2-0.6,0.3c-0.2,0.1-0.3,0.1-0.5,0.1c-0.2,0-0.3-0.1-0.5-0.2c-0.1-0.2-0.3-0.4-0.4-0.6s-0.2-0.6-0.3-0.9
		c-0.1-0.3-0.1-0.7-0.2-1.1s-0.1-0.7-0.1-1.1c0-0.4-0.1-0.7-0.1-1c0-0.3,0-0.6,0-0.8S85.3,10,85.3,10z"/>
</g>
<g class="st74">
	<path class="st75" d="M92.2,14c0-0.3,0-0.5,0.1-0.8s0.2-0.5,0.3-0.8s0.3-0.5,0.5-0.7s0.4-0.4,0.6-0.6s0.5-0.3,0.7-0.4
		s0.5-0.1,0.8-0.1s0.5,0.1,0.7,0.2s0.4,0.3,0.5,0.4s0.2,0.4,0.3,0.6s0.1,0.5,0.1,0.7c0,0.4-0.1,0.9-0.2,1.3s-0.3,0.8-0.6,1.1
		s-0.6,0.6-0.9,0.8s-0.8,0.3-1.3,0.3c-0.3,0-0.5-0.1-0.8-0.2s-0.4-0.3-0.5-0.5s-0.2-0.4-0.3-0.7S92.2,14.2,92.2,14z M92.8,14.2
		c0,0.1,0,0.3,0.1,0.4s0.1,0.3,0.2,0.4s0.2,0.2,0.3,0.3s0.3,0.1,0.4,0.1c0.3,0,0.7-0.1,1-0.2s0.5-0.4,0.7-0.6s0.4-0.5,0.5-0.8
		s0.2-0.6,0.2-0.9c0-0.2,0-0.4,0-0.5s0-0.4-0.1-0.5s-0.1-0.3-0.3-0.4s-0.3-0.1-0.5-0.1c-0.1,0-0.2,0-0.3,0s-0.2,0-0.4,0
		s-0.2,0.1-0.3,0.1s-0.1,0.1-0.1,0.2c0,0,0,0,0,0.1s0,0.1,0.1,0.1s0,0.1,0.1,0.1s0,0.1,0,0.1s0,0-0.1,0.1s-0.1,0.1-0.1,0.1
		c-0.3,0.1-0.5,0.2-0.7,0.3s-0.3,0.2-0.4,0.4s-0.2,0.4-0.2,0.6S92.8,13.9,92.8,14.2z"/>
	<path class="st75" d="M97.7,15.8c0-0.1,0-0.2-0.1-0.4s-0.1-0.3-0.1-0.5s-0.1-0.4-0.1-0.6s-0.1-0.4-0.1-0.6s-0.1-0.4-0.1-0.5
		s0-0.3,0-0.4c0,0,0-0.1,0-0.2s0-0.2,0-0.4s0-0.2,0.1-0.4s0-0.2,0.1-0.2c0,0,0,0,0.1,0s0.1,0,0.1,0s0.1,0,0.1,0s0.1,0,0.1,0
		c0.3,0,0.5,0,0.7,0.1s0.4,0.2,0.6,0.4s0.4,0.3,0.6,0.5s0.4,0.4,0.6,0.5s0.4,0.3,0.6,0.5s0.4,0.3,0.6,0.3c0,0,0-0.1,0-0.1
		s0-0.1,0-0.2s0-0.1,0-0.2s0-0.1,0-0.1c0-0.3,0-0.6-0.1-1s-0.1-0.6-0.1-0.9s-0.1-0.6-0.1-0.9s-0.1-0.6-0.1-1c0,0,0.1,0,0.1,0
		s0.1,0,0.2,0s0.1,0,0.2,0.1s0.1,0.1,0.1,0.1c0,0.4,0.1,0.8,0.1,1.1s0.1,0.8,0.2,1.1s0.1,0.8,0.2,1.1s0.1,0.8,0.1,1.1
		c0,0.1,0,0.1,0,0.2s0,0.2,0,0.2s0,0.1-0.1,0.2s-0.1,0.1-0.2,0.1c-0.3,0-0.5-0.1-0.8-0.2s-0.5-0.3-0.7-0.5s-0.4-0.4-0.6-0.6
		s-0.4-0.4-0.6-0.6s-0.4-0.3-0.7-0.5s-0.5-0.2-0.7-0.2c0,0.3,0,0.6,0.1,0.8s0.1,0.5,0.1,0.8s0.1,0.5,0.1,0.8s0.1,0.5,0.1,0.8
		c0,0.1,0,0.2-0.1,0.2S98.1,16,98,16c-0.1,0-0.1,0-0.2,0S97.7,15.9,97.7,15.8z"/>
	<path class="st75" d="M102.7,10.3c0.1-0.1,0.3-0.2,0.3-0.1s0.1,0.2,0.2,0.4s0.1,0.4,0.1,0.7s0,0.6,0,0.9s0,0.6,0,0.8s0,0.5,0.1,0.6
		c0,0.1,0,0.1,0,0.2s0,0.1-0.1,0.1s-0.1,0.1-0.1,0.1s-0.1,0-0.2,0c0,0,0,0,0,0s0-0.1,0-0.1s0-0.2,0-0.4s0-0.4,0-0.7s0-0.6,0-1.1
		S102.7,10.9,102.7,10.3z M103.3,15.5c0.1,0,0.1,0,0.2,0.1s0.1,0.1,0.1,0.2s0,0.1-0.1,0.2s-0.2,0.1-0.3,0.2c-0.1,0-0.2-0.1-0.3-0.1
		s-0.1-0.1-0.1-0.2s0-0.1,0-0.2s0.1-0.1,0.1-0.1s0.1-0.1,0.2-0.1S103.3,15.4,103.3,15.5z"/>
	<path class="st75" d="M103.9,10.3c0.1-0.1,0.3-0.2,0.3-0.1s0.1,0.2,0.2,0.4s0.1,0.4,0.1,0.7s0,0.6,0,0.9s0,0.6,0,0.8s0,0.5,0.1,0.6
		c0,0.1,0,0.1,0,0.2s0,0.1-0.1,0.1s-0.1,0.1-0.1,0.1s-0.1,0-0.2,0c0,0,0,0,0,0s0-0.1,0-0.1s0-0.2,0-0.4s0-0.4,0-0.7s0-0.6,0-1.1
		S103.9,10.9,103.9,10.3z M104.5,15.5c0.1,0,0.1,0,0.2,0.1s0.1,0.1,0.1,0.2s0,0.1-0.1,0.2s-0.2,0.1-0.3,0.2c-0.1,0-0.2-0.1-0.3-0.1
		s-0.1-0.1-0.1-0.2s0-0.1,0-0.2s0.1-0.1,0.1-0.1s0.1-0.1,0.2-0.1S104.4,15.4,104.5,15.5z"/>
</g>
</svg>
