<?xml version="1.0" encoding="utf-8"?>
<!-- Generator: Adobe Illustrator 23.0.0, SVG Export Plug-In . SVG Version: 6.00 Build 0)  -->
<svg version="1.1" id="Ebene_1" xmlns="http://www.w3.org/2000/svg" xmlns:xlink="http://www.w3.org/1999/xlink" x="0px" y="0px"
	 viewBox="0 0 142 140" style="enable-background:new 0 0 142 140;" xml:space="preserve">
<style type="text/css">
	.st0{clip-path:url(#SVGID_2_);fill:#6E6E6E;}
	.st1{clip-path:url(#SVGID_2_);fill:#9C9C9C;}
	.st2{clip-path:url(#SVGID_2_);fill:none;stroke:#181716;stroke-linejoin:round;stroke-miterlimit:10;}
	.st3{clip-path:url(#SVGID_2_);fill:#FFFFFF;}
	.st4{clip-path:url(#SVGID_2_);fill:#181716;}
	.st5{fill:#9C9C9C;}
	.st6{fill:#B1B2B3;}
	.st7{fill:#C5C6C6;}
	.st8{fill:#D9DADA;}
	.st9{fill:#828282;}
	.st10{clip-path:url(#SVGID_4_);fill:#212121;}
	.st11{clip-path:url(#SVGID_4_);fill:#181716;}
	.st12{clip-path:url(#SVGID_4_);fill:#FFFFFF;}
	.st13{clip-path:url(#SVGID_4_);fill:#B1B2B3;}
	.st14{clip-path:url(#SVGID_4_);fill:#565655;}
	.st15{fill:#565655;}
	.st16{clip-path:url(#SVGID_6_);fill:#181716;}
	.st17{clip-path:url(#SVGID_6_);fill:#565655;}
	.st18{clip-path:url(#SVGID_8_);fill:#181716;}
	.st19{clip-path:url(#SVGID_8_);fill:#3A3A39;}
	.st20{clip-path:url(#SVGID_8_);fill:#565655;}
	.st21{clip-path:url(#SVGID_8_);fill:#868786;}
	.st22{clip-path:url(#SVGID_8_);fill:#FFFFFF;}
	.st23{clip-path:url(#SVGID_8_);fill:#B1B2B3;}
	.st24{fill:#6E6E6E;}
	.st25{clip-path:url(#SVGID_10_);fill:#6E6E6E;}
	.st26{clip-path:url(#SVGID_12_);fill:#6E6E6E;}
	.st27{clip-path:url(#SVGID_14_);fill:#6E6E6E;}
	.st28{fill:#484847;}
	.st29{font-family:'GloriaHallelujah';}
	.st30{font-size:8px;}
	.st31{letter-spacing:-1;}
	.st32{fill:#868786;}
	.st33{font-family:'Orbitron-Black';}
	.st34{font-size:17px;}
	.st35{font-family:'TitilliumWeb-Black';}
	.st36{font-size:6px;}
</style>
<g>
	<g>
		<defs>
			<rect id="SVGID_1_" width="142" height="140"/>
		</defs>
		<clipPath id="SVGID_2_">
			<use xlink:href="#SVGID_1_"  style="overflow:visible;"/>
		</clipPath>
		<path class="st0" d="M102.1,105.5c3.9,0.3,7.8,0.6,11.5,1.6c3.8,1,7.4,2.7,10.2,5.6c2.8,2.8,4.5,6.8,4.2,10.8
			c-0.1,1-0.3,1.9-0.6,2.9c-0.8,2.8-2.3,5.5-4.4,7.4c-2.1,2-5,3.1-7.9,2.9c-4-0.3-7.4-3.3-9.9-6.5c-2.6-3.4-4.7-7.2-5.6-11.4
			c-0.9-4.2-0.6-8.8,1.3-12.6c0.1-0.2,0.2-0.4,0.4-0.5C101.6,105.4,101.9,105.5,102.1,105.5 M116.6,85.7c-6.8,5.1-13.3,11-17.1,18.8
			c-0.2,0.4-0.6,0.5-1,0.5c-2.4,0.2-4.8,0.5-7.2,0.7c2.6,0.2,5.1,0.1,7.7-0.2c-0.7,2.1-1.4,4.1-1.7,6.3c-1,6.3,1.4,12.8,5,18
			c3.1,4.6,7.5,8.8,12.9,9.2c5.7,0.4,10.9-3.8,13.3-9.1c1.8-4.2,2.2-9.2,0.2-13.3c-1.9-4.1-5.8-7-10-8.7c-5.5-2.2-11.5-2.6-17.4-2.8
			c5.1-8.6,12.2-15.8,20.7-20.9C120.1,83.3,118.2,84.5,116.6,85.7"/>
		<path class="st0" d="M91.3,105.8c-0.7,0-1.5,0-2.3,0.1c0,0.1,0.1,0.2,0.2,0.3C89.9,106.2,90.6,106,91.3,105.8"/>
		<path class="st0" d="M36.2,110.7c-0.4,3.5-2.8,6.4-5.4,8.6c-0.3,0.3-0.7,0.5-1.1,0.8c-0.3,0.2-0.6,0.3-0.9,0.2
			c-0.3-0.1-0.6-0.4-0.5-0.8C29.7,115.6,32.6,112.4,36.2,110.7 M30.5,121.6c4.7-2.2,8.2-7,8.8-12.3c0.1-0.4,0.5-0.6,0.9-0.8
			c4.5-1.5,9.3-2.3,14.1-2.2c-5-0.9-10.1,0.2-14.9,1.8c-0.8-4.8-3.3-9.2-6.4-12.8c-3.1-3.7-6.9-6.7-10.6-9.8c-1-0.8-2-1.6-3.3-1.6
			c-2.3,0-4.7,0-7,0c4.7,2.9,9.3,6.1,13.6,9.7c4.6,3.9,9.1,8.6,10.6,14.6c0.1,0.5,0.2,1.2-0.3,1.5c-2.7,1.3-5.2,3.3-7.1,5.7
			c-0.9,1.2-1.8,2.5-2,4c-0.1,0.8,0.1,1.7,0.6,2.2C28.3,122.4,29.5,122.1,30.5,121.6"/>
		<path class="st0" d="M57.1,133.6c-1.2-1.1-2.4-2.3-3.2-3.8c-0.8-1.5-1.2-3.2-0.9-4.8c0.3-1.4,1-2.7,1.9-3.9
			c3.5-4.7,8.9-7.7,14.1-10.2c0.5-0.2,1-0.4,1.5-0.1c2.4,1.6,4,4.3,4.6,7.2c0.6,2.9,0.3,5.9-0.7,8.6c-0.9,2.5-2.5,4.9-4.4,6.7
			c-2.2,2.1-5.3,3.6-8.2,3C60,135.9,58.4,134.8,57.1,133.6 M49.3,127.5c0.2,2.8,1.6,5.3,3.4,7.3c2.6,3,6.3,5.3,10.3,5.2
			c4.9-0.1,9.1-3.7,11.5-8c1.9-3.5,2.9-7.7,2.3-11.7c-0.6-4-2.7-7.8-6-10c1.6-0.7,3.2-1.1,4.9-1.6c1.7-0.4,3.4-0.9,5.1-1.3
			c-3.3,0.1-6.5,1-9.7,1.9c-2.2,0.6-4.3-2-6.6-1.8c1.6,0.7,3.2,1.4,4.8,2.1c-3.4,1.1-6.7,2.6-9.9,4.3c-2.6,1.4-5.1,3-7,5.2
			C50.4,121.5,49.1,124.5,49.3,127.5"/>
		<path class="st1" d="M100.1,41.5c-4.2,0-7.5-3.3-7.5-7.4c0-4.1,3.4-7.4,7.5-7.4s7.5,3.3,7.5,7.4C107.6,38.2,104.3,41.5,100.1,41.5
			 M58.8,39.9c0.6-1.8,0.9-3.6,0.9-5.5c0-1.8-0.3-3.6-0.9-5.4c-0.1-0.2,0-0.3,0.1-0.5c0.1-0.1,0.2-0.2,0.4-0.2h15.8
			c0.2,0,0.3,0.1,0.4,0.2c0.1,0.1,0.1,0.3,0.1,0.5c-0.6,1.7-0.9,3.5-0.9,5.4c0,1.9,0.3,3.7,0.9,5.5c0.1,0.2,0,0.3-0.1,0.5
			c-0.1,0.1-0.2,0.2-0.4,0.2H59.2c-0.2,0-0.3-0.1-0.4-0.2C58.7,40.3,58.7,40.1,58.8,39.9 M40.2,41.5c-4.2,0-7.5-3.3-7.5-7.4
			c0-4.1,3.4-7.4,7.5-7.4c4.2,0,7.5,3.3,7.5,7.4C47.7,38.2,44.3,41.5,40.2,41.5 M138.7,51.9h-0.2V5.5c0-2.8-2.3-5-5.1-5H8.6
			c-2.8,0-5.1,2.2-5.1,5v46.4H3.3c-1.5,0-2.8,1.2-2.8,2.7v21.7c0,1.5,1.2,2.7,2.8,2.7h0.2v0.3c0,2.8,2.3,5,5.1,5h16.5l3.9,1.8
			c1.7,0.8,3.7,1.2,5.6,1.2h72.5c1.9,0,3.9-0.4,5.6-1.2l4.1-1.8l16.6,0c2.8,0,5.1-2.2,5.1-5v-0.3h0.2c1.5,0,2.8-1.2,2.8-2.7V54.6
			C141.5,53.2,140.3,51.9,138.7,51.9"/>
		<path class="st2" d="M100.1,41.5c-4.2,0-7.5-3.3-7.5-7.4c0-4.1,3.4-7.4,7.5-7.4s7.5,3.3,7.5,7.4C107.6,38.2,104.3,41.5,100.1,41.5
			z M58.8,39.9c0.6-1.8,0.9-3.6,0.9-5.5c0-1.8-0.3-3.6-0.9-5.4c-0.1-0.2,0-0.3,0.1-0.5c0.1-0.1,0.2-0.2,0.4-0.2h15.8
			c0.2,0,0.3,0.1,0.4,0.2c0.1,0.1,0.1,0.3,0.1,0.5c-0.6,1.7-0.9,3.5-0.9,5.4c0,1.9,0.3,3.7,0.9,5.5c0.1,0.2,0,0.3-0.1,0.5
			c-0.1,0.1-0.2,0.2-0.4,0.2H59.2c-0.2,0-0.3-0.1-0.4-0.2C58.7,40.3,58.7,40.1,58.8,39.9z M40.2,41.5c-4.2,0-7.5-3.3-7.5-7.4
			c0-4.1,3.4-7.4,7.5-7.4c4.2,0,7.5,3.3,7.5,7.4C47.7,38.2,44.3,41.5,40.2,41.5z M138.7,51.9h-0.2V5.5c0-2.8-2.3-5-5.1-5H8.6
			c-2.8,0-5.1,2.2-5.1,5v46.4H3.3c-1.5,0-2.8,1.2-2.8,2.7v21.7c0,1.5,1.2,2.7,2.8,2.7h0.2v0.3c0,2.8,2.3,5,5.1,5h16.5l3.9,1.8
			c1.7,0.8,3.7,1.2,5.6,1.2h72.5c1.9,0,3.9-0.4,5.6-1.2l4.1-1.8l16.6,0c2.8,0,5.1-2.2,5.1-5v-0.3h0.2c1.5,0,2.8-1.2,2.8-2.7V54.6
			C141.5,53.2,140.3,51.9,138.7,51.9z"/>
		<path class="st3" d="M100.1,41c-3.9,0-7-3.1-7-6.9c0-3.8,3.2-6.9,7-6.9s7,3.1,7,6.9C107.1,37.9,104,41,100.1,41 M59.2,40.1
			c0.6-1.8,0.9-3.7,0.9-5.7c0-1.9-0.3-3.8-0.9-5.5H75c-0.6,1.7-0.9,3.6-0.9,5.5c0,2,0.3,3.9,0.9,5.7H59.2z M40,41
			c-3.9,0-7-3.1-7-6.9c0-3.8,3.2-6.9,7-6.9c3.9,0,7,3.1,7,6.9C47.1,37.9,43.9,41,40,41 M127,6H14.9L9,11.6v41.8h123.8V11.6L127,6z"
			/>
		<path class="st4" d="M59.7,39.7h14.9c-0.5-1.7-0.8-3.5-0.8-5.3c0-1.8,0.3-3.5,0.8-5.2H59.7c0.5,1.7,0.8,3.4,0.8,5.2
			C60.5,36.2,60.2,38,59.7,39.7 M75.6,40.5H58.6l0.2-0.5c0.6-1.8,0.9-3.6,0.9-5.5c0-1.9-0.3-3.7-0.9-5.4l-0.2-0.5h16.8L75.4,29
			c-0.6,1.7-0.9,3.6-0.9,5.4c0,1.9,0.3,3.8,0.9,5.5L75.6,40.5z M40,27.6c-3.7,0-6.7,2.9-6.7,6.5c0,3.6,3,6.5,6.7,6.5
			c3.7,0,6.7-2.9,6.7-6.5C46.7,30.5,43.7,27.6,40,27.6 M40,41.3c-4.1,0-7.4-3.2-7.4-7.2c0-4,3.3-7.2,7.4-7.2c4.1,0,7.4,3.2,7.4,7.2
			C47.5,38.1,44.1,41.3,40,41.3 M100.1,27.6c-3.7,0-6.7,2.9-6.7,6.5c0,3.6,3,6.5,6.7,6.5c3.7,0,6.7-2.9,6.7-6.5
			C106.7,30.5,103.7,27.6,100.1,27.6 M100.1,41.3c-4.1,0-7.4-3.2-7.4-7.2c0-4,3.3-7.2,7.4-7.2c4.1,0,7.4,3.2,7.4,7.2
			C107.5,38.1,104.2,41.3,100.1,41.3 M9.4,53h123V11.7l-5.6-5.4H15l-5.6,5.4V53z M133.2,53.7H8.7V11.4l6.1-5.8h112.4l6.1,5.8V53.7z"
			/>
	</g>
	<polygon class="st5" points="15,6 9.2,11.6 9,20.5 38.1,20.3 44.9,6 	"/>
	<polygon class="st6" points="40.8,19.9 47.5,6 45.9,6 39.2,19.9 	"/>
	<polygon class="st7" points="42.7,19.9 49.3,6 48.5,6 41.9,19.9 	"/>
	<polygon class="st8" points="44.3,19.9 51,6 50.2,6 43.5,19.9 	"/>
	
		<rect x="9" y="19.5" transform="matrix(0.9999 -1.058166e-02 1.058166e-02 0.9999 -0.2071 0.7515)" class="st9" width="123.8" height="0.9"/>
	<g>
		<defs>
			<rect id="SVGID_3_" width="142" height="140"/>
		</defs>
		<clipPath id="SVGID_4_">
			<use xlink:href="#SVGID_3_"  style="overflow:visible;"/>
		</clipPath>
		<path class="st10" d="M59.7,39.7h14.9c-0.5-1.7-0.8-3.5-0.8-5.3c0-1.8,0.3-3.5,0.8-5.2H59.7c0.5,1.7,0.8,3.4,0.8,5.2
			C60.5,36.2,60.2,38,59.7,39.7 M75.6,40.5H58.6l0.2-0.5c0.6-1.8,0.9-3.6,0.9-5.5c0-1.9-0.3-3.7-0.9-5.4l-0.2-0.5h16.8L75.4,29
			c-0.6,1.7-0.9,3.6-0.9,5.4c0,1.9,0.3,3.8,0.9,5.5L75.6,40.5z M40,27.6c-3.7,0-6.7,2.9-6.7,6.5c0,3.6,3,6.5,6.7,6.5
			c3.7,0,6.7-2.9,6.7-6.5C46.7,30.5,43.7,27.6,40,27.6 M40,41.3c-4.1,0-7.4-3.2-7.4-7.2c0-4,3.3-7.2,7.4-7.2c4.1,0,7.4,3.2,7.4,7.2
			C47.5,38.1,44.1,41.3,40,41.3 M100.1,27.6c-3.7,0-6.7,2.9-6.7,6.5c0,3.6,3,6.5,6.7,6.5c3.7,0,6.7-2.9,6.7-6.5
			C106.7,30.5,103.7,27.6,100.1,27.6 M100.1,41.3c-4.1,0-7.4-3.2-7.4-7.2c0-4,3.3-7.2,7.4-7.2c4.1,0,7.4,3.2,7.4,7.2
			C107.5,38.1,104.2,41.3,100.1,41.3 M9.4,53h123V11.7l-5.6-5.4H15l-5.6,5.4V53z M133.2,53.7H8.7V11.4l6.1-5.8h112.4l6.1,5.8V53.7z"
			/>
		<path class="st11" d="M40.2,27.7c-3.6,0-6.5,2.9-6.5,6.4s2.9,6.4,6.5,6.4c3.6,0,6.5-2.9,6.5-6.4S43.8,27.7,40.2,27.7 M40.2,41.4
			c-4.1,0-7.5-3.3-7.5-7.3s3.4-7.3,7.5-7.3c4.1,0,7.5,3.3,7.5,7.3S44.3,41.4,40.2,41.4"/>
		<path class="st11" d="M100.1,27.7c-3.6,0-6.5,2.9-6.5,6.4s2.9,6.4,6.5,6.4c3.6,0,6.5-2.9,6.5-6.4S103.7,27.7,100.1,27.7
			 M100.1,41.4c-4.1,0-7.5-3.3-7.5-7.3s3.4-7.3,7.5-7.3c4.1,0,7.5,3.3,7.5,7.3S104.3,41.4,100.1,41.4"/>
		<path class="st12" d="M137.1,5.5v73.9l-0.1-2.3l-0.1-2.3l-0.2-4.6l-0.2-9.2l-0.1-2.3l0-2.3l-0.1-4.6l0-9.2l0-9.2
			c0-3.1,0-6.2,0.1-9.2l0.2-9.2l0.2-4.6l0.1-2.3L137.1,5.5z"/>
		<path class="st12" d="M5.6,79.4v-50V16.8v-6.3V7.5V5.9c0-0.3,0-0.5,0-0.8c0-0.3,0.1-0.5,0.2-0.8c0.4-1,1.4-1.7,2.5-1.7
			c1.1,0,2.1,0,3.2,0H18h12.8h102.6c-17.1,0.6-34.2,0.7-51.3,0.7L30.8,3.5l-6.4,0l-6.4,0l-6.4,0l-1.6,0l-0.8,0l-0.4,0H8.6
			c-0.1,0-0.1,0-0.1,0C7.7,3.5,7,4,6.7,4.7C6.6,4.9,6.5,5,6.5,5.2c0,0.1,0,0.2,0,0.3l0,0.4l0,1.6l0,3.1l0,6.3l0,12.5l-0.1,25
			c0,2.1,0,4.2-0.1,6.3l-0.1,3.1c0,1-0.1,2.1-0.1,3.1C6.1,69,6,71,5.9,73.1C5.8,75.2,5.8,77.3,5.6,79.4"/>
		<path class="st12" d="M3.5,54c-0.5,0.2-1,0.7-1.2,1.3c-0.1,0.2-0.1,0.4-0.1,0.7c0,0.2,0,0.4,0,0.7v17.5l0.5-10.8l0.2-5.4l0.1-1.7
			l0-0.2L3,56l0-0.1c0-0.1,0.1-0.3,0.1-0.4c0.1-0.2,0.2-0.4,0.4-0.5V54z"/>
		<path class="st13" d="M10.8,78.7c0,1-0.8,1.7-1.8,1.7c-1,0-1.8-0.8-1.8-1.7S8.1,77,9,77C10,77,10.8,77.8,10.8,78.7"/>
		<path class="st11" d="M8.6,79.9c-0.1,0-0.1,0-0.2,0c-0.2-0.1-0.3-0.3-0.2-0.5l0.8-1.7c0.1-0.2,0.3-0.2,0.5-0.2
			c0.2,0.1,0.3,0.3,0.2,0.5l-0.8,1.7C8.9,79.8,8.7,79.9,8.6,79.9"/>
		<path class="st11" d="M9.9,79.4c-0.1,0-0.1,0-0.2,0L8,78.6c-0.2-0.1-0.3-0.3-0.2-0.5c0.1-0.2,0.3-0.2,0.5-0.2l1.7,0.8
			c0.2,0.1,0.3,0.3,0.2,0.5C10.1,79.4,10,79.4,9.9,79.4"/>
		<path class="st13" d="M11.4,79.3c0,1.2-1,2.2-2.2,2.2c-1.1,0-2-0.8-2.2-1.8c0.3,0.8,1.1,1.3,2,1.3c1.2,0,2.2-1,2.2-2.2
			c0-0.1,0-0.2,0-0.3C11.3,78.7,11.4,79,11.4,79.3"/>
		<path class="st13" d="M134.4,79.1c0,1-0.8,1.7-1.8,1.7s-1.8-0.8-1.8-1.7s0.8-1.7,1.8-1.7S134.4,78.1,134.4,79.1"/>
		<path class="st11" d="M131.7,79.7c-0.1,0-0.3-0.1-0.3-0.2c-0.1-0.2,0-0.4,0.2-0.5l1.8-0.6c0.2-0.1,0.4,0,0.5,0.2
			c0.1,0.2,0,0.4-0.2,0.5l-1.8,0.6C131.8,79.7,131.8,79.7,131.7,79.7"/>
		<path class="st11" d="M132.9,80.2c-0.1,0-0.3-0.1-0.3-0.2l-0.6-1.7c-0.1-0.2,0-0.4,0.2-0.5c0.2-0.1,0.4,0,0.5,0.2l0.6,1.7
			c0.1,0.2,0,0.4-0.2,0.5C133,80.2,133,80.2,132.9,80.2"/>
		<path class="st12" d="M135,79.6c0,1.2-1,2.2-2.2,2.2c-1.1,0-2-0.8-2.2-1.8c0.3,0.8,1.1,1.3,2,1.3c1.2,0,2.2-1,2.2-2.2
			c0-0.1,0-0.2,0-0.3C134.9,79,135,79.3,135,79.6"/>
		<path class="st12" d="M10.8,6c0,1-0.8,1.7-1.8,1.7c-1,0-1.8-0.8-1.8-1.7c0-1,0.8-1.7,1.8-1.7C10,4.3,10.8,5,10.8,6"/>
		<path class="st11" d="M8.6,7.1c-0.1,0-0.1,0-0.2,0C8.3,7,8.2,6.8,8.3,6.6l0.8-1.7c0.1-0.2,0.3-0.2,0.5-0.2
			c0.2,0.1,0.3,0.3,0.2,0.5L8.9,6.9C8.9,7,8.7,7.1,8.6,7.1"/>
		<path class="st11" d="M9.9,6.7c-0.1,0-0.1,0-0.2,0L8,5.8C7.8,5.7,7.8,5.5,7.9,5.4C8,5.2,8.2,5.1,8.3,5.2L10,6
			c0.2,0.1,0.3,0.3,0.2,0.5C10.1,6.6,10,6.7,9.9,6.7"/>
		<path class="st13" d="M11.4,6.5c0,1.2-1,2.2-2.2,2.2c-1.1,0-2-0.8-2.2-1.8c0.3,0.8,1.1,1.3,2,1.3c1.2,0,2.2-1,2.2-2.2
			c0-0.1,0-0.2,0-0.3C11.3,5.9,11.4,6.2,11.4,6.5"/>
		<path class="st13" d="M134.4,6.3c0,1-0.8,1.7-1.8,1.7s-1.8-0.8-1.8-1.7c0-1,0.8-1.7,1.8-1.7S134.4,5.4,134.4,6.3"/>
		<path class="st11" d="M131.7,6.9c-0.1,0-0.3-0.1-0.3-0.2c-0.1-0.2,0-0.4,0.2-0.5l1.8-0.6c0.2-0.1,0.4,0,0.5,0.2
			c0.1,0.2,0,0.4-0.2,0.5l-1.8,0.6C131.8,6.9,131.8,6.9,131.7,6.9"/>
		<path class="st11" d="M132.9,7.5c-0.1,0-0.3-0.1-0.3-0.2L132,5.5c-0.1-0.2,0-0.4,0.2-0.5c0.2-0.1,0.4,0,0.5,0.2l0.6,1.7
			c0.1,0.2,0,0.4-0.2,0.5C133,7.5,133,7.5,132.9,7.5"/>
		<path class="st13" d="M135,6.8c0,1.2-1,2.2-2.2,2.2c-1.1,0-2-0.8-2.2-1.8c0.3,0.8,1.1,1.3,2,1.3c1.2,0,2.2-1,2.2-2.2
			c0-0.1,0-0.2,0-0.3C134.9,6.2,135,6.5,135,6.8"/>
		<path class="st14" d="M40.2,27.7c-3.6,0-6.5,2.9-6.5,6.4s2.9,6.4,6.5,6.4c3.6,0,6.5-2.9,6.5-6.4S43.8,27.7,40.2,27.7 M40.2,41.4
			c-4.1,0-7.5-3.3-7.5-7.3s3.4-7.3,7.5-7.3c4.1,0,7.5,3.3,7.5,7.3S44.3,41.4,40.2,41.4"/>
	</g>
	<rect x="38.8" y="27.6" class="st15" width="2.6" height="2.6"/>
	<polygon class="st15" points="44.4,33.3 43.1,31.1 45.4,29.8 46.7,32.1 	"/>
	<polygon class="st15" points="43.1,37.3 44.4,35.1 46.7,36.3 45.4,38.6 	"/>
	<rect x="38.8" y="38.2" class="st15" width="2.6" height="2.6"/>
	<polygon class="st15" points="35.9,35.1 37.2,37.3 34.9,38.6 33.6,36.3 	"/>
	<polygon class="st15" points="37.2,31.1 35.9,33.3 33.6,32.1 34.9,29.8 	"/>
	<g>
		<defs>
			<rect id="SVGID_5_" width="142" height="140"/>
		</defs>
		<clipPath id="SVGID_6_">
			<use xlink:href="#SVGID_5_"  style="overflow:visible;"/>
		</clipPath>
		<path class="st16" d="M40.2,27.4c-3.8,0-6.9,3-6.9,6.7c0,3.7,3.1,6.7,6.9,6.7c3.8,0,6.9-3,6.9-6.7C47.1,30.4,44,27.4,40.2,27.4
			 M40.2,41.1c-3.9,0-7.2-3.1-7.2-7c0-3.8,3.2-7,7.2-7s7.2,3.1,7.2,7C47.3,38,44.1,41.1,40.2,41.1"/>
		<path class="st17" d="M100.1,27.7c-3.6,0-6.5,2.9-6.5,6.4s2.9,6.4,6.5,6.4c3.6,0,6.5-2.9,6.5-6.4S103.7,27.7,100.1,27.7
			 M100.1,41.4c-4.1,0-7.5-3.3-7.5-7.3s3.4-7.3,7.5-7.3c4.1,0,7.5,3.3,7.5,7.3S104.3,41.4,100.1,41.4"/>
	</g>
	<rect x="98.8" y="27.6" class="st15" width="2.6" height="2.6"/>
	<polygon class="st15" points="104.4,33.3 103.1,31.1 105.4,29.8 106.7,32.1 	"/>
	<polygon class="st15" points="103.1,37.3 104.4,35.1 106.7,36.3 105.4,38.6 	"/>
	<rect x="98.8" y="38.2" class="st15" width="2.6" height="2.6"/>
	<polygon class="st15" points="95.8,35.1 97.1,37.3 94.9,38.6 93.5,36.3 	"/>
	<polygon class="st15" points="97.1,31.1 95.8,33.3 93.5,32.1 94.9,29.8 	"/>
	<g>
		<defs>
			<rect id="SVGID_7_" width="142" height="140"/>
		</defs>
		<clipPath id="SVGID_8_">
			<use xlink:href="#SVGID_7_"  style="overflow:visible;"/>
		</clipPath>
		<path class="st18" d="M100.1,27.4c-3.8,0-6.9,3-6.9,6.7c0,3.7,3.1,6.7,6.9,6.7c3.8,0,6.9-3,6.9-6.7
			C107,30.4,103.9,27.4,100.1,27.4 M100.1,41.1c-3.9,0-7.2-3.1-7.2-7c0-3.8,3.2-7,7.2-7c3.9,0,7.2,3.1,7.2,7
			C107.3,38,104,41.1,100.1,41.1"/>
		<path class="st19" d="M40.2,27.4c-3.8,0-6.9,3-6.9,6.7c0,3.7,3.1,6.7,6.9,6.7c3.8,0,6.9-3,6.9-6.7C47.1,30.4,44,27.4,40.2,27.4
			 M40.2,41.1c-3.9,0-7.1-3.1-7.1-7c0-3.8,3.2-7,7.1-7c3.9,0,7.2,3.1,7.2,7C47.3,38,44.1,41.1,40.2,41.1 M100.1,27.4
			c-3.8,0-6.9,3-6.9,6.7c0,3.7,3.1,6.7,6.9,6.7c3.8,0,6.9-3,6.9-6.7C107,30.4,103.9,27.4,100.1,27.4 M100.1,41.1
			c-3.9,0-7.2-3.1-7.2-7c0-3.8,3.2-7,7.2-7c3.9,0,7.2,3.1,7.2,7C107.3,38,104,41.1,100.1,41.1"/>
		<path class="st20" d="M100.1,41c-3.9,0-7-3.1-7-6.9c0-3.8,3.1-6.9,7-6.9c3.9,0,7,3.1,7,6.9C107.1,37.9,104,41,100.1,41 M59.2,40.1
			c0.6-1.8,0.9-3.7,0.9-5.7c0-1.9-0.3-3.8-0.9-5.5h15.8c-0.6,1.7-0.9,3.6-0.9,5.5c0,2,0.3,3.9,0.9,5.7H59.2z M40.2,41
			c-3.9,0-7-3.1-7-6.9c0-3.8,3.1-6.9,7-6.9c3.9,0,7,3.1,7,6.9C47.2,37.9,44,41,40.2,41 M111.8,22.9H30.2c-2.1,0-3.8,1.7-3.8,3.7
			v16.7c0,0.8,0.3,1.5,0.7,2.1c0.1,0.1,0.2,0.2,0.3,0.3c0.7,0.8,1.7,1.3,2.8,1.3h81.6c2.1,0,3.8-1.7,3.8-3.7V26.6
			C115.6,24.6,113.9,22.9,111.8,22.9"/>
		<path class="st21" d="M49.1,35.2c0,3.9-3.3,7.1-7.3,7.1c-1.5,0-2.8-0.4-3.9-1.1c0.7,0.2,1.5,0.3,2.3,0.3c4.2,0,7.6-3.3,7.6-7.4
			c0-1.8-0.7-3.4-1.7-4.7C47.9,30.7,49.1,32.8,49.1,35.2"/>
		<path class="st21" d="M109.4,35.2c0,3.9-3.3,7.1-7.3,7.1c-1.5,0-2.8-0.4-3.9-1.1c0.7,0.2,1.5,0.3,2.3,0.3c4.2,0,7.6-3.3,7.6-7.4
			c0-1.8-0.7-3.4-1.7-4.7C108.2,30.7,109.4,32.8,109.4,35.2"/>
		<path class="st22" d="M58.7,38.8c0-0.6,0.1-1.1,0.1-1.7c0-0.5,0.1-1.1,0.1-1.6c0-0.5,0.1-1.1,0.1-1.6c0-0.5,0-1.1,0.1-1.7
			c0.2,0.5,0.3,1.1,0.3,1.6c0.1,0.6,0.1,1.1,0,1.7c0,0.6-0.1,1.1-0.2,1.7C59.1,37.7,58.9,38.3,58.7,38.8"/>
		<path class="st22" d="M57.9,38.3c0-0.5,0-0.9,0.1-1.4l0.1-1.4l0.1-1.4c0-0.5,0.1-0.9,0.1-1.4c0.1,0.4,0.2,0.9,0.3,1.4
			c0,0.5,0.1,0.9,0,1.4c0,0.5-0.1,0.9-0.2,1.4C58.3,37.4,58.1,37.8,57.9,38.3"/>
		<path class="st22" d="M57.1,37.8c0-0.4,0-0.7,0-1.1c0-0.4,0-0.7,0-1.1c0-0.4,0.1-0.7,0.1-1.1c0-0.4,0.1-0.7,0.2-1.1
			c0.1,0.4,0.2,0.7,0.2,1.1c0,0.4,0,0.7,0,1.1c0,0.4-0.1,0.7-0.2,1.1C57.4,37.1,57.3,37.4,57.1,37.8"/>
		<path class="st22" d="M75.7,30.2c-0.1,0.7-0.2,1.5-0.2,2.2c0,0.7-0.1,1.4-0.1,2.2c0,0.7,0,1.4,0.1,2.2c0.1,0.7,0.1,1.4,0.2,2.2
			c-0.3-0.7-0.5-1.4-0.6-2.1c-0.1-0.7-0.2-1.5-0.2-2.2c0-0.7,0-1.5,0.2-2.2C75.3,31.6,75.5,30.9,75.7,30.2"/>
		<path class="st22" d="M76.8,30.4c-0.1,0.7-0.1,1.4-0.2,2c0,0.7-0.1,1.4-0.1,2c0,0.7,0,1.4,0.1,2c0.1,0.7,0.1,1.4,0.2,2
			c-0.3-0.6-0.5-1.3-0.6-2c-0.1-0.7-0.2-1.4-0.2-2.1c0-0.7,0-1.4,0.2-2.1C76.4,31.7,76.6,31,76.8,30.4"/>
		<path class="st22" d="M78,30.6c0,0.6-0.1,1.3-0.1,1.9c0,0.6-0.1,1.3,0,1.9c0,0.6,0,1.3,0.1,1.9c0,0.6,0.1,1.3,0.2,1.9
			c-0.3-0.6-0.4-1.2-0.5-1.9c-0.1-0.6-0.2-1.3-0.2-1.9c0-0.6,0-1.3,0.2-1.9C77.6,31.8,77.7,31.2,78,30.6"/>
		<path class="st22" d="M79.1,30.7L79,32.5c0,0.6,0,1.2,0,1.8c0,0.6,0,1.2,0.1,1.8l0.1,1.8c-0.2-0.6-0.4-1.1-0.5-1.7
			c-0.1-0.6-0.2-1.2-0.2-1.8c0-0.6,0-1.2,0.1-1.8C78.7,31.9,78.9,31.3,79.1,30.7"/>
		<path class="st22" d="M80.2,30.9c0,0.6,0,1.1-0.1,1.6c0,0.5,0,1.1,0,1.6c0,0.5,0,1.1,0,1.6c0,0.5,0.1,1.1,0.1,1.6
			c-0.2-0.5-0.4-1.1-0.4-1.6c-0.1-0.5-0.1-1.1-0.1-1.7c0-0.6,0-1.1,0.1-1.7C79.8,32,80,31.4,80.2,30.9"/>
		<path class="st22" d="M81.3,31.1c0,0.5,0,1,0,1.5c0,0.5,0,1,0,1.5c0,0.5,0,1,0,1.5c0,0.5,0,1,0,1.5c-0.2-0.5-0.3-1-0.4-1.5
			c-0.1-0.5-0.1-1-0.1-1.5c0-0.5,0-1,0.1-1.5C81,32,81.1,31.6,81.3,31.1"/>
		<path class="st22" d="M82.4,31.3c0,0.5,0,0.9,0,1.4l0,1.3l0,1.3c0,0.4,0,0.9,0,1.4c-0.2-0.4-0.3-0.9-0.4-1.3
			c-0.1-0.5-0.1-0.9-0.1-1.4c0-0.5,0-0.9,0.1-1.4C82.1,32.1,82.2,31.7,82.4,31.3"/>
		<path class="st22" d="M83.5,31.4c0,0.4,0,0.8,0,1.2l0,1.2l0,1.2c0,0.4,0,0.8-0.1,1.2c-0.2-0.4-0.3-0.8-0.3-1.2
			c-0.1-0.4-0.1-0.8-0.1-1.2c0-0.4,0-0.8,0.1-1.2C83.3,32.2,83.4,31.8,83.5,31.4"/>
		<path class="st22" d="M84.7,31.6c0.1,0.4,0.1,0.7,0.1,1.1c0,0.4,0,0.7,0,1.1c0,0.4,0,0.7,0,1.1c0,0.4,0,0.7-0.1,1.1
			c-0.1-0.3-0.2-0.7-0.3-1.1c-0.1-0.4-0.1-0.7-0.1-1.1c0-0.4,0-0.7,0.1-1.1C84.4,32.3,84.5,31.9,84.7,31.6"/>
		<path class="st23" d="M72.6,63.2c0,1-0.8,1.7-1.8,1.7c-1,0-1.8-0.8-1.8-1.7c0-1,0.8-1.7,1.8-1.7C71.8,61.4,72.6,62.2,72.6,63.2"/>
		<path class="st18" d="M71.7,63.8c0,0-0.1,0-0.1,0L69.8,63c-0.2-0.1-0.3-0.3-0.2-0.5c0.1-0.2,0.3-0.3,0.5-0.2l1.7,0.8
			c0.2,0.1,0.3,0.3,0.2,0.5C72,63.7,71.8,63.8,71.7,63.8"/>
		<path class="st18" d="M70.4,64.3c0,0-0.1,0-0.1,0c-0.2-0.1-0.3-0.3-0.2-0.5l0.8-1.7c0.1-0.2,0.3-0.3,0.5-0.2
			c0.2,0.1,0.3,0.3,0.2,0.5l-0.8,1.7C70.7,64.2,70.6,64.3,70.4,64.3"/>
		<path class="st23" d="M73.2,63.7c0,1.2-1,2.2-2.2,2.2c-1.1,0-2-0.8-2.2-1.8c0.3,0.8,1.1,1.3,2,1.3c1.2,0,2.2-1,2.2-2.2
			c0-0.1,0-0.2,0-0.3C73.1,63.1,73.2,63.4,73.2,63.7"/>
		<path class="st22" d="M51.8,77h-2.3c-0.8,0-1.4-0.6-1.4-1.4v-3.1c0-0.8,0.6-1.4,1.4-1.4h2.3c0.8,0,1.4,0.6,1.4,1.4v3.1
			C53.3,76.4,52.6,77,51.8,77"/>
		<path class="st22" d="M55.2,73.2v3.1c0,1.3-1.1,2.4-2.4,2.4h-2.3c-0.6,0-1.2-0.3-1.7-0.7c0.2,0.1,0.4,0.1,0.7,0.1h2.3
			c1.3,0,2.4-1.1,2.4-2.4v-3.1c0-0.7-0.3-1.3-0.7-1.7C54.5,71.2,55.2,72.1,55.2,73.2"/>
		<path class="st22" d="M90.5,77h-2.3c-0.8,0-1.4-0.6-1.4-1.4v-3.1c0-0.8,0.6-1.4,1.4-1.4h2.3c0.8,0,1.4,0.6,1.4,1.4v3.1
			C91.9,76.4,91.3,77,90.5,77"/>
		<path class="st22" d="M93.8,73.2v3.1c0,1.3-1.1,2.4-2.4,2.4h-2.3c-0.6,0-1.2-0.3-1.7-0.7c0.2,0.1,0.4,0.1,0.7,0.1h2.3
			c1.3,0,2.4-1.1,2.4-2.4v-3.1c0-0.7-0.3-1.3-0.7-1.7C93.1,71.2,93.8,72.1,93.8,73.2"/>
		<path class="st22" d="M73.9,79.4h-6.2c-0.7,0-1.2-0.5-1.2-1.2v-2.4c0-0.6,0.5-1.2,1.2-1.2h6.2c0.7,0,1.2,0.5,1.2,1.2v2.4
			C75.1,78.9,74.6,79.4,73.9,79.4"/>
		<path class="st22" d="M77.3,76.2v2.4c0,1.3-1.1,2.3-2.4,2.3h-6.2c-0.5,0-1-0.2-1.4-0.5c0.1,0,0.3,0,0.4,0h6.2
			c1.3,0,2.4-1.1,2.4-2.3v-2.4c0-0.8-0.4-1.5-1-1.9C76.5,74.1,77.3,75.1,77.3,76.2"/>
		<path class="st22" d="M39.1,74.8c0,1.2-1,2.2-2.2,2.2c-1.2,0-2.2-1-2.2-2.2s1-2.2,2.2-2.2C38.1,72.7,39.1,73.7,39.1,74.8"/>
		<path class="st22" d="M40.5,75.5c0,1.6-1.4,3-3,3c-1.1,0-2.1-0.6-2.6-1.5c0.6,0.5,1.3,0.9,2.2,0.9c1.7,0,3.1-1.3,3.1-3
			c0-0.5-0.1-1-0.4-1.5C40.1,73.9,40.5,74.7,40.5,75.5"/>
		<path class="st22" d="M106,74.8c0,1.2-1,2.2-2.2,2.2c-1.2,0-2.2-1-2.2-2.2s1-2.2,2.2-2.2C105,72.7,106,73.7,106,74.8"/>
		<path class="st22" d="M107.3,75.5c0,1.6-1.4,3-3,3c-1.1,0-2.1-0.6-2.7-1.5c0.6,0.5,1.3,0.9,2.2,0.9c1.7,0,3.1-1.3,3.1-3
			c0-0.5-0.1-1-0.4-1.5C107,73.9,107.3,74.7,107.3,75.5"/>
		<path class="st22" d="M58.9,82c0.2-1.4,0.4-2.8,0.7-4.1c0.3-1.4,0.6-2.7,1-4l0.1-0.5c0.1-0.2,0.2-0.4,0.3-0.6c0.3-0.4,0.6-0.7,1-1
			c0.2-0.1,0.4-0.2,0.7-0.2c0.1,0,0.2,0,0.4-0.1c0.1,0,0.1,0,0.2,0c0.1,0,0.1,0,0.2,0l1.1,0c1.4,0,2.8,0,4.3,0
			c2.8,0,5.7,0.1,8.5,0.2c1.4,0.1,2.8,0.1,4.3,0.2l1.1,0.1l0.3,0c0.1,0,0.2,0,0.3,0.1c0.2,0.1,0.4,0.2,0.5,0.3
			c0.1,0.1,0.1,0.1,0.2,0.2l0.1,0.2l0.3,0.5l0.5,0.9l-0.6-0.8l-0.3-0.4l-0.2-0.2c0-0.1-0.1-0.1-0.2-0.2c-0.1-0.1-0.3-0.2-0.4-0.2
			c-0.1,0-0.1,0-0.2,0l-0.3,0l-1.1,0.1c-1.4,0.1-2.8,0.1-4.3,0.2c-2.8,0.1-5.7,0.2-8.5,0.2c-1.4,0-2.8,0-4.3,0l-1.1,0
			c0,0-0.1,0-0.1,0c0,0-0.1,0-0.1,0c-0.1,0-0.1,0-0.2,0c-0.1,0-0.2,0.1-0.3,0.1c-0.2,0.1-0.4,0.3-0.5,0.5c-0.1,0.1-0.1,0.2-0.1,0.3
			l-0.2,0.5c-0.4,1.3-0.9,2.6-1.4,3.9C60,79.4,59.5,80.7,58.9,82"/>
		<path class="st22" d="M114.6,76.1c-0.9-2-1.9-3.9-2.9-5.8c-1-1.9-1.9-3.9-2.9-5.8c-0.7-1.4-2-3.9-2.7-5.3
			c-0.3-0.6-0.9-0.9-1.5-0.9l-3.7,0l-4.3,0l-8.6,0l-17.2-0.1l-8.6,0l-8.6,0l-16.9,0c-0.5,0-1,0.3-1.2,0.7c-0.7,1.3-2.1,4.1-2.9,5.5
			l-3,5.8l-3,5.8l-3,5.8h1.6l2.7-5.1l3.1-5.7l3.1-5.7c0.7-1.4,1.8-3.5,2.4-4.6c0.2-0.5,0.7-0.7,1.2-0.7l15.8,0l8.6,0l8.6,0l17.2-0.1
			l8.6,0l4.3,0l2.9,0c0.6,0,1.2,0.3,1.5,0.9c0.6,1.2,1.7,3.2,2.4,4.5c1,1.9,2.1,3.8,3.1,5.7c1.1,1.9,2.1,3.8,3.2,5.7
			c1.1,1.9,2.2,3.8,3.3,5.6C116.5,80,115.6,78.1,114.6,76.1"/>
		<path class="st22" d="M132.9,56.6H9c-0.3,0-0.6-0.3-0.6-0.6c0-0.3,0.3-0.6,0.6-0.6h123.9c0.3,0,0.6,0.3,0.6,0.6
			C133.5,56.3,133.3,56.6,132.9,56.6"/>
		<path class="st22" d="M77.2,28.9c2-0.2,4.1-0.3,6.2-0.3l1.5,0c0,0,0.1,0,0.1,0c0,0,0.1,0,0.1,0c0.1,0,0.2,0,0.3,0.1
			c0.2,0.1,0.3,0.2,0.4,0.3c0.1,0.1,0.2,0.3,0.3,0.5c0.1,0.2,0.1,0.4,0.1,0.5l0,3c0,2,0,4,0,6l0,0.7l0,0.4l0,0.2c0,0.1,0,0.2,0,0.3
			c-0.1,0.4-0.3,0.7-0.7,0.8c-0.2,0.1-0.4,0.1-0.5,0.1l-0.4,0l-3.1,0l-12.3-0.1L63,41.2L56.9,41l6.2-0.1l6.2-0.1l12.3-0.1l3.1,0
			l0.4,0c0.1,0,0.1,0,0.2-0.1c0.1-0.1,0.2-0.2,0.2-0.3c0,0,0-0.1,0-0.1l0-0.2l0-0.4l0-0.7c0-2,0-4,0-6l0-3c0-0.1,0-0.2,0-0.3
			c0-0.1-0.1-0.1-0.1-0.2c0-0.1-0.1-0.1-0.2-0.1c0,0-0.1,0-0.1,0c0,0,0,0-0.1,0c0,0,0,0-0.1,0l-1.5,0C81.3,29.2,79.2,29.1,77.2,28.9
			"/>
	</g>
	<path class="st24" d="M117.7,42.1h12.4V27.9h-12.4V42.1z M130.9,42.8H117V27.1h13.9V42.8z"/>
	<rect x="118.3" y="28.3" class="st24" width="11.4" height="2.1"/>
	<rect x="118.3" y="39.6" class="st24" width="11.4" height="2.1"/>
	<g>
		<defs>
			<rect id="SVGID_9_" width="142" height="140"/>
		</defs>
		<clipPath id="SVGID_10_">
			<use xlink:href="#SVGID_9_"  style="overflow:visible;"/>
		</clipPath>
		<path class="st25" d="M129,31.3c-0.2,0.3-0.5,1.5-0.5,3.6s0.3,3.3,0.5,3.6c0.2-0.3,0.5-1.5,0.5-3.6S129.2,31.6,129,31.3 M129,38.9
			c-0.9,0-1-3.4-1-4.1s0-4.1,1-4.1c0.9,0,1,3.4,1,4.1S129.9,38.9,129,38.9"/>
	</g>
	<polygon class="st24" points="127.7,38.9 126.4,38.9 126.4,30.9 127.7,30.9 127.7,31.3 126.9,31.3 126.9,38.4 127.7,38.4 	"/>
	<rect x="126.6" y="34.6" class="st24" width="0.9" height="0.5"/>
	<polygon class="st24" points="123.3,38.9 122,38.9 122,30.9 123.3,30.9 123.3,31.3 122.5,31.3 122.5,38.4 123.3,38.4 	"/>
	<rect x="122.3" y="34.6" class="st24" width="0.9" height="0.5"/>
	<polygon class="st24" points="120.6,30.9 120.6,38.9 121.1,38.9 121.1,31.3 121.5,31.3 121.5,30.9 	"/>
	<g>
		<defs>
			<rect id="SVGID_11_" width="142" height="140"/>
		</defs>
		<clipPath id="SVGID_12_">
			<use xlink:href="#SVGID_11_"  style="overflow:visible;"/>
		</clipPath>
		<path class="st26" d="M124.3,31.3h0.3c0.4,0,0.7,0.3,0.8,0.6c0.1,0.7,0.3,2.4-0.4,3.1c-0.2,0.2-0.4,0.3-0.7,0.4V31.3z M124.3,38.9
			v-2.2l1.2,2.2h0.5l-1.6-3c0.4-0.1,0.7-0.2,0.9-0.5c0.8-0.9,0.7-2.6,0.5-3.5c-0.1-0.6-0.6-1-1.2-1h-0.8v8H124.3z"/>
	</g>
	<rect x="119.6" y="30.9" class="st24" width="1.3" height="0.5"/>
	<g>
		<defs>
			<rect id="SVGID_13_" width="142" height="140"/>
		</defs>
		<clipPath id="SVGID_14_">
			<use xlink:href="#SVGID_13_"  style="overflow:visible;"/>
		</clipPath>
		<path class="st27" d="M118.7,33.1c0-1.1,0.9-2.2,0.9-2.2H119c-0.3,0.4-0.8,1.3-0.8,2.2c0,0.7,0.4,1.5,0.8,2.3
			c0.3,0.7,0.6,1.3,0.6,1.7c0,0.6-0.7,1.3-1.3,1.8h0.7c0.5-0.5,1.1-1.2,1.1-1.8c0-0.5-0.3-1.2-0.6-1.9
			C119.1,34.4,118.7,33.7,118.7,33.1"/>
	</g>
	<text transform="matrix(1 0 0 1 11.6094 16.2798)"><tspan x="0" y="0" class="st28 st29 st30">TAPE</tspan><tspan x="20.8" y="0" class="st28 st29 st30 st31"> </tspan><tspan x="22.9" y="0" class="st28 st29 st30">6</tspan></text>
	<text transform="matrix(1 0 0 1 63.1851 17.0078)"><tspan x="0" y="0" class="st28 st29 st30">X</tspan><tspan x="5" y="0" class="st28 st29 st30 st31"> </tspan><tspan x="7.2" y="0" class="st28 st29 st30">X</tspan><tspan x="12.2" y="0" class="st28 st29 st30 st31"> </tspan><tspan x="14.4" y="0" class="st28 st29 st30">X</tspan><tspan x="19.4" y="0" class="st28 st29 st30 st31"> </tspan><tspan x="21.6" y="0" class="st28 st29 st30">X</tspan><tspan x="26.6" y="0" class="st28 st29 st30 st31"> </tspan><tspan x="28.7" y="0" class="st28 st29 st30">X</tspan><tspan x="33.8" y="0" class="st28 st29 st30 st31"> </tspan><tspan x="35.9" y="0" class="st28 st29 st30">X</tspan><tspan x="40.9" y="0" class="st28 st29 st30 st31"> </tspan><tspan x="43.1" y="0" class="st28 st29 st30">X</tspan></text>
	<text transform="matrix(1 0 0 1 10.9424 37.9575)" class="st32 st33 st34">C</text>
	<text transform="matrix(1 0 0 1 11.6206 43.8062)"><tspan x="0" y="0" class="st32 st35 st36">SID</tspan><tspan x="9.3" y="0" class="st32 st35 st36">E</tspan></text>
</g>
</svg>
