<?xml version="1.0" encoding="utf-8"?>
<!-- Generator: Adobe Illustrator 23.0.0, SVG Export Plug-In . SVG Version: 6.00 Build 0)  -->
<svg version="1.1" id="Ebene_1" xmlns="http://www.w3.org/2000/svg" xmlns:xlink="http://www.w3.org/1999/xlink" x="0px" y="0px"
	 viewBox="0 0 142 86" style="enable-background:new 0 0 142 86;" xml:space="preserve">
<style type="text/css">
	.st0{clip-path:url(#SVGID_2_);fill:url(#SVGID_3_);}
	.st1{clip-path:url(#SVGID_5_);fill:none;stroke:#181716;stroke-linejoin:round;stroke-miterlimit:10;}
	.st2{clip-path:url(#SVGID_5_);fill:#FFFFFF;}
	.st3{clip-path:url(#SVGID_5_);fill:#181716;}
	.st4{fill:#9C9C9C;}
	.st5{fill:#B1B2B3;}
	.st6{fill:#C5C6C6;}
	.st7{fill:#D9DADA;}
	.st8{fill:#828282;}
	.st9{clip-path:url(#SVGID_7_);fill:#212121;}
	.st10{clip-path:url(#SVGID_7_);fill:#181716;}
	.st11{clip-path:url(#SVGID_7_);fill:#FFFFFF;}
	.st12{clip-path:url(#SVGID_7_);fill:#B1B2B3;}
	.st13{clip-path:url(#SVGID_7_);fill:#565655;}
	.st14{fill:#565655;}
	.st15{clip-path:url(#SVGID_9_);fill:#181716;}
	.st16{clip-path:url(#SVGID_9_);fill:#565655;}
	.st17{clip-path:url(#SVGID_11_);fill:#181716;}
	.st18{clip-path:url(#SVGID_11_);fill:#3A3A39;}
	.st19{clip-path:url(#SVGID_11_);fill:#565655;}
	.st20{clip-path:url(#SVGID_11_);fill:#868786;}
	.st21{clip-path:url(#SVGID_11_);fill:#FFFFFF;}
	.st22{clip-path:url(#SVGID_11_);fill:#B1B2B3;}
	.st23{fill:#6E6E6E;}
	.st24{clip-path:url(#SVGID_13_);fill:#6E6E6E;}
	.st25{clip-path:url(#SVGID_15_);fill:#6E6E6E;}
	.st26{clip-path:url(#SVGID_17_);fill:#6E6E6E;}
	.st27{fill:#484847;}
	.st28{font-family:'GloriaHallelujah';}
	.st29{font-size:8px;}
	.st30{letter-spacing:-1;}
	.st31{fill:#868786;}
	.st32{font-family:'Orbitron-Black';}
	.st33{font-size:17px;}
	.st34{font-family:'TitilliumWeb-Black';}
	.st35{font-size:6px;}
</style>
<g>
	<g>
		<defs>
			<path id="SVGID_1_" d="M58.8,39.5c-0.1-0.1-0.1-0.3-0.1-0.5c0.6-1.7,0.9-3.5,0.9-5.4c0-1.8-0.3-3.6-0.9-5.2
				c-0.1-0.2,0-0.3,0.1-0.5c0.1-0.1,0.2-0.2,0.4-0.2h15.8c0.2,0,0.3,0.1,0.4,0.2c0.1,0.1,0.1,0.3,0.1,0.5c-0.6,1.7-0.9,3.5-0.9,5.2
				c0,1.8,0.3,3.6,0.9,5.4c0.1,0.2,0,0.3-0.1,0.5c-0.1,0.1-0.2,0.2-0.4,0.2H59.2C59.1,39.7,58.9,39.7,58.8,39.5 M32.6,33.4
				c0-4,3.4-7.2,7.5-7.2s7.5,3.2,7.5,7.2c0,4-3.4,7.2-7.5,7.2S32.6,37.4,32.6,33.4 M92.6,33.4c0-4,3.4-7.2,7.5-7.2
				c4.2,0,7.5,3.2,7.5,7.2c0,4-3.4,7.2-7.5,7.2C95.9,40.6,92.6,37.4,92.6,33.4 M8.6,0.5c-2.8,0-5.1,2.2-5.1,4.9v45.4H3.3
				c-1.5,0-2.8,1.2-2.8,2.7v21.2c0,1.5,1.2,2.7,2.8,2.7h0.2v0.3c0,2.7,2.3,4.9,5.1,4.9h16.5l3.9,1.8c1.7,0.8,3.7,1.2,5.6,1.2h72.5
				c1.9,0,3.9-0.4,5.6-1.2l4.1-1.8l16.6,0c2.8,0,5.1-2.2,5.1-4.9v-0.3h0.2c1.5,0,2.8-1.2,2.8-2.7V53.5c0-1.5-1.2-2.7-2.8-2.7h-0.2
				V5.4c0-2.7-2.3-4.9-5.1-4.9H8.6z"/>
		</defs>
		<clipPath id="SVGID_2_">
			<use xlink:href="#SVGID_1_"  style="overflow:visible;"/>
		</clipPath>
		
			<linearGradient id="SVGID_3_" gradientUnits="userSpaceOnUse" x1="1.0086" y1="87.0028" x2="2.0086" y2="87.0028" gradientTransform="matrix(-79.5312 -137.7521 -137.7521 79.5312 12175.7988 -6668.6279)">
			<stop  offset="0" style="stop-color:#FB8100"/>
			<stop  offset="0.978" style="stop-color:#FF48FF"/>
			<stop  offset="1" style="stop-color:#FF48FF"/>
		</linearGradient>
		<polygon class="st0" points="35.7,146.6 -36.3,21.8 106.2,-60.6 178.3,64.3 		"/>
	</g>
	<g>
		<defs>
			<rect id="SVGID_4_" width="142" height="86"/>
		</defs>
		<clipPath id="SVGID_5_">
			<use xlink:href="#SVGID_4_"  style="overflow:visible;"/>
		</clipPath>
		<path class="st1" d="M100.1,40.6c-4.2,0-7.5-3.2-7.5-7.2c0-4,3.4-7.2,7.5-7.2s7.5,3.2,7.5,7.2C107.6,37.4,104.3,40.6,100.1,40.6z
			 M58.8,39.1c0.6-1.7,0.9-3.5,0.9-5.4c0-1.8-0.3-3.6-0.9-5.2c-0.1-0.2,0-0.3,0.1-0.5c0.1-0.1,0.2-0.2,0.4-0.2h15.8
			c0.2,0,0.3,0.1,0.4,0.2s0.1,0.3,0.1,0.5c-0.6,1.7-0.9,3.5-0.9,5.2c0,1.8,0.3,3.6,0.9,5.4c0.1,0.2,0,0.3-0.1,0.5s-0.2,0.2-0.4,0.2
			H59.2c-0.2,0-0.3-0.1-0.4-0.2C58.7,39.4,58.7,39.2,58.8,39.1z M40.2,40.6c-4.2,0-7.5-3.2-7.5-7.2c0-4,3.4-7.2,7.5-7.2
			c4.2,0,7.5,3.2,7.5,7.2C47.7,37.4,44.3,40.6,40.2,40.6z M138.7,50.8h-0.2V5.4c0-2.7-2.3-4.9-5.1-4.9H8.6c-2.8,0-5.1,2.2-5.1,4.9
			v45.4H3.3c-1.5,0-2.8,1.2-2.8,2.7v21.2c0,1.5,1.2,2.7,2.8,2.7h0.2v0.3c0,2.7,2.3,4.9,5.1,4.9h16.5l3.9,1.8
			c1.7,0.8,3.7,1.2,5.6,1.2h72.5c1.9,0,3.9-0.4,5.6-1.2l4.1-1.8l16.6,0c2.8,0,5.1-2.2,5.1-4.9v-0.3h0.2c1.5,0,2.8-1.2,2.8-2.7V53.5
			C141.5,52,140.3,50.8,138.7,50.8z"/>
		<path class="st2" d="M100.1,40.1c-3.9,0-7-3-7-6.7c0-3.7,3.1-6.7,7-6.7s7,3,7,6.7C107.1,37.1,103.9,40.1,100.1,40.1 M59.2,39.2
			c0.6-1.7,0.9-3.6,0.9-5.5c0-1.9-0.3-3.7-0.9-5.4H75c-0.6,1.7-0.9,3.5-0.9,5.4c0,1.9,0.3,3.8,0.9,5.5H59.2z M40.1,40.1
			c-3.9,0-7-3-7-6.7c0-3.7,3.1-6.7,7-6.7c3.9,0,7,3,7,6.7C47.1,37.1,43.9,40.1,40.1,40.1 M127,5.9H14.9l-5.8,5.5v40.9h123.7V11.3
			L127,5.9z"/>
		<path class="st3" d="M59.7,38.9h14.9c-0.5-1.7-0.8-3.4-0.8-5.2c0-1.7,0.3-3.4,0.8-5H59.7c0.5,1.6,0.8,3.3,0.8,5
			C60.5,35.5,60.2,37.2,59.7,38.9 M75.6,39.6H58.6l0.2-0.5c0.6-1.7,0.9-3.6,0.9-5.4c0-1.8-0.3-3.6-0.9-5.3L58.7,28h16.8l-0.2,0.5
			c-0.6,1.7-0.9,3.5-0.9,5.3c0,1.9,0.3,3.7,0.9,5.4L75.6,39.6z M40.1,27.1c-3.7,0-6.7,2.8-6.7,6.3c0,3.5,3,6.3,6.7,6.3
			c3.7,0,6.7-2.8,6.7-6.3C46.7,29.9,43.7,27.1,40.1,27.1 M40.1,40.5c-4.1,0-7.4-3.2-7.4-7.1s3.3-7.1,7.4-7.1c4.1,0,7.4,3.2,7.4,7.1
			S44.1,40.5,40.1,40.5 M100.1,27.1c-3.7,0-6.7,2.8-6.7,6.3c0,3.5,3,6.3,6.7,6.3c3.7,0,6.7-2.8,6.7-6.3
			C106.7,29.9,103.7,27.1,100.1,27.1 M100.1,40.5c-4.1,0-7.4-3.2-7.4-7.1s3.3-7.1,7.4-7.1c4.1,0,7.4,3.2,7.4,7.1
			S104.1,40.5,100.1,40.5 M9.4,51.9h123V11.5l-5.6-5.3H15.1l-5.6,5.3V51.9z M133.2,52.6H8.7V11.2l6.1-5.7h112.4l6.1,5.7V52.6z"/>
	</g>
	<polygon class="st4" points="15,5.9 9.2,11.3 9.1,20.1 38.1,19.8 44.9,5.9 	"/>
	<polygon class="st5" points="40.8,19.5 47.5,5.9 45.9,5.9 39.2,19.5 	"/>
	<polygon class="st6" points="42.7,19.5 49.3,5.9 48.5,5.9 41.9,19.5 	"/>
	<polygon class="st7" points="44.3,19.5 51,5.9 50.2,5.9 43.5,19.5 	"/>
	
		<rect x="9.1" y="19.1" transform="matrix(0.9999 -1.081048e-02 1.081048e-02 0.9999 -0.2071 0.7678)" class="st8" width="123.7" height="0.9"/>
	<g>
		<defs>
			<rect id="SVGID_6_" width="142" height="86"/>
		</defs>
		<clipPath id="SVGID_7_">
			<use xlink:href="#SVGID_6_"  style="overflow:visible;"/>
		</clipPath>
		<path class="st9" d="M59.7,38.9h14.9c-0.5-1.7-0.8-3.4-0.8-5.2c0-1.7,0.3-3.4,0.8-5H59.7c0.5,1.6,0.8,3.3,0.8,5
			C60.5,35.5,60.2,37.2,59.7,38.9 M75.6,39.6H58.6l0.2-0.5c0.6-1.7,0.9-3.6,0.9-5.4c0-1.8-0.3-3.6-0.9-5.3L58.7,28h16.8l-0.2,0.5
			c-0.6,1.7-0.9,3.5-0.9,5.3c0,1.9,0.3,3.7,0.9,5.4L75.6,39.6z M40.1,27.1c-3.7,0-6.7,2.8-6.7,6.3c0,3.5,3,6.3,6.7,6.3
			c3.7,0,6.7-2.8,6.7-6.3C46.7,29.9,43.7,27.1,40.1,27.1 M40.1,40.5c-4.1,0-7.4-3.2-7.4-7.1s3.3-7.1,7.4-7.1c4.1,0,7.4,3.2,7.4,7.1
			S44.1,40.5,40.1,40.5 M100.1,27.1c-3.7,0-6.7,2.8-6.7,6.3c0,3.5,3,6.3,6.7,6.3c3.7,0,6.7-2.8,6.7-6.3
			C106.7,29.9,103.7,27.1,100.1,27.1 M100.1,40.5c-4.1,0-7.4-3.2-7.4-7.1s3.3-7.1,7.4-7.1c4.1,0,7.4,3.2,7.4,7.1
			S104.1,40.5,100.1,40.5 M9.4,51.9h123V11.5l-5.6-5.3H15.1l-5.6,5.3V51.9z M133.2,52.6H8.7V11.2l6.1-5.7h112.4l6.1,5.7V52.6z"/>
		<path class="st10" d="M40.2,27.2c-3.6,0-6.5,2.8-6.5,6.2c0,3.4,2.9,6.2,6.5,6.2c3.6,0,6.5-2.8,6.5-6.2
			C46.7,30,43.8,27.2,40.2,27.2 M40.2,40.6c-4.1,0-7.5-3.2-7.5-7.2c0-4,3.4-7.2,7.5-7.2s7.5,3.2,7.5,7.2
			C47.7,37.4,44.3,40.6,40.2,40.6"/>
		<path class="st10" d="M100.1,27.2c-3.6,0-6.5,2.8-6.5,6.2c0,3.4,2.9,6.2,6.5,6.2c3.6,0,6.5-2.8,6.5-6.2
			C106.6,30,103.7,27.2,100.1,27.2 M100.1,40.6c-4.1,0-7.5-3.2-7.5-7.2c0-4,3.4-7.2,7.5-7.2c4.1,0,7.5,3.2,7.5,7.2
			C107.6,37.4,104.2,40.6,100.1,40.6"/>
		<path class="st11" d="M137.1,5.4v72.3l-0.1-2.3l-0.1-2.3l-0.2-4.5l-0.2-9l-0.1-2.3l0-2.3l-0.1-4.5l0-9l0-9c0-3,0-6,0.1-9l0.2-9
			l0.2-4.5l0.1-2.3L137.1,5.4z"/>
		<path class="st11" d="M5.6,77.7V28.7V16.5v-6.1V7.3V5.8c0-0.3,0-0.5,0-0.8c0-0.3,0.1-0.5,0.2-0.7c0.4-0.9,1.4-1.6,2.5-1.7
			c1.1,0,2.1,0,3.2,0H18h12.8h102.6c-17.1,0.6-34.2,0.7-51.3,0.7L30.8,3.5l-6.4,0l-6.4,0l-6.4,0l-1.6,0l-0.8,0l-0.4,0l-0.2,0
			c-0.1,0-0.1,0-0.1,0C7.7,3.5,7,4,6.7,4.6C6.6,4.8,6.5,5,6.5,5.1c0,0.1,0,0.2,0,0.3l0,0.4l0,1.5l0,3.1l0,6.1l0,12.2L6.4,53.2
			c0,2,0,4.1-0.1,6.1l-0.1,3.1c0,1-0.1,2-0.1,3.1c-0.1,2-0.1,4.1-0.2,6.1C5.9,73.6,5.8,75.6,5.6,77.7"/>
		<path class="st11" d="M3.5,52.8c-0.5,0.2-1,0.7-1.2,1.2c-0.1,0.2-0.1,0.4-0.1,0.6c0,0.2,0,0.4,0,0.7v17.1L2.6,62l0.2-5.3L3,55
			l0-0.2l0-0.1l0-0.1c0-0.1,0.1-0.3,0.1-0.4c0.1-0.2,0.2-0.4,0.4-0.5V52.8z"/>
		<path class="st12" d="M10.8,77.1c0,0.9-0.8,1.7-1.8,1.7S7.3,78,7.3,77.1s0.8-1.7,1.8-1.7S10.8,76.1,10.8,77.1"/>
		<path class="st10" d="M8.6,78.1c-0.1,0-0.1,0-0.2,0c-0.2-0.1-0.3-0.3-0.2-0.5L9.2,76c0.1-0.2,0.3-0.2,0.5-0.2
			c0.2,0.1,0.3,0.3,0.2,0.5L9,77.9C8.9,78.1,8.8,78.1,8.6,78.1"/>
		<path class="st10" d="M9.9,77.7c-0.1,0-0.1,0-0.2,0L8,76.9c-0.2-0.1-0.3-0.3-0.2-0.5c0.1-0.2,0.3-0.2,0.5-0.2l1.7,0.8
			c0.2,0.1,0.3,0.3,0.2,0.5C10.2,77.7,10,77.7,9.9,77.7"/>
		<path class="st12" d="M11.4,77.6c0,1.2-1,2.1-2.2,2.1c-1.1,0-2-0.8-2.2-1.8c0.3,0.7,1.1,1.3,2,1.3c1.2,0,2.2-0.9,2.2-2.1
			c0-0.1,0-0.2,0-0.3C11.4,77,11.4,77.3,11.4,77.6"/>
		<path class="st12" d="M134.4,77.4c0,0.9-0.8,1.7-1.8,1.7c-1,0-1.8-0.8-1.8-1.7c0-0.9,0.8-1.7,1.8-1.7
			C133.6,75.7,134.4,76.4,134.4,77.4"/>
		<path class="st10" d="M131.7,78c-0.1,0-0.3-0.1-0.3-0.2c-0.1-0.2,0-0.4,0.2-0.4l1.8-0.6c0.2-0.1,0.4,0,0.5,0.2
			c0.1,0.2,0,0.4-0.2,0.4l-1.8,0.6C131.8,77.9,131.8,78,131.7,78"/>
		<path class="st10" d="M132.9,78.5c-0.1,0-0.3-0.1-0.3-0.2l-0.6-1.7c-0.1-0.2,0-0.4,0.2-0.4c0.2-0.1,0.4,0,0.5,0.2l0.6,1.7
			c0.1,0.2,0,0.4-0.2,0.4C133,78.5,133,78.5,132.9,78.5"/>
		<path class="st11" d="M135,77.9c0,1.2-1,2.1-2.2,2.1c-1.1,0-2-0.8-2.2-1.8c0.3,0.8,1.1,1.3,2,1.3c1.2,0,2.2-1,2.2-2.1
			c0-0.1,0-0.2,0-0.3C134.9,77.3,135,77.6,135,77.9"/>
		<path class="st11" d="M10.8,5.9c0,0.9-0.8,1.7-1.8,1.7S7.3,6.8,7.3,5.9c0-0.9,0.8-1.7,1.8-1.7S10.8,5,10.8,5.9"/>
		<path class="st10" d="M8.6,7c-0.1,0-0.1,0-0.2,0C8.3,6.9,8.2,6.6,8.3,6.5l0.8-1.6c0.1-0.2,0.3-0.2,0.5-0.2C9.8,4.8,9.9,5,9.8,5.2
			L9,6.8C8.9,6.9,8.8,7,8.6,7"/>
		<path class="st10" d="M9.9,6.6c-0.1,0-0.1,0-0.2,0L8,5.7C7.9,5.6,7.8,5.4,7.9,5.3C8,5.1,8.2,5,8.4,5.1l1.7,0.8
			c0.2,0.1,0.3,0.3,0.2,0.5C10.2,6.5,10,6.6,9.9,6.6"/>
		<path class="st12" d="M11.4,6.4c0,1.2-1,2.1-2.2,2.1c-1.1,0-2-0.8-2.2-1.8C7.4,7.5,8.1,8,9.1,8c1.2,0,2.2-0.9,2.2-2.1
			c0-0.1,0-0.2,0-0.3C11.4,5.8,11.4,6.1,11.4,6.4"/>
		<path class="st12" d="M134.4,6.2c0,0.9-0.8,1.7-1.8,1.7c-1,0-1.8-0.8-1.8-1.7c0-0.9,0.8-1.7,1.8-1.7
			C133.6,4.5,134.4,5.3,134.4,6.2"/>
		<path class="st10" d="M131.7,6.8c-0.1,0-0.3-0.1-0.3-0.2c-0.1-0.2,0-0.4,0.2-0.4l1.8-0.6c0.2-0.1,0.4,0,0.5,0.2
			c0.1,0.2,0,0.4-0.2,0.4l-1.8,0.6C131.8,6.8,131.8,6.8,131.7,6.8"/>
		<path class="st10" d="M132.9,7.3c-0.1,0-0.3-0.1-0.3-0.2l-0.6-1.7c-0.1-0.2,0-0.4,0.2-0.4c0.2-0.1,0.4,0,0.5,0.2l0.6,1.7
			c0.1,0.2,0,0.4-0.2,0.4C133,7.3,133,7.3,132.9,7.3"/>
		<path class="st12" d="M135,6.7c0,1.2-1,2.1-2.2,2.1c-1.1,0-2-0.8-2.2-1.8c0.3,0.8,1.1,1.3,2,1.3c1.2,0,2.2-1,2.2-2.1
			c0-0.1,0-0.2,0-0.3C134.9,6.1,135,6.4,135,6.7"/>
		<path class="st13" d="M40.2,27.2c-3.6,0-6.5,2.8-6.5,6.2c0,3.4,2.9,6.2,6.5,6.2c3.6,0,6.5-2.8,6.5-6.2
			C46.7,30,43.8,27.2,40.2,27.2 M40.2,40.6c-4.1,0-7.5-3.2-7.5-7.2c0-4,3.4-7.2,7.5-7.2s7.5,3.2,7.5,7.2
			C47.7,37.4,44.3,40.6,40.2,40.6"/>
	</g>
	<rect x="38.9" y="27.1" class="st14" width="2.6" height="2.5"/>
	<polygon class="st14" points="44.5,32.6 43.1,30.5 45.4,29.2 46.7,31.4 	"/>
	<polygon class="st14" points="43.1,36.5 44.5,34.3 46.7,35.6 45.4,37.7 	"/>
	<rect x="38.8" y="37.4" class="st14" width="2.6" height="2.5"/>
	<polygon class="st14" points="35.9,34.3 37.2,36.5 34.9,37.7 33.6,35.6 	"/>
	<polygon class="st14" points="37.2,30.5 35.9,32.6 33.6,31.4 34.9,29.2 	"/>
	<g>
		<defs>
			<rect id="SVGID_8_" width="142" height="86"/>
		</defs>
		<clipPath id="SVGID_9_">
			<use xlink:href="#SVGID_8_"  style="overflow:visible;"/>
		</clipPath>
		<path class="st15" d="M40.2,26.8c-3.8,0-6.9,3-6.9,6.6c0,3.6,3.1,6.6,6.9,6.6c3.8,0,6.9-3,6.9-6.6C47.1,29.8,44,26.8,40.2,26.8
			 M40.2,40.2c-3.9,0-7.1-3.1-7.1-6.8c0-3.8,3.2-6.8,7.1-6.8s7.1,3.1,7.1,6.8C47.3,37.2,44.1,40.2,40.2,40.2"/>
		<path class="st16" d="M100.1,27.2c-3.6,0-6.5,2.8-6.5,6.2c0,3.4,2.9,6.2,6.5,6.2c3.6,0,6.5-2.8,6.5-6.2
			C106.6,30,103.7,27.2,100.1,27.2 M100.1,40.6c-4.1,0-7.5-3.2-7.5-7.2c0-4,3.4-7.2,7.5-7.2c4.1,0,7.5,3.2,7.5,7.2
			C107.6,37.4,104.2,40.6,100.1,40.6"/>
	</g>
	<rect x="98.8" y="27.1" class="st14" width="2.6" height="2.5"/>
	<polygon class="st14" points="104.4,32.6 103.1,30.5 105.3,29.2 106.7,31.4 	"/>
	<polygon class="st14" points="103.1,36.5 104.4,34.3 106.7,35.6 105.3,37.7 	"/>
	<rect x="98.8" y="37.4" class="st14" width="2.6" height="2.5"/>
	<polygon class="st14" points="95.8,34.3 97.1,36.5 94.8,37.7 93.5,35.6 	"/>
	<polygon class="st14" points="97.1,30.5 95.8,32.6 93.5,31.4 94.8,29.2 	"/>
	<g>
		<defs>
			<rect id="SVGID_10_" width="142" height="86"/>
		</defs>
		<clipPath id="SVGID_11_">
			<use xlink:href="#SVGID_10_"  style="overflow:visible;"/>
		</clipPath>
		<path class="st17" d="M100.1,26.8c-3.8,0-6.9,3-6.9,6.6c0,3.6,3.1,6.6,6.9,6.6c3.8,0,6.9-3,6.9-6.6
			C107,29.8,103.9,26.8,100.1,26.8 M100.1,40.2c-3.9,0-7.1-3.1-7.1-6.8c0-3.8,3.2-6.8,7.1-6.8c3.9,0,7.1,3.1,7.1,6.8
			C107.2,37.2,104,40.2,100.1,40.2"/>
		<path class="st18" d="M40.2,26.8c-3.8,0-6.9,3-6.9,6.6c0,3.6,3.1,6.6,6.9,6.6c3.8,0,6.9-3,6.9-6.6C47.1,29.8,44,26.8,40.2,26.8
			 M40.2,40.2c-3.9,0-7.1-3.1-7.1-6.8c0-3.8,3.2-6.8,7.1-6.8s7.1,3.1,7.1,6.8C47.3,37.2,44.1,40.2,40.2,40.2 M100.1,26.8
			c-3.8,0-6.9,3-6.9,6.6c0,3.6,3.1,6.6,6.9,6.6c3.8,0,6.9-3,6.9-6.6C107,29.8,103.9,26.8,100.1,26.8 M100.1,40.2
			c-3.9,0-7.1-3.1-7.1-6.8c0-3.8,3.2-6.8,7.1-6.8c3.9,0,7.1,3.1,7.1,6.8C107.2,37.2,104,40.2,100.1,40.2"/>
		<path class="st19" d="M100.1,40.1c-3.9,0-7-3-7-6.7c0-3.7,3.1-6.7,7-6.7c3.9,0,7,3,7,6.7C107.1,37.1,104,40.1,100.1,40.1
			 M59.2,39.3c0.6-1.7,0.9-3.6,0.9-5.5c0-1.9-0.3-3.7-0.9-5.4h15.8c-0.6,1.7-0.9,3.5-0.9,5.4c0,1.9,0.3,3.8,0.9,5.5H59.2z
			 M40.2,40.1c-3.9,0-7-3-7-6.7c0-3.7,3.1-6.7,7-6.7c3.9,0,7,3,7,6.7C47.2,37.1,44,40.1,40.2,40.1 M111.8,22.5H30.2
			c-2.1,0-3.8,1.6-3.8,3.6v16.3c0,0.8,0.3,1.5,0.7,2.1c0.1,0.1,0.2,0.2,0.3,0.3c0.7,0.8,1.7,1.2,2.8,1.2h81.6c2.1,0,3.8-1.6,3.8-3.6
			V26.1C115.6,24.1,113.9,22.5,111.8,22.5"/>
		<path class="st20" d="M49.1,34.5c0,3.8-3.3,6.9-7.3,6.9c-1.5,0-2.8-0.4-3.9-1.1c0.7,0.2,1.5,0.3,2.3,0.3c4.2,0,7.6-3.2,7.6-7.2
			c0-1.7-0.7-3.3-1.7-4.6C47.9,30.1,49.1,32.1,49.1,34.5"/>
		<path class="st20" d="M109.4,34.5c0,3.8-3.3,6.9-7.3,6.9c-1.5,0-2.8-0.4-3.9-1.1c0.7,0.2,1.5,0.3,2.3,0.3c4.2,0,7.6-3.2,7.6-7.2
			c0-1.7-0.7-3.3-1.7-4.6C108.2,30.1,109.4,32.1,109.4,34.5"/>
		<path class="st21" d="M58.7,37.9c0-0.5,0.1-1.1,0.1-1.6c0-0.5,0.1-1.1,0.1-1.6c0-0.5,0.1-1.1,0.1-1.6c0-0.5,0-1.1,0.1-1.6
			c0.2,0.5,0.3,1.1,0.3,1.6c0.1,0.5,0.1,1.1,0,1.6c0,0.5-0.1,1.1-0.2,1.6C59.1,36.9,58.9,37.4,58.7,37.9"/>
		<path class="st21" d="M57.9,37.5c0-0.5,0-0.9,0.1-1.4l0.1-1.3l0.1-1.3c0-0.4,0.1-0.9,0.1-1.3c0.1,0.4,0.2,0.9,0.3,1.3
			c0,0.5,0.1,0.9,0,1.4c0,0.5-0.1,0.9-0.2,1.4C58.3,36.6,58.1,37,57.9,37.5"/>
		<path class="st21" d="M57.1,37c0-0.4,0-0.7,0-1.1c0-0.4,0-0.7,0-1.1c0-0.4,0.1-0.7,0.1-1.1c0-0.4,0.1-0.7,0.2-1.1
			c0.1,0.4,0.2,0.7,0.2,1.1c0,0.4,0,0.7,0,1.1c0,0.4-0.1,0.7-0.2,1.1C57.4,36.3,57.3,36.6,57.1,37"/>
		<path class="st21" d="M75.7,29.6c-0.1,0.7-0.2,1.4-0.2,2.1c0,0.7-0.1,1.4-0.1,2.1c0,0.7,0,1.4,0.1,2.1c0.1,0.7,0.1,1.4,0.2,2.1
			c-0.3-0.7-0.5-1.4-0.6-2.1c-0.1-0.7-0.2-1.4-0.2-2.2c0-0.7,0-1.5,0.2-2.2C75.3,31,75.5,30.3,75.7,29.6"/>
		<path class="st21" d="M76.8,29.8c-0.1,0.7-0.1,1.3-0.2,2c0,0.7-0.1,1.3-0.1,2c0,0.7,0,1.3,0.1,2c0.1,0.7,0.1,1.3,0.2,2
			c-0.3-0.6-0.4-1.3-0.6-2c-0.1-0.7-0.2-1.3-0.2-2c0-0.7,0-1.4,0.2-2C76.4,31.1,76.6,30.4,76.8,29.8"/>
		<path class="st21" d="M78,29.9c0,0.6-0.1,1.3-0.1,1.9c0,0.6-0.1,1.2,0,1.9c0,0.6,0,1.2,0.1,1.9c0,0.6,0.1,1.2,0.2,1.9
			c-0.3-0.6-0.4-1.2-0.5-1.8c-0.1-0.6-0.2-1.3-0.2-1.9c0-0.6,0-1.3,0.2-1.9C77.6,31.1,77.7,30.5,78,29.9"/>
		<path class="st21" d="M79.1,30.1L79,31.8c0,0.6,0,1.1,0,1.7c0,0.6,0,1.1,0,1.7l0.1,1.7c-0.2-0.5-0.4-1.1-0.5-1.7
			c-0.1-0.6-0.2-1.2-0.2-1.8c0-0.6,0-1.2,0.1-1.8C78.7,31.2,78.8,30.6,79.1,30.1"/>
		<path class="st21" d="M80.2,30.3c0,0.5,0,1.1-0.1,1.6c0,0.5,0,1.1,0,1.6c0,0.5,0,1.1,0,1.6c0,0.5,0.1,1.1,0.1,1.6
			c-0.2-0.5-0.4-1-0.4-1.6c-0.1-0.5-0.1-1.1-0.1-1.6c0-0.5,0-1.1,0.1-1.6C79.8,31.3,80,30.8,80.2,30.3"/>
		<path class="st21" d="M81.3,30.4c0,0.5,0,1,0,1.5c0,0.5,0,1,0,1.4c0,0.5,0,1,0,1.4c0,0.5,0,1,0,1.5c-0.2-0.5-0.3-0.9-0.4-1.4
			c-0.1-0.5-0.1-1-0.1-1.5c0-0.5,0-1,0.1-1.5S81.1,30.9,81.3,30.4"/>
		<path class="st21" d="M82.4,30.6c0,0.5,0,0.9,0,1.3l0,1.3l0,1.3c0,0.4,0,0.9,0,1.3c-0.2-0.4-0.3-0.9-0.4-1.3
			c-0.1-0.4-0.1-0.9-0.1-1.3c0-0.4,0-0.9,0.1-1.3C82.1,31.5,82.2,31,82.4,30.6"/>
		<path class="st21" d="M83.5,30.8c0,0.4,0,0.8,0,1.2l0,1.2l0,1.2c0,0.4,0,0.8-0.1,1.2c-0.2-0.4-0.3-0.8-0.3-1.2
			c-0.1-0.4-0.1-0.8-0.1-1.2c0-0.4,0-0.8,0.1-1.2S83.4,31.1,83.5,30.8"/>
		<path class="st21" d="M84.6,30.9c0.1,0.4,0.1,0.7,0.1,1.1c0,0.4,0,0.7,0,1c0,0.3,0,0.7,0,1c0,0.3,0,0.7-0.1,1.1
			c-0.1-0.3-0.2-0.7-0.3-1c-0.1-0.4-0.1-0.7-0.1-1.1c0-0.4,0-0.7,0.1-1.1C84.4,31.6,84.5,31.3,84.6,30.9"/>
		<path class="st22" d="M72.6,61.8c0,0.9-0.8,1.7-1.8,1.7c-1,0-1.8-0.8-1.8-1.7c0-0.9,0.8-1.7,1.8-1.7
			C71.8,60.1,72.6,60.9,72.6,61.8"/>
		<path class="st17" d="M71.7,62.5c0,0-0.1,0-0.1,0l-1.7-0.7c-0.2-0.1-0.3-0.3-0.2-0.5c0.1-0.2,0.3-0.3,0.5-0.2l1.7,0.7
			c0.2,0.1,0.3,0.3,0.2,0.5C72,62.4,71.8,62.5,71.7,62.5"/>
		<path class="st17" d="M70.4,62.9c0,0-0.1,0-0.1,0c-0.2-0.1-0.3-0.3-0.2-0.5l0.8-1.7c0.1-0.2,0.3-0.3,0.5-0.2
			c0.2,0.1,0.3,0.3,0.2,0.5l-0.8,1.7C70.7,62.8,70.6,62.9,70.4,62.9"/>
		<path class="st22" d="M73.2,62.3c0,1.2-1,2.1-2.2,2.1c-1.1,0-2-0.8-2.2-1.8c0.3,0.7,1.1,1.3,2,1.3c1.2,0,2.2-0.9,2.2-2.1
			c0-0.1,0-0.2,0-0.3C73.1,61.7,73.2,62,73.2,62.3"/>
		<path class="st21" d="M51.8,75.4h-2.3c-0.8,0-1.4-0.6-1.4-1.3v-3c0-0.7,0.6-1.3,1.4-1.3h2.3c0.8,0,1.4,0.6,1.4,1.3v3
			C53.3,74.8,52.6,75.4,51.8,75.4"/>
		<path class="st21" d="M55.2,71.6v3.1c0,1.3-1.1,2.3-2.4,2.3h-2.3c-0.6,0-1.2-0.2-1.7-0.6c0.2,0.1,0.4,0.1,0.7,0.1h2.3
			c1.3,0,2.4-1,2.4-2.3V71c0-0.7-0.3-1.2-0.7-1.7C54.5,69.7,55.2,70.5,55.2,71.6"/>
		<path class="st21" d="M90.5,75.4h-2.3c-0.8,0-1.4-0.6-1.4-1.3v-3c0-0.7,0.6-1.3,1.4-1.3h2.3c0.8,0,1.4,0.6,1.4,1.3v3
			C91.9,74.8,91.3,75.4,90.5,75.4"/>
		<path class="st21" d="M93.8,71.6v3.1c0,1.3-1.1,2.3-2.4,2.3h-2.3c-0.6,0-1.2-0.2-1.7-0.6c0.2,0.1,0.4,0.1,0.7,0.1h2.3
			c1.3,0,2.4-1,2.4-2.3V71c0-0.7-0.3-1.2-0.7-1.7C93.1,69.7,93.8,70.5,93.8,71.6"/>
		<path class="st21" d="M73.9,77.7h-6.2c-0.7,0-1.2-0.5-1.2-1.1v-2.4c0-0.6,0.5-1.1,1.2-1.1h6.2c0.7,0,1.2,0.5,1.2,1.1v2.4
			C75.1,77.2,74.6,77.7,73.9,77.7"/>
		<path class="st21" d="M77.3,74.6V77c0,1.3-1.1,2.3-2.4,2.3h-6.2c-0.5,0-1-0.2-1.4-0.4c0.1,0,0.3,0,0.4,0h6.2c1.3,0,2.4-1,2.4-2.3
			v-2.3c0-0.8-0.4-1.4-1-1.9C76.5,72.5,77.3,73.5,77.3,74.6"/>
		<path class="st21" d="M39.1,73.2c0,1.2-1,2.1-2.2,2.1c-1.2,0-2.2-0.9-2.2-2.1s1-2.1,2.2-2.1C38.1,71.1,39.1,72.1,39.1,73.2"/>
		<path class="st21" d="M40.5,73.9c0,1.6-1.4,2.9-3,2.9c-1.1,0-2.1-0.6-2.6-1.5c0.6,0.5,1.3,0.9,2.2,0.9c1.7,0,3.1-1.3,3.1-2.9
			c0-0.5-0.1-1-0.4-1.4C40.1,72.3,40.5,73.1,40.5,73.9"/>
		<path class="st21" d="M106,73.2c0,1.2-1,2.1-2.2,2.1c-1.2,0-2.2-0.9-2.2-2.1s1-2.1,2.2-2.1C105,71.1,106,72.1,106,73.2"/>
		<path class="st21" d="M107.3,73.9c0,1.6-1.4,2.9-3,2.9c-1.1,0-2.1-0.6-2.6-1.5c0.6,0.5,1.3,0.9,2.2,0.9c1.7,0,3.1-1.3,3.1-2.9
			c0-0.5-0.1-1-0.4-1.4C107,72.3,107.3,73.1,107.3,73.9"/>
		<path class="st21" d="M58.9,80.2c0.2-1.4,0.4-2.7,0.7-4c0.3-1.3,0.6-2.6,1-3.9l0.1-0.5c0.1-0.2,0.2-0.4,0.3-0.6
			c0.2-0.4,0.6-0.7,1-0.9c0.2-0.1,0.4-0.2,0.7-0.2c0.1,0,0.2,0,0.4-0.1c0.1,0,0.1,0,0.2,0c0.1,0,0.1,0,0.2,0l1.1,0
			c1.4,0,2.8,0,4.3,0c2.8,0,5.7,0.1,8.5,0.2c1.4,0.1,2.8,0.1,4.3,0.2l1.1,0.1l0.3,0c0.1,0,0.2,0,0.3,0.1c0.2,0.1,0.4,0.2,0.5,0.3
			c0.1,0.1,0.1,0.1,0.2,0.2l0.1,0.2l0.3,0.4l0.5,0.9l-0.6-0.8l-0.3-0.4l-0.2-0.2c0-0.1-0.1-0.1-0.2-0.2c-0.1-0.1-0.3-0.2-0.4-0.2
			c-0.1,0-0.1,0-0.2,0l-0.3,0l-1.1,0.1c-1.4,0.1-2.8,0.1-4.3,0.2c-2.8,0.1-5.7,0.2-8.5,0.2c-1.4,0-2.8,0-4.3,0l-1.1,0
			c-0.1,0-0.1,0-0.1,0c0,0-0.1,0-0.1,0c-0.1,0-0.1,0-0.2,0c-0.1,0-0.2,0.1-0.3,0.1c-0.2,0.1-0.4,0.3-0.5,0.4
			c-0.1,0.1-0.1,0.2-0.1,0.3l-0.2,0.5c-0.4,1.3-0.9,2.6-1.4,3.8C60,77.7,59.5,79,58.9,80.2"/>
		<path class="st21" d="M114.6,74.5c-0.9-1.9-1.9-3.8-2.9-5.7c-1-1.9-1.9-3.8-2.9-5.7c-0.7-1.3-2-3.8-2.7-5.1
			c-0.3-0.5-0.9-0.9-1.5-0.9l-3.7,0l-4.3,0l-8.6,0l-17.2-0.1l-8.6,0l-8.6,0l-16.9,0c-0.5,0-1,0.3-1.2,0.7c-0.7,1.3-2.1,4-2.9,5.4
			l-3,5.6l-3,5.6l-3,5.7h1.6l2.7-5l3.1-5.6l3.1-5.6c0.7-1.3,1.8-3.4,2.4-4.5c0.2-0.4,0.7-0.7,1.2-0.7l15.8,0l8.6,0l8.6,0l17.2-0.1
			l8.6,0l4.3,0l2.9,0c0.6,0,1.2,0.3,1.5,0.9c0.6,1.1,1.7,3.1,2.4,4.4c1,1.9,2.1,3.7,3.1,5.6c1.1,1.9,2.1,3.7,3.2,5.6
			c1.1,1.8,2.2,3.7,3.3,5.5C116.5,78.3,115.5,76.4,114.6,74.5"/>
		<path class="st21" d="M132.9,55.4H9.1c-0.3,0-0.6-0.3-0.6-0.6s0.3-0.6,0.6-0.6h123.9c0.3,0,0.6,0.3,0.6,0.6S133.3,55.4,132.9,55.4
			"/>
		<path class="st21" d="M77.2,28.3c2-0.2,4.1-0.3,6.1-0.3l1.5,0c0,0,0.1,0,0.1,0c0,0,0.1,0,0.1,0c0.1,0,0.2,0,0.3,0.1
			c0.2,0.1,0.3,0.2,0.4,0.3c0.1,0.1,0.2,0.3,0.3,0.4c0.1,0.2,0.1,0.4,0.1,0.5l0,2.9c0,2,0,3.9,0,5.9l0,0.7l0,0.4l0,0.2
			c0,0.1,0,0.2,0,0.3c-0.1,0.3-0.3,0.7-0.7,0.8c-0.2,0.1-0.4,0.1-0.5,0.1l-0.4,0l-3.1,0l-12.3-0.1L63,40.3l-6.1-0.1L63,40l6.1-0.1
			l12.3-0.1l3.1,0l0.4,0c0.1,0,0.1,0,0.2-0.1c0.1-0.1,0.2-0.2,0.2-0.3c0,0,0-0.1,0-0.1l0-0.2l0-0.4l0-0.7c0-2,0-3.9,0-5.9l0-2.9
			c0-0.1,0-0.2,0-0.3c0-0.1-0.1-0.1-0.1-0.2c0-0.1-0.1-0.1-0.2-0.1c0,0-0.1,0-0.1,0c0,0,0,0-0.1,0c0,0,0,0-0.1,0l-1.5,0
			C81.3,28.6,79.2,28.5,77.2,28.3"/>
	</g>
	<path class="st23" d="M117.7,41.2h12.4V27.3h-12.4V41.2z M130.9,41.9H117V26.6h13.9V41.9z"/>
	<rect x="118.3" y="27.7" class="st23" width="11.4" height="2"/>
	<rect x="118.3" y="38.8" class="st23" width="11.4" height="2"/>
	<g>
		<defs>
			<rect id="SVGID_12_" width="142" height="86"/>
		</defs>
		<clipPath id="SVGID_13_">
			<use xlink:href="#SVGID_12_"  style="overflow:visible;"/>
		</clipPath>
		<path class="st24" d="M129,30.6c-0.2,0.3-0.5,1.4-0.5,3.5c0,2,0.3,3.2,0.5,3.5c0.2-0.3,0.5-1.4,0.5-3.5
			C129.5,32.1,129.2,30.9,129,30.6 M129,38.1c-0.9,0-1-3.3-1-4c0-0.7,0-4,1-4c0.9,0,1,3.3,1,4C129.9,34.8,129.9,38.1,129,38.1"/>
	</g>
	<polygon class="st23" points="127.7,38.1 126.4,38.1 126.4,30.2 127.7,30.2 127.7,30.7 126.9,30.7 126.9,37.6 127.7,37.6 	"/>
	<rect x="126.6" y="33.9" class="st23" width="0.9" height="0.5"/>
	<polygon class="st23" points="123.3,38.1 122,38.1 122,30.2 123.3,30.2 123.3,30.7 122.5,30.7 122.5,37.6 123.3,37.6 	"/>
	<rect x="122.2" y="33.9" class="st23" width="0.9" height="0.5"/>
	<polygon class="st23" points="120.6,30.2 120.6,38.1 121.1,38.1 121.1,30.7 121.5,30.7 121.5,30.2 	"/>
	<g>
		<defs>
			<rect id="SVGID_14_" width="142" height="86"/>
		</defs>
		<clipPath id="SVGID_15_">
			<use xlink:href="#SVGID_14_"  style="overflow:visible;"/>
		</clipPath>
		<path class="st25" d="M124.3,30.7h0.3c0.4,0,0.7,0.3,0.8,0.6c0.1,0.7,0.3,2.3-0.4,3.1c-0.2,0.2-0.4,0.3-0.7,0.3V30.7z M124.3,38.1
			v-2.2l1.2,2.2h0.5l-1.6-2.9c0.4-0.1,0.7-0.2,0.9-0.5c0.8-0.8,0.7-2.5,0.5-3.4c-0.1-0.6-0.6-1-1.2-1h-0.8v7.8H124.3z"/>
	</g>
	<rect x="119.6" y="30.2" class="st23" width="1.3" height="0.5"/>
	<g>
		<defs>
			<rect id="SVGID_16_" width="142" height="86"/>
		</defs>
		<clipPath id="SVGID_17_">
			<use xlink:href="#SVGID_16_"  style="overflow:visible;"/>
		</clipPath>
		<path class="st26" d="M118.7,32.4c0-1.1,0.9-2.1,0.9-2.1H119c-0.3,0.4-0.8,1.2-0.8,2.2c0,0.7,0.4,1.5,0.8,2.3
			c0.3,0.7,0.6,1.3,0.6,1.7c0,0.5-0.7,1.3-1.3,1.7h0.7c0.5-0.5,1-1.1,1-1.7c0-0.5-0.3-1.2-0.6-1.9C119.1,33.7,118.7,33,118.7,32.4"
			/>
	</g>
	<text transform="matrix(1 0 0 1 11.04 16.1523)"><tspan x="0" y="0" class="st27 st28 st29">TAPE</tspan><tspan x="20.8" y="0" class="st27 st28 st29 st30"> </tspan><tspan x="22.9" y="0" class="st27 st28 st29">4</tspan></text>
	<text transform="matrix(1 0 0 1 10.8379 37.3911)" class="st31 st32 st33">A</text>
	<text transform="matrix(1 0 0 1 11.6348 42.9824)"><tspan x="0" y="0" class="st31 st34 st35">SID</tspan><tspan x="9.3" y="0" class="st31 st34 st35">E</tspan></text>
	<text transform="matrix(1 0 0 1 51.2539 16.1523)"><tspan x="0" y="0" class="st27 st28 st29">VERMIN</tspan><tspan x="34" y="0" class="st27 st28 st29 st30"> </tspan><tspan x="36.1" y="0" class="st27 st28 st29">WIPEO</tspan><tspan x="63.1" y="0" class="st27 st28 st29">U</tspan><tspan x="68" y="0" class="st27 st28 st29">T</tspan></text>
</g>
</svg>
